<svg width="61" height="60" viewBox="0 0 61 60" fill="none" xmlns="http://www.w3.org/2000/svg">
<path d="M20.8787 4.08998H37.1525L20.2587 54.1444C20.0851 54.6587 19.7545 55.1056 19.3136 55.4223C18.8726 55.7389 18.3435 55.9092 17.8006 55.9094H5.1356C4.7243 55.9094 4.31889 55.8115 3.95292 55.6238C3.58695 55.4361 3.27094 55.1639 3.03103 54.8298C2.79112 54.4957 2.6342 54.1093 2.57327 53.7025C2.51233 53.2958 2.54912 52.8803 2.6806 52.4906L18.42 5.85498C18.5935 5.34042 18.9241 4.89327 19.3652 4.57653C19.8063 4.25978 20.3357 4.08939 20.8787 4.08936V4.08998Z" fill="url(#paint0_linear_1885_32832)"/>
<path d="M44.5269 37.6631H18.7206C18.4807 37.6628 18.2462 37.7348 18.0478 37.8697C17.8494 38.0046 17.6962 38.1961 17.6082 38.4193C17.5202 38.6425 17.5014 38.887 17.5543 39.121C17.6073 39.355 17.7295 39.5676 17.905 39.7312L34.4875 55.2087C34.9703 55.6591 35.606 55.9095 36.2662 55.9093H50.8787L44.5269 37.6631Z" fill="#0078D4"/>
<path d="M20.8788 4.08998C20.3299 4.08788 19.7946 4.26136 19.3512 4.58508C18.9079 4.90881 18.5796 5.36582 18.4145 5.88936L2.70009 52.4481C2.55976 52.8393 2.51571 53.2584 2.57165 53.6702C2.62759 54.082 2.78189 54.4742 3.02148 54.8137C3.26107 55.1533 3.57892 55.4301 3.94812 55.6208C4.31733 55.8115 4.72704 55.9105 5.14259 55.9094H18.1345C18.6183 55.8229 19.0706 55.6096 19.445 55.2911C19.8195 54.9727 20.1027 54.5606 20.2657 54.0969L23.3995 44.8612L34.5932 55.3019C35.0623 55.6899 35.6507 55.9044 36.2595 55.9094H50.8176L44.4326 37.6631L25.8195 37.6675L37.2113 4.08998H20.8788Z" fill="url(#paint1_linear_1885_32832)"/>
<path d="M41.6644 5.85247C41.4911 5.33874 41.1609 4.89233 40.7205 4.57614C40.2801 4.25995 39.7516 4.0899 39.2094 4.08997H21.0725C21.6147 4.09 22.1432 4.26008 22.5836 4.57626C23.024 4.89244 23.3541 5.33879 23.5275 5.85247L39.2675 52.49C39.3991 52.8798 39.436 53.2953 39.3751 53.7022C39.3142 54.109 39.1573 54.4956 38.9174 54.8298C38.6775 55.164 38.3615 55.4363 37.9954 55.6241C37.6294 55.812 37.2239 55.9099 36.8125 55.91H54.95C55.3614 55.9098 55.7668 55.8118 56.1327 55.6239C56.4987 55.436 56.8146 55.1637 57.0545 54.8295C57.2943 54.4953 57.4511 54.1088 57.512 53.702C57.5728 53.2952 57.5359 52.8797 57.4044 52.49L41.6644 5.85247Z" fill="url(#paint2_linear_1885_32832)"/>
<defs>
<linearGradient id="paint0_linear_1885_32832" x1="26.81" y1="7.92998" x2="9.90935" y2="57.8587" gradientUnits="userSpaceOnUse">
<stop stop-color="#114A8B"/>
<stop offset="1" stop-color="#0669BC"/>
</linearGradient>
<linearGradient id="paint1_linear_1885_32832" x1="32.0895" y1="31.1981" x2="28.1801" y2="32.52" gradientUnits="userSpaceOnUse">
<stop stop-opacity="0.3"/>
<stop offset="0.071" stop-opacity="0.2"/>
<stop offset="0.321" stop-opacity="0.1"/>
<stop offset="0.623" stop-opacity="0.05"/>
<stop offset="1" stop-opacity="0"/>
</linearGradient>
<linearGradient id="paint2_linear_1885_32832" x1="29.9394" y1="6.47372" x2="48.4913" y2="55.8993" gradientUnits="userSpaceOnUse">
<stop stop-color="#3CCBF4"/>
<stop offset="1" stop-color="#2892DF"/>
</linearGradient>
</defs>
</svg>
