<svg width="53" height="60" viewBox="0 0 53 60" fill="none" xmlns="http://www.w3.org/2000/svg">
<g clip-path="url(#clip0_1885_32695)">
<path d="M50.9413 34.0329H38.4954C37.6836 34.0238 36.9891 34.6141 36.8674 35.4167C36.1605 40.4746 31.8322 44.2367 26.7251 44.2322L30.095 59.6248C42.3043 58.0297 51.7015 48.0573 52.5693 35.7749C52.601 35.3237 52.4435 34.8797 52.1347 34.5493C51.8259 34.2189 51.3936 34.0318 50.9413 34.0329Z" fill="#2684FF"/>
<path d="M29.4031 33.6423L47.3109 18.2497C47.6613 17.9407 47.8621 17.496 47.8621 17.0287C47.8621 16.5615 47.6613 16.1168 47.3109 15.8078L29.4031 0.390776C28.9199 -0.0170695 28.2443 -0.108235 27.6703 0.156961C27.0963 0.422157 26.7277 0.995737 26.7251 1.62804V32.405C26.7277 33.0373 27.0963 33.6109 27.6703 33.8761C28.2443 34.1413 28.9199 34.0501 29.4031 33.6423Z" fill="#2684FF"/>
<path d="M1.07617 37.3947C2.78895 50.2535 13.7527 59.8602 26.725 59.869V44.2323C21.0881 44.2323 16.5148 39.6698 16.5013 34.033L1.07617 37.3947Z" fill="url(#paint0_linear_1885_32695)"/>
<path d="M0.832031 33.7888V34.033H16.5013C16.5148 28.3962 21.0882 23.8337 26.7251 23.8337L23.3633 8.44116C10.5912 10.1054 0.987411 20.9096 0.832031 33.7888Z" fill="url(#paint1_linear_1885_32695)"/>
</g>
<defs>
<linearGradient id="paint0_linear_1885_32695" x1="13.9047" y1="8.63646" x2="13.9047" y2="43.9067" gradientUnits="userSpaceOnUse">
<stop stop-color="#0052CC"/>
<stop offset="1" stop-color="#2684FF"/>
</linearGradient>
<linearGradient id="paint1_linear_1885_32695" x1="13.7826" y1="8.63652" x2="13.7826" y2="43.9067" gradientUnits="userSpaceOnUse">
<stop stop-color="#0052CC"/>
<stop offset="1" stop-color="#2684FF"/>
</linearGradient>
<clipPath id="clip0_1885_32695">
<rect width="51.8919" height="60" fill="white" transform="translate(0.832031)"/>
</clipPath>
</defs>
</svg>
