<svg width="60" height="60" viewBox="0 0 60 60" fill="none" xmlns="http://www.w3.org/2000/svg">
<g clip-path="url(#clip0_1885_32852)">
<path fill-rule="evenodd" clip-rule="evenodd" d="M60 30C60 46.569 46.569 60 30 60C13.4316 60 0 46.569 0 30C0 13.4316 13.4316 0 30 0C46.569 0 60 13.4316 60 30Z" fill="#ECB360"/>
<path fill-rule="evenodd" clip-rule="evenodd" d="M51.9999 27C51.9999 41.9116 40.3587 54 26 54C11.6407 54 0 41.9116 0 27C0 12.0884 11.6407 0 26 0C40.3587 0 51.9999 12.0884 51.9999 27Z" fill="#D76835"/>
<path fill-rule="evenodd" clip-rule="evenodd" d="M53.9995 23.9997C53.9995 37.2548 43.7022 48 30.9988 48C18.2971 48 7.99963 37.2548 7.99963 23.9997C7.99963 10.7452 18.2971 0 30.9988 0C43.7022 0 53.9995 10.7452 53.9995 23.9997Z" fill="#D33A41"/>
<path fill-rule="evenodd" clip-rule="evenodd" d="M52.0003 26.0003C52.0003 38.15 42.5979 48 30.9999 48C19.402 48 10.0002 38.15 10.0002 26.0003C10.0002 13.8495 19.402 4 30.9999 4C42.5979 4 52.0003 13.8495 52.0003 26.0003Z" fill="#B6CB46"/>
<path fill-rule="evenodd" clip-rule="evenodd" d="M50.0001 27.9997C50.0001 39.0455 41.0457 48 30 48C18.9548 48 10.0002 39.0455 10.0002 27.9997C10.0002 16.954 18.9548 8 30 8C41.0457 8 50.0001 16.954 50.0001 27.9997Z" fill="#66AD4A"/>
<path fill-rule="evenodd" clip-rule="evenodd" d="M42.0002 24C42.0002 32.8365 34.8368 40 26.0002 40C17.1632 40 10.0002 32.8365 10.0002 24C10.0002 15.1634 17.1632 8 26.0002 8C34.8368 8 42.0002 15.1634 42.0002 24Z" fill="#AED7DC"/>
<path fill-rule="evenodd" clip-rule="evenodd" d="M44.0001 22C44.0001 29.7317 37.7324 36 30 36C22.2675 36 16.0002 29.7317 16.0002 22C16.0002 14.2677 22.2675 8 30 8C37.7324 8 44.0001 14.2677 44.0001 22Z" fill="#5BB1CF"/>
<path fill-rule="evenodd" clip-rule="evenodd" d="M43.9998 22.9997C43.9998 30.1794 38.6274 36 31.9998 36C25.3722 36 19.9998 30.1794 19.9998 22.9997C19.9998 15.8206 25.3722 10 31.9998 10C38.6274 10 43.9998 15.8206 43.9998 22.9997Z" fill="#25A8C3"/>
<path fill-rule="evenodd" clip-rule="evenodd" d="M29.9995 36C24.4771 36 19.9998 31.0749 19.9998 24.9997C19.9998 18.9245 24.4771 14 29.9995 14C35.5224 14 39.9998 18.9245 39.9998 24.9997C39.9998 31.0749 35.5224 36 29.9995 36Z" fill="#1B1A18"/>
<path fill-rule="evenodd" clip-rule="evenodd" d="M35.4564 21.8282C34.5051 23.4197 32.6346 24.3401 31.278 23.8826C29.9213 23.4257 29.5929 21.7643 30.5436 20.1722C31.4949 18.5801 33.3654 17.6603 34.722 18.1172C36.0787 18.5741 36.4071 20.2355 35.4564 21.8282Z" fill="white"/>
</g>
<defs>
<clipPath id="clip0_1885_32852">
<rect width="60" height="60" rx="4" fill="white"/>
</clipPath>
</defs>
</svg>
