<svg width="323" height="186" viewBox="0 0 323 186" fill="none" xmlns="http://www.w3.org/2000/svg">
<path d="M292.785 150.333V5C292.785 2.79086 290.994 1 288.785 1H281.285H258.285H246.785H204.785C202.576 1 200.785 2.79086 200.785 5V150.333C200.785 152.542 202.576 154.333 204.785 154.333H288.785C290.994 154.333 292.785 152.542 292.785 150.333Z" fill="white" stroke="#787878"/>
<rect x="207.868" y="18.037" width="73.1837" height="13.6296" rx="6.81481" fill="#DADDC6"/>
<path d="M274.228 25.5833H273.899L273.783 25.4708C274.191 24.9958 274.437 24.3792 274.437 23.7083C274.437 22.2125 273.224 21 271.728 21C270.233 21 269.02 22.2125 269.02 23.7083C269.02 25.2042 270.233 26.4167 271.728 26.4167C272.399 26.4167 273.016 26.1708 273.491 25.7625L273.603 25.8792V26.2083L275.687 28.2875L276.308 27.6667L274.228 25.5833V25.5833ZM271.728 25.5833C270.691 25.5833 269.853 24.7458 269.853 23.7083C269.853 22.6708 270.691 21.8333 271.728 21.8333C272.766 21.8333 273.603 22.6708 273.603 23.7083C273.603 24.7458 272.766 25.5833 271.728 25.5833Z" fill="#8E9466"/>
<rect x="247.868" y="40.1851" width="39.1447" height="40.8889" rx="8" fill="#C7D8CE"/>
<rect x="247.868" y="89.5926" width="39.1447" height="40.8889" rx="8" fill="#C7D8CE"/>
<path d="M226.039 1H269.333V8.01961C269.333 9.12417 268.438 10.0196 267.333 10.0196H228.039C226.935 10.0196 226.039 9.12418 226.039 8.01961V1Z" fill="#BB9FB5"/>
<path d="M269.28 171.45V26.6471C269.28 24.4379 267.489 22.6471 265.28 22.6471H242.221H188.103H161.044H56.8091C54.5999 22.6471 52.8091 24.4379 52.8091 26.6471V171.45C52.8091 173.659 54.5999 175.45 56.8091 175.45H265.28C267.489 175.45 269.28 173.659 269.28 171.45Z" fill="white" stroke="#787878"/>
<ellipse cx="70.7073" cy="38.6907" rx="5.68724" ry="5.69072" fill="#A3A3A3"/>
<ellipse cx="89.6643" cy="38.6907" rx="5.68724" ry="5.69072" fill="#CCCCCC"/>
<ellipse cx="108.622" cy="38.6907" rx="5.68724" ry="5.69072" fill="#DDDDDD"/>
<path d="M24 172.373C24 179.346 29.6535 185 36.6274 185H285.569C292.543 185 298.196 179.346 298.196 172.373V172.373H24V172.373Z" fill="#787878"/>
<path d="M213.279 99.8029L217.402 99.906C217.402 99.906 217.402 99.906 217.402 100.009L212.764 105.988C212.867 105.988 212.867 106.091 212.97 106.091L219.052 101.658C219.567 101.865 220.186 102.071 220.701 102.174L222.556 105.988L222.659 101.761C223.175 101.555 223.484 101.246 223.896 100.731L226.061 101.452L224.515 99.6998C224.721 99.1844 224.927 98.669 224.927 98.2567L228.638 96.4012L224.412 96.2982C224.412 96.2982 224.412 96.2982 224.412 96.1951L229.566 89.2886L222.763 94.5458C222.247 94.3396 221.629 94.1334 221.113 94.0304L219.258 90.2164L219.155 94.4427C218.639 94.6489 218.33 94.9581 217.918 95.4735L215.753 94.7519L217.299 96.5043C217.093 97.0197 216.887 97.5351 216.887 97.9475L213.279 99.8029ZM223.793 96.9166C223.896 97.1228 223.896 97.329 224 97.5351C224.206 98.9783 223.587 100.318 222.453 101.143C222.041 101.349 221.835 101.555 221.319 101.555C221.113 101.555 220.804 101.658 220.598 101.658C220.495 101.658 220.392 101.658 220.082 101.658C219.876 101.658 219.464 101.555 219.258 101.452L221.629 99.4937L223.793 96.9166ZM220.186 94.9581C220.392 94.9581 220.701 94.855 220.907 94.855C221.01 94.855 221.113 94.855 221.422 94.855C221.629 94.855 222.041 94.9581 222.247 95.0612L219.876 97.0197L217.918 99.4937C217.815 99.2875 217.815 99.0813 217.712 98.8752C217.196 97.0197 218.433 95.2673 220.186 94.9581Z" fill="#68937A"/>
<path fill-rule="evenodd" clip-rule="evenodd" d="M220.881 115.059C230.346 115.059 238.019 107.386 238.019 97.9216C238.019 88.4569 230.346 80.7843 220.881 80.7843C211.417 80.7843 203.744 88.4569 203.744 97.9216C203.744 107.386 211.417 115.059 220.881 115.059ZM220.882 111.451C228.354 111.451 234.411 105.394 234.411 97.9216C234.411 90.4495 228.354 84.3921 220.882 84.3921C213.409 84.3921 207.352 90.4495 207.352 97.9216C207.352 105.394 213.409 111.451 220.882 111.451Z" fill="#6E8A7A"/>
<path d="M181.704 104.813C185.012 104.813 187.694 102.131 187.694 98.8235C187.694 95.5156 185.012 92.8339 181.704 92.8339C178.396 92.8339 175.715 95.5156 175.715 98.8235C175.715 102.131 178.396 104.813 181.704 104.813Z" fill="#567C66"/>
<path d="M173.788 97.0909C174.584 93.4524 177.831 90.72 181.705 90.72H197.831C196.976 89.0213 195.844 87.4519 194.46 86.0678C191.053 82.6607 186.523 80.7843 181.705 80.7843C176.886 80.7843 172.356 82.6607 168.949 86.0678C168.621 86.3955 168.308 86.7337 168.009 87.0814L173.788 97.0909Z" fill="#6E8A7A"/>
<path d="M184.162 106.546C183.386 106.793 182.561 106.927 181.704 106.927C178.694 106.927 176.062 105.277 174.665 102.834C174.655 102.819 174.645 102.804 174.636 102.788L166.625 88.9133C164.7 91.8306 163.665 95.2475 163.665 98.8236C163.665 103.642 165.541 108.172 168.949 111.579C171.559 114.19 174.828 115.9 178.381 116.558L184.162 106.546Z" fill="#70A386"/>
<path d="M187.157 92.8339C188.785 94.3171 189.808 96.4531 189.808 98.8235C189.808 100.314 189.403 101.712 188.698 102.914C188.691 102.927 188.685 102.941 188.677 102.955L180.665 116.832C181.01 116.852 181.357 116.863 181.705 116.863C186.523 116.863 191.053 114.986 194.461 111.579C197.868 108.172 199.744 103.642 199.744 98.8235C199.744 96.7514 199.396 94.733 198.73 92.8339H187.157Z" fill="#588269"/>
<path fill-rule="evenodd" clip-rule="evenodd" d="M159.283 92.6999C159.144 92.6785 159.007 92.7529 158.949 92.8815L158.519 93.8329C158.356 92.5823 158.053 90.5694 157.653 89.2496C157.044 87.2173 155.753 85.9035 155.699 85.8485C155.6 85.7491 155.447 85.7271 155.324 85.7944C155.201 85.8616 155.138 86.002 155.168 86.1388L155.502 87.6435C154.698 86.804 153.408 85.5992 152.13 85.0118C151.823 84.8621 151.511 84.7248 151.237 84.6065C148.462 82.1413 144.903 80.7843 141.21 80.7843C136.009 80.7843 131.269 83.3896 128.463 87.7717C128.199 87.5584 127.829 87.1852 127.616 86.6474C127.236 85.7144 127.041 84.6678 127.033 84.6292L127.033 84.6281C127.012 84.514 126.931 84.4206 126.82 84.3848C126.71 84.3491 126.589 84.3768 126.506 84.457C124.193 86.6747 124.422 90.1322 124.509 90.9159C124.222 91.222 123.412 92.1297 122.593 93.4392C121.577 95.0663 121.27 97.9108 121.257 98.0311C121.243 98.1653 121.316 98.2935 121.439 98.3499C121.562 98.4063 121.706 98.3782 121.799 98.2803L122.476 97.5652C122.402 97.8389 122.327 98.1508 122.259 98.5001C121.954 100.008 122.043 102.347 122.047 102.446C122.053 102.591 122.157 102.713 122.299 102.742C122.441 102.771 122.584 102.699 122.646 102.568L123.045 101.725C123.338 103.778 124.466 108.145 128.789 112.169C131.991 115.152 136.444 116.862 141.007 116.863H141.008C145.437 116.863 149.618 115.279 153.1 112.282C157.217 108.736 158.75 103.671 159.312 100.047C159.918 96.1336 159.563 93.1006 159.548 92.9734C159.531 92.8331 159.423 92.7213 159.283 92.6999ZM152.778 94.8121C152.685 93.3788 152.258 92.8194 152.254 92.8138C152.156 92.6888 152.165 92.5086 152.278 92.3961C152.39 92.2834 152.567 92.2705 152.693 92.3681L153.4 92.918C153.206 92.1306 152.931 91.3548 152.58 90.6025C152.204 90.033 151.776 89.5586 151.308 89.1923C149.205 87.571 146.386 86.6799 146.358 86.6711C146.219 86.6276 146.127 86.4944 146.137 86.3489C146.147 86.2036 146.256 86.084 146.399 86.0599L148.516 85.706C146.378 84.1695 143.868 83.3614 141.211 83.3614C137.59 83.3614 134.192 84.9015 131.796 87.607C132.204 87.649 132.45 87.6879 132.594 87.7161C132.928 87.4642 133.899 86.7849 135.15 86.3658C136.686 85.8571 137.627 85.951 137.658 85.9545C137.788 85.9685 137.896 86.0611 137.929 86.187C137.962 86.3131 137.914 86.4467 137.809 86.5229C137.439 86.7898 136.413 87.5964 136.117 88.1174C135.843 88.594 135.912 89.1524 135.941 89.3181C136.081 89.516 136.696 90.3215 137.629 90.6315C138.077 90.7797 138.572 90.8418 139.01 90.8966C139.774 90.9923 140.435 91.0749 140.685 91.5837C140.875 91.9573 140.638 92.4492 138.868 93.7354C138.137 94.2671 137.376 94.7603 137.058 94.9631L137.146 97.7208C137.149 97.737 137.15 97.7538 137.15 97.7708C137.15 97.9447 137.009 98.0856 136.835 98.0856H136.833C136.795 98.0856 136.758 98.0789 136.722 98.0653L136.721 98.0649C136.691 98.0541 136.047 97.819 135.466 97.819C134.798 97.819 134.688 98.1057 134.669 98.3862C134.626 99.0012 134.916 99.7224 135.426 100.268C135.804 100.674 136.465 101.157 137.464 101.157C137.748 101.157 138.043 101.117 138.343 101.037C139.974 100.595 141.112 100.306 142.03 100.306C142.608 100.306 143.084 100.418 143.53 100.661C144.428 101.155 145.156 102.234 145 102.839C144.937 103.086 144.735 103.239 144.472 103.239C143.975 103.239 143.329 103.298 141.938 103.997C141.707 104.111 141.467 104.246 141.212 104.388C140.244 104.93 139.04 105.605 137.474 105.605C137.381 105.605 137.288 105.603 137.194 105.598C138.287 106.359 140.215 107.442 142.338 107.441C142.937 107.441 143.522 107.355 144.079 107.183C148.061 105.947 149.514 102.826 149.529 102.794C149.591 102.655 149.745 102.581 149.893 102.619C150.041 102.657 150.141 102.795 150.129 102.947L150.012 104.534C150.318 104.065 150.674 103.353 150.902 102.363C151.383 100.256 151.097 97.833 151.094 97.8088C151.077 97.6713 151.152 97.5389 151.279 97.4829C151.406 97.4266 151.554 97.4603 151.645 97.5654L152.484 98.5387C152.623 97.6001 152.843 95.8847 152.778 94.8121Z" fill="#6E8A7A"/>
<path d="M152.254 92.8138C152.258 92.8194 152.685 93.3788 152.778 94.8121C152.843 95.8847 152.623 97.6001 152.484 98.5387L151.645 97.5654C151.554 97.4603 151.406 97.4266 151.279 97.4829C151.152 97.5389 151.077 97.6713 151.094 97.8088C151.097 97.833 151.383 100.256 150.902 102.363C150.674 103.353 150.318 104.065 150.012 104.534L150.129 102.947C150.141 102.795 150.041 102.657 149.893 102.619C149.745 102.581 149.591 102.655 149.529 102.794C149.514 102.826 148.061 105.947 144.079 107.183C143.522 107.355 142.937 107.441 142.338 107.441C140.215 107.442 138.287 106.359 137.194 105.598C137.288 105.603 137.381 105.605 137.474 105.605C139.04 105.605 140.244 104.93 141.212 104.388C141.467 104.246 141.707 104.111 141.938 103.997C143.329 103.298 143.975 103.239 144.472 103.239C144.735 103.239 144.937 103.086 145 102.839C145.156 102.234 144.428 101.155 143.53 100.661C143.084 100.418 142.608 100.306 142.03 100.306C141.112 100.306 139.974 100.595 138.343 101.037C138.043 101.117 137.748 101.157 137.464 101.157C136.465 101.157 135.804 100.674 135.426 100.268C134.916 99.7224 134.626 99.0012 134.669 98.3862C134.688 98.1057 134.798 97.819 135.466 97.819C136.047 97.819 136.691 98.0541 136.721 98.0649L136.722 98.0653C136.758 98.0789 136.795 98.0856 136.833 98.0856H136.835C137.009 98.0856 137.15 97.9447 137.15 97.7708C137.15 97.7538 137.149 97.737 137.146 97.7208L137.058 94.9631C137.376 94.7603 138.137 94.2671 138.868 93.7354C140.638 92.4492 140.875 91.9573 140.685 91.5837C140.435 91.0749 139.774 90.9923 139.01 90.8966C138.572 90.8418 138.077 90.7797 137.629 90.6315C136.696 90.3215 136.081 89.516 135.941 89.3181C135.912 89.1524 135.843 88.594 136.117 88.1174C136.413 87.5964 137.439 86.7898 137.809 86.5229C137.914 86.4467 137.962 86.3131 137.929 86.187C137.896 86.0611 137.788 85.9685 137.658 85.9545C137.627 85.951 136.686 85.8571 135.15 86.3658C133.899 86.7849 132.928 87.4642 132.594 87.7161C132.45 87.6879 132.204 87.649 131.796 87.607C134.192 84.9015 137.59 83.3614 141.211 83.3614C143.868 83.3614 146.378 84.1695 148.516 85.706L146.399 86.0599C146.256 86.084 146.147 86.2036 146.137 86.3489C146.127 86.4944 146.219 86.6276 146.358 86.6711C146.386 86.6799 149.205 87.571 151.308 89.1923C151.776 89.5586 152.204 90.033 152.58 90.6025C152.931 91.3548 153.206 92.1306 153.4 92.918L152.693 92.3681C152.567 92.2705 152.39 92.2834 152.278 92.3961C152.165 92.5086 152.156 92.6888 152.254 92.8138Z" fill="white"/>
<g clip-path="url(#clip0_907_75566)">
<path d="M113.713 107.147C113.257 107.384 112.787 107.593 112.305 107.772C110.78 108.339 109.165 108.627 107.537 108.622C101.255 108.622 95.7833 104.305 95.7833 98.7537C95.7915 98.0103 95.9976 97.2826 96.3804 96.6453C96.7633 96.008 97.309 95.4843 97.9615 95.1279C92.2771 95.367 90.8162 101.29 90.8162 104.757C90.8162 114.585 99.8607 115.568 101.813 115.568C102.862 115.568 104.443 115.262 105.399 114.957L105.572 114.904C109.231 113.639 112.351 111.166 114.417 107.891C114.477 107.792 114.503 107.675 114.49 107.56C114.478 107.444 114.428 107.336 114.348 107.252C114.268 107.167 114.163 107.111 114.048 107.092C113.933 107.074 113.816 107.093 113.713 107.147V107.147Z" fill="#68937A"/>
<path opacity="0.35" d="M113.713 107.147C113.257 107.384 112.787 107.593 112.305 107.772C110.78 108.339 109.165 108.627 107.537 108.622C101.255 108.622 95.7833 104.305 95.7833 98.7537C95.7915 98.0103 95.9976 97.2826 96.3804 96.6453C96.7633 96.008 97.309 95.4843 97.9615 95.1279C92.2771 95.367 90.8162 101.29 90.8162 104.757C90.8162 114.585 99.8607 115.568 101.813 115.568C102.862 115.568 104.443 115.262 105.399 114.957L105.572 114.904C109.231 113.639 112.351 111.166 114.417 107.891C114.477 107.792 114.503 107.675 114.49 107.56C114.478 107.444 114.428 107.336 114.348 107.252C114.268 107.167 114.163 107.111 114.048 107.092C113.933 107.074 113.816 107.093 113.713 107.147V107.147Z" fill="#68937A"/>
<path d="M97.0584 113.894C95.8762 113.16 94.8515 112.199 94.0436 111.065C93.121 109.803 92.4859 108.353 92.1829 106.819C91.88 105.285 91.9164 103.703 92.2898 102.184C92.6631 100.665 93.3643 99.2467 94.3441 98.0277C95.3239 96.8088 96.5586 95.819 97.9615 95.1279C98.3865 94.9287 99.0905 94.5834 100.033 94.5967C100.697 94.6018 101.35 94.7603 101.942 95.0599C102.535 95.3594 103.049 95.7918 103.447 96.3232C103.981 97.0419 104.274 97.9113 104.283 98.8068C104.283 98.7803 107.537 88.235 93.6584 88.235C87.828 88.235 83.0334 93.76 83.0334 98.6209C83.0102 101.189 83.5592 103.729 84.6405 106.058C86.4112 109.829 89.5048 112.818 93.3339 114.459C97.163 116.099 101.461 116.276 105.412 114.957C104.028 115.394 102.565 115.525 101.125 115.342C99.6852 115.159 98.3022 114.665 97.0717 113.894H97.0584Z" fill="#C7D8CE"/>
<path opacity="0.41" d="M97.0584 113.894C95.8762 113.16 94.8515 112.199 94.0436 111.065C93.121 109.803 92.4859 108.353 92.1829 106.819C91.88 105.285 91.9164 103.703 92.2898 102.184C92.6631 100.665 93.3643 99.2467 94.3441 98.0277C95.3239 96.8088 96.5586 95.819 97.9615 95.1279C98.3865 94.9287 99.0905 94.5834 100.033 94.5967C100.697 94.6018 101.35 94.7603 101.942 95.0599C102.535 95.3594 103.049 95.7918 103.447 96.3232C103.981 97.0419 104.274 97.9113 104.283 98.8068C104.283 98.7803 107.537 88.235 93.6584 88.235C87.828 88.235 83.0334 93.76 83.0334 98.6209C83.0102 101.189 83.5592 103.729 84.6405 106.058C86.4112 109.829 89.5048 112.818 93.3339 114.459C97.163 116.099 101.461 116.276 105.412 114.957C104.028 115.394 102.565 115.525 101.125 115.342C99.6852 115.159 98.3022 114.665 97.0717 113.894H97.0584Z" fill="#9BB7A7"/>
<path d="M103.261 101.609C103.141 101.742 102.809 101.941 102.809 102.353C102.809 102.698 103.035 103.044 103.447 103.322C105.346 104.651 108.945 104.465 108.958 104.465C110.374 104.464 111.764 104.083 112.983 103.362C114.209 102.645 115.227 101.619 115.936 100.386C116.644 99.154 117.018 97.7579 117.02 96.3365C117.06 93.3615 115.958 91.3826 115.519 90.5061C112.69 85.0076 106.621 81.8467 100.02 81.8467C95.5525 81.8462 91.2643 83.6045 88.0829 86.741C84.9016 89.8776 83.0828 94.1405 83.02 98.6076C83.0864 93.76 87.9075 89.842 93.645 89.842C94.1099 89.842 96.7661 89.8818 99.2231 91.1701C100.949 92.0279 102.379 93.3833 103.327 95.0615C104.137 96.4693 104.283 98.2623 104.283 98.9795C104.283 99.6967 103.925 100.746 103.247 101.622L103.261 101.609Z" fill="url(#paint0_radial_907_75566)"/>
<path d="M103.261 101.609C103.141 101.742 102.809 101.941 102.809 102.353C102.809 102.698 103.035 103.044 103.447 103.322C105.346 104.651 108.945 104.465 108.958 104.465C110.374 104.464 111.764 104.083 112.983 103.362C114.209 102.645 115.227 101.619 115.936 100.386C116.644 99.154 117.018 97.7579 117.02 96.3365C117.06 93.3615 115.958 91.3826 115.519 90.5061C112.69 85.0076 106.621 81.8467 100.02 81.8467C95.5525 81.8462 91.2643 83.6045 88.0829 86.741C84.9016 89.8776 83.0828 94.1405 83.02 98.6076C83.0864 93.76 87.9075 89.842 93.645 89.842C94.1099 89.842 96.7661 89.8818 99.2231 91.1701C100.949 92.0279 102.379 93.3833 103.327 95.0615C104.137 96.4693 104.283 98.2623 104.283 98.9795C104.283 99.6967 103.925 100.746 103.247 101.622L103.261 101.609Z" fill="#6E8A7A"/>
</g>
<defs>
<radialGradient id="paint0_radial_907_75566" cx="0" cy="0" r="1" gradientUnits="userSpaceOnUse" gradientTransform="translate(86.4585 88.1308) rotate(92.2906) scale(26.9027 57.2973)">
<stop stop-color="#35C1F1"/>
<stop offset="0.1" stop-color="#34C1ED"/>
<stop offset="0.2" stop-color="#2FC2DF"/>
<stop offset="0.3" stop-color="#2BC3D2"/>
<stop offset="0.7" stop-color="#36C752"/>
</radialGradient>
<clipPath id="clip0_907_75566">
<rect width="34" height="34" fill="white" transform="translate(83.02 81.8467)"/>
</clipPath>
</defs>
</svg>
