<svg width="289" height="185" viewBox="0 0 289 185" fill="none" xmlns="http://www.w3.org/2000/svg">
<path d="M190.243 166.679H144.745H35C32.7909 166.679 31 164.888 31 162.679V10C31 7.79086 32.7909 6 35 6H144.745H173.181H230.053H254.489C256.699 6 258.489 7.79086 258.489 10V162.679C258.489 164.888 256.699 166.679 254.489 166.679H244.271" stroke="#787878"/>
<path d="M199.276 140.443L201.462 148.606" stroke="#0E5752" stroke-width="1.35" stroke-linecap="round"/>
<path d="M188.75 157.36L196.243 156.323" stroke="#0E5752" stroke-width="1.35" stroke-linecap="round"/>
<path d="M191.774 146.804L197.806 151.373" stroke="#0E5752" stroke-width="1.35" stroke-linecap="round"/>
<ellipse cx="51.8533" cy="26.866" rx="5.68724" ry="5.69072" fill="#A3A3A3"/>
<ellipse cx="70.8103" cy="26.866" rx="5.68724" ry="5.69072" fill="#CCCCCC"/>
<ellipse cx="89.7683" cy="26.866" rx="5.68724" ry="5.69072" fill="#DDDDDD"/>
<rect x="73.7205" y="46.6868" width="31.8933" height="6.13332" rx="3.06666" fill="#457E5C" fill-opacity="0.3"/>
<rect x="181.667" y="67.5401" width="30.6666" height="6.13332" rx="3.06666" fill="#804485"/>
<rect x="47.9604" y="46.6868" width="14.72" height="6.13332" rx="3.06666" fill="#838D41"/>
<rect x="47.9604" y="67.5401" width="14.72" height="6.13332" rx="3.06666" fill="#457E5C" fill-opacity="0.3"/>
<rect x="47.9604" y="46.6868" width="14.72" height="6.13332" rx="3.06666" fill="#457E5C" fill-opacity="0.3"/>
<rect x="47.9604" y="88.3934" width="14.72" height="6.13332" rx="3.06666" fill="#457E5C" fill-opacity="0.3"/>
<rect x="47.9604" y="110.473" width="14.72" height="6.13332" rx="3.06666" fill="#457E5C" fill-opacity="0.3"/>
<rect x="74.947" y="110.473" width="14.72" height="6.13332" rx="3.06666" fill="#457E5C" fill-opacity="0.3"/>
<rect x="47.9604" y="152.18" width="14.72" height="6.13332" rx="3.06666" fill="#457E5C" fill-opacity="0.3"/>
<rect x="47.9604" y="131.327" width="14.72" height="6.13332" rx="3.06666" fill="#457E5C" fill-opacity="0.3"/>
<rect x="206.2" y="46.6868" width="17.1733" height="6.13332" rx="3.06666" fill="#804485"/>
<rect x="148.467" y="131.327" width="18.4" height="6.13332" rx="3.06666" fill="#457E5C" fill-opacity="0.3"/>
<rect x="84.7603" y="152.18" width="17.1733" height="6.13332" rx="3.06666" fill="#457E5C" fill-opacity="0.3"/>
<rect x="112.974" y="152.18" width="65.0132" height="6.13332" rx="3.06666" fill="#8FA799"/>
<rect x="116.654" y="46.6868" width="22.0799" height="6.13332" rx="3.06666" fill="#8FA799"/>
<rect x="87.2136" y="67.5401" width="22.0799" height="6.13332" rx="3.06666" fill="#8FA799"/>
<rect x="147.32" y="46.6868" width="49.0666" height="6.13332" rx="3.06666" fill="#457E5C" fill-opacity="0.3"/>
<rect x="122.787" y="67.5401" width="49.0666" height="6.13332" rx="3.06666" fill="#457E5C" fill-opacity="0.3"/>
<rect x="84.7603" y="131.327" width="22.0799" height="6.13332" rx="3.06666" fill="#804485"/>
<rect x="119.107" y="131.327" width="18.4" height="6.13332" rx="3.06666" fill="#8FA799"/>
<rect x="103.16" y="88.3934" width="25.7599" height="6.13332" rx="3.06666" fill="#457E5C" fill-opacity="0.3"/>
<rect x="196.387" y="88.3934" width="25.7599" height="6.13332" rx="3.06666" fill="#457E5C" fill-opacity="0.3"/>
<rect x="70.0403" y="88.3934" width="25.7599" height="6.13332" rx="3.06666" fill="#804485"/>
<rect x="158.36" y="110.473" width="25.7599" height="6.13332" rx="3.06666" fill="#457E5C" fill-opacity="0.3"/>
<rect x="137.507" y="88.3934" width="52.7465" height="6.13332" rx="3.06666" fill="#8FA799"/>
<rect x="189.027" y="110.473" width="52.7465" height="6.13332" rx="3.06666" fill="#8FA799"/>
<rect x="105.614" y="110.473" width="46.6132" height="6.13332" rx="3.06666" fill="#804485"/>
<path d="M228.158 154.907H226.262V151.113C226.262 145.878 222.016 141.629 216.784 141.629C211.551 141.629 207.305 145.878 207.305 151.113H211.096C211.096 147.965 213.637 145.423 216.784 145.423C219.931 145.423 222.471 147.965 222.471 151.113V154.907H205.409C203.324 154.907 201.618 156.614 201.618 158.701V177.67C201.618 179.757 203.324 181.464 205.409 181.464H228.158C230.243 181.464 231.95 179.757 231.95 177.67V158.701C231.95 156.614 230.243 154.907 228.158 154.907ZM228.158 177.67H205.409V158.701H228.158V177.67ZM216.784 171.979C218.869 171.979 220.575 170.272 220.575 168.186C220.575 166.099 218.869 164.392 216.784 164.392C214.698 164.392 212.992 166.099 212.992 168.186C212.992 170.272 214.698 171.979 216.784 171.979Z" fill="#0E5752"/>
<path d="M143.744 59.6914C144.363 59.3338 145.126 59.3338 145.745 59.6914L174.939 76.5566C175.557 76.9139 175.938 77.574 175.938 78.2884V112.021C175.938 112.735 175.557 113.395 174.939 113.753L145.745 130.618C145.126 130.976 144.363 130.976 143.744 130.618L114.551 113.753C113.932 113.395 113.551 112.735 113.551 112.021V78.2884C113.551 77.574 113.932 76.9139 114.551 76.5566L143.744 59.6914Z" fill="white" stroke="#174B2B" stroke-width="2"/>
<path d="M143.745 80.5574C144.364 80.1997 145.127 80.1997 145.746 80.5574L156.88 86.9896C157.499 87.3469 157.88 88.007 157.88 88.7214V101.588C157.88 102.302 157.499 102.962 156.88 103.32L145.746 109.752C145.127 110.11 144.364 110.11 143.745 109.752L132.611 103.32C131.993 102.962 131.612 102.302 131.612 101.588V88.7214C131.612 88.007 131.993 87.3469 132.611 86.9896L143.745 80.5574Z" fill="white" stroke="#174B2B" stroke-width="2"/>
<path d="M116.309 79.0309L131.475 87.567M158.016 87.567L172.234 79.0309M144.746 109.381V128.351" stroke="#174B2B" stroke-width="2" stroke-linecap="square"/>
<path d="M133.371 101.794L144.745 95.1546M144.745 95.1546L156.12 101.794M144.745 95.1546V81.8763" stroke="#174B2B" stroke-width="1.35" stroke-linecap="round"/>
</svg>
