<svg width="219" height="185" viewBox="0 0 219 185" fill="none" xmlns="http://www.w3.org/2000/svg">
<path d="M91.7992 160.815V24C91.7992 21.7909 90.0084 20 87.7992 20H80.9493H59.2495H48.3996H9C6.79086 20 5 21.7909 5 24V160.815C5 163.024 6.79086 164.815 9 164.815H87.7992C90.0084 164.815 91.7992 163.024 91.7992 160.815Z" stroke="#787878"/>
<path d="M28.8271 20H69.6738V26.5185C69.6738 27.6231 68.7784 28.5185 67.6738 28.5185H30.8271C29.7226 28.5185 28.8271 27.6231 28.8271 26.5185V20Z" fill="#BB9FB5"/>
<rect x="11.8081" y="37.037" width="73.1837" height="13.6296" rx="6.81481" fill="#DADDC6"/>
<path d="M78.1688 44.5833H77.8396L77.7229 44.4708C78.1313 43.9958 78.3771 43.3792 78.3771 42.7083C78.3771 41.2125 77.1646 40 75.6688 40C74.1729 40 72.9604 41.2125 72.9604 42.7083C72.9604 44.2042 74.1729 45.4167 75.6688 45.4167C76.3396 45.4167 76.9563 45.1708 77.4313 44.7625L77.5438 44.8792V45.2083L79.6271 47.2875L80.2479 46.6667L78.1688 44.5833ZM75.6688 44.5833C74.6313 44.5833 73.7938 43.7458 73.7938 42.7083C73.7938 41.6708 74.6313 40.8333 75.6688 40.8333C76.7063 40.8333 77.5438 41.6708 77.5438 42.7083C77.5438 43.7458 76.7063 44.5833 75.6688 44.5833Z" fill="#8E9466"/>
<rect x="11.8081" y="59.1851" width="39.1447" height="40.8889" rx="8" fill="#C7D8CE"/>
<rect x="11.8081" y="108.593" width="39.1447" height="40.8889" rx="8" fill="#C7D8CE"/>
<path d="M214.339 179.556V61.4815C214.339 59.2723 212.548 57.4815 210.339 57.4815H192.001H147.325H124.987H39.6348C37.4256 57.4815 35.6348 59.2723 35.6348 61.4815V179.556C35.6348 181.765 37.4256 183.556 39.6348 183.556H210.339C212.548 183.556 214.339 181.765 214.339 179.556Z" fill="white" stroke="#787878"/>
<rect x="69.9604" y="74" width="26" height="5" rx="2.5" fill="#457E5C" fill-opacity="0.3"/>
<rect x="157.96" y="91" width="25" height="5" rx="2.5" fill="#804485"/>
<rect x="48.9604" y="74" width="12" height="5" rx="2.5" fill="#838D41"/>
<rect x="48.9604" y="91" width="12" height="5" rx="2.5" fill="#457E5C" fill-opacity="0.3"/>
<rect x="48.9604" y="74" width="12" height="5" rx="2.5" fill="#C7D8CE"/>
<rect x="48.9604" y="108" width="12" height="5" rx="2.5" fill="#457E5C" fill-opacity="0.3"/>
<rect x="48.9604" y="126" width="12" height="5" rx="2.5" fill="#457E5C" fill-opacity="0.3"/>
<rect x="70.9604" y="126" width="12" height="5" rx="2.5" fill="#457E5C" fill-opacity="0.3"/>
<rect x="48.9604" y="160" width="12" height="5" rx="2.5" fill="#457E5C" fill-opacity="0.3"/>
<rect x="48.9604" y="143" width="12" height="5" rx="2.5" fill="#457E5C" fill-opacity="0.3"/>
<rect x="177.96" y="74" width="14" height="5" rx="2.5" fill="#804485"/>
<rect x="187.96" y="143" width="15" height="5" rx="2.5" fill="#457E5C" fill-opacity="0.3"/>
<rect x="78.9604" y="160" width="14" height="5" rx="2.5" fill="#457E5C" fill-opacity="0.3"/>
<rect x="101.96" y="160" width="53" height="5" rx="2.5" fill="#8FA799"/>
<rect x="161.96" y="160" width="46" height="5" rx="2.5" fill="#804485"/>
<rect x="104.96" y="74" width="18" height="5" rx="2.5" fill="#8FA799"/>
<rect x="80.9604" y="91" width="18" height="5" rx="2.5" fill="#8FA799"/>
<rect x="129.96" y="74" width="40" height="5" rx="2.5" fill="#457E5C" fill-opacity="0.3"/>
<rect x="109.96" y="91" width="40" height="5" rx="2.5" fill="#457E5C" fill-opacity="0.3"/>
<rect x="129.96" y="143" width="51" height="5" rx="2.5" fill="#457E5C" fill-opacity="0.3"/>
<rect x="78.9604" y="143" width="18" height="5" rx="2.5" fill="#804485"/>
<rect x="106.96" y="143" width="15" height="5" rx="2.5" fill="#8FA799"/>
<rect x="93.9604" y="108" width="21" height="5" rx="2.5" fill="#457E5C" fill-opacity="0.3"/>
<rect x="169.96" y="108" width="21" height="5" rx="2.5" fill="#457E5C" fill-opacity="0.3"/>
<rect x="66.9604" y="108" width="21" height="5" rx="2.5" fill="#804485"/>
<rect x="138.96" y="126" width="21" height="5" rx="2.5" fill="#457E5C" fill-opacity="0.3"/>
<rect x="121.96" y="108" width="43" height="5" rx="2.5" fill="#8FA799"/>
<rect x="163.96" y="126" width="43" height="5" rx="2.5" fill="#8FA799"/>
<rect x="95.9604" y="126" width="38" height="5" rx="2.5" fill="#804485"/>
</svg>
