<svg width="20" height="20" viewBox="0 0 20 20" fill="none" xmlns="http://www.w3.org/2000/svg">
<path d="M10.0003 1.66666C5.40033 1.66666 1.66699 5.39999 1.66699 9.99999C1.66699 14.6 5.40033 18.3333 10.0003 18.3333C14.6003 18.3333 18.3337 14.6 18.3337 9.99999C18.3337 5.39999 14.6003 1.66666 10.0003 1.66666ZM10.0003 16.6667C6.32533 16.6667 3.33366 13.675 3.33366 9.99999C3.33366 6.32499 6.32533 3.33332 10.0003 3.33332C13.6753 3.33332 16.667 6.32499 16.667 9.99999C16.667 13.675 13.6753 16.6667 10.0003 16.6667ZM13.8253 6.31666L8.33366 11.8083L6.17533 9.65832L5.00033 10.8333L8.33366 14.1667L15.0003 7.49999L13.8253 6.31666Z" fill="white"/>
</svg>
