<svg width="53" height="60" viewBox="0 0 53 60" fill="none" xmlns="http://www.w3.org/2000/svg">
<g clip-path="url(#clip0_1828_31127)">
<path d="M27.0785 0.00683594C12.5411 0.00683594 0.776001 11.8044 0.776001 26.3821C0.776001 39.217 9.95087 49.8814 22.059 52.254V59.8041C37.8004 57.4244 51.7386 44.8942 52.7787 28.4459C53.4046 18.5453 48.4821 8.43808 40.1795 3.53017C39.7041 3.24936 39.2212 2.97037 38.7238 2.72493C38.2171 2.47482 37.6967 2.23121 37.1678 2.02014C36.9999 1.94979 36.8354 1.88594 36.6658 1.81883C36.204 1.64802 35.7379 1.45546 35.2605 1.31556C32.6865 0.464969 29.9353 0.00683594 27.0785 0.00683594Z" fill="#00A818"/>
<path d="M32.5273 9.75243C31.6259 9.65971 30.6765 9.97428 30.0125 10.761C29.5296 11.4068 29.2278 12.0321 28.9059 12.6777C27.9401 14.9373 28.2622 17.3583 29.7108 19.1339C31.964 18.6495 33.8753 17.207 34.8411 14.9475C35.163 14.3018 35.344 13.4746 35.344 12.829C35.4447 11.1142 34.03 9.90697 32.5273 9.75243ZM20.808 9.90372C19.3384 10.044 17.941 11.2153 17.941 12.829C17.941 13.4746 18.122 14.3018 18.4441 14.9475C19.4098 17.207 21.4719 18.6495 23.7254 19.1337C25.0129 17.3585 25.3448 14.9373 24.3791 12.6777C24.0572 12.0321 23.7555 11.3967 23.2725 10.9125C22.6086 10.1256 21.6899 9.81954 20.808 9.90392V9.90372ZM12.9115 17.6712C10.3734 17.8018 9.23976 21 11.3523 22.6646C11.9961 23.1485 12.6197 23.5017 13.2637 23.8246C15.5168 24.793 18.1222 24.4601 20.0538 23.1688C19.5708 21.0707 17.9313 19.1441 15.6778 18.1755C14.873 17.8528 14.2192 17.6712 13.4146 17.6712C13.2334 17.6509 13.0807 17.6625 12.9115 17.6712ZM37.7083 27.4562C36.234 27.4277 34.7407 27.8596 33.5336 28.6665C34.0164 30.7648 35.6561 32.6914 37.9096 33.6598C38.7142 33.9825 39.368 34.1641 40.1728 34.1641C43.0701 34.3255 44.4884 30.7345 42.2351 29.1205C41.5911 28.6362 40.9675 28.3336 40.3237 28.0109C39.4788 27.6477 38.5928 27.473 37.7083 27.4559V27.4562ZM15.728 27.6072C14.8435 27.6243 13.9577 27.799 13.1126 28.1622C12.3078 28.4849 11.6842 28.8381 11.2012 29.3222C9.1088 31.0974 10.5174 34.477 13.4144 34.3153C14.2192 34.3153 15.034 34.134 15.6778 33.811C17.9313 32.8427 19.5306 30.916 19.8525 28.8177C18.6333 28.003 17.1941 27.5806 15.728 27.6072ZM23.8764 32.5501C21.623 33.0343 19.7118 34.4768 18.7461 36.7364C18.4242 37.382 18.243 38.1587 18.243 38.8044C18.0822 41.5481 21.8141 43.0209 23.4238 40.9226C23.9065 40.277 24.2083 39.6517 24.5302 39.0061C25.4961 36.908 25.164 34.487 23.8764 32.5501ZM29.8619 32.7014C28.5741 34.4768 28.2422 36.8978 29.2079 39.1576C29.5298 39.803 29.8316 40.4386 30.3145 40.9226C32.085 42.8594 35.8068 41.4269 35.6462 39.0061C35.6462 38.3605 35.465 37.5333 35.1431 36.8876C34.1772 34.6281 32.1153 33.1856 29.8619 32.7014Z" fill="white"/>
</g>
<defs>
<clipPath id="clip0_1828_31127">
<rect width="52.056" height="60" fill="white" transform="translate(0.776001)"/>
</clipPath>
</defs>
</svg>
