<svg width="41" height="40" viewBox="0 0 41 40" fill="none" xmlns="http://www.w3.org/2000/svg">
<path d="M37.3331 0H3.99994C3.11629 0.00123153 2.26898 0.364839 1.64399 1.01107C1.01929 1.65762 0.667845 2.53415 0.666626 3.44828V26.8966C0.667816 27.8107 1.0193 28.6872 1.64399 29.3338C2.26899 29.98 3.11629 30.3436 3.99994 30.3448H15.2669L14.7336 35.8621H13.3336C12.98 35.8621 12.6407 36.0074 12.3907 36.266C12.1408 36.5246 12.0003 36.8756 12.0003 37.2414V38.6207C12.0003 38.9865 12.1408 39.3374 12.3907 39.5961C12.6407 39.8547 12.98 40 13.3336 40H28.0002C28.3538 40 28.693 39.8547 28.943 39.5961C29.193 39.3374 29.3335 38.9865 29.3335 38.6207V37.2414C29.3335 36.8756 29.193 36.5246 28.943 36.266C28.693 36.0074 28.3538 35.8621 28.0002 35.8621H26.6035L26.0701 30.3448H37.3333C38.217 30.3436 39.0643 29.98 39.6893 29.3338C40.314 28.6872 40.6654 27.8107 40.6666 26.8966V3.44828C40.6654 2.53415 40.3139 1.65762 39.6893 1.01107C39.0643 0.364831 38.217 0.00126108 37.3333 0H37.3331ZM3.99994 1.37931H37.3331C37.8634 1.37931 38.3724 1.59729 38.7473 1.98522C39.1223 2.37315 39.333 2.89966 39.333 3.44824V23.4482H1.99991V3.44824C1.99991 2.89959 2.21062 2.37308 2.58562 1.98522C2.96062 1.59736 3.46958 1.37931 3.99986 1.37931H3.99994ZM27.9998 38.6207H13.3332V37.2414H27.9998V38.6207ZM25.2665 35.8621H16.0696L16.6029 30.3448H24.7332L25.2665 35.8621ZM37.3335 28.9655H4.00032C3.46997 28.9655 2.96101 28.7475 2.58608 28.3596C2.21115 27.9717 2.00037 27.4452 2.00037 26.8966V24.8276H39.3335V26.8966C39.3335 27.4452 39.1228 27.9717 38.7478 28.3596C38.3728 28.7475 37.8638 28.9655 37.3335 28.9655H37.3335Z" fill="#914618"/>
<path d="M35.3331 26.2068H36.6665V27.5862H35.3331V26.2068Z" fill="#914618"/>
<path d="M19.9996 4.82758H21.333V8.96551H19.9996V4.82758Z" fill="#914618"/>
<path d="M16.423 6.1888L17.5777 5.49915L19.5777 9.08259L18.423 9.77225L16.423 6.1888Z" fill="#914618"/>
<path d="M13.9825 9.21775L14.6492 8.02319L18.1132 10.0922L17.4465 11.2867L13.9825 9.21775Z" fill="#914618"/>
<path d="M13.3331 11.7242H17.3331V13.1035H13.3331V11.7242Z" fill="#914618"/>
<path d="M13.9825 15.6099L17.4465 13.5409L18.1132 14.7355L14.6492 16.8044L13.9825 15.6099Z" fill="#914618"/>
<path d="M16.422 18.6388L18.4217 15.0551L19.5764 15.7447L17.5767 19.3285L16.422 18.6388Z" fill="#914618"/>
<path d="M19.9996 15.8621H21.333V20H19.9996V15.8621Z" fill="#914618"/>
<path d="M21.756 15.7446L22.9107 15.055L24.9107 18.6384L23.756 19.3281L21.756 15.7446Z" fill="#914618"/>
<path d="M23.2203 14.735L23.887 13.5404L27.351 15.6094L26.6843 16.8039L23.2203 14.735Z" fill="#914618"/>
<path d="M23.9996 11.7242H27.9996V13.1035H23.9996V11.7242Z" fill="#914618"/>
<path d="M23.2198 10.0926L26.6838 8.02362L27.3505 9.21818L23.8865 11.2871L23.2198 10.0926Z" fill="#914618"/>
<path d="M21.756 9.08297L23.7557 5.49921L24.9104 6.18886L22.9107 9.77262L21.756 9.08297Z" fill="#914618"/>
</svg>
