<svg width="41" height="42" viewBox="0 0 41 42" fill="none" xmlns="http://www.w3.org/2000/svg">
<path d="M27.871 41.2979L27.871 41.2979H27.9401C29.5777 41.2979 30.9119 40.0031 30.9119 38.398L30.9122 11.3103C30.9122 11.0551 30.7002 10.854 30.4478 10.854C30.1954 10.854 29.9835 11.0551 29.9835 11.3103V38.3915C29.9835 39.4861 29.0668 40.3791 27.9401 40.3791L3.58351 40.3794C2.58501 40.3794 1.78378 39.5927 1.78378 38.6292V3.66666C1.78378 2.70252 2.58599 1.91039 3.58351 1.91039L20.668 1.91067C20.9204 1.91067 21.1324 1.70958 21.1324 1.45431C21.1324 1.19904 20.9204 0.997949 20.668 0.997949H3.58351C2.07982 0.997949 0.855371 2.19334 0.855371 3.67307V38.6292C0.855371 40.1028 2.08007 41.2979 3.58351 41.2979H27.871Z" fill="#914618" stroke="#914618" stroke-width="0.3"/>
<path d="M30.4409 11.761H30.5578L30.5616 11.7458C30.6968 11.7116 30.8141 11.6192 30.8739 11.4764C30.9502 11.306 30.9104 11.1092 30.7777 10.9791L21.005 1.13638L21.005 1.13636L21.003 1.13447C20.8727 1.00787 20.6754 0.960839 20.4952 1.03461L20.4951 1.03466C20.3201 1.1065 20.2034 1.27186 20.2034 1.46081V9.4986C20.2034 10.7474 21.2491 11.761 22.5209 11.761H30.4409ZM30.4409 11.611H22.5209C21.3283 11.611 20.3534 10.661 20.3534 9.4986V1.46081C20.3534 1.33581 20.4304 1.22337 20.5521 1.17343C20.674 1.12348 20.8086 1.15473 20.8985 1.24206L30.4409 11.611ZM21.1318 9.5046V2.58749L29.331 10.8546H22.5146C21.748 10.8546 21.1318 10.244 21.1318 9.5046Z" fill="#914618" stroke="#914618" stroke-width="0.3"/>
<path d="M11.2943 18.438H11.2943V18.4355V13.9668C11.2943 13.4863 10.8962 13.1042 10.4131 13.1042H5.43666C4.95318 13.1042 4.55544 13.4867 4.55544 13.9668V18.4355C4.55544 18.916 4.95355 19.2981 5.43666 19.2981H10.4131C10.8913 19.2981 11.2863 18.9151 11.2943 18.438ZM5.49017 14.0294H10.359V18.3856H5.49017V14.0294Z" fill="#914618" stroke="#914618" stroke-width="0.3"/>
<path d="M14.0564 15.5295H26.5616C26.814 15.5295 27.026 15.3284 27.026 15.0732C27.026 14.8179 26.814 14.6168 26.5616 14.6168H14.0564C13.804 14.6168 13.5921 14.8179 13.5921 15.0732C13.5921 15.3284 13.804 15.5295 14.0564 15.5295Z" fill="#914618" stroke="#914618" stroke-width="0.3"/>
<path d="M14.0564 17.7981H26.5616C26.814 17.7981 27.026 17.597 27.026 17.3417C27.026 17.0865 26.814 16.8854 26.5616 16.8854H14.0564C13.804 16.8854 13.5921 17.0865 13.5921 17.3417C13.5921 17.597 13.804 17.7981 14.0564 17.7981Z" fill="#914618" stroke="#914618" stroke-width="0.3"/>
<path d="M11.2943 27.6629H11.2943V27.6604V23.1917C11.2943 22.7113 10.8962 22.3291 10.4131 22.3291H5.43666C4.95318 22.3291 4.55544 22.7116 4.55544 23.1917V27.6604C4.55544 28.1409 4.95355 28.523 5.43666 28.523H10.4131C10.8913 28.523 11.2863 28.14 11.2943 27.6629ZM5.49017 23.2543H10.359V27.6105H5.49017V23.2543Z" fill="#914618" stroke="#914618" stroke-width="0.3"/>
<path d="M14.0564 24.7545H26.5616C26.814 24.7545 27.026 24.5534 27.026 24.2981C27.026 24.0429 26.814 23.8418 26.5616 23.8418H14.0564C13.804 23.8418 13.5921 24.0429 13.5921 24.2981C13.5921 24.5534 13.804 24.7545 14.0564 24.7545Z" fill="#914618" stroke="#914618" stroke-width="0.3"/>
<path d="M14.0564 27.023H26.5616C26.8139 27.023 27.026 26.8223 27.026 26.5667C27.026 26.3114 26.814 26.1103 26.5616 26.1103H14.0564C13.804 26.1103 13.5921 26.3114 13.5921 26.5667C13.5921 26.8219 13.804 27.023 14.0564 27.023Z" fill="#914618" stroke="#914618" stroke-width="0.3"/>
<path d="M11.2943 36.8878L11.2943 36.8878V36.8853V32.4167C11.2943 31.9362 10.8962 31.554 10.4131 31.554H5.43666C4.95318 31.554 4.55544 31.9365 4.55544 32.4167V36.8853C4.55544 37.3658 4.95355 37.7479 5.43666 37.7479H10.4131C10.8914 37.7479 11.2863 37.3646 11.2943 36.8878ZM5.49017 32.4793H10.359V36.8354H5.49017V32.4793Z" fill="#914618" stroke="#914618" stroke-width="0.3"/>
<path d="M14.0564 33.9794H26.5616C26.814 33.9794 27.026 33.7783 27.026 33.523C27.026 33.2678 26.814 33.0667 26.5616 33.0667H14.0564C13.804 33.0667 13.5921 33.2678 13.5921 33.523C13.5921 33.7783 13.804 33.9794 14.0564 33.9794Z" fill="#914618" stroke="#914618" stroke-width="0.3"/>
<path d="M14.0564 36.248H26.5616C26.814 36.248 27.026 36.0469 27.026 35.7916C27.026 35.5363 26.814 35.3352 26.5616 35.3352H14.0564C13.804 35.3352 13.5921 35.5363 13.5921 35.7916C13.5921 36.0469 13.804 36.248 14.0564 36.248Z" fill="#914618" stroke="#914618" stroke-width="0.3"/>
<path d="M18.6434 9.69121L18.6435 9.69122V9.68537V6.38546C18.6435 6.13019 18.4315 5.9291 18.1791 5.9291H5.02603C4.77364 5.9291 4.56167 6.13019 4.56167 6.38546V9.68537C4.56167 9.94063 4.77364 10.1417 5.02603 10.1417H18.1728C18.173 10.1417 18.1731 10.1417 18.1733 10.1417C18.4269 10.1415 18.6336 9.94037 18.6434 9.69121ZM17.7088 6.84181V9.22929H5.49045V6.84181H17.7088Z" fill="#914618" stroke="#914618" stroke-width="0.3"/>
</svg>
