<svg width="40" height="40" viewBox="0 0 40 40" fill="none" xmlns="http://www.w3.org/2000/svg">
<path d="M39.5246 28.4094L30.3227 25.9005V18.0648H31.613C31.9699 18.0648 32.2582 17.7756 32.2582 17.4196V13.5486C32.2582 13.1926 31.9699 12.9034 31.613 12.9034H30.3227V5.16137H31.613C31.9699 5.16137 32.2582 4.87219 32.2582 4.5162V0.645171C32.2582 0.289177 31.9699 0 31.613 0H27.742C27.3852 0 27.0969 0.289177 27.0969 0.645171V1.93551H18.7097V0.645171C18.7097 0.289177 18.4214 0 18.0646 0H14.1936C13.8368 0 13.5484 0.289177 13.5484 0.645171V1.93551H5.16131V0.645171C5.16131 0.289177 4.873 0 4.51615 0H0.645164C0.288311 0 0 0.289177 0 0.645171V4.5162C0 4.87219 0.288311 5.16137 0.645164 5.16137H1.93549V12.9034H0.645164C0.288311 12.9034 0 13.1926 0 13.5486V17.4196C0 17.7756 0.288311 18.0648 0.645164 18.0648H1.93549V25.8069H0.645164C0.288311 25.8069 0 26.096 0 26.452V30.3231C0 30.6791 0.288311 30.9682 0.645164 30.9682H4.51615C4.873 30.9682 5.16131 30.6791 5.16131 30.3231V29.0327H13.5484V30.3231C13.5484 30.6791 13.8368 30.9682 14.1936 30.9682H18.0646C18.4214 30.9682 18.7097 30.6791 18.7097 30.3231V29.0327H25.5479L28.4091 39.525C28.4808 39.7869 28.7092 39.9767 28.98 39.998C28.9972 39.9991 29.0148 40 29.0315 40C29.2832 40 29.5134 39.8537 29.6185 39.6218L32.7449 32.745L39.6217 29.6185C39.8694 29.5062 40.0192 29.2507 39.9979 28.9797C39.976 28.7086 39.787 28.4802 39.5244 28.4088L39.5246 28.4094ZM30.9679 16.7742H28.3872V14.1936H30.9679V16.7742ZM28.3872 1.29012H30.9679V3.87081H28.3872V1.29012ZM14.8388 1.29012H17.4194V3.87081H14.8388V1.29012ZM1.29033 1.29012H3.87098V3.87081H1.29033V1.29012ZM1.29033 14.1936H3.87098V16.7742H1.29033V14.1936ZM3.87098 29.6777H1.29033V27.097H3.87098V29.6777ZM17.4194 29.6777H14.8388V27.097H17.4194V29.6777ZM18.7097 27.7422V26.4518C18.7097 26.0958 18.4214 25.8066 18.0646 25.8066H14.1936C13.8368 25.8066 13.5484 26.0958 13.5484 26.4518V27.7422H5.16131V26.4518C5.16131 26.0958 4.873 25.8066 4.51615 25.8066H3.22582V18.0646H4.51615C4.873 18.0646 5.16131 17.7754 5.16131 17.4194V13.5484C5.16131 13.1924 4.873 12.9032 4.51615 12.9032H3.22582V5.16115H4.51615C4.873 5.16115 5.16131 4.87197 5.16131 4.51598V3.22564H13.5484V4.51598C13.5484 4.87197 13.8368 5.16115 14.1936 5.16115H18.0646C18.4214 5.16115 18.7097 4.87197 18.7097 4.51598V3.22564H27.0969V4.51598C27.0969 4.87197 27.3852 5.16115 27.742 5.16115H29.0324V12.9032H27.742C27.3852 12.9032 27.0969 13.1924 27.0969 13.5484V17.4194C27.0969 17.7754 27.3852 18.0646 27.742 18.0646H29.0324V25.5486L25.331 24.5396C25.1078 24.4797 24.8696 24.5422 24.7052 24.7061C24.5413 24.87 24.4774 25.1087 24.5387 25.3319L25.1963 27.7424H18.7097L18.7097 27.7422ZM29.1835 37.461L26.4217 27.3351L31.4851 32.3986L29.1832 37.4612L29.1835 37.461ZM32.3978 31.486L27.3353 26.4234L37.4611 29.1841L32.3986 31.486H32.3978Z" fill="#914618"/>
<path d="M22.8205 11.0134L16.3689 8.43273C16.2153 8.37138 16.0437 8.37138 15.8902 8.43273L9.43853 11.0134C9.19343 11.1113 9.03271 11.349 9.03271 11.6128V19.3548C9.03271 19.6187 9.19343 19.8554 9.43853 19.9542L15.8902 22.5349C15.9671 22.5652 16.0483 22.5807 16.1295 22.5807C16.2107 22.5807 16.292 22.5652 16.3689 22.5349L22.8205 19.9542C23.0656 19.8563 23.2263 19.6187 23.2263 19.3548V11.6128C23.2263 11.349 23.0656 11.1122 22.8205 11.0134ZM16.1295 9.72683L20.8439 11.6128L16.1295 13.4988L11.4152 11.6128L16.1295 9.72683ZM10.323 12.5656L15.4844 14.6301V20.9825L10.323 18.9179V12.5656ZM16.7747 20.9823V14.63L21.936 12.5654V18.9178L16.7747 20.9823Z" fill="#914618"/>
</svg>
