<svg width="41" height="40" viewBox="0 0 41 40" fill="none" xmlns="http://www.w3.org/2000/svg">
<path d="M39.7083 19.375H37.8959C37.5834 10.1873 30.146 2.74972 20.9583 2.4374V0.62497C20.9583 0.25005 20.7082 0 20.3333 0C19.9584 0 19.7083 0.250043 19.7083 0.62497V2.4374C10.5206 2.74989 3.08304 10.1873 2.77071 19.375H0.958283C0.583363 19.375 0.333313 19.6251 0.333313 20C0.333313 20.3749 0.583355 20.625 0.958283 20.625H2.77071C3.0832 29.8127 10.5206 37.2503 19.7083 37.5626V39.375C19.7083 39.75 19.9584 40 20.3333 40C20.7082 40 20.9583 39.75 20.9583 39.375V37.5626C30.146 37.2501 37.5836 29.8127 37.8959 20.625H39.7083C40.0833 20.625 40.3333 20.3749 40.3333 20C40.3333 19.6251 40.0833 19.375 39.7083 19.375ZM20.9579 36.3127V34.5002C20.9579 34.1253 20.7079 33.8753 20.3329 33.8753C19.958 33.8753 19.708 34.1253 19.708 34.5002V36.3127C11.2082 36.0002 4.3327 29.1253 4.02037 20.6251H5.8328C6.20772 20.6251 6.45778 20.375 6.45778 20.0001C6.45778 19.6252 6.20773 19.3751 5.8328 19.3751H4.02037C4.33286 10.8754 11.2078 3.99984 19.708 3.68752V5.49995C19.708 5.87487 19.958 6.12492 20.3329 6.12492C20.7079 6.12492 20.9579 5.87488 20.9579 5.49995V3.68752C29.4577 4 36.3332 10.8749 36.6455 19.3751H34.8331C34.4582 19.3751 34.2081 19.6252 34.2081 20.0001C34.2081 20.375 34.4582 20.6251 34.8331 20.6251H36.6455C36.333 29.1248 29.4581 36.0003 20.9579 36.3127Z" fill="#914618"/>
<path d="M28.083 22.6248L28.708 23.4373C28.8956 23.6874 29.333 23.7498 29.583 23.5622C29.8331 23.3746 29.8955 22.9372 29.7079 22.6872L28.8954 21.6245C28.7705 21.4369 28.5829 21.3745 28.3953 21.3745H27.3326C27.2702 20.7495 27.145 20.1245 26.9577 19.5621H28.0827L28.7077 20.3746C28.8953 20.6247 29.3327 20.6871 29.5827 20.4995C29.8328 20.3119 29.8952 19.8745 29.7076 19.6245L28.895 18.5618C28.7702 18.3742 28.5826 18.3118 28.395 18.3118H26.5201C25.9575 17.1243 25.2077 16.0617 24.2699 15.3118C24.2699 15.1869 24.3324 15.0618 24.3324 14.8744C24.3324 13.312 23.4574 11.9994 22.145 11.312C22.4575 10.8119 22.9576 10.5618 23.5826 10.4369C23.8951 10.3745 24.1451 10.1245 24.1451 9.81198C24.1451 9.43705 23.8326 9.12457 23.4577 9.18701C22.0826 9.37461 21.3327 10.1245 20.9578 10.8746C20.7702 10.8746 20.5829 10.8121 20.3953 10.8121C20.2077 10.8121 20.0203 10.8121 19.8327 10.8746C19.3326 9.9371 18.4576 9.37462 17.3328 9.18701C16.9579 9.12457 16.6454 9.43705 16.6454 9.81198C16.6454 10.1245 16.8955 10.3745 17.2079 10.4369C17.8329 10.5618 18.333 10.8119 18.6455 11.312C17.3332 11.9994 16.4582 13.312 16.4582 14.8744C16.4582 14.9993 16.4582 15.1869 16.5206 15.3118C15.5207 16.1244 14.7706 17.1242 14.208 18.3118H12.3331C12.1455 18.3118 11.9582 18.3742 11.833 18.5618L10.958 19.6248C10.7704 19.8748 10.8331 20.3122 11.0829 20.4998C11.3329 20.6874 11.7703 20.6247 11.9579 20.3749L12.5829 19.5624H13.6455C13.4579 20.1249 13.333 20.7498 13.2706 21.3748H12.2079C12.0203 21.3748 11.833 21.4372 11.7078 21.6248L10.958 22.6872C10.7704 22.9372 10.8331 23.3746 11.0829 23.5622C11.3329 23.7498 11.7703 23.6871 11.9579 23.4373L12.5828 22.6248H13.2703C13.2703 23.2497 13.3951 23.8747 13.5203 24.4372H12.2703C12.0827 24.4372 11.8954 24.4996 11.7702 24.6872L10.958 25.7499C10.7704 25.9999 10.8331 26.4373 11.0829 26.6249C11.3329 26.8125 11.7703 26.7498 11.9579 26.5L12.5829 25.6875H13.8952C14.9578 28.6874 17.4577 30.8123 20.3952 30.8123C23.2703 30.8123 25.7702 28.6874 26.8952 25.6875H28.2075L28.8325 26.5C29.0201 26.75 29.4575 26.8125 29.7075 26.6249C29.9576 26.4373 30.02 25.9999 29.8324 25.7499L29.0199 24.6872C28.895 24.4996 28.7074 24.4372 28.5198 24.4372H27.2698C27.3947 23.8747 27.4574 23.2497 27.5199 22.6248H28.083ZM19.7078 29.4997C16.7702 29.1248 14.5201 26.0621 14.5201 22.3123C14.5201 19.9997 15.3951 17.8748 16.8327 16.4997C17.3952 17.3122 18.3327 17.7496 19.7078 17.8748V29.4997ZM20.3327 16.6871C17.5828 16.6871 17.5828 15.312 17.5828 14.8122C17.5828 13.3122 18.8328 12.0623 20.3327 12.0623C21.8327 12.0623 23.0827 13.3122 23.0827 14.8122C23.0827 15.312 23.0827 16.6871 20.3327 16.6871ZM20.9577 29.4997V17.9371C22.3328 17.8122 23.2703 17.3746 23.8328 16.562C25.2704 17.9371 26.1454 20.0621 26.1454 22.3746C26.1454 26.0622 23.8952 29.1247 20.9577 29.4996V29.4997Z" fill="#914618"/>
</svg>
