<svg width="28" height="28" viewBox="0 0 28 28" fill="none" xmlns="http://www.w3.org/2000/svg">
<path d="M9.36532 22.5456C9.36532 22.6614 9.23548 22.754 9.07177 22.754C8.88548 22.7714 8.75564 22.6787 8.75564 22.5456C8.75564 22.4298 8.88548 22.3371 9.04919 22.3371C9.21855 22.3198 9.36532 22.4124 9.36532 22.5456ZM7.60968 22.285C7.57016 22.4008 7.68306 22.534 7.85242 22.5687C7.99919 22.6266 8.16855 22.5687 8.20242 22.4529C8.23629 22.3371 8.12903 22.204 7.95968 22.1518C7.8129 22.1113 7.64919 22.1692 7.60968 22.285ZM10.1048 22.1866C9.94113 22.2271 9.82823 22.3371 9.84516 22.4703C9.8621 22.5861 10.0089 22.6614 10.1782 22.6208C10.3419 22.5803 10.4548 22.4703 10.4379 22.3545C10.421 22.2445 10.2685 22.1692 10.1048 22.1866ZM13.8194 0C5.98952 0 0 6.09668 0 14.1272C0 20.5481 3.94032 26.0426 9.56855 27.9764C10.2911 28.1096 10.5452 27.6522 10.5452 27.2758C10.5452 26.9169 10.5282 24.9368 10.5282 23.7209C10.5282 23.7209 6.57661 24.5894 5.74677 21.9955C5.74677 21.9955 5.10323 20.3107 4.17742 19.8764C4.17742 19.8764 2.88468 18.9674 4.26774 18.9848C4.26774 18.9848 5.67339 19.1006 6.44677 20.4786C7.68306 22.7135 9.75484 22.0708 10.5621 21.6887C10.6919 20.7623 11.0589 20.1196 11.4653 19.7375C8.30968 19.3785 5.12581 18.9096 5.12581 13.3397C5.12581 11.7475 5.55484 10.9485 6.45806 9.92954C6.31129 9.5532 5.83145 8.00153 6.60484 5.99825C7.78468 5.62191 10.5 7.5615 10.5 7.5615C11.629 7.23728 12.8427 7.06937 14.0452 7.06937C15.2476 7.06937 16.4613 7.23728 17.5903 7.5615C17.5903 7.5615 20.3056 5.61613 21.4855 5.99825C22.2589 8.00732 21.779 9.5532 21.6323 9.92954C22.5355 10.9543 23.0887 11.7533 23.0887 13.3397C23.0887 18.9269 19.7637 19.3727 16.6081 19.7375C17.1274 20.1949 17.5677 21.0634 17.5677 22.424C17.5677 24.3751 17.5508 26.7895 17.5508 27.2643C17.5508 27.6406 17.8105 28.098 18.5274 27.9648C24.1726 26.0426 28 20.5481 28 14.1272C28 6.09668 21.6492 0 13.8194 0ZM5.4871 19.9691C5.41371 20.027 5.43064 20.1602 5.52661 20.2702C5.61694 20.3628 5.74677 20.4033 5.82016 20.3281C5.89355 20.2702 5.87661 20.137 5.78064 20.027C5.69032 19.9343 5.56048 19.8938 5.4871 19.9691ZM4.87742 19.5001C4.8379 19.5754 4.89435 19.668 5.00726 19.7259C5.09758 19.7838 5.21048 19.7664 5.25 19.6854C5.28952 19.6101 5.23306 19.5175 5.12016 19.4596C5.00726 19.4248 4.91694 19.4422 4.87742 19.5001ZM6.70645 21.5613C6.61613 21.6366 6.65 21.8103 6.77984 21.9203C6.90968 22.0534 7.07339 22.0708 7.14677 21.9782C7.22016 21.9029 7.18629 21.7292 7.07339 21.6192C6.94919 21.486 6.77984 21.4687 6.70645 21.5613ZM6.0629 20.7102C5.97258 20.7681 5.97258 20.9186 6.0629 21.0518C6.15323 21.1849 6.30564 21.2428 6.37903 21.1849C6.46935 21.1097 6.46935 20.9591 6.37903 20.826C6.3 20.6928 6.15323 20.6349 6.0629 20.7102Z" fill="white"/>
</svg>
