<svg width="24" height="24" viewBox="0 0 24 24" fill="none" xmlns="http://www.w3.org/2000/svg">
<path d="M8.02742 19.3245C8.02742 19.4238 7.91613 19.5032 7.77581 19.5032C7.61613 19.5181 7.50484 19.4387 7.50484 19.3245C7.50484 19.2253 7.61613 19.1459 7.75645 19.1459C7.90161 19.131 8.02742 19.2104 8.02742 19.3245ZM6.52258 19.1012C6.48871 19.2005 6.58548 19.3146 6.73065 19.3444C6.85645 19.394 7.00161 19.3444 7.03064 19.2451C7.05968 19.1459 6.96774 19.0317 6.82258 18.9871C6.69677 18.9523 6.55645 19.0019 6.52258 19.1012ZM8.66129 19.0168C8.52097 19.0516 8.42419 19.1459 8.43871 19.26C8.45323 19.3593 8.57903 19.4238 8.72419 19.389C8.86452 19.3543 8.96129 19.26 8.94677 19.1608C8.93226 19.0665 8.80161 19.0019 8.66129 19.0168ZM11.8452 -0.000244141C5.13387 -0.000244141 0 5.22548 0 12.1088C0 17.6124 3.37742 22.322 8.20161 23.9795C8.82097 24.0937 9.03871 23.7016 9.03871 23.379C9.03871 23.0714 9.02419 21.3741 9.02419 20.3319C9.02419 20.3319 5.6371 21.0764 4.92581 18.8531C4.92581 18.8531 4.37419 17.4089 3.58065 17.0367C3.58065 17.0367 2.47258 16.2576 3.65806 16.2725C3.65806 16.2725 4.8629 16.3717 5.52581 17.5528C6.58548 19.4684 8.36129 18.9176 9.05323 18.59C9.16452 17.796 9.47903 17.2451 9.82742 16.9176C7.12258 16.6099 4.39355 16.2079 4.39355 11.4338C4.39355 10.0691 4.76129 9.38423 5.53548 8.51079C5.40968 8.18822 4.99839 6.85821 5.66129 5.14112C6.67258 4.81854 9 6.48105 9 6.48105C9.96774 6.20313 11.0081 6.05922 12.0387 6.05922C13.0694 6.05922 14.1097 6.20313 15.0774 6.48105C15.0774 6.48105 17.4048 4.81358 18.4161 5.14112C19.079 6.86317 18.6677 8.18822 18.5419 8.51079C19.3161 9.38919 19.7903 10.074 19.7903 11.4338C19.7903 16.2228 16.9403 16.605 14.2355 16.9176C14.6806 17.3097 15.0581 18.0541 15.0581 19.2203C15.0581 20.8927 15.0435 22.9622 15.0435 23.3691C15.0435 23.6917 15.2661 24.0838 15.8806 23.9696C20.7194 22.322 24 17.6124 24 12.1088C24 5.22548 18.5565 -0.000244141 11.8452 -0.000244141ZM4.70323 17.1161C4.64032 17.1657 4.65484 17.2799 4.7371 17.3742C4.81452 17.4536 4.92581 17.4883 4.98871 17.4238C5.05161 17.3742 5.0371 17.26 4.95484 17.1657C4.87742 17.0863 4.76613 17.0516 4.70323 17.1161ZM4.18064 16.7141C4.14677 16.7787 4.19516 16.8581 4.29194 16.9077C4.36935 16.9573 4.46613 16.9424 4.5 16.8729C4.53387 16.8084 4.48548 16.729 4.38871 16.6794C4.29194 16.6496 4.21452 16.6645 4.18064 16.7141ZM5.74839 18.4809C5.67097 18.5454 5.7 18.6943 5.81129 18.7885C5.92258 18.9027 6.0629 18.9176 6.12581 18.8382C6.18871 18.7737 6.15968 18.6248 6.0629 18.5305C5.95645 18.4163 5.81129 18.4015 5.74839 18.4809ZM5.19677 17.7513C5.11935 17.801 5.11935 17.93 5.19677 18.0441C5.27419 18.1583 5.40484 18.2079 5.46774 18.1583C5.54516 18.0938 5.54516 17.9647 5.46774 17.8506C5.4 17.7365 5.27419 17.6868 5.19677 17.7513Z" fill="white"/>
</svg>
