<svg width="101" height="40" viewBox="0 0 101 40" fill="none" xmlns="http://www.w3.org/2000/svg">
<rect x="0.279541" width="100" height="40" rx="20" fill="#EEEEEE"/>
<path d="M20.2795 25.77L26.4595 29.5L24.8195 22.47L30.2795 17.74L23.0895 17.13L20.2795 10.5L17.4695 17.13L10.2795 17.74L15.7395 22.47L14.0995 29.5L20.2795 25.77Z" fill="#914618"/>
<path d="M37.3155 25V23.684H39.3035V17.832H37.6655V16.824C38.1042 16.74 38.4869 16.642 38.8135 16.53C39.1402 16.4087 39.4435 16.264 39.7235 16.096H40.9275V23.684H42.6775V25H37.3155ZM44.4933 25V23.684H46.4813V17.832H44.8433V16.824C45.2819 16.74 45.6646 16.642 45.9913 16.53C46.3179 16.4087 46.6213 16.264 46.9013 16.096H48.1053V23.684H49.8553V25H44.4933ZM51.797 25V15.844H53.421V20.002H53.463L56.725 15.844H58.531L55.717 19.414L59.007 25H57.215L54.737 20.688L53.421 22.326V25H51.797ZM65.6273 25.168C65.0113 25.168 64.4139 25.0513 63.8353 24.818C63.2659 24.5847 62.7619 24.2533 62.3233 23.824L63.2753 22.718C63.6019 23.026 63.9753 23.278 64.3953 23.474C64.8153 23.6607 65.2353 23.754 65.6553 23.754C66.1779 23.754 66.5746 23.6467 66.8453 23.432C67.1159 23.2173 67.2513 22.9327 67.2513 22.578C67.2513 22.1953 67.1159 21.92 66.8453 21.752C66.5839 21.584 66.2479 21.4113 65.8373 21.234L64.5773 20.688C64.2786 20.5573 63.9846 20.3893 63.6953 20.184C63.4153 19.9787 63.1819 19.7173 62.9953 19.4C62.8179 19.0827 62.7293 18.7 62.7293 18.252C62.7293 17.7667 62.8599 17.3327 63.1213 16.95C63.3919 16.558 63.7559 16.25 64.2133 16.026C64.6799 15.7927 65.2119 15.676 65.8093 15.676C66.3413 15.676 66.8546 15.7833 67.3493 15.998C67.8439 16.2033 68.2686 16.4833 68.6233 16.838L67.7973 17.874C67.5079 17.6313 67.1999 17.44 66.8733 17.3C66.5559 17.16 66.2013 17.09 65.8093 17.09C65.3799 17.09 65.0299 17.188 64.7593 17.384C64.4979 17.5707 64.3673 17.832 64.3673 18.168C64.3673 18.4013 64.4326 18.5973 64.5633 18.756C64.7033 18.9053 64.8853 19.036 65.1093 19.148C65.3333 19.2507 65.5713 19.3533 65.8233 19.456L67.0693 19.974C67.6106 20.2073 68.0539 20.5153 68.3993 20.898C68.7446 21.2713 68.9173 21.7893 68.9173 22.452C68.9173 22.9467 68.7866 23.3993 68.5253 23.81C68.2639 24.2207 67.8859 24.552 67.3913 24.804C66.9059 25.0467 66.3179 25.168 65.6273 25.168ZM72.495 25.168C71.7017 25.168 71.137 24.9393 70.801 24.482C70.4744 24.0153 70.311 23.4133 70.311 22.676V19.4H69.331V18.196L70.395 18.126L70.591 16.25H71.935V18.126H73.685V19.4H71.935V22.676C71.935 23.4787 72.257 23.88 72.901 23.88C73.0224 23.88 73.1484 23.866 73.279 23.838C73.4097 23.8007 73.5217 23.7633 73.615 23.726L73.895 24.916C73.7084 24.9813 73.4937 25.0373 73.251 25.084C73.0177 25.14 72.7657 25.168 72.495 25.168ZM76.4968 25.168C75.8995 25.168 75.4095 24.9813 75.0268 24.608C74.6535 24.2347 74.4668 23.7493 74.4668 23.152C74.4668 22.4147 74.7888 21.8453 75.4328 21.444C76.0768 21.0333 77.1035 20.7533 78.5128 20.604C78.5035 20.24 78.4055 19.9273 78.2188 19.666C78.0415 19.3953 77.7195 19.26 77.2528 19.26C76.9168 19.26 76.5855 19.3253 76.2588 19.456C75.9415 19.5867 75.6288 19.7453 75.3208 19.932L74.7328 18.854C75.1155 18.6113 75.5448 18.4013 76.0208 18.224C76.5062 18.0467 77.0195 17.958 77.5608 17.958C78.4195 17.958 79.0588 18.2147 79.4788 18.728C79.9082 19.232 80.1228 19.9647 80.1228 20.926V25H78.7928L78.6808 24.244H78.6248C78.3168 24.5053 77.9855 24.7247 77.6308 24.902C77.2855 25.0793 76.9075 25.168 76.4968 25.168ZM77.0148 23.908C77.2948 23.908 77.5468 23.8427 77.7708 23.712C78.0042 23.572 78.2515 23.3853 78.5128 23.152V21.612C77.5795 21.7333 76.9308 21.9153 76.5668 22.158C76.2028 22.3913 76.0208 22.6807 76.0208 23.026C76.0208 23.334 76.1142 23.558 76.3008 23.698C76.4875 23.838 76.7255 23.908 77.0148 23.908ZM82.0496 25V18.126H83.3796L83.4916 19.344H83.5476C83.7903 18.896 84.0843 18.5553 84.4296 18.322C84.7749 18.0793 85.1296 17.958 85.4936 17.958C85.8203 17.958 86.0816 18.0047 86.2776 18.098L85.9976 19.498C85.8763 19.4607 85.7643 19.4327 85.6616 19.414C85.5589 19.3953 85.4329 19.386 85.2836 19.386C85.0129 19.386 84.7283 19.4933 84.4296 19.708C84.1309 19.9133 83.8743 20.2773 83.6596 20.8V25H82.0496ZM89.1082 25.168C88.6415 25.168 88.1749 25.0793 87.7082 24.902C87.2415 24.7153 86.8402 24.4867 86.5042 24.216L87.2602 23.18C87.5682 23.4133 87.8762 23.6 88.1842 23.74C88.4922 23.88 88.8189 23.95 89.1642 23.95C89.5375 23.95 89.8129 23.8707 89.9902 23.712C90.1675 23.5533 90.2562 23.3573 90.2562 23.124C90.2562 22.928 90.1815 22.7693 90.0322 22.648C89.8922 22.5173 89.7102 22.4053 89.4862 22.312C89.2622 22.2093 89.0289 22.1113 88.7862 22.018C88.4875 21.906 88.1889 21.7707 87.8902 21.612C87.6009 21.444 87.3629 21.234 87.1762 20.982C86.9895 20.7207 86.8962 20.3987 86.8962 20.016C86.8962 19.4093 87.1202 18.9147 87.5682 18.532C88.0162 18.1493 88.6229 17.958 89.3882 17.958C89.8735 17.958 90.3075 18.042 90.6902 18.21C91.0729 18.378 91.4042 18.5693 91.6842 18.784L90.9422 19.764C90.6995 19.5867 90.4522 19.4467 90.2002 19.344C89.9575 19.232 89.7009 19.176 89.4302 19.176C89.0849 19.176 88.8282 19.2507 88.6602 19.4C88.4922 19.54 88.4082 19.7173 88.4082 19.932C88.4082 20.2027 88.5482 20.408 88.8282 20.548C89.1082 20.688 89.4349 20.8233 89.8082 20.954C90.1255 21.066 90.4335 21.206 90.7322 21.374C91.0309 21.5327 91.2782 21.7427 91.4742 22.004C91.6795 22.2653 91.7822 22.6107 91.7822 23.04C91.7822 23.628 91.5535 24.132 91.0962 24.552C90.6389 24.9627 89.9762 25.168 89.1082 25.168Z" fill="#333333"/>
</svg>
