<svg width="61" height="60" viewBox="0 0 61 60" fill="none" xmlns="http://www.w3.org/2000/svg">
<g clip-path="url(#clip0_1885_32683)">
<path d="M13.3955 0C20.3339 0 25.9589 5.62315 25.9589 12.5603C25.9589 19.3783 20.524 24.9235 13.7496 25.1116C13.7496 25.6885 13.7751 26.7784 14.1015 27.4364C14.5544 28.3492 17.2712 30.0485 19.9355 30.0485H20.8927C21.4943 25.7662 25.1716 22.4707 29.6208 22.4707C34.0519 22.4707 37.7185 25.7394 38.3421 29.9964H43.2943C43.9182 25.7394 47.5845 22.4707 52.0157 22.4707C56.8847 22.4707 60.832 26.4168 60.832 31.2848C60.832 36.1526 56.8847 40.0987 52.0157 40.0987C47.5845 40.0987 43.9179 36.8298 43.2943 32.5728H38.3424C37.7187 36.8298 34.0521 40.0987 29.6208 40.0987C25.198 40.0987 21.5363 36.8425 20.9024 32.5971L19.844 32.6286C18.1015 32.6155 16.2606 32.1502 14.782 31.1456C14.3789 30.8716 13.9818 30.5838 13.5675 30.3111L13.5674 30.8834C13.5651 31.0685 13.5317 33.8499 13.529 36.9381L13.529 37.592C13.5302 39.6172 13.5462 41.704 13.5939 43.2261C13.6985 46.5652 16.4146 49.2602 19.4117 49.891C19.8013 49.9728 20.4711 49.9833 20.8931 49.9468C21.4958 45.666 25.1727 42.3718 29.6208 42.3718C34.4898 42.3718 38.4371 46.3181 38.4371 51.1859C38.4371 56.0537 34.4898 60 29.6208 60C25.2218 60 21.5763 56.7788 20.9131 52.5671H20.1505C14.4233 52.2545 10.8626 47.0015 10.9247 42.7413C11.003 37.3794 10.944 32.0154 10.9431 26.6523V24.8795C5.17876 23.739 0.832031 18.6577 0.832031 12.5603C0.832031 5.62315 6.4568 0 13.3955 0ZM29.6208 44.9483C26.1752 44.9483 23.3818 47.7409 23.3818 51.1859C23.3818 54.6308 26.1752 57.4235 29.6208 57.4235C33.0666 57.4235 35.86 54.6308 35.86 51.1859C35.86 47.7409 33.0666 44.9483 29.6208 44.9483ZM29.6208 25.0472C26.1752 25.0472 23.3818 27.8398 23.3818 31.2848C23.3818 34.7295 26.1752 37.5222 29.6208 37.5222C33.0666 37.5222 35.86 34.7295 35.86 31.2848C35.86 27.8398 33.0666 25.0472 29.6208 25.0472ZM52.0157 25.0472C48.5698 25.0472 45.7767 27.8398 45.7767 31.2848C45.7767 34.7295 48.5698 37.5222 52.0157 37.5222C55.4615 37.5222 58.2549 34.7295 58.2549 31.2848C58.2549 27.8398 55.4615 25.0472 52.0157 25.0472ZM55.5689 28.6585C56.0599 29.1483 56.0734 29.9352 55.6089 30.441L55.5713 30.4805L51.7488 34.3113C51.2617 34.7996 50.4798 34.8159 49.9729 34.3577L49.9326 34.3195L48.0611 32.4773C47.5541 31.9781 47.5477 31.1624 48.047 30.6555C48.5336 30.1615 49.3205 30.1428 49.8297 30.604L49.8692 30.6416L50.8283 31.5854L53.7467 28.6609C54.2492 28.157 55.0651 28.1561 55.5689 28.6585ZM33.0713 28.6397C33.5622 29.1294 33.5758 29.9163 33.1112 30.4224L33.0737 30.4617L29.2512 34.2924C28.7641 34.7807 27.9821 34.797 27.4753 34.3388L27.4349 34.3006L25.5635 32.4584C25.0565 31.9592 25.05 31.1436 25.5493 30.6366C26.0358 30.1426 26.8229 30.1239 27.3321 30.5853L27.3716 30.6227L28.3307 31.5665L31.2491 28.642C31.7516 28.1383 32.5675 28.1373 33.0713 28.6397ZM13.3955 2.57647C7.88022 2.57647 3.40915 7.04622 3.40915 12.5603C3.40915 18.0742 7.88022 22.5441 13.3955 22.5441C18.9107 22.5441 23.3818 18.0742 23.3818 12.5603C23.3818 7.04622 18.9107 2.57647 13.3955 2.57647ZM12.3564 6.59306C14.4574 7.85532 16.53 9.16094 18.5745 10.5097C20.2872 11.6395 20.2829 13.6884 18.5511 14.8208C16.4701 16.1825 14.356 17.4881 12.2093 18.7377C10.462 19.7547 8.50618 18.5852 8.45872 16.5477C8.42823 15.2345 8.45314 13.9201 8.45142 12.6061C8.44992 11.3278 8.42479 10.0488 8.45571 8.77104C8.5079 6.60358 10.5032 5.47423 12.3564 6.59306ZM10.9714 8.67227V9.57898C10.9712 10.0279 10.9712 10.4709 10.971 10.9089L10.9708 11.7784V13.063C10.971 14.0545 10.9714 15.0304 10.9731 16.0062C10.974 16.4655 11.213 16.4468 11.5223 16.2553C13.3048 15.1504 15.0881 14.0468 16.8724 12.9443C17.1672 12.7624 17.1756 12.5724 16.8863 12.3899C14.9754 11.1856 13.0619 9.98541 10.9714 8.67227Z" fill="#4A7EBF"/>
<path d="M32.0571 52.4716C32.7686 52.4716 33.3457 51.8949 33.3457 51.1834C33.3457 50.4721 32.7686 49.8951 32.0571 49.8951C31.3456 49.8951 30.7686 50.4721 30.7686 51.1834C30.7686 51.8949 31.3456 52.4716 32.0571 52.4716Z" fill="#85B3DF"/>
<path d="M27.124 52.4716C27.8355 52.4716 28.4126 51.8949 28.4126 51.1834C28.4126 50.4721 27.8355 49.8951 27.124 49.8951C26.4125 49.8951 25.8354 50.4721 25.8354 51.1834C25.8354 51.8949 26.4125 52.4716 27.124 52.4716Z" fill="#85B3DF"/>
<path d="M52.0158 57.4236C48.57 57.4236 45.7769 54.6309 45.7769 51.1859C45.7769 47.741 48.57 44.9483 52.0158 44.9483C55.4614 44.9483 58.255 47.741 58.255 51.1859C58.255 54.6309 55.4614 57.4236 52.0158 57.4236ZM52.0158 42.3718C47.5847 42.3718 43.9181 45.6407 43.2945 49.8977H41.8526C41.2231 49.8977 40.7124 50.4746 40.7124 51.1859C40.7124 51.8975 41.2231 52.4742 41.8526 52.4742H43.2945C43.9181 56.7311 47.5847 60 52.0158 60C56.8849 60 60.8321 56.0537 60.8321 51.1859C60.8321 46.3181 56.8849 42.3718 52.0158 42.3718Z" fill="#85B3DF"/>
</g>
<defs>
<clipPath id="clip0_1885_32683">
<rect width="60" height="60" fill="white" transform="translate(0.832031)"/>
</clipPath>
</defs>
</svg>
