<svg width="106" height="40" viewBox="0 0 106 40" fill="none" xmlns="http://www.w3.org/2000/svg">
<rect x="0.279602" width="105.441" height="40" rx="20" fill="#EEEEEE"/>
<path d="M33.7204 11.4473C33.7204 9.54822 32.1704 8 30.2691 8C28.3678 8 26.8179 9.54822 26.8179 11.4473C26.8179 12.8507 27.6654 14.0613 28.8728 14.5965V16.3596L24.9913 20.2367L21.136 16.3859V14.5965C22.3391 14.057 23.1821 12.8509 23.1821 11.4519C23.1821 9.55276 21.6321 8.00455 19.7309 8.00455C17.8296 8.00455 16.2796 9.54827 16.2796 11.4473C16.2796 12.8507 17.1271 14.0613 18.3346 14.5965V17.5H18.3784L18.3346 17.5438L23.6038 22.8071V25.4035C22.392 25.9387 21.5489 27.1491 21.5489 28.5527C21.5489 30.4518 23.0989 32 25.0001 32C26.9014 32 28.4514 30.4518 28.4514 28.5527C28.4514 27.1536 27.6084 25.943 26.4053 25.4081V22.7808L31.6478 17.5438L31.6039 17.5H31.6743V14.5922C32.8772 14.0527 33.7203 12.8466 33.7203 11.4474L33.7204 11.4473ZM19.7307 9.71063C20.6878 9.71063 21.4695 10.4913 21.4695 11.4475C21.4695 12.4036 20.688 13.1844 19.7307 13.1844C18.7735 13.1844 17.9918 12.4038 17.9918 11.4475C17.992 10.4913 18.7735 9.71063 19.7307 9.71063ZM24.9999 30.2894C24.0428 30.2894 23.2611 29.5087 23.2611 28.5525C23.2611 27.5964 24.0426 26.8156 24.9999 26.8156C25.9571 26.8156 26.7388 27.5962 26.7388 28.5525C26.7388 29.5085 25.9571 30.2894 24.9999 30.2894ZM30.2692 13.1841C29.312 13.1841 28.5303 12.4035 28.5303 11.4472C28.5303 10.4911 29.3118 9.71032 30.2692 9.71032C31.2264 9.71032 32.0081 10.4909 32.0081 11.4472C32.0079 12.4035 31.2264 13.1841 30.2692 13.1841Z" fill="#914618"/>
<path d="M38.7563 25V23.684H40.7443V17.832H39.1063V16.824C39.545 16.74 39.9277 16.642 40.2543 16.53C40.581 16.4087 40.8843 16.264 41.1643 16.096H42.3683V23.684H44.1183V25H38.7563ZM46.0601 25V15.844H47.6841V20.002H47.7261L50.9881 15.844H52.7941L49.9801 19.414L53.2701 25H51.4781L49.0001 20.688L47.6841 22.326V25H46.0601ZM57.2163 25V15.844H62.7463V17.216H58.8403V19.806H62.1723V21.178H58.8403V25H57.2163ZM66.8083 25.168C66.239 25.168 65.707 25.028 65.2123 24.748C64.7176 24.4587 64.3163 24.048 64.0083 23.516C63.7003 22.9747 63.5463 22.326 63.5463 21.57C63.5463 20.8047 63.7003 20.156 64.0083 19.624C64.3163 19.0827 64.7176 18.672 65.2123 18.392C65.707 18.1027 66.239 17.958 66.8083 17.958C67.387 17.958 67.9236 18.1027 68.4183 18.392C68.913 18.672 69.3143 19.0827 69.6223 19.624C69.9303 20.156 70.0843 20.8047 70.0843 21.57C70.0843 22.326 69.9303 22.9747 69.6223 23.516C69.3143 24.048 68.913 24.4587 68.4183 24.748C67.9236 25.028 67.387 25.168 66.8083 25.168ZM66.8083 23.852C67.3123 23.852 67.709 23.642 67.9983 23.222C68.2876 22.802 68.4323 22.2513 68.4323 21.57C68.4323 20.8793 68.2876 20.324 67.9983 19.904C67.709 19.484 67.3123 19.274 66.8083 19.274C66.3043 19.274 65.9076 19.484 65.6183 19.904C65.3383 20.324 65.1983 20.8793 65.1983 21.57C65.1983 22.2513 65.3383 22.802 65.6183 23.222C65.9076 23.642 66.3043 23.852 66.8083 23.852ZM71.6779 25V18.126H73.0079L73.1199 19.344H73.1759C73.4186 18.896 73.7126 18.5553 74.0579 18.322C74.4032 18.0793 74.7579 17.958 75.1219 17.958C75.4486 17.958 75.7099 18.0047 75.9059 18.098L75.6259 19.498C75.5046 19.4607 75.3926 19.4327 75.2899 19.414C75.1872 19.3953 75.0612 19.386 74.9119 19.386C74.6412 19.386 74.3566 19.4933 74.0579 19.708C73.7592 19.9133 73.5026 20.2773 73.2879 20.8V25H71.6779ZM76.9005 25V15.116H78.4825V21.29H78.5245L81.0725 18.126H82.8365L80.4845 20.926L83.0745 25H81.3245L79.5605 22.018L78.4825 23.25V25H76.9005ZM86.133 25.168C85.6663 25.168 85.1997 25.0793 84.733 24.902C84.2663 24.7153 83.865 24.4867 83.529 24.216L84.285 23.18C84.593 23.4133 84.901 23.6 85.209 23.74C85.517 23.88 85.8437 23.95 86.189 23.95C86.5623 23.95 86.8377 23.8707 87.015 23.712C87.1923 23.5533 87.281 23.3573 87.281 23.124C87.281 22.928 87.2063 22.7693 87.057 22.648C86.917 22.5173 86.735 22.4053 86.511 22.312C86.287 22.2093 86.0537 22.1113 85.811 22.018C85.5123 21.906 85.2137 21.7707 84.915 21.612C84.6257 21.444 84.3877 21.234 84.201 20.982C84.0143 20.7207 83.921 20.3987 83.921 20.016C83.921 19.4093 84.145 18.9147 84.593 18.532C85.041 18.1493 85.6477 17.958 86.413 17.958C86.8983 17.958 87.3323 18.042 87.715 18.21C88.0977 18.378 88.429 18.5693 88.709 18.784L87.967 19.764C87.7243 19.5867 87.477 19.4467 87.225 19.344C86.9823 19.232 86.7257 19.176 86.455 19.176C86.1097 19.176 85.853 19.2507 85.685 19.4C85.517 19.54 85.433 19.7173 85.433 19.932C85.433 20.2027 85.573 20.408 85.853 20.548C86.133 20.688 86.4597 20.8233 86.833 20.954C87.1503 21.066 87.4583 21.206 87.757 21.374C88.0557 21.5327 88.303 21.7427 88.499 22.004C88.7043 22.2653 88.807 22.6107 88.807 23.04C88.807 23.628 88.5783 24.132 88.121 24.552C87.6637 24.9627 87.001 25.168 86.133 25.168Z" fill="#333333"/>
</svg>
