<svg width="200" height="48" fill="none" xmlns="http://www.w3.org/2000/svg">
    <rect y="-0.000244141" width="200" height="48" rx="4" fill="#502D17"/>
    <path d="M28.0274 31.3245C28.0274 31.4238 27.9161 31.5032 27.7758 31.5032C27.6161 31.5181 27.5048 31.4387 27.5048 31.3245C27.5048 31.2253 27.6161 31.1459 27.7565 31.1459C27.9016 31.131 28.0274 31.2104 28.0274 31.3245ZM26.5226 31.1012C26.4887 31.2005 26.5855 31.3146 26.7306 31.3444C26.8565 31.394 27.0016 31.3444 27.0306 31.2451C27.0597 31.1459 26.9677 31.0317 26.8226 30.9871C26.6968 30.9523 26.5565 31.0019 26.5226 31.1012ZM28.6613 31.0168C28.521 31.0516 28.4242 31.1459 28.4387 31.26C28.4532 31.3593 28.579 31.4238 28.7242 31.389C28.8645 31.3543 28.9613 31.26 28.9468 31.1608C28.9323 31.0665 28.8016 31.0019 28.6613 31.0168ZM31.8452 11.9998C25.1339 11.9998 20 17.2255 20 24.1088C20 29.6124 23.3774 34.322 28.2016 35.9795C28.821 36.0937 29.0387 35.7016 29.0387 35.379C29.0387 35.0714 29.0242 33.3741 29.0242 32.332C29.0242 32.332 25.6371 33.0764 24.9258 30.8531C24.9258 30.8531 24.3742 29.4089 23.5806 29.0367C23.5806 29.0367 22.4726 28.2576 23.6581 28.2725C23.6581 28.2725 24.8629 28.3717 25.5258 29.5528C26.5855 31.4684 28.3613 30.9176 29.0532 30.59C29.1645 29.796 29.479 29.2451 29.8274 28.9176C27.1226 28.6099 24.3935 28.2079 24.3935 23.4338C24.3935 22.0691 24.7613 21.3842 25.5355 20.5108C25.4097 20.1882 24.9984 18.8582 25.6613 17.1411C26.6726 16.8185 29 18.481 29 18.481C29.9677 18.2031 31.0081 18.0592 32.0387 18.0592C33.0694 18.0592 34.1097 18.2031 35.0774 18.481C35.0774 18.481 37.4048 16.8136 38.4161 17.1411C39.079 18.8632 38.6677 20.1882 38.5419 20.5108C39.3161 21.3892 39.7903 22.074 39.7903 23.4338C39.7903 28.2228 36.9403 28.605 34.2355 28.9176C34.6806 29.3097 35.0581 30.0541 35.0581 31.2203C35.0581 32.8927 35.0435 34.9622 35.0435 35.3691C35.0435 35.6917 35.2661 36.0838 35.8806 35.9696C40.7194 34.322 44 29.6124 44 24.1088C44 17.2255 38.5565 11.9998 31.8452 11.9998ZM24.7032 29.1161C24.6403 29.1657 24.6548 29.2799 24.7371 29.3742C24.8145 29.4536 24.9258 29.4883 24.9887 29.4238C25.0516 29.3742 25.0371 29.26 24.9548 29.1657C24.8774 29.0863 24.7661 29.0516 24.7032 29.1161ZM24.1806 28.7141C24.1468 28.7787 24.1952 28.8581 24.2919 28.9077C24.3694 28.9573 24.4661 28.9424 24.5 28.8729C24.5339 28.8084 24.4855 28.729 24.3887 28.6794C24.2919 28.6496 24.2145 28.6645 24.1806 28.7141ZM25.7484 30.4809C25.671 30.5454 25.7 30.6943 25.8113 30.7885C25.9226 30.9027 26.0629 30.9176 26.1258 30.8382C26.1887 30.7737 26.1597 30.6248 26.0629 30.5305C25.9565 30.4163 25.8113 30.4015 25.7484 30.4809ZM25.1968 29.7513C25.1194 29.801 25.1194 29.93 25.1968 30.0441C25.2742 30.1583 25.4048 30.2079 25.4677 30.1583C25.5452 30.0938 25.5452 29.9647 25.4677 29.8506C25.4 29.7365 25.2742 29.6868 25.1968 29.7513Z" fill="white"/>
    <path d="M57.408 30.1918C56.5333 30.1918 55.7493 29.9784 55.056 29.5518C54.3733 29.1144 53.8293 28.4904 53.424 27.6798C53.0293 26.8691 52.832 25.8931 52.832 24.7518C52.832 23.6211 53.0347 22.6504 53.44 21.8398C53.8453 21.0291 54.4 20.4051 55.104 19.9678C55.808 19.5304 56.6027 19.3118 57.488 19.3118C58.128 19.3118 58.6933 19.4451 59.184 19.7118C59.6747 19.9678 60.0693 20.2664 60.368 20.6078L59.648 21.4718C59.3707 21.1731 59.056 20.9331 58.704 20.7518C58.352 20.5704 57.952 20.4798 57.504 20.4798C56.8427 20.4798 56.2613 20.6558 55.76 21.0078C55.2693 21.3491 54.8853 21.8344 54.608 22.4638C54.3413 23.0931 54.208 23.8451 54.208 24.7198C54.208 25.5944 54.3413 26.3571 54.608 27.0078C54.8747 27.6478 55.248 28.1438 55.728 28.4958C56.2187 28.8478 56.7947 29.0238 57.456 29.0238C57.9573 29.0238 58.4053 28.9171 58.8 28.7038C59.1947 28.4904 59.5573 28.2024 59.888 27.8398L60.624 28.6718C60.208 29.1518 59.7387 29.5251 59.216 29.7918C58.6933 30.0584 58.0907 30.1918 57.408 30.1918ZM62.4526 29.9998V18.6078H63.7646V21.7118L63.7166 23.3118C64.09 22.9598 64.4793 22.6611 64.8846 22.4158C65.3006 22.1598 65.7753 22.0318 66.3086 22.0318C67.13 22.0318 67.7273 22.2931 68.1006 22.8158C68.4846 23.3278 68.6766 24.0798 68.6766 25.0718V29.9998H67.3646V25.2478C67.3646 24.5224 67.2473 23.9944 67.0126 23.6638C66.778 23.3331 66.4046 23.1678 65.8926 23.1678C65.498 23.1678 65.1406 23.2691 64.8206 23.4718C64.5113 23.6744 64.1593 23.9731 63.7646 24.3678V29.9998H62.4526ZM74.3078 30.1918C73.6144 30.1918 72.9851 30.0318 72.4198 29.7118C71.8544 29.3811 71.4064 28.9118 71.0758 28.3038C70.7451 27.6958 70.5798 26.9704 70.5798 26.1278C70.5798 25.2744 70.7451 24.5438 71.0758 23.9358C71.4171 23.3278 71.8544 22.8584 72.3878 22.5278C72.9211 22.1971 73.4811 22.0318 74.0677 22.0318C75.0598 22.0318 75.8224 22.3624 76.3558 23.0238C76.8998 23.6851 77.1718 24.5704 77.1718 25.6798C77.1718 25.8184 77.1664 25.9571 77.1558 26.0958C77.1558 26.2238 77.1451 26.3358 77.1238 26.4318H71.8758C71.9291 27.2531 72.1851 27.9091 72.6438 28.3998C73.1131 28.8904 73.7211 29.1358 74.4678 29.1358C74.8411 29.1358 75.1824 29.0824 75.4918 28.9758C75.8118 28.8584 76.1158 28.7091 76.4038 28.5278L76.8678 29.3918C76.5371 29.6051 76.1584 29.7918 75.7318 29.9518C75.3158 30.1118 74.8411 30.1918 74.3078 30.1918ZM71.8598 25.4878H76.0198C76.0198 24.6984 75.8491 24.1011 75.5078 23.6958C75.1771 23.2798 74.7078 23.0718 74.0998 23.0718C73.5558 23.0718 73.0651 23.2851 72.6278 23.7118C72.2011 24.1278 71.9451 24.7198 71.8598 25.4878ZM82.1653 30.1918C81.4826 30.1918 80.8639 30.0318 80.3093 29.7118C79.7546 29.3918 79.3173 28.9278 78.9973 28.3198C78.6773 27.7118 78.5173 26.9811 78.5173 26.1278C78.5173 25.2531 78.6879 24.5118 79.0293 23.9038C79.3813 23.2958 79.8399 22.8318 80.4053 22.5118C80.9813 22.1918 81.5999 22.0318 82.2613 22.0318C82.7733 22.0318 83.2106 22.1224 83.5733 22.3038C83.9466 22.4851 84.2666 22.6984 84.5333 22.9438L83.8613 23.8078C83.6373 23.6051 83.3973 23.4398 83.1413 23.3118C82.8959 23.1838 82.6186 23.1198 82.3093 23.1198C81.8399 23.1198 81.4186 23.2478 81.0453 23.5038C80.6826 23.7491 80.3946 24.1011 80.1813 24.5598C79.9786 25.0078 79.8773 25.5304 79.8773 26.1278C79.8773 27.0131 80.0959 27.7331 80.5333 28.2878C80.9813 28.8318 81.5626 29.1038 82.2773 29.1038C82.6399 29.1038 82.9759 29.0291 83.2853 28.8798C83.5946 28.7198 83.8666 28.5331 84.1013 28.3198L84.6773 29.1998C84.3253 29.5091 83.9359 29.7544 83.5093 29.9358C83.0826 30.1064 82.6346 30.1918 82.1653 30.1918ZM86.3901 29.9998V18.6078H87.6861V26.3198H87.7341L91.0461 22.2238H92.5021L89.8941 25.3438L92.8541 29.9998H91.4141L89.1421 26.2558L87.6861 27.9518V29.9998H86.3901ZM100.539 30.1918C99.9098 30.1918 99.3178 30.0318 98.7631 29.7118C98.2191 29.3918 97.7765 28.9278 97.4351 28.3198C97.1045 27.7118 96.9391 26.9811 96.9391 26.1278C96.9391 25.2531 97.1045 24.5118 97.4351 23.9038C97.7765 23.2958 98.2191 22.8318 98.7631 22.5118C99.3178 22.1918 99.9098 22.0318 100.539 22.0318C101.179 22.0318 101.771 22.1918 102.315 22.5118C102.859 22.8318 103.296 23.2958 103.627 23.9038C103.968 24.5118 104.139 25.2531 104.139 26.1278C104.139 26.9811 103.968 27.7118 103.627 28.3198C103.296 28.9278 102.859 29.3918 102.315 29.7118C101.771 30.0318 101.179 30.1918 100.539 30.1918ZM100.539 29.1038C101.211 29.1038 101.75 28.8318 102.155 28.2878C102.571 27.7331 102.779 27.0131 102.779 26.1278C102.779 25.2318 102.571 24.5064 102.155 23.9518C101.75 23.3971 101.211 23.1198 100.539 23.1198C99.8778 23.1198 99.3391 23.3971 98.9231 23.9518C98.5071 24.5064 98.2991 25.2318 98.2991 26.1278C98.2991 27.0131 98.5071 27.7331 98.9231 28.2878C99.3391 28.8318 99.8778 29.1038 100.539 29.1038ZM108.459 30.1918C107.638 30.1918 107.035 29.9358 106.651 29.4238C106.267 28.9011 106.075 28.1438 106.075 27.1518V22.2238H107.403V26.9758C107.403 27.7011 107.515 28.2291 107.739 28.5598C107.974 28.8904 108.347 29.0558 108.859 29.0558C109.264 29.0558 109.622 28.9544 109.931 28.7518C110.251 28.5384 110.592 28.2024 110.955 27.7438V22.2238H112.267V29.9998H111.179L111.067 28.7838H111.019C110.656 29.2104 110.272 29.5518 109.867 29.8078C109.462 30.0638 108.992 30.1918 108.459 30.1918ZM117.338 30.1918C116.506 30.1918 115.925 29.9518 115.594 29.4718C115.274 28.9918 115.114 28.3678 115.114 27.5998V23.2958H113.962V22.3038L115.178 22.2238L115.338 20.0478H116.442V22.2238H118.538V23.2958H116.442V27.6158C116.442 28.0958 116.527 28.4691 116.698 28.7358C116.879 28.9918 117.194 29.1198 117.642 29.1198C117.781 29.1198 117.93 29.0984 118.09 29.0558C118.25 29.0024 118.394 28.9544 118.522 28.9118L118.778 29.9038C118.565 29.9784 118.33 30.0424 118.074 30.0958C117.829 30.1598 117.583 30.1918 117.338 30.1918ZM125.948 30.1918C125.116 30.1918 124.534 29.9518 124.204 29.4718C123.884 28.9918 123.724 28.3678 123.724 27.5998V23.2958H122.572V22.3038L123.788 22.2238L123.948 20.0478H125.052V22.2238H127.148V23.2958H125.052V27.6158C125.052 28.0958 125.137 28.4691 125.308 28.7358C125.489 28.9918 125.804 29.1198 126.252 29.1198C126.39 29.1198 126.54 29.0984 126.7 29.0558C126.86 29.0024 127.004 28.9544 127.132 28.9118L127.388 29.9038C127.174 29.9784 126.94 30.0424 126.684 30.0958C126.438 30.1598 126.193 30.1918 125.948 30.1918ZM128.906 29.9998V18.6078H130.218V21.7118L130.17 23.3118C130.543 22.9598 130.932 22.6611 131.338 22.4158C131.754 22.1598 132.228 22.0318 132.762 22.0318C133.583 22.0318 134.18 22.2931 134.554 22.8158C134.938 23.3278 135.13 24.0798 135.13 25.0718V29.9998H133.818V25.2478C133.818 24.5224 133.7 23.9944 133.466 23.6638C133.231 23.3331 132.858 23.1678 132.346 23.1678C131.951 23.1678 131.594 23.2691 131.274 23.4718C130.964 23.6744 130.612 23.9731 130.218 24.3678V29.9998H128.906ZM140.761 30.1918C140.068 30.1918 139.438 30.0318 138.873 29.7118C138.308 29.3811 137.86 28.9118 137.529 28.3038C137.198 27.6958 137.033 26.9704 137.033 26.1278C137.033 25.2744 137.198 24.5438 137.529 23.9358C137.87 23.3278 138.308 22.8584 138.841 22.5278C139.374 22.1971 139.934 22.0318 140.521 22.0318C141.513 22.0318 142.276 22.3624 142.809 23.0238C143.353 23.6851 143.625 24.5704 143.625 25.6798C143.625 25.8184 143.62 25.9571 143.609 26.0958C143.609 26.2238 143.598 26.3358 143.577 26.4318H138.329C138.382 27.2531 138.638 27.9091 139.097 28.3998C139.566 28.8904 140.174 29.1358 140.921 29.1358C141.294 29.1358 141.636 29.0824 141.945 28.9758C142.265 28.8584 142.569 28.7091 142.857 28.5278L143.321 29.3918C142.99 29.6051 142.612 29.7918 142.185 29.9518C141.769 30.1118 141.294 30.1918 140.761 30.1918ZM138.313 25.4878H142.473C142.473 24.6984 142.302 24.1011 141.961 23.6958C141.63 23.2798 141.161 23.0718 140.553 23.0718C140.009 23.0718 139.518 23.2851 139.081 23.7118C138.654 24.1278 138.398 24.7198 138.313 25.4878ZM151.822 30.1918C151.139 30.1918 150.52 30.0318 149.966 29.7118C149.411 29.3918 148.974 28.9278 148.654 28.3198C148.334 27.7118 148.174 26.9811 148.174 26.1278C148.174 25.2531 148.344 24.5118 148.686 23.9038C149.038 23.2958 149.496 22.8318 150.062 22.5118C150.638 22.1918 151.256 22.0318 151.918 22.0318C152.43 22.0318 152.867 22.1224 153.23 22.3038C153.603 22.4851 153.923 22.6984 154.19 22.9438L153.518 23.8078C153.294 23.6051 153.054 23.4398 152.798 23.3118C152.552 23.1838 152.275 23.1198 151.966 23.1198C151.496 23.1198 151.075 23.2478 150.702 23.5038C150.339 23.7491 150.051 24.1011 149.838 24.5598C149.635 25.0078 149.534 25.5304 149.534 26.1278C149.534 27.0131 149.752 27.7331 150.19 28.2878C150.638 28.8318 151.219 29.1038 151.934 29.1038C152.296 29.1038 152.632 29.0291 152.942 28.8798C153.251 28.7198 153.523 28.5331 153.758 28.3198L154.334 29.1998C153.982 29.5091 153.592 29.7544 153.166 29.9358C152.739 30.1064 152.291 30.1918 151.822 30.1918ZM158.727 30.1918C158.097 30.1918 157.505 30.0318 156.951 29.7118C156.407 29.3918 155.964 28.9278 155.623 28.3198C155.292 27.7118 155.127 26.9811 155.127 26.1278C155.127 25.2531 155.292 24.5118 155.623 23.9038C155.964 23.2958 156.407 22.8318 156.951 22.5118C157.505 22.1918 158.097 22.0318 158.727 22.0318C159.367 22.0318 159.959 22.1918 160.503 22.5118C161.047 22.8318 161.484 23.2958 161.815 23.9038C162.156 24.5118 162.327 25.2531 162.327 26.1278C162.327 26.9811 162.156 27.7118 161.815 28.3198C161.484 28.9278 161.047 29.3918 160.503 29.7118C159.959 30.0318 159.367 30.1918 158.727 30.1918ZM158.727 29.1038C159.399 29.1038 159.937 28.8318 160.343 28.2878C160.759 27.7331 160.967 27.0131 160.967 26.1278C160.967 25.2318 160.759 24.5064 160.343 23.9518C159.937 23.3971 159.399 23.1198 158.727 23.1198C158.065 23.1198 157.527 23.3971 157.111 23.9518C156.695 24.5064 156.487 25.2318 156.487 26.1278C156.487 27.0131 156.695 27.7331 157.111 28.2878C157.527 28.8318 158.065 29.1038 158.727 29.1038ZM167.031 30.1918C166.06 30.1918 165.281 29.8398 164.695 29.1358C164.108 28.4211 163.815 27.4184 163.815 26.1278C163.815 25.2851 163.969 24.5598 164.279 23.9518C164.599 23.3331 165.015 22.8584 165.527 22.5278C166.049 22.1971 166.604 22.0318 167.191 22.0318C167.639 22.0318 168.028 22.1118 168.359 22.2718C168.689 22.4318 169.025 22.6504 169.367 22.9278L169.303 21.5998V18.6078H170.631V29.9998H169.543L169.431 29.0878H169.383C169.084 29.3864 168.732 29.6478 168.327 29.8718C167.921 30.0851 167.489 30.1918 167.031 30.1918ZM167.319 29.0878C168.001 29.0878 168.663 28.7304 169.303 28.0158V23.9518C168.972 23.6531 168.652 23.4451 168.343 23.3278C168.044 23.1998 167.735 23.1358 167.415 23.1358C166.999 23.1358 166.62 23.2638 166.279 23.5198C165.948 23.7651 165.681 24.1118 165.479 24.5598C165.276 24.9971 165.174 25.5144 165.174 26.1118C165.174 27.0398 165.361 27.7704 165.735 28.3038C166.108 28.8264 166.636 29.0878 167.319 29.0878ZM176.402 30.1918C175.708 30.1918 175.079 30.0318 174.514 29.7118C173.948 29.3811 173.5 28.9118 173.17 28.3038C172.839 27.6958 172.674 26.9704 172.674 26.1278C172.674 25.2744 172.839 24.5438 173.17 23.9358C173.511 23.3278 173.948 22.8584 174.482 22.5278C175.015 22.1971 175.575 22.0318 176.161 22.0318C177.154 22.0318 177.916 22.3624 178.45 23.0238C178.994 23.6851 179.266 24.5704 179.266 25.6798C179.266 25.8184 179.26 25.9571 179.25 26.0958C179.25 26.2238 179.239 26.3358 179.218 26.4318H173.97C174.023 27.2531 174.279 27.9091 174.738 28.3998C175.207 28.8904 175.815 29.1358 176.562 29.1358C176.935 29.1358 177.276 29.0824 177.586 28.9758C177.906 28.8584 178.21 28.7091 178.498 28.5278L178.962 29.3918C178.631 29.6051 178.252 29.7918 177.826 29.9518C177.41 30.1118 176.935 30.1918 176.402 30.1918ZM173.954 25.4878H178.114C178.114 24.6984 177.943 24.1011 177.602 23.6958C177.271 23.2798 176.802 23.0718 176.194 23.0718C175.65 23.0718 175.159 23.2851 174.722 23.7118C174.295 24.1278 174.039 24.7198 173.954 25.4878Z" fill="white"/>
</svg>