<svg width="152" height="50" fill="none" xmlns="http://www.w3.org/2000/svg">
<rect x="0.5" y="0.499756" width="151" height="49" rx="4.5" fill="white"/>
<path d="M18.392 31.1918C17.08 31.1918 16.1147 30.6318 15.496 29.5118L16.456 28.8398C16.6907 29.2558 16.9573 29.5598 17.256 29.7518C17.5547 29.9331 17.8907 30.0238 18.264 30.0238C18.8293 30.0238 19.2507 29.8531 19.528 29.5118C19.8053 29.1598 19.944 28.5838 19.944 27.7838V20.5038H21.288V27.9118C21.288 28.5091 21.1867 29.0584 20.984 29.5598C20.792 30.0611 20.4827 30.4611 20.056 30.7598C19.6293 31.0478 19.0747 31.1918 18.392 31.1918ZM27.0235 31.1918C26.3942 31.1918 25.8022 31.0318 25.2475 30.7118C24.7035 30.3918 24.2608 29.9278 23.9195 29.3198C23.5888 28.7118 23.4235 27.9811 23.4235 27.1278C23.4235 26.2531 23.5888 25.5118 23.9195 24.9038C24.2608 24.2958 24.7035 23.8318 25.2475 23.5118C25.8022 23.1918 26.3942 23.0318 27.0235 23.0318C27.6635 23.0318 28.2555 23.1918 28.7995 23.5118C29.3435 23.8318 29.7808 24.2958 30.1115 24.9038C30.4528 25.5118 30.6235 26.2531 30.6235 27.1278C30.6235 27.9811 30.4528 28.7118 30.1115 29.3198C29.7808 29.9278 29.3435 30.3918 28.7995 30.7118C28.2555 31.0318 27.6635 31.1918 27.0235 31.1918ZM27.0235 30.1038C27.6955 30.1038 28.2342 29.8318 28.6395 29.2878C29.0555 28.7331 29.2635 28.0131 29.2635 27.1278C29.2635 26.2318 29.0555 25.5064 28.6395 24.9518C28.2342 24.3971 27.6955 24.1198 27.0235 24.1198C26.3622 24.1198 25.8235 24.3971 25.4075 24.9518C24.9915 25.5064 24.7835 26.2318 24.7835 27.1278C24.7835 28.0131 24.9915 28.7331 25.4075 29.2878C25.8235 29.8318 26.3622 30.1038 27.0235 30.1038ZM32.6714 30.9998V23.2238H33.9834V30.9998H32.6714ZM33.3434 21.6238C33.0874 21.6238 32.874 21.5491 32.7034 21.3998C32.5434 21.2398 32.4634 21.0264 32.4634 20.7598C32.4634 20.5038 32.5434 20.2958 32.7034 20.1358C32.874 19.9758 33.0874 19.8958 33.3434 19.8958C33.5994 19.8958 33.8074 19.9758 33.9674 20.1358C34.138 20.2958 34.2234 20.5038 34.2234 20.7598C34.2234 21.0264 34.138 21.2398 33.9674 21.3998C33.8074 21.5491 33.5994 21.6238 33.3434 21.6238ZM36.6089 30.9998V23.2238H37.6969L37.8089 24.3438H37.8569C38.2302 23.9704 38.6249 23.6611 39.0409 23.4158C39.4569 23.1598 39.9315 23.0318 40.4649 23.0318C41.2862 23.0318 41.8835 23.2931 42.2569 23.8158C42.6409 24.3278 42.8329 25.0798 42.8329 26.0718V30.9998H41.5209V26.2478C41.5209 25.5224 41.4035 24.9944 41.1689 24.6638C40.9342 24.3331 40.5609 24.1678 40.0489 24.1678C39.6542 24.1678 39.2969 24.2691 38.9769 24.4718C38.6675 24.6744 38.3155 24.9731 37.9209 25.3678V30.9998H36.6089ZM50.834 31.1918C50.0127 31.1918 49.41 30.9358 49.026 30.4238C48.642 29.9011 48.45 29.1438 48.45 28.1518V23.2238H49.778V27.9758C49.778 28.7011 49.89 29.2291 50.114 29.5598C50.3487 29.8904 50.722 30.0558 51.234 30.0558C51.6393 30.0558 51.9967 29.9544 52.306 29.7518C52.626 29.5384 52.9673 29.2024 53.33 28.7438V23.2238H54.642V30.9998H53.554L53.442 29.7838H53.394C53.0313 30.2104 52.6473 30.5518 52.242 30.8078C51.8367 31.0638 51.3673 31.1918 50.834 31.1918ZM59.2971 31.1918C58.7425 31.1918 58.2145 31.0904 57.7131 30.8878C57.2118 30.6744 56.7745 30.4184 56.4011 30.1198L57.0571 29.2398C57.3985 29.5064 57.7505 29.7304 58.1131 29.9118C58.4758 30.0824 58.8865 30.1678 59.3451 30.1678C59.8571 30.1678 60.2411 30.0504 60.4971 29.8158C60.7531 29.5704 60.8811 29.2824 60.8811 28.9518C60.8811 28.6851 60.7905 28.4611 60.6091 28.2798C60.4385 28.0984 60.2145 27.9491 59.9371 27.8318C59.6705 27.7038 59.3931 27.5864 59.1051 27.4798C58.7425 27.3411 58.3851 27.1864 58.0331 27.0158C57.6811 26.8344 57.3931 26.6051 57.1691 26.3278C56.9451 26.0398 56.8331 25.6771 56.8331 25.2398C56.8331 24.6104 57.0678 24.0878 57.5371 23.6718C58.0171 23.2451 58.6785 23.0318 59.5211 23.0318C60.0011 23.0318 60.4491 23.1171 60.8651 23.2878C61.2811 23.4584 61.6385 23.6664 61.9371 23.9118L61.2971 24.7438C61.0305 24.5411 60.7531 24.3758 60.4651 24.2478C60.1771 24.1198 59.8625 24.0558 59.5211 24.0558C59.0305 24.0558 58.6678 24.1678 58.4331 24.3918C58.2091 24.6158 58.0971 24.8771 58.0971 25.1758C58.0971 25.4211 58.1771 25.6238 58.3371 25.7838C58.4971 25.9331 58.7051 26.0664 58.9611 26.1838C59.2171 26.2904 59.4891 26.4024 59.7771 26.5198C60.1505 26.6584 60.5185 26.8184 60.8811 26.9998C61.2438 27.1704 61.5425 27.4051 61.7771 27.7038C62.0225 27.9918 62.1451 28.3811 62.1451 28.8718C62.1451 29.2878 62.0331 29.6718 61.8091 30.0238C61.5958 30.3758 61.2758 30.6584 60.8491 30.8718C60.4331 31.0851 59.9158 31.1918 59.2971 31.1918ZM70.1954 31.1918C69.566 31.1918 68.974 31.0318 68.4194 30.7118C67.8754 30.3918 67.4327 29.9278 67.0914 29.3198C66.7607 28.7118 66.5954 27.9811 66.5954 27.1278C66.5954 26.2531 66.7607 25.5118 67.0914 24.9038C67.4327 24.2958 67.8754 23.8318 68.4194 23.5118C68.974 23.1918 69.566 23.0318 70.1954 23.0318C70.8354 23.0318 71.4274 23.1918 71.9714 23.5118C72.5154 23.8318 72.9527 24.2958 73.2834 24.9038C73.6247 25.5118 73.7954 26.2531 73.7954 27.1278C73.7954 27.9811 73.6247 28.7118 73.2834 29.3198C72.9527 29.9278 72.5154 30.3918 71.9714 30.7118C71.4274 31.0318 70.8354 31.1918 70.1954 31.1918ZM70.1954 30.1038C70.8674 30.1038 71.406 29.8318 71.8114 29.2878C72.2274 28.7331 72.4354 28.0131 72.4354 27.1278C72.4354 26.2318 72.2274 25.5064 71.8114 24.9518C71.406 24.3971 70.8674 24.1198 70.1954 24.1198C69.534 24.1198 68.9954 24.3971 68.5794 24.9518C68.1634 25.5064 67.9554 26.2318 67.9554 27.1278C67.9554 28.0131 68.1634 28.7331 68.5794 29.2878C68.9954 29.8318 69.534 30.1038 70.1954 30.1038ZM75.8433 30.9998V23.2238H76.9313L77.0433 24.3438H77.0913C77.4646 23.9704 77.8593 23.6611 78.2753 23.4158C78.6913 23.1598 79.1659 23.0318 79.6993 23.0318C80.5206 23.0318 81.1179 23.2931 81.4913 23.8158C81.8753 24.3278 82.0673 25.0798 82.0673 26.0718V30.9998H80.7553V26.2478C80.7553 25.5224 80.6379 24.9944 80.4033 24.6638C80.1686 24.3331 79.7953 24.1678 79.2833 24.1678C78.8886 24.1678 78.5313 24.2691 78.2113 24.4718C77.9019 24.6744 77.5499 24.9731 77.1553 25.3678V30.9998H75.8433ZM87.9244 30.9998V20.5038H90.5484C92.1697 20.5038 93.4017 20.9571 94.2444 21.8638C95.087 22.7598 95.5084 24.0398 95.5084 25.7038C95.5084 27.3784 95.087 28.6798 94.2444 29.6078C93.4124 30.5358 92.2017 30.9998 90.6124 30.9998H87.9244ZM89.2524 29.9118H90.4524C91.679 29.9118 92.5964 29.5438 93.2044 28.8078C93.823 28.0611 94.1324 27.0264 94.1324 25.7038C94.1324 24.3811 93.823 23.3678 93.2044 22.6638C92.5964 21.9491 91.679 21.5918 90.4524 21.5918H89.2524V29.9118ZM97.6401 30.9998V23.2238H98.9521V30.9998H97.6401ZM98.3121 21.6238C98.0561 21.6238 97.8428 21.5491 97.6721 21.3998C97.5121 21.2398 97.4321 21.0264 97.4321 20.7598C97.4321 20.5038 97.5121 20.2958 97.6721 20.1358C97.8428 19.9758 98.0561 19.8958 98.3121 19.8958C98.5681 19.8958 98.7761 19.9758 98.9361 20.1358C99.1068 20.2958 99.1921 20.5038 99.1921 20.7598C99.1921 21.0264 99.1068 21.2398 98.9361 21.3998C98.7761 21.5491 98.5681 21.6238 98.3121 21.6238ZM103.61 31.1918C103.055 31.1918 102.527 31.0904 102.026 30.8878C101.524 30.6744 101.087 30.4184 100.714 30.1198L101.37 29.2398C101.711 29.5064 102.063 29.7304 102.426 29.9118C102.788 30.0824 103.199 30.1678 103.658 30.1678C104.17 30.1678 104.554 30.0504 104.81 29.8158C105.066 29.5704 105.194 29.2824 105.194 28.9518C105.194 28.6851 105.103 28.4611 104.922 28.2798C104.751 28.0984 104.527 27.9491 104.25 27.8318C103.983 27.7038 103.706 27.5864 103.418 27.4798C103.055 27.3411 102.698 27.1864 102.346 27.0158C101.994 26.8344 101.706 26.6051 101.482 26.3278C101.258 26.0398 101.146 25.6771 101.146 25.2398C101.146 24.6104 101.38 24.0878 101.85 23.6718C102.33 23.2451 102.991 23.0318 103.834 23.0318C104.314 23.0318 104.762 23.1171 105.178 23.2878C105.594 23.4584 105.951 23.6664 106.25 23.9118L105.61 24.7438C105.343 24.5411 105.066 24.3758 104.778 24.2478C104.49 24.1198 104.175 24.0558 103.834 24.0558C103.343 24.0558 102.98 24.1678 102.746 24.3918C102.522 24.6158 102.41 24.8771 102.41 25.1758C102.41 25.4211 102.49 25.6238 102.65 25.7838C102.81 25.9331 103.018 26.0664 103.274 26.1838C103.53 26.2904 103.802 26.4024 104.09 26.5198C104.463 26.6584 104.831 26.8184 105.194 26.9998C105.556 27.1704 105.855 27.4051 106.09 27.7038C106.335 27.9918 106.458 28.3811 106.458 28.8718C106.458 29.2878 106.346 29.6718 106.122 30.0238C105.908 30.3758 105.588 30.6584 105.162 30.8718C104.746 31.0851 104.228 31.1918 103.61 31.1918ZM111.353 31.1918C110.67 31.1918 110.051 31.0318 109.497 30.7118C108.942 30.3918 108.505 29.9278 108.185 29.3198C107.865 28.7118 107.705 27.9811 107.705 27.1278C107.705 26.2531 107.875 25.5118 108.217 24.9038C108.569 24.2958 109.027 23.8318 109.593 23.5118C110.169 23.1918 110.787 23.0318 111.449 23.0318C111.961 23.0318 112.398 23.1224 112.761 23.3038C113.134 23.4851 113.454 23.6984 113.721 23.9438L113.049 24.8078C112.825 24.6051 112.585 24.4398 112.329 24.3118C112.083 24.1838 111.806 24.1198 111.497 24.1198C111.027 24.1198 110.606 24.2478 110.233 24.5038C109.87 24.7491 109.582 25.1011 109.369 25.5598C109.166 26.0078 109.065 26.5304 109.065 27.1278C109.065 28.0131 109.283 28.7331 109.721 29.2878C110.169 29.8318 110.75 30.1038 111.465 30.1038C111.827 30.1038 112.163 30.0291 112.473 29.8798C112.782 29.7198 113.054 29.5331 113.289 29.3198L113.865 30.1998C113.513 30.5091 113.123 30.7544 112.697 30.9358C112.27 31.1064 111.822 31.1918 111.353 31.1918ZM118.258 31.1918C117.629 31.1918 117.037 31.0318 116.482 30.7118C115.938 30.3918 115.495 29.9278 115.154 29.3198C114.823 28.7118 114.658 27.9811 114.658 27.1278C114.658 26.2531 114.823 25.5118 115.154 24.9038C115.495 24.2958 115.938 23.8318 116.482 23.5118C117.037 23.1918 117.629 23.0318 118.258 23.0318C118.898 23.0318 119.49 23.1918 120.034 23.5118C120.578 23.8318 121.015 24.2958 121.346 24.9038C121.687 25.5118 121.858 26.2531 121.858 27.1278C121.858 27.9811 121.687 28.7118 121.346 29.3198C121.015 29.9278 120.578 30.3918 120.034 30.7118C119.49 31.0318 118.898 31.1918 118.258 31.1918ZM118.258 30.1038C118.93 30.1038 119.469 29.8318 119.874 29.2878C120.29 28.7331 120.498 28.0131 120.498 27.1278C120.498 26.2318 120.29 25.5064 119.874 24.9518C119.469 24.3971 118.93 24.1198 118.258 24.1198C117.597 24.1198 117.058 24.3971 116.642 24.9518C116.226 25.5064 116.018 26.2318 116.018 27.1278C116.018 28.0131 116.226 28.7331 116.642 29.2878C117.058 29.8318 117.597 30.1038 118.258 30.1038ZM123.906 30.9998V23.2238H124.994L125.106 24.6318H125.154C125.42 24.1411 125.746 23.7518 126.13 23.4638C126.514 23.1758 126.924 23.0318 127.362 23.0318C127.671 23.0318 127.948 23.0851 128.194 23.1918L127.938 24.3438C127.81 24.3011 127.692 24.2691 127.586 24.2478C127.479 24.2264 127.346 24.2158 127.186 24.2158C126.855 24.2158 126.508 24.3491 126.146 24.6158C125.794 24.8824 125.484 25.3464 125.218 26.0078V30.9998H123.906ZM131.952 31.1918C130.982 31.1918 130.203 30.8398 129.616 30.1358C129.03 29.4211 128.736 28.4184 128.736 27.1278C128.736 26.2851 128.891 25.5598 129.2 24.9518C129.52 24.3331 129.936 23.8584 130.448 23.5278C130.971 23.1971 131.526 23.0318 132.112 23.0318C132.56 23.0318 132.95 23.1118 133.28 23.2718C133.611 23.4318 133.947 23.6504 134.288 23.9278L134.224 22.5998V19.6078H135.552V30.9998H134.464L134.352 30.0878H134.304C134.006 30.3864 133.654 30.6478 133.248 30.8718C132.843 31.0851 132.411 31.1918 131.952 31.1918ZM132.24 30.0878C132.923 30.0878 133.584 29.7304 134.224 29.0158V24.9518C133.894 24.6531 133.574 24.4451 133.264 24.3278C132.966 24.1998 132.656 24.1358 132.336 24.1358C131.92 24.1358 131.542 24.2638 131.2 24.5198C130.87 24.7651 130.603 25.1118 130.4 25.5598C130.198 25.9971 130.096 26.5144 130.096 27.1118C130.096 28.0398 130.283 28.7704 130.656 29.3038C131.03 29.8264 131.558 30.0878 132.24 30.0878Z" fill="#502D17"/>
<rect x="0.5" y="0.499756" width="151" height="49" rx="4.5" stroke="#502D17"/>
</svg>