<svg width="53" height="60" viewBox="0 0 53 60" fill="none" xmlns="http://www.w3.org/2000/svg">
<g clip-path="url(#clip0_1828_31121)">
<path d="M51.167 46.135L27.997 59.5222C27.5085 59.8066 26.9533 59.9565 26.388 59.9565C25.8227 59.9565 25.2675 59.8066 24.779 59.5222L1.60905 46.135C0.611459 45.5557 0 44.494 0 43.3675V16.5932C0 15.4348 0.611459 14.4051 1.60905 13.8258L24.779 0.438598C25.2675 0.154138 25.8227 0.00427246 26.388 0.00427246C26.9533 0.00427246 27.5085 0.154138 27.997 0.438598L51.167 13.8258C52.1647 14.4051 52.776 15.467 52.776 16.5932V43.3675C52.7438 44.4938 52.1324 45.5557 51.167 46.135Z" fill="#8D6748"/>
<path d="M26.3558 4.0752C25.8732 4.0752 25.3904 4.20384 24.9721 4.46133L4.95574 16.0141C4.08679 16.4969 3.57202 17.43 3.57202 18.3952V41.501C3.57202 42.4986 4.08679 43.3997 4.95574 43.8825L24.9721 55.4353C25.3904 55.6928 25.873 55.8214 26.3558 55.8214C26.8382 55.8214 27.3212 55.6928 27.7395 55.4353L47.7558 43.8823C48.6248 43.3997 49.1396 42.4664 49.1396 41.5012V18.3952C49.1396 17.3978 48.6248 16.4969 47.7558 16.0141L27.7395 4.46112C27.321 4.20384 26.8384 4.0752 26.3558 4.0752ZM26.3558 5.04063C26.6774 5.04063 26.9673 5.13711 27.2567 5.29811L47.273 16.8509C47.8202 17.1725 48.1739 17.7842 48.1739 18.4278V41.5334C48.1739 42.177 47.8202 42.7882 47.273 43.1101L27.2569 54.6628C26.9673 54.8236 26.6776 54.9203 26.3558 54.9203C26.0374 54.919 25.7256 54.8298 25.4547 54.6626L5.43835 43.1103C4.89122 42.7885 4.53725 42.1772 4.53725 41.5336V18.4278C4.53725 17.7842 4.89122 17.1727 5.43815 16.8507L25.4545 5.29811C25.7441 5.13711 26.0659 5.04042 26.3554 5.04042L26.3558 5.04063ZM24.5053 25.1856H27.2085C27.3051 25.1856 27.3695 25.1532 27.4338 25.0889C29.0428 23.2869 29.2038 19.5217 29.2038 18.3954C29.2038 18.2346 29.075 18.0736 28.882 18.0736H22.832C22.6712 18.0736 22.5102 18.2023 22.5102 18.3954C22.5102 19.4895 22.6712 23.2547 24.2802 25.0889C24.3445 25.1532 24.4089 25.1856 24.5053 25.1856ZM23.7652 19.0712H28.0131C28.1739 19.0712 28.3349 19.1998 28.3349 19.393C28.3349 20.2941 28.1739 22.8362 27.0798 24.1556C26.9833 24.2202 26.919 24.2523 26.8223 24.2523H24.9238C24.8271 24.2523 24.7628 24.2202 24.6985 24.1556C23.6042 22.8686 23.4756 20.2941 23.4434 19.393C23.4434 19.2322 23.5721 19.0712 23.7652 19.0712ZM26.4684 17.4302C26.4684 17.4302 27.627 16.7542 26.9188 15.5315C26.5005 14.8877 26.3076 14.3407 26.4684 14.1154C26.0501 14.6304 25.3421 15.1773 26.1144 16.3359C26.3721 16.6256 26.5005 17.2368 26.4684 17.43V17.4302ZM25.1811 17.5265C25.1811 17.5265 25.9534 17.076 25.4708 16.2392C25.1811 15.8209 25.0525 15.4348 25.1811 15.306C24.8915 15.6599 24.441 16.0139 24.9558 16.8185C25.1168 16.9793 25.1811 17.3978 25.1811 17.5265ZM25.0846 23.8662H26.6937C26.758 23.8662 26.8223 23.834 26.8866 23.7697C27.4338 23.1261 27.6913 22.1285 27.8199 21.2596C27.8199 21.2596 27.7878 21.5492 27.0155 21.8389C25.9538 22.225 24.087 21.9675 24.087 21.9675C24.2478 22.6433 24.5055 23.2869 24.8915 23.7697C24.9236 23.834 25.0203 23.8662 25.0846 23.8662ZM12.9847 32.9088V26.4728H11.7942L9.83113 29.4978L7.86811 26.4728H6.67735V32.941H7.80359V28.3392L9.79876 31.3319H9.83093L11.8585 28.307V32.9088H12.9847ZM20.1934 26.6015C19.7749 26.4407 19.3244 26.344 18.8418 26.344C18.359 26.344 17.9085 26.4083 17.49 26.6017C17.0715 26.7625 16.7178 27.0198 16.4281 27.3094C16.124 27.6129 15.8833 27.9739 15.7202 28.3713C15.5594 28.7898 15.4625 29.2079 15.4625 29.6586V29.6907C15.4625 30.1412 15.5594 30.5918 15.7202 30.978C15.881 31.3965 16.1063 31.7502 16.396 32.0399C16.6856 32.3295 17.0396 32.587 17.4577 32.7478C17.8762 32.9088 18.3268 33.0055 18.8094 33.0055C19.2923 33.0055 19.7427 32.941 20.1612 32.7478C20.5795 32.587 20.9335 32.3295 21.2229 32.0399C21.5271 31.7365 21.7679 31.3756 21.9311 30.9782C22.0919 30.5597 22.1885 30.1412 22.1885 29.6907V29.6586C22.1885 29.2079 22.0917 28.7577 21.9309 28.3713C21.7701 27.953 21.5449 27.5991 21.2553 27.3096C20.9656 27.0198 20.6117 26.7623 20.1934 26.6015ZM20.9656 29.7229C20.9656 30.0125 20.9013 30.3022 20.8046 30.5918C20.676 30.8491 20.5473 31.1066 20.3542 31.2998C20.1565 31.4962 19.9283 31.6591 19.6784 31.7824C19.4207 31.9112 19.1313 31.9756 18.8094 31.9756C18.52 31.9756 18.1982 31.9112 17.9407 31.7824C17.6908 31.6592 17.4626 31.4963 17.2649 31.3C17.0718 31.0744 16.9109 30.8491 16.8143 30.5599C16.7178 30.27 16.6535 29.9806 16.6535 29.6586V29.6264C16.6535 29.3368 16.7178 29.0471 16.8143 28.7575C16.9431 28.5 17.0718 28.2427 17.2649 28.0495C17.4626 27.8531 17.6908 27.69 17.9407 27.5667C18.1982 27.4381 18.4876 27.3737 18.8094 27.3737C19.131 27.3737 19.4209 27.4381 19.6784 27.5667C19.9283 27.69 20.1565 27.8531 20.3542 28.0495C20.5473 28.2748 20.7081 28.5 20.8046 28.7896C20.9013 29.0793 20.9654 29.3689 20.9654 29.6907V29.7229H20.9656ZM25.7283 28.7575C25.8569 28.5 25.9857 28.2425 26.1787 28.0495C26.3764 27.8532 26.6047 27.6901 26.8545 27.5667C27.112 27.4381 27.3695 27.3737 27.6913 27.3737C28.0774 27.3737 28.3992 27.4381 28.6889 27.5989C28.9785 27.7599 29.236 27.953 29.4933 28.1782L30.2336 27.3416C30.0726 27.1808 29.9118 27.0519 29.7508 26.9231C29.59 26.7944 29.3968 26.698 29.2038 26.6015C28.9785 26.5369 28.7853 26.4726 28.5279 26.4083C28.2706 26.3761 28.0131 26.344 27.7234 26.344C27.2085 26.344 26.7902 26.4405 26.3719 26.6013C25.9536 26.7623 25.5996 27.0198 25.31 27.3094C25.0259 27.6224 24.7974 27.9815 24.6342 28.3713C24.4655 28.7796 24.3781 29.2168 24.3767 29.6586V29.6907C24.3767 30.1412 24.4732 30.5595 24.6342 30.978C24.795 31.3965 25.0203 31.7502 25.31 32.0399C25.5996 32.3295 25.9536 32.587 26.3397 32.7478C26.747 32.9197 27.1849 33.0073 27.627 33.0055C27.9166 33.0055 28.206 33.0055 28.4957 32.941C28.721 32.9088 28.9785 32.8121 29.1715 32.7157C29.3646 32.6192 29.5578 32.5225 29.7508 32.3617C29.9439 32.2009 30.1047 32.072 30.2658 31.8789L29.5257 31.1388C29.236 31.3965 28.9464 31.5894 28.6889 31.7502C28.4314 31.9112 28.0774 31.9756 27.6913 31.9756C27.4016 31.9756 27.112 31.8789 26.8545 31.7824C26.5972 31.6859 26.3719 31.4927 26.1787 31.3C25.9857 31.0744 25.8247 30.8491 25.7283 30.5595C25.6318 30.27 25.5672 29.9804 25.5672 29.6586V29.6264C25.5672 29.3368 25.6318 29.0471 25.7283 28.7575ZM32.5184 26.4728V32.9088H33.6447V30.2057H36.7341V32.9088H37.8603V26.4726H36.7341V29.1438H33.6447V26.4726H32.5184V26.4728ZM44.8756 31.3643L45.5193 32.909H46.7098L43.878 26.4407H42.8481L40.0163 32.9088H41.1749L41.8505 31.3641H44.8756V31.3643ZM43.3631 27.7922L44.4571 30.3667H42.269L43.3631 27.7922ZM5.87293 35.2899H46.903V34.936H5.87293V35.2899ZM29.4613 22.836C29.4613 22.9647 29.429 23.0614 29.429 23.1902H46.903V22.836H29.4611H29.4613ZM22.285 22.836H5.87293V23.1902H22.3172C22.3172 23.0616 22.2848 22.9649 22.2848 22.836H22.285Z" fill="white"/>
</g>
<defs>
<clipPath id="clip0_1828_31121">
<rect width="52.776" height="60" fill="white"/>
</clipPath>
</defs>
</svg>
