<svg width="31" height="24" viewBox="0 0 31 24" fill="none" xmlns="http://www.w3.org/2000/svg">
<path d="M26.3593 2.40657C24.4319 1.5241 22.365 0.873939 20.2039 0.501562C20.1646 0.494375 20.1253 0.512335 20.105 0.548256C19.8392 1.02001 19.5447 1.63545 19.3386 2.11919C17.0142 1.77196 14.7017 1.77196 12.425 2.11919C12.2188 1.6247 11.9137 1.02001 11.6467 0.548256C11.6264 0.513534 11.5871 0.495574 11.5477 0.501562C9.38785 0.872749 7.32096 1.52291 5.39233 2.40657C5.37563 2.41376 5.36132 2.42574 5.35182 2.4413C1.43137 8.28564 0.35739 13.9863 0.884247 19.6164C0.886631 19.6439 0.902127 19.6703 0.923583 19.687C3.51019 21.5824 6.01576 22.7331 8.4748 23.4958C8.51415 23.5078 8.55585 23.4934 8.5809 23.4611C9.16258 22.6685 9.68111 21.8327 10.1257 20.9538C10.1519 20.9023 10.1269 20.8413 10.0733 20.8209C9.25079 20.5096 8.46764 20.13 7.71431 19.699C7.65472 19.6643 7.64995 19.5792 7.70477 19.5385C7.8633 19.42 8.02187 19.2966 8.17324 19.1721C8.20063 19.1494 8.23879 19.1446 8.27099 19.1589C13.2201 21.4136 18.5781 21.4136 23.4688 19.1589C23.501 19.1434 23.5391 19.1482 23.5677 19.1709C23.7191 19.2954 23.8776 19.42 24.0374 19.5385C24.0922 19.5792 24.0886 19.6643 24.029 19.699C23.2757 20.1384 22.4925 20.5096 21.6689 20.8197C21.6153 20.8401 21.5914 20.9023 21.6176 20.9538C22.0718 21.8315 22.5903 22.6672 23.1612 23.4599C23.1851 23.4934 23.228 23.5078 23.2673 23.4958C25.7383 22.7331 28.2439 21.5824 30.8305 19.687C30.8531 19.6703 30.8674 19.6451 30.8698 19.6176C31.5004 13.1086 29.8137 7.45468 26.3987 2.44249C26.3903 2.42574 26.376 2.41376 26.3593 2.40657ZM10.8648 16.1883C9.37474 16.1883 8.14701 14.8233 8.14701 13.147C8.14701 11.4706 9.35093 10.1057 10.8648 10.1057C12.3905 10.1057 13.6063 11.4826 13.5825 13.147C13.5825 14.8233 12.3785 16.1883 10.8648 16.1883ZM20.9132 16.1883C19.4232 16.1883 18.1954 14.8233 18.1954 13.147C18.1954 11.4706 19.3993 10.1057 20.9132 10.1057C22.4389 10.1057 23.6547 11.4826 23.6309 13.147C23.6309 14.8233 22.4389 16.1883 20.9132 16.1883Z" fill="#F9F9F9"/>
</svg>
