<svg width="112" height="36" viewBox="0 0 112 36" fill="none" xmlns="http://www.w3.org/2000/svg">
<rect width="112" height="36" rx="18" fill="#F9F9F9"/>
<path d="M19.6929 24.5196C19.6929 24.6147 19.5863 24.6908 19.4518 24.6908C19.2988 24.705 19.1921 24.629 19.1921 24.5196C19.1921 24.4244 19.2988 24.3484 19.4333 24.3484C19.5724 24.3341 19.6929 24.4102 19.6929 24.5196ZM18.2508 24.3055C18.2183 24.4007 18.3111 24.5101 18.4502 24.5386C18.5708 24.5861 18.7099 24.5386 18.7377 24.4435C18.7655 24.3484 18.6774 24.239 18.5383 24.1962C18.4177 24.1629 18.2833 24.2104 18.2508 24.3055ZM20.3004 24.2247C20.1659 24.258 20.0732 24.3484 20.0871 24.4577C20.101 24.5529 20.2216 24.6147 20.3607 24.5814C20.4952 24.5481 20.5879 24.4577 20.574 24.3626C20.5601 24.2723 20.4349 24.2104 20.3004 24.2247ZM23.3516 6C16.92 6 12 11.008 12 17.6045C12 22.8788 15.2367 27.3921 19.8599 28.9806C20.4534 29.09 20.6621 28.7143 20.6621 28.4052C20.6621 28.1103 20.6482 26.4838 20.6482 25.485C20.6482 25.485 17.4022 26.1984 16.7206 24.0678C16.7206 24.0678 16.1919 22.6838 15.4315 22.3271C15.4315 22.3271 14.3696 21.5804 15.5056 21.5947C15.5056 21.5947 16.6603 21.6898 17.2956 22.8217C18.3111 24.6575 20.0129 24.1296 20.676 23.8157C20.7827 23.0547 21.0841 22.5268 21.4179 22.2129C18.8258 21.9181 16.2105 21.5328 16.2105 16.9576C16.2105 15.6498 16.5629 14.9935 17.3048 14.1564C17.1843 13.8473 16.7901 12.5727 17.4254 10.9271C18.3946 10.618 20.625 12.2112 20.625 12.2112C21.5524 11.9449 22.5494 11.807 23.5371 11.807C24.5248 11.807 25.5218 11.9449 26.4492 12.2112C26.4492 12.2112 28.6796 10.6132 29.6488 10.9271C30.2841 12.5774 29.8899 13.8473 29.7694 14.1564C30.5113 14.9982 30.9657 15.6545 30.9657 16.9576C30.9657 21.5471 28.2345 21.9133 25.6423 22.2129C26.069 22.5887 26.4306 23.302 26.4306 24.4197C26.4306 26.0224 26.4167 28.0057 26.4167 28.3956C26.4167 28.7048 26.63 29.0805 27.219 28.9711C31.856 27.3921 35 22.8788 35 17.6045C35 11.008 29.7833 6 23.3516 6ZM16.5073 22.4032C16.447 22.4507 16.4609 22.5601 16.5397 22.6505C16.6139 22.7266 16.7206 22.7599 16.7808 22.698C16.8411 22.6505 16.8272 22.5411 16.7484 22.4507C16.6742 22.3746 16.5675 22.3414 16.5073 22.4032ZM16.0065 22.018C15.974 22.0798 16.0204 22.1559 16.1131 22.2034C16.1873 22.251 16.28 22.2367 16.3125 22.1701C16.345 22.1083 16.2986 22.0322 16.2058 21.9847C16.1131 21.9561 16.0389 21.9704 16.0065 22.018ZM17.5089 23.7111C17.4347 23.7729 17.4625 23.9156 17.5692 24.0059C17.6758 24.1153 17.8103 24.1296 17.8706 24.0535C17.9308 23.9917 17.903 23.849 17.8103 23.7586C17.7083 23.6492 17.5692 23.635 17.5089 23.7111ZM16.9802 23.0119C16.906 23.0595 16.906 23.1832 16.9802 23.2925C17.0544 23.4019 17.1796 23.4495 17.2399 23.4019C17.3141 23.3401 17.3141 23.2164 17.2399 23.1071C17.175 22.9977 17.0544 22.9501 16.9802 23.0119Z" fill="#333333"/>
<path d="M40.184 24V22.496H42.456V15.808H40.584V14.656C41.0853 14.56 41.5227 14.448 41.896 14.32C42.2693 14.1813 42.616 14.016 42.936 13.824H44.312V22.496H46.312V24H40.184ZM48.3871 24V22.496H50.6591V15.808H48.7871V14.656C49.2885 14.56 49.7258 14.448 50.0991 14.32C50.4725 14.1813 50.8191 14.016 51.1391 13.824H52.5151V22.496H54.5151V24H48.3871ZM56.5743 24V12.704H58.3823V19.76H58.4303L61.3423 16.144H63.3583L60.6703 19.344L63.6302 24H61.6303L59.6143 20.592L58.3823 22V24H56.5743ZM70.3288 24.192C69.7954 24.192 69.2621 24.0907 68.7288 23.888C68.1954 23.6747 67.7368 23.4133 67.3528 23.104L68.2168 21.92C68.5688 22.1867 68.9208 22.4 69.2728 22.56C69.6248 22.72 69.9981 22.8 70.3928 22.8C70.8194 22.8 71.1341 22.7093 71.3368 22.528C71.5394 22.3467 71.6408 22.1227 71.6408 21.856C71.6408 21.632 71.5554 21.4507 71.3848 21.312C71.2248 21.1627 71.0168 21.0347 70.7608 20.928C70.5048 20.8107 70.2381 20.6987 69.9608 20.592C69.6194 20.464 69.2781 20.3093 68.9368 20.128C68.6061 19.936 68.3341 19.696 68.1208 19.408C67.9074 19.1093 67.8008 18.7413 67.8008 18.304C67.8008 17.6107 68.0568 17.0453 68.5688 16.608C69.0808 16.1707 69.7741 15.952 70.6488 15.952C71.2034 15.952 71.6994 16.048 72.1368 16.24C72.5741 16.432 72.9528 16.6507 73.2728 16.896L72.4248 18.016C72.1474 17.8133 71.8648 17.6533 71.5768 17.536C71.2994 17.408 71.0061 17.344 70.6968 17.344C70.3021 17.344 70.0088 17.4293 69.8168 17.6C69.6248 17.76 69.5288 17.9627 69.5288 18.208C69.5288 18.5173 69.6888 18.752 70.0088 18.912C70.3288 19.072 70.7021 19.2267 71.1288 19.376C71.4914 19.504 71.8434 19.664 72.1848 19.856C72.5261 20.0373 72.8088 20.2773 73.0328 20.576C73.2674 20.8747 73.3848 21.2693 73.3848 21.76C73.3848 22.432 73.1234 23.008 72.6008 23.488C72.0781 23.9573 71.3208 24.192 70.3288 24.192ZM77.4829 24.192C76.5762 24.192 75.9309 23.9307 75.5469 23.408C75.1735 22.8747 74.9869 22.1867 74.9869 21.344V17.6H73.8669V16.224L75.0829 16.144L75.3069 14H76.8429V16.144H78.8429V17.6H76.8429V21.344C76.8429 22.2613 77.2109 22.72 77.9469 22.72C78.0855 22.72 78.2295 22.704 78.3789 22.672C78.5282 22.6293 78.6562 22.5867 78.7629 22.544L79.0829 23.904C78.8695 23.9787 78.6242 24.0427 78.3469 24.096C78.0802 24.16 77.7922 24.192 77.4829 24.192ZM82.0564 24.192C81.3737 24.192 80.8137 23.9787 80.3764 23.552C79.9497 23.1253 79.7364 22.5707 79.7364 21.888C79.7364 21.0453 80.1044 20.3947 80.8404 19.936C81.5764 19.4667 82.7497 19.1467 84.3604 18.976C84.3497 18.56 84.2377 18.2027 84.0244 17.904C83.8217 17.5947 83.4537 17.44 82.9204 17.44C82.5364 17.44 82.1577 17.5147 81.7844 17.664C81.4217 17.8133 81.0644 17.9947 80.7124 18.208L80.0404 16.976C80.4777 16.6987 80.9684 16.4587 81.5124 16.256C82.067 16.0533 82.6537 15.952 83.2724 15.952C84.2537 15.952 84.9844 16.2453 85.4644 16.832C85.955 17.408 86.2004 18.2453 86.2004 19.344V24H84.6804L84.5524 23.136H84.4884C84.1364 23.4347 83.7577 23.6853 83.3524 23.888C82.9577 24.0907 82.5257 24.192 82.0564 24.192ZM82.6484 22.752C82.9684 22.752 83.2564 22.6773 83.5124 22.528C83.779 22.368 84.0617 22.1547 84.3604 21.888V20.128C83.2937 20.2667 82.5524 20.4747 82.1364 20.752C81.7204 21.0187 81.5124 21.3493 81.5124 21.744C81.5124 22.096 81.619 22.352 81.8324 22.512C82.0457 22.672 82.3177 22.752 82.6484 22.752ZM88.4024 24V16.144H89.9224L90.0504 17.536H90.1144C90.3917 17.024 90.7277 16.6347 91.1224 16.368C91.517 16.0907 91.9224 15.952 92.3384 15.952C92.7117 15.952 93.0104 16.0053 93.2344 16.112L92.9144 17.712C92.7757 17.6693 92.6477 17.6373 92.5304 17.616C92.413 17.5947 92.269 17.584 92.0984 17.584C91.789 17.584 91.4637 17.7067 91.1224 17.952C90.781 18.1867 90.4877 18.6027 90.2424 19.2V24H88.4024ZM96.4694 24.192C95.936 24.192 95.4027 24.0907 94.8694 23.888C94.336 23.6747 93.8774 23.4133 93.4934 23.104L94.3574 21.92C94.7094 22.1867 95.0614 22.4 95.4134 22.56C95.7654 22.72 96.1387 22.8 96.5334 22.8C96.96 22.8 97.2747 22.7093 97.4774 22.528C97.68 22.3467 97.7814 22.1227 97.7814 21.856C97.7814 21.632 97.696 21.4507 97.5254 21.312C97.3654 21.1627 97.1574 21.0347 96.9014 20.928C96.6454 20.8107 96.3787 20.6987 96.1014 20.592C95.76 20.464 95.4187 20.3093 95.0774 20.128C94.7467 19.936 94.4747 19.696 94.2614 19.408C94.048 19.1093 93.9414 18.7413 93.9414 18.304C93.9414 17.6107 94.1974 17.0453 94.7094 16.608C95.2214 16.1707 95.9147 15.952 96.7894 15.952C97.344 15.952 97.84 16.048 98.2774 16.24C98.7147 16.432 99.0934 16.6507 99.4134 16.896L98.5654 18.016C98.288 17.8133 98.0054 17.6533 97.7174 17.536C97.44 17.408 97.1467 17.344 96.8374 17.344C96.4427 17.344 96.1494 17.4293 95.9574 17.6C95.7654 17.76 95.6694 17.9627 95.6694 18.208C95.6694 18.5173 95.8294 18.752 96.1494 18.912C96.4694 19.072 96.8427 19.2267 97.2694 19.376C97.632 19.504 97.984 19.664 98.3254 19.856C98.6667 20.0373 98.9494 20.2773 99.1734 20.576C99.408 20.8747 99.5254 21.2693 99.5254 21.76C99.5254 22.432 99.264 23.008 98.7414 23.488C98.2187 23.9573 97.4614 24.192 96.4694 24.192Z" fill="#333333"/>
</svg>
