<svg width="71" height="26" fill="none" xmlns="http://www.w3.org/2000/svg">
<path d="M2.98489 25.2933C2.8501 25.428 2.6316 25.428 2.49683 25.2932V25.2932C2.36206 25.1585 2.36203 24.94 2.49677 24.8052L3.5885 23.713C4.3263 22.9748 4.32608 21.7784 3.58802 21.0405L0.76797 18.2212C0.632616 18.0859 0.632869 17.8664 0.768534 17.7314V17.7314C0.903708 17.5969 1.12225 17.5971 1.25711 17.732L4.32152 20.7956C5.19474 21.6686 5.1947 23.0843 4.32141 23.9573L2.98489 25.2933Z" fill="white"/>
<path d="M23.7814 22.03H5.75716C5.56605 22.03 5.41113 22.1849 5.41113 22.376C5.41113 22.5671 5.56605 22.7221 5.75716 22.7221H23.7814C23.9725 22.7221 24.1274 22.5671 24.1274 22.376C24.1274 22.1849 23.9725 22.03 23.7814 22.03Z" fill="white"/>
<path d="M6.9923 0.933422C6.9845 0.863838 6.99464 0.793418 7.02174 0.728857C7.04884 0.664297 7.09201 0.607743 7.14714 0.564574C7.20227 0.521405 7.26752 0.493055 7.3367 0.482222C7.40587 0.471389 7.47667 0.478432 7.54236 0.502682L9.19106 1.1105C10.2253 1.49178 10.5051 2.82317 9.71183 3.5885V3.5885C8.81952 4.4494 7.32741 3.91209 7.18879 2.67997L6.9923 0.933422Z" fill="#502D17"/>
<path d="M20.7268 0.933559C20.7349 0.864031 20.725 0.793602 20.698 0.729004C20.6711 0.664406 20.628 0.607797 20.573 0.564586C20.5179 0.521375 20.4527 0.493008 20.3835 0.482194C20.3144 0.47138 20.2436 0.478481 20.178 0.502819L18.5287 1.11066C17.4943 1.49188 17.2145 2.82349 18.008 3.58879V3.58879C18.9004 4.44957 20.3925 3.91194 20.5308 2.67976L20.7268 0.933559Z" fill="#502D17"/>
<path d="M13.9053 21.5815C19.0836 21.5815 23.2814 17.9783 23.2814 13.5335C23.2814 9.08865 19.0836 5.48543 13.9053 5.48543C8.7271 5.48543 4.5293 9.08865 4.5293 13.5335C4.5293 17.9783 8.7271 21.5815 13.9053 21.5815Z" fill="#794422"/>
<path d="M21.6638 11.3322C21.6638 17.3339 18.1904 22.1998 13.908 22.1998C9.62571 22.1998 6.15234 17.3339 6.15234 11.3322C6.15234 5.33051 9.62571 0.462311 13.908 0.462311C18.1904 0.462311 21.6638 5.33289 21.6638 11.3322Z" fill="#502D17"/>
<path d="M10.7735 11.7602C12.7715 11.7602 14.3912 9.91503 14.3912 7.63892C14.3912 5.36281 12.7715 3.51765 10.7735 3.51765C8.77548 3.51765 7.15576 5.36281 7.15576 7.63892C7.15576 9.91503 8.77548 11.7602 10.7735 11.7602Z" fill="white"/>
<path d="M19.3092 15.8281C19.3092 18.6046 16.8894 20.8561 13.9053 20.8561C10.9211 20.8561 8.50732 18.6106 8.50732 15.8281C8.50732 13.0456 10.9259 10.7976 13.9101 10.7976C16.8942 10.7976 19.3092 13.0491 19.3092 15.8281Z" fill="white"/>
<path d="M20.5873 7.63327C20.5873 9.90987 18.9669 11.7545 16.9684 11.7545C14.9698 11.7545 13.3518 9.91464 13.3518 7.63327C13.3518 5.3519 14.971 3.51082 16.9684 3.51082C18.9657 3.51082 20.5873 5.36622 20.5873 7.63327Z" fill="white"/>
<path d="Mnan nanL13.6083 9.04214C13.8086 8.96406 14.0312 8.9662 14.23 9.04811C14.8036 9.26993 15.3123 9.63219 15.7095 10.1017C15.7714 10.1791 15.8077 10.274 15.8132 10.373C15.8188 10.472 15.7934 10.5702 15.7405 10.6541C15.3288 11.2931 14.803 11.8509 14.1894 12.2995C14.113 12.3575 14.0198 12.3889 13.9239 12.3889C13.828 12.3889 13.7348 12.3575 13.6584 12.2995C13.0442 11.8515 12.5183 11.2936 12.1073 10.6541C12.054 10.5714 12.0285 10.4739 12.0343 10.3756C12.04 10.2774 12.0769 10.1836 12.1395 10.1077C12.5238 9.62626 13.0314 9.25803 13.6083 9.04214Lnan nanLnan nanZ" fill="#FF7F2B"/>
<path d="M12.9774 13.2781C13.291 13.2781 13.5553 13.5676 13.3335 13.7893V13.7893C13.1979 13.925 13.014 14.0011 12.8222 14.0011C12.6304 14.0011 12.4465 13.925 12.3109 13.7893V13.7893C12.0891 13.5676 12.3534 13.2781 12.667 13.2781H12.9774Z" fill="#DDDDDD"/>
<path d="M15.1737 13.2781C15.4873 13.2781 15.7515 13.5676 15.5298 13.7893V13.7893C15.3942 13.925 15.2103 14.0011 15.0185 14.0011C14.8267 14.0011 14.6428 13.925 14.5072 13.7893V13.7893C14.2854 13.5676 14.5497 13.2781 14.8633 13.2781H15.1737Z" fill="#DDDDDD"/>
<path d="M11.877 14.7195C12.1907 14.7195 12.4549 15.009 12.2331 15.2308V15.2308C12.0975 15.3664 11.9136 15.4425 11.7218 15.4425C11.5301 15.4425 11.3462 15.3664 11.2106 15.2308V15.2308C10.9888 15.009 11.253 14.7195 11.5667 14.7195H11.877Z" fill="#DDDDDD"/>
<path d="M14.0772 14.7195C14.3909 14.7195 14.6551 15.009 14.4333 15.2308V15.2308C14.2977 15.3664 14.1138 15.4425 13.922 15.4425C13.7303 15.4425 13.5464 15.3664 13.4108 15.2308V15.2308C13.189 15.009 13.4532 14.7195 13.7669 14.7195H14.0772Z" fill="#DDDDDD"/>
<path d="M16.2728 14.7195C16.5864 14.7195 16.8507 15.009 16.6289 15.2308V15.2308C16.4933 15.3664 16.3094 15.4425 16.1176 15.4425C15.9258 15.4425 15.7419 15.3664 15.6063 15.2308V15.2308C15.3845 15.009 15.6488 14.7195 15.9624 14.7195H16.2728Z" fill="#DDDDDD"/>
<path d="M10.7816 16.1309C11.0952 16.1309 11.3595 16.4205 11.1377 16.6422V16.6422C11.0021 16.7778 10.8182 16.854 10.6264 16.854C10.4346 16.854 10.2507 16.7778 10.1151 16.6422V16.6422C9.89333 16.4205 10.1576 16.1309 10.4712 16.1309H10.7816Z" fill="#DDDDDD"/>
<path d="M12.9774 16.1309C13.291 16.1309 13.5553 16.4205 13.3335 16.6422V16.6422C13.1979 16.7778 13.014 16.854 12.8222 16.854C12.6304 16.854 12.4465 16.7778 12.3109 16.6422V16.6422C12.0891 16.4205 12.3534 16.1309 12.667 16.1309H12.9774Z" fill="#DDDDDD"/>
<path d="M15.1737 16.1309C15.4873 16.1309 15.7515 16.4205 15.5298 16.6422V16.6422C15.3942 16.7778 15.2103 16.854 15.0185 16.854C14.8267 16.854 14.6428 16.7778 14.5072 16.6422V16.6422C14.2854 16.4205 14.5497 16.1309 14.8633 16.1309H15.1737Z" fill="#DDDDDD"/>
<path d="M17.3869 16.1309C17.6892 16.1309 17.937 16.4146 17.719 16.624V16.624C17.5841 16.7535 17.4043 16.8258 17.2173 16.8258C17.0303 16.8258 16.8506 16.7535 16.7157 16.624V16.624C16.4976 16.4146 16.7454 16.1309 17.0478 16.1309H17.3869Z" fill="#DDDDDD"/>
<path d="M11.877 17.5723C12.1907 17.5723 12.4549 17.8619 12.2331 18.0836V18.0836C12.0975 18.2192 11.9136 18.2954 11.7218 18.2954C11.5301 18.2954 11.3462 18.2192 11.2106 18.0836V18.0836C10.9888 17.8619 11.253 17.5723 11.5667 17.5723H11.877Z" fill="#DDDDDD"/>
<path d="M14.0772 17.5723C14.3909 17.5723 14.6551 17.8619 14.4333 18.0836V18.0836C14.2977 18.2192 14.1138 18.2954 13.922 18.2954C13.7303 18.2954 13.5464 18.2192 13.4108 18.0836V18.0836C13.189 17.8619 13.4532 17.5723 13.7669 17.5723H14.0772Z" fill="#DDDDDD"/>
<path d="M16.2728 17.5723C16.5864 17.5723 16.8507 17.8619 16.6289 18.0836V18.0836C16.4933 18.2192 16.3094 18.2954 16.1176 18.2954C15.9258 18.2954 15.7419 18.2192 15.6063 18.0836V18.0836C15.3845 17.8619 15.6488 17.5723 15.9624 17.5723H16.2728Z" fill="#DDDDDD"/>
<path d="M12.9774 18.9828C13.291 18.9828 13.5553 19.2723 13.3335 19.4941V19.4941C13.1979 19.6297 13.014 19.7059 12.8222 19.7059C12.6304 19.7059 12.4465 19.6297 12.3109 19.4941V19.4941C12.0891 19.2723 12.3534 18.9828 12.667 18.9828H12.9774Z" fill="#DDDDDD"/>
<path d="M15.1737 18.9828C15.4873 18.9828 15.7515 19.2723 15.5298 19.4941V19.4941C15.3942 19.6297 15.2103 19.7059 15.0185 19.7059C14.8267 19.7059 14.6428 19.6297 14.5072 19.4941V19.4941C14.2854 19.2723 14.5497 18.9828 14.8633 18.9828H15.1737Z" fill="#DDDDDD"/>
<path d="M11.2459 9.27929C12.4083 9.27929 13.3507 8.33695 13.3507 7.17451C13.3507 6.01207 12.4083 5.06973 11.2459 5.06973C10.0835 5.06973 9.14111 6.01207 9.14111 7.17451C9.14111 8.33695 10.0835 9.27929 11.2459 9.27929Z" fill="#CED8E1"/>
<path d="M11.2457 8.49432C11.9733 8.49432 12.563 7.90456 12.563 7.17705C12.563 6.44954 11.9733 5.85977 11.2457 5.85977C10.5182 5.85977 9.92847 6.44954 9.92847 7.17705C9.92847 7.90456 10.5182 8.49432 11.2457 8.49432Z" fill="#333333"/>
<path d="M11.5788 7.17727C11.8484 7.17727 12.0668 6.95878 12.0668 6.68926C12.0668 6.41974 11.8484 6.20125 11.5788 6.20125C11.3093 6.20125 11.0908 6.41974 11.0908 6.68926C11.0908 6.95878 11.3093 7.17727 11.5788 7.17727Z" fill="white"/>
<path d="M16.397 9.28331C17.5601 9.28331 18.503 8.34043 18.503 7.17734C18.503 6.01424 17.5601 5.07137 16.397 5.07137C15.2339 5.07137 14.291 6.01424 14.291 7.17734C14.291 8.34043 15.2339 9.28331 16.397 9.28331Z" fill="#CED8E1"/>
<path d="M16.3969 8.49432C17.1244 8.49432 17.7141 7.90456 17.7141 7.17705C17.7141 6.44954 17.1244 5.85977 16.3969 5.85977C15.6694 5.85977 15.0796 6.44954 15.0796 7.17705C15.0796 7.90456 15.6694 8.49432 16.3969 8.49432Z" fill="#333333"/>
<path d="M16.7273 7.17727C16.9968 7.17727 17.2153 6.95878 17.2153 6.68926C17.2153 6.41974 16.9968 6.20125 16.7273 6.20125C16.4577 6.20125 16.2393 6.41974 16.2393 6.68926C16.2393 6.95878 16.4577 7.17727 16.7273 7.17727Z" fill="white"/>
<path d="M18.2678 22.2071C18.2711 22.2071 18.2738 22.2098 18.2738 22.2131C18.2716 22.7663 17.9658 23.2117 17.5901 23.2117C17.213 23.2117 16.9064 22.7631 16.9064 22.2071C16.9064 22.7631 16.5997 23.2117 16.2215 23.2117C15.8433 23.2117 15.5378 22.7631 15.5378 22.2071C15.5378 22.7631 15.2323 23.2117 14.8541 23.2117C14.4759 23.2117 14.1704 22.7631 14.1704 22.2071C14.1704 21.4232 15.0856 20.7872 16.2155 20.7872C17.3426 20.7872 18.2572 21.4199 18.2618 22.2011C18.2618 22.2044 18.2645 22.2071 18.2678 22.2071V22.2071Z" fill="#FF7F2B"/>
<path d="M13.6037 22.2071C13.607 22.2071 13.6097 22.2098 13.6097 22.2131C13.6075 22.7663 13.3017 23.2117 12.926 23.2117C12.549 23.2117 12.2411 22.7631 12.2411 22.2071C12.2411 22.7631 11.9357 23.2117 11.5574 23.2117C11.1792 23.2117 10.8737 22.7631 10.8737 22.2071C10.8737 22.7631 10.5671 23.2117 10.19 23.2117C9.813 23.2117 9.50635 22.7631 9.50635 22.2071C9.50635 21.4232 10.4215 20.7872 11.5515 20.7872C12.6785 20.7872 13.5931 21.4199 13.5978 22.2011C13.5978 22.2044 13.6005 22.2071 13.6037 22.2071V22.2071Z" fill="#FF7F2B"/>
<line x1="36.6274" y1="2.99976" x2="36.6274" y2="22.9998" stroke="#787878"/>
<g clip-path="url(#clip0_656_30174)">
<path fill-rule="evenodd" clip-rule="evenodd" d="M70.4775 12.9997C70.4775 19.1717 65.4745 24.1748 59.3025 24.1748C53.1307 24.1748 48.1274 19.1717 48.1274 12.9997C48.1274 6.82798 53.1307 1.82471 59.3025 1.82471C65.4745 1.82471 70.4775 6.82798 70.4775 12.9997Z" fill="#ECB360"/>
<path fill-rule="evenodd" clip-rule="evenodd" d="M67.4975 11.8822C67.4975 17.4368 63.1611 21.9398 57.8125 21.9398C52.4636 21.9398 48.1274 17.4368 48.1274 11.8822C48.1274 6.32766 52.4636 1.82471 57.8125 1.82471C63.1611 1.82471 67.4975 6.32766 67.4975 11.8822Z" fill="#D76835"/>
<path fill-rule="evenodd" clip-rule="evenodd" d="M68.2424 10.7646C68.2424 15.7022 64.4067 19.7048 59.6746 19.7048C54.9433 19.7048 51.1074 15.7022 51.1074 10.7646C51.1074 5.82732 54.9433 1.82471 59.6746 1.82471C64.4067 1.82471 68.2424 5.82732 68.2424 10.7646Z" fill="#D33A41"/>
<path fill-rule="evenodd" clip-rule="evenodd" d="M67.4976 11.5099C67.4976 16.0356 63.9952 19.7048 59.675 19.7048C55.3547 19.7048 51.8525 16.0356 51.8525 11.5099C51.8525 6.98366 55.3547 3.31471 59.675 3.31471C63.9952 3.31471 67.4976 6.98366 67.4976 11.5099Z" fill="#B6CB46"/>
<path fill-rule="evenodd" clip-rule="evenodd" d="M66.7525 12.2547C66.7525 16.3692 63.417 19.7048 59.3025 19.7048C55.1881 19.7048 51.8525 16.3692 51.8525 12.2547C51.8525 8.1401 55.1881 4.80473 59.3025 4.80473C63.417 4.80473 66.7525 8.1401 66.7525 12.2547Z" fill="#66AD4A"/>
<path fill-rule="evenodd" clip-rule="evenodd" d="M63.7726 10.7647C63.7726 14.0564 61.1042 16.7248 57.8126 16.7248C54.5207 16.7248 51.8525 14.0564 51.8525 10.7647C51.8525 7.47312 54.5207 4.80473 57.8126 4.80473C61.1042 4.80473 63.7726 7.47312 63.7726 10.7647Z" fill="#AED7DC"/>
<path fill-rule="evenodd" clip-rule="evenodd" d="M64.5174 10.0198C64.5174 12.8998 62.1827 15.2348 59.3023 15.2348C56.422 15.2348 54.0874 12.8998 54.0874 10.0198C54.0874 7.13945 56.422 4.80473 59.3023 4.80473C62.1827 4.80473 64.5174 7.13945 64.5174 10.0198Z" fill="#5BB1CF"/>
<path fill-rule="evenodd" clip-rule="evenodd" d="M64.5174 10.3921C64.5174 13.0666 62.5162 15.2348 60.0474 15.2348C57.5786 15.2348 55.5774 13.0666 55.5774 10.3921C55.5774 7.71792 57.5786 5.54974 60.0474 5.54974C62.5162 5.54974 64.5174 7.71792 64.5174 10.3921Z" fill="#25A8C3"/>
<path fill-rule="evenodd" clip-rule="evenodd" d="M59.3023 15.2348C57.2452 15.2348 55.5774 13.4002 55.5774 11.1371C55.5774 8.87412 57.2452 7.03973 59.3023 7.03973C61.3596 7.03973 63.0274 8.87412 63.0274 11.1371C63.0274 13.4002 61.3596 15.2348 59.3023 15.2348Z" fill="#1B1A18"/>
<path fill-rule="evenodd" clip-rule="evenodd" d="M61.335 9.95572C60.9806 10.5486 60.2839 10.8914 59.7785 10.721C59.2732 10.5508 59.1509 9.93193 59.505 9.33887C59.8593 8.74583 60.5561 8.40317 61.0615 8.57337C61.5668 8.74358 61.6891 9.36247 61.335 9.95572Z" fill="white"/>
</g>
<defs>
<clipPath id="clip0_656_30174">
<rect x="48.1274" y="1.82471" width="22.3501" height="22.3501" rx="4" fill="white"/>
</clipPath>
</defs>
</svg>
