<svg width="38" height="28" viewBox="0 0 38 28" fill="none" xmlns="http://www.w3.org/2000/svg">
<path d="M33.3865 6.9781C33.41 7.28434 33.41 7.59064 33.41 7.89687C33.41 17.2375 25.7594 28 11.7762 28C7.46819 28 3.46631 26.8406 0.0999756 24.8282C0.712055 24.8937 1.30051 24.9156 1.93614 24.9156C5.49073 24.9156 8.76293 23.8 11.376 21.8969C8.03317 21.8313 5.23182 19.7969 4.26664 16.9969C4.73749 17.0625 5.20827 17.1062 5.70268 17.1062C6.38533 17.1062 7.06806 17.0187 7.70362 16.8656C4.21961 16.2093 1.60652 13.3656 1.60652 9.93124V9.84377C2.61873 10.3688 3.79586 10.6969 5.04342 10.7406C2.99538 9.47182 1.65362 7.30622 1.65362 4.8562C1.65362 3.54373 2.0302 2.3406 2.68938 1.29059C6.43236 5.57809 12.0586 8.37804 18.3674 8.68435C18.2498 8.15934 18.1791 7.61252 18.1791 7.06563C18.1791 3.17184 21.569 0 25.7828 0C27.972 0 29.9494 0.853123 31.3384 2.23125C33.0568 1.92501 34.7046 1.33436 36.1642 0.525004C35.5992 2.16567 34.3986 3.54379 32.8214 4.41873C34.3516 4.26568 35.8347 3.87184 37.2 3.32502C36.1644 4.72497 34.8695 5.97179 33.3865 6.9781Z" fill="white"/>
</svg>
