<svg width="172" height="60" viewBox="0 0 172 60" fill="none" xmlns="http://www.w3.org/2000/svg">
<path fill-rule="evenodd" clip-rule="evenodd" d="M56.9731 0.012207H70.7546L35.9555 60L0.927246 0.012207H15.0223L35.9555 36.126L56.9731 0.012207Z" fill="#41B883"/>
<path fill-rule="evenodd" clip-rule="evenodd" d="M43.9489 0H57.0564L35.9373 36.1891L14.9878 0H27.8904L35.9373 13.9322L43.9489 0Z" fill="#35495E"/>
<path fill-rule="evenodd" clip-rule="evenodd" d="M78.9785 11.8427C78.9785 11.4001 79.2241 11.0314 79.7152 10.7363C80.2064 10.4413 80.7199 10.2938 81.2557 10.2938C81.9998 10.2938 82.4612 10.574 82.6398 11.1346L90.4983 37.4214L98.3121 11.1346C98.5205 10.5741 98.967 10.2938 99.6516 10.2938C100.217 10.2938 100.745 10.456 101.237 10.7806C101.728 11.1051 101.973 11.4739 101.973 11.8869C101.973 11.9164 101.966 11.9607 101.951 12.0197C101.936 12.0787 101.929 12.1377 101.929 12.1967L92.8648 41.6256C92.5373 42.4812 91.7486 42.909 90.4983 42.909C89.2481 42.909 88.4891 42.4812 88.2212 41.6256L79.0682 12.1967C79.0087 12.0197 78.9789 11.9017 78.9789 11.8427H78.9785ZM102.325 34.5004V22.9946C102.325 22.6406 102.511 22.3308 102.883 22.0653C103.255 21.7998 103.694 21.667 104.201 21.667C104.677 21.667 105.101 21.8072 105.473 22.0874C105.845 22.3677 106.031 22.6701 106.031 22.9946V34.5004C106.031 35.828 106.537 37.0228 107.549 38.0849C108.561 39.147 109.767 39.678 111.166 39.678C112.535 39.678 113.726 39.1544 114.738 38.107C115.75 37.0597 116.256 35.8575 116.256 34.5004V22.9497C116.256 22.6252 116.442 22.3301 116.814 22.0646C117.186 21.7991 117.625 21.6664 118.131 21.6664C118.667 21.6664 119.106 21.7917 119.449 22.0425C119.791 22.2933 119.962 22.5957 119.962 22.9497V34.5004C119.962 36.7721 119.091 38.7561 117.35 40.4525C115.609 42.1489 113.547 42.9971 111.166 42.9971C108.755 42.9971 106.679 42.1489 104.937 40.4525C103.196 38.7561 102.325 36.7721 102.325 34.5004H102.325ZM122.992 34.4118V29.7652C122.992 27.4935 123.863 25.5316 125.604 23.8794C127.346 22.2273 129.437 21.4012 131.878 21.4012C134.2 21.4012 136.209 22.1757 137.905 23.7246C139.602 25.2734 140.451 27.2132 140.451 29.544C140.451 30.3995 140.346 31.0855 140.138 31.6018C139.93 32.1181 139.61 32.4868 139.178 32.7082C138.746 32.9294 138.345 33.0696 137.972 33.1286C137.6 33.1876 137.102 33.2171 136.477 33.2171H126.698V34.5447C126.698 36.1673 127.286 37.4655 128.462 38.4391C129.638 39.4127 131.163 39.8995 133.038 39.8995C134.021 39.8995 134.877 39.7519 135.606 39.4569C136.335 39.1619 136.923 38.8742 137.369 38.594C137.816 38.3137 138.173 38.1736 138.441 38.1736C138.858 38.1736 139.215 38.358 139.513 38.7268C139.81 39.0955 139.959 39.4717 139.959 39.8552C139.959 40.5338 139.282 41.2271 137.928 41.9351C136.573 42.6432 134.899 42.9972 132.904 42.9972C129.987 42.9972 127.606 42.208 125.76 40.6296C123.915 39.0512 122.992 36.9787 122.992 34.412L122.992 34.4118ZM126.698 30.7388H134.959C135.732 30.7388 136.253 30.6429 136.521 30.4512C136.789 30.2594 136.923 29.8832 136.923 29.3227C136.923 27.9951 136.432 26.8298 135.45 25.8267C134.467 24.8235 133.262 24.322 131.833 24.322C130.434 24.322 129.228 24.7867 128.216 25.7159C127.204 26.6453 126.698 27.7885 126.698 29.1456L126.698 30.7388ZM142.32 40.6073C142.32 39.9582 142.544 39.4051 142.99 38.9478C143.437 38.4905 143.987 38.2619 144.642 38.2619C145.267 38.2619 145.803 38.4905 146.25 38.9478C146.696 39.4051 146.919 39.9583 146.919 40.6073C146.919 41.2268 146.696 41.7653 146.25 42.2226C145.803 42.6798 145.267 42.9085 144.642 42.9085C143.987 42.9085 143.437 42.6798 142.99 42.2226C142.544 41.7653 142.32 41.2269 142.32 40.6073ZM145.619 51.1841C145.619 50.712 145.768 50.3212 146.065 50.0114C146.363 49.7016 146.72 49.5467 147.137 49.5467C148.298 49.5467 149.057 49.1189 149.414 48.2634C149.771 47.4078 149.95 46.1245 149.95 44.4133V22.95C149.95 22.5665 150.121 22.2567 150.464 22.0207C150.806 21.7847 151.245 21.6667 151.781 21.6667C152.317 21.6667 152.763 21.7847 153.12 22.0207C153.477 22.2567 153.656 22.5665 153.656 22.95V44.4133C153.656 46.98 153.15 49.0157 152.138 50.5203C151.126 52.025 149.593 52.7773 147.539 52.7773C146.259 52.7773 145.619 52.2462 145.619 51.1841L145.619 51.1841ZM149.459 13.7895C149.459 13.2289 149.682 12.7422 150.129 12.3291C150.575 11.916 151.126 11.7095 151.781 11.7095C152.406 11.7095 152.942 11.916 153.388 12.3291C153.835 12.7421 154.058 13.2289 154.058 13.7895C154.058 14.35 153.835 14.8442 153.388 15.272C152.942 15.6998 152.406 15.9137 151.781 15.9137C151.156 15.9137 150.612 15.6998 150.151 15.272C149.69 14.8442 149.459 14.35 149.459 13.7895H149.459ZM156.419 39.6334C156.419 39.2499 156.545 38.8737 156.798 38.505C157.051 38.1362 157.356 37.9518 157.714 37.9518C157.952 37.9518 158.294 38.1288 158.74 38.4829C159.187 38.8369 159.827 39.1835 160.66 39.5228C161.494 39.8621 162.476 40.0317 163.607 40.0317C165.096 40.0317 166.175 39.7662 166.844 39.2352C167.514 38.7041 167.849 38.0403 167.849 37.2437C167.849 36.2701 167.477 35.4957 166.733 34.9204C165.989 34.3451 165.081 33.9099 164.009 33.6149C162.937 33.3199 161.866 32.9954 160.794 32.6413C159.723 32.2873 158.815 31.6972 158.071 30.8711C157.326 30.0451 156.954 28.9535 156.954 27.5964C156.954 25.9147 157.557 24.4617 158.763 23.2374C159.968 22.013 161.806 21.4008 164.277 21.4008C165.855 21.4008 167.298 21.6442 168.608 22.131C169.918 22.6178 170.573 23.171 170.573 23.7905C170.573 24.1446 170.431 24.5428 170.148 24.9854C169.866 25.4279 169.516 25.6492 169.099 25.6492C168.98 25.6492 168.407 25.4353 167.38 25.0075C166.353 24.5797 165.334 24.3658 164.322 24.3658C162.952 24.3658 161.933 24.683 161.263 25.3173C160.593 25.9516 160.258 26.667 160.258 27.4636C160.258 28.2897 160.63 28.9388 161.375 29.4107C162.119 29.8828 163.034 30.2516 164.121 30.5171C165.207 30.7826 166.286 31.1072 167.358 31.4907C168.429 31.8743 169.337 32.5307 170.081 33.46C170.826 34.3893 171.198 35.5915 171.198 37.0667C171.198 38.8959 170.543 40.3415 169.233 41.4036C167.923 42.4657 166.093 42.9967 163.741 42.9967C161.717 42.9967 159.991 42.6353 158.562 41.9125C157.133 41.1896 156.419 40.4299 156.419 39.6334L156.419 39.6334Z" fill="#010101"/>
</svg>
