<svg width="40" height="29" viewBox="0 0 40 29" fill="none" xmlns="http://www.w3.org/2000/svg">
<path d="M32.7422 0.233276H7.23848H7.23889C5.50829 0.233276 3.84885 0.954198 2.62545 2.23805C1.40164 3.5215 0.714478 5.26239 0.714478 7.07794V21.389V21.3886C0.714478 23.2042 1.40167 24.9451 2.62545 26.2285C3.84885 27.5124 5.50829 28.2333 7.23889 28.2333H32.7426H32.7422C34.4728 28.2333 36.1322 27.5124 37.3556 26.2285C38.5794 24.9451 39.2666 23.2042 39.2666 21.3886V7.07751V7.07794C39.2666 5.26239 38.5794 3.5215 37.3556 2.23805C36.1322 0.954165 34.4728 0.233276 32.7422 0.233276ZM27.5409 14.5066L15.9753 20.7288C15.8835 20.7783 15.7738 20.7748 15.6857 20.7188C15.5972 20.6633 15.543 20.563 15.5421 20.455V8.01051C15.543 7.90244 15.5972 7.80218 15.6857 7.74662C15.7738 7.69063 15.8835 7.68716 15.9753 7.73664L27.5409 13.9589C27.6398 14.0122 27.7023 14.119 27.7023 14.2358C27.7023 14.3525 27.6398 14.4593 27.5409 14.5127V14.5066Z" fill="white"/>
</svg>
