<svg width="158" height="53" viewBox="0 0 158 53" fill="none" xmlns="http://www.w3.org/2000/svg">
<g opacity="0.9">
<path d="M19.2457 5.94091C19.7805 6.01616 20.3189 6.07169 20.8501 6.17032C22.182 6.41726 23.4415 6.85123 24.5447 7.66511C25.8824 8.65215 26.6473 9.99133 26.8424 11.622C26.9652 12.6485 26.9988 13.6903 27.0075 14.7256C27.0287 17.2512 27.028 19.7776 27.0053 22.3033C26.9936 23.595 27.3553 24.742 28.137 25.7649C28.3263 26.0125 28.5133 26.2638 28.6842 26.5247C29.005 27.0142 28.9516 27.3524 28.5162 27.7287C27.5153 28.5944 26.5158 29.4609 25.5142 30.3252C25.4104 30.4151 25.3016 30.5013 25.1847 30.5729C24.8238 30.7972 24.4453 30.7614 24.1166 30.4881C23.3911 29.8854 22.7555 29.2016 22.2375 28.4111C22.087 28.1809 21.9277 27.9566 21.756 27.7053C21.5295 27.9216 21.3147 28.1291 21.0963 28.3329C20.0873 29.2761 18.9966 30.1009 17.642 30.4779C15.9222 30.9565 14.1783 31.0551 12.4431 30.5809C10.4552 30.0381 9.09702 28.7683 8.45483 26.8133C7.80898 24.8472 7.83821 22.8637 8.62432 20.9371C9.48643 18.8249 11.1164 17.5121 13.2198 16.7369C14.5991 16.2284 16.0377 15.9866 17.4886 15.8098C18.5283 15.6834 19.5708 15.5811 20.6112 15.4671C20.6923 15.4584 20.7726 15.4394 20.8764 15.4204C20.8764 14.7943 20.899 14.1725 20.8683 13.5544C20.8486 13.1643 20.7909 12.7647 20.6777 12.3913C20.3182 11.2092 19.4123 10.7066 18.2594 10.5831C17.4777 10.4998 16.7193 10.6328 16.015 11.0017C15.1953 11.4306 14.6773 12.0998 14.4399 12.9904C14.3997 13.1409 14.3675 13.2958 14.3076 13.4383C14.133 13.8569 13.8393 14.0067 13.3893 13.9563C12.1202 13.8138 10.8504 13.6743 9.57994 13.5457C8.93921 13.4806 8.65209 13.1022 8.78652 12.4702C9.44332 9.38786 11.3809 7.49854 14.3215 6.55023C15.3319 6.22438 16.3708 6.04904 17.4302 5.98621C17.52 5.9811 17.6092 5.95479 17.699 5.93872C18.2141 5.93872 18.7284 5.93872 19.2435 5.93872L19.2457 5.94091ZM20.8559 18.955C20.8355 18.9484 20.8099 18.9338 20.7843 18.9338C19.7615 18.9272 18.7452 18.9981 17.7502 19.2509C16.7807 19.4978 15.8835 19.8901 15.2362 20.6894C14.4143 21.7027 14.2667 22.8892 14.4625 24.1283C14.6196 25.1241 15.0777 25.9497 16.0851 26.315C17.1409 26.6971 18.1162 26.4633 18.9863 25.7882C19.7922 25.1636 20.2766 24.3132 20.5666 23.3554C21.0006 21.9241 20.8947 20.449 20.8757 18.982C20.8757 18.9747 20.8654 18.9674 20.8559 18.955Z" fill="#655B55"/>
<path d="M76.4503 5.94092C76.9858 6.01471 77.5235 6.07316 78.0554 6.16667C79.1849 6.36539 80.264 6.71681 81.251 7.3137C82.9496 8.33946 83.8914 9.86202 84.1032 11.8156C84.2041 12.7442 84.2238 13.6845 84.2296 14.6196C84.245 17.1453 84.2486 19.6717 84.2253 22.1974C84.2128 23.5548 84.5767 24.7669 85.4168 25.8357C85.5929 26.0593 85.7624 26.2887 85.918 26.5269C86.2278 27.0017 86.1664 27.367 85.7434 27.7323C84.7206 28.6149 83.7007 29.5004 82.6793 30.3837C82.4221 30.6065 82.1409 30.7833 81.7821 30.6971C81.6368 30.662 81.4855 30.5948 81.3694 30.5013C80.6139 29.8905 79.9644 29.1818 79.4347 28.365C79.2952 28.1502 79.1462 27.942 78.984 27.7053C78.7253 27.9523 78.4864 28.1875 78.2402 28.4147C77.259 29.3192 76.1982 30.1068 74.8919 30.4735C73.1633 30.9586 71.4114 31.0587 69.6674 30.5809C67.6802 30.0366 66.3293 28.7661 65.6835 26.8096C65.0559 24.9086 65.0727 22.9908 65.7851 21.1139C66.6187 18.917 68.2684 17.5508 70.4273 16.7457C71.8044 16.2328 73.2444 15.9917 74.6947 15.8142C75.7343 15.687 76.7761 15.5855 77.8172 15.4715C77.9078 15.4613 77.9977 15.443 78.1124 15.4248C78.0919 14.4728 78.2022 13.5245 77.9706 12.5944C77.6777 11.4189 76.8674 10.7263 75.5334 10.5941C74.3074 10.4728 73.194 10.7687 72.3319 11.7192C71.979 12.1079 71.7767 12.5754 71.6408 13.0803C71.5823 13.2973 71.491 13.515 71.3683 13.7013C71.2236 13.9205 70.9935 14.0052 70.7188 13.9745C69.3949 13.8269 68.0704 13.6845 66.7465 13.5435C66.1913 13.4843 65.8932 13.0869 66.002 12.5499C66.6369 9.42658 68.581 7.51169 71.5553 6.55242C72.5562 6.2295 73.5871 6.05562 74.6362 5.9906C74.7261 5.98475 74.8145 5.95845 74.9036 5.94165C75.4187 5.94165 75.933 5.94165 76.4481 5.94165L76.4503 5.94092ZM78.0693 18.9331C76.8601 18.9272 75.6627 19.0098 74.5054 19.389C73.0866 19.8536 72.0601 20.7128 71.7314 22.2383C71.5823 22.9287 71.5706 23.6271 71.7241 24.3154C71.9389 25.2754 72.4276 26.0366 73.4147 26.3515C74.3856 26.6606 75.2915 26.4648 76.1018 25.8723C77.1253 25.1234 77.6609 24.0589 77.9275 22.8542C78.2088 21.5866 78.1007 20.2949 78.1065 19.0112C78.1065 18.9879 78.0839 18.9645 78.0685 18.9331H78.0693Z" fill="#655B55"/>
<path d="M37.847 10.3144C38.8501 7.69379 40.662 6.2041 43.5347 6.16173C46.449 6.11863 48.163 7.7347 49.2508 10.3152C49.3319 10.1318 49.3816 10.02 49.4313 9.90822C50.6696 7.09689 53.3261 5.94255 55.9526 6.2041C57.725 6.38091 59.2081 7.12027 60.3011 8.56027C61.0039 9.4852 61.2757 10.5658 61.3802 11.6938C61.4371 12.3141 61.4547 12.9409 61.4539 13.5641C61.4532 18.8909 61.4437 24.2184 61.4371 29.5451C61.4364 30.2648 61.1354 30.568 60.418 30.568C59.0941 30.568 57.7703 30.568 56.4465 30.568C55.7677 30.568 55.4536 30.2553 55.4543 29.5714C55.4609 25.0432 55.4748 20.5157 55.4726 15.9875C55.4726 15.273 55.4667 14.5475 55.3535 13.8454C55.0634 12.0496 53.2932 11.2145 51.6048 12.0423C50.5959 12.5369 50.0713 13.3895 49.9208 14.4708C49.8273 15.1422 49.7579 15.8224 49.7557 16.4989C49.7403 20.843 49.7462 25.1879 49.7454 29.532C49.7454 30.2713 49.4496 30.568 48.7131 30.568C47.3893 30.568 46.0654 30.5687 44.7416 30.568C44.0877 30.568 43.767 30.2604 43.767 29.6131C43.7677 25.3793 43.7706 21.1448 43.7772 16.911C43.7787 15.8085 43.8108 14.7038 43.5135 13.6284C43.2731 12.7597 42.815 12.0532 41.8799 11.8238C40.5107 11.4885 39.0678 11.8604 38.4738 13.5458C38.1422 14.4868 38.0662 15.4651 38.0574 16.4485C38.0421 18.2304 38.0501 20.0123 38.0494 21.7943C38.0494 24.3842 38.0494 26.9742 38.0494 29.5648C38.0494 30.2626 37.7418 30.5687 37.0404 30.5694C35.7071 30.5694 34.3745 30.5701 33.0411 30.5694C32.3741 30.5694 32.068 30.2604 32.068 29.5875C32.068 22.2669 32.068 14.9471 32.068 7.62657C32.068 6.93324 32.3595 6.64392 33.0616 6.64246C34.3116 6.64027 35.5624 6.64027 36.8125 6.64246C37.4678 6.64392 37.7681 6.94931 37.7688 7.60831C37.7688 8.39808 37.7688 9.18785 37.7688 9.97762C37.7688 10.0763 37.7688 10.1749 37.7688 10.2735C37.7944 10.2874 37.8207 10.3013 37.8463 10.3152L37.847 10.3144Z" fill="#655B55"/>
<path d="M136.884 10.6831C136.932 10.5728 136.981 10.4617 137.029 10.3514C137.387 9.52292 137.809 8.73168 138.398 8.03835C139.325 6.9483 140.512 6.36383 141.927 6.21406C143.231 6.07524 144.502 6.19141 145.69 6.77954C147.383 7.61899 148.325 9.0305 148.713 10.8482C149.013 12.2488 149.059 13.6698 149.061 15.0937C149.065 19.9426 149.064 24.7916 149.065 29.6406C149.065 30.2382 148.748 30.564 148.151 30.5655C146.763 30.5699 145.375 30.5691 143.988 30.5655C143.405 30.564 143.089 30.2411 143.089 29.6588C143.089 25.2234 143.091 20.7872 143.092 16.3518C143.092 15.432 143.06 14.5143 142.81 13.6215C142.43 12.2634 141.572 11.6124 140.221 11.6723C139.375 11.7103 138.722 12.1326 138.222 12.7931C137.687 13.4988 137.433 14.328 137.309 15.1858C137.205 15.901 137.14 16.6279 137.137 17.3505C137.121 21.4184 137.128 25.4871 137.128 29.5558C137.128 30.2513 136.815 30.5669 136.122 30.5669C134.789 30.5669 133.456 30.5677 132.124 30.5669C131.471 30.5669 131.155 30.2572 131.154 29.6084C131.149 22.2521 131.145 14.8964 131.142 7.54008C131.142 6.96876 131.452 6.64584 132.024 6.64291C133.338 6.63488 134.653 6.63488 135.967 6.64291C136.501 6.64657 136.799 6.96292 136.799 7.48821C136.799 8.4526 136.799 9.41698 136.8 10.3814C136.8 10.4763 136.808 10.5713 136.813 10.6663C136.837 10.6721 136.861 10.678 136.885 10.6838L136.884 10.6831Z" fill="#655B55"/>
<path d="M108.112 18.5379C108.094 16.1737 108.445 13.8738 109.453 11.7113C110.434 9.60497 111.886 7.94068 114.037 6.95876C115.41 6.33191 116.862 6.10762 118.361 6.17337C120.548 6.26908 122.487 6.99529 124.112 8.49155C125.397 9.67511 126.296 11.1188 126.862 12.7546C128.151 16.4777 128.272 20.2395 127.023 23.9948C126.223 26.3984 124.833 28.3937 122.631 29.7387C120.752 30.8857 118.695 31.2335 116.535 30.9325C113.124 30.4569 110.877 28.4514 109.455 25.4209C108.601 23.6024 108.215 21.6649 108.114 19.6674C108.095 19.2919 108.111 18.9149 108.111 18.5387L108.112 18.5379ZM114.51 18.1632C114.5 19.6674 114.543 21.1082 114.789 22.5343C114.95 23.4702 115.19 24.3827 115.717 25.1907C116.388 26.2187 117.407 26.622 118.603 26.3436C119.617 26.1076 120.219 25.4128 120.634 24.5171C121.016 23.6916 121.204 22.8105 121.292 21.9133C121.529 19.4833 121.517 17.0526 121.182 14.6315C121.064 13.7774 120.868 12.9394 120.485 12.1526C119.61 10.3582 116.872 10.3012 115.807 11.6974C115.303 12.3564 115.019 13.1009 114.841 13.8958C114.524 15.3219 114.496 16.7721 114.51 18.1632Z" fill="#655B55"/>
<path d="M65.2166 48.3882C64.0718 48.3561 62.9956 48.3554 61.9238 48.2881C60.7717 48.2158 59.6224 48.0931 58.4739 47.9725C56.3472 47.7482 54.2482 47.361 52.1704 46.8628C44.673 45.0633 37.8471 41.8421 31.7203 37.1627C30.5463 36.2662 29.4387 35.2821 28.3033 34.3345C28.0958 34.1614 27.9212 33.9634 27.9256 33.6639C27.9307 33.3 28.2573 33.0173 28.6109 33.1049C28.8038 33.1524 28.9937 33.2365 29.1662 33.3358C34.8743 36.6198 40.9331 39.0374 47.3054 40.6827C49.899 41.3526 52.5211 41.8881 55.1724 42.2673C56.6679 42.4814 58.1737 42.6377 59.6787 42.7758C60.8747 42.8861 62.075 42.9592 63.2754 42.995C64.8455 43.0418 66.4177 43.0761 67.9877 43.0403C69.389 43.0081 70.7903 42.8942 72.1887 42.7773C73.4022 42.6757 74.6201 42.572 75.8212 42.3762C77.8822 42.0408 79.9417 41.6836 81.983 41.246C85.9837 40.3875 89.8654 39.1338 93.6535 37.5886C94.0181 37.4396 94.3819 37.2737 94.7625 37.1846C95.4844 37.0158 96.1434 37.5981 96.0623 38.3024C96.0177 38.6889 95.7561 38.9424 95.4632 39.1572C93.0456 40.9296 90.4425 42.382 87.7079 43.6007C84.5898 44.9902 81.3605 46.0547 78.0385 46.8379C76.0747 47.3011 74.0962 47.6934 72.09 47.9126C70.6325 48.0712 69.1706 48.1932 67.7087 48.2998C66.8575 48.3619 66.002 48.3619 65.2173 48.3875L65.2166 48.3882Z" fill="#655B55"/>
<path d="M97.878 11.3855H97.4967C95.1982 11.3855 92.9005 11.3855 90.6021 11.3848C90.4742 11.3848 90.3434 11.384 90.2178 11.3606C89.8225 11.2869 89.5712 11.0187 89.5675 10.6213C89.5566 9.52831 89.5558 8.43534 89.5675 7.3431C89.5719 6.91936 89.8444 6.64393 90.2631 6.58986C90.3719 6.57598 90.483 6.57306 90.5933 6.57306C95.226 6.57233 99.8594 6.57233 104.492 6.57306C104.611 6.57306 104.732 6.57744 104.849 6.59498C105.251 6.65342 105.519 6.93543 105.524 7.33945C105.533 8.27607 105.557 9.21416 105.51 10.1486C105.494 10.4671 105.336 10.8105 105.154 11.083C104.358 12.2732 103.534 13.4443 102.712 14.6184C100.876 17.2441 99.0353 19.8677 97.1964 22.4927C97.1496 22.5599 97.1065 22.6293 97.0262 22.7499C97.1686 22.7499 97.2717 22.7506 97.3739 22.7499C99.5043 22.7265 101.592 22.9822 103.591 23.7559C104.136 23.967 104.662 24.2344 105.185 24.5018C105.707 24.7692 105.953 25.2295 105.958 25.8059C105.967 26.9077 105.965 28.0101 105.959 29.1119C105.955 29.7935 105.395 30.1333 104.79 29.8271C102.059 28.4456 99.1573 27.9013 96.1151 28.1073C93.946 28.2542 91.8864 28.824 89.9467 29.814C89.2782 30.1552 88.7478 29.8381 88.7456 29.0878C88.7427 27.9217 88.7434 26.755 88.7507 25.589C88.7558 24.8357 88.9699 24.1533 89.4083 23.5272C92.1633 19.5937 94.9067 15.6522 97.6537 11.7135C97.7158 11.6244 97.7765 11.5331 97.8766 11.3862L97.878 11.3855Z" fill="#655B55"/>
<path d="M97.4833 31.5818C98.8327 31.6278 100.164 31.7308 101.456 32.1363C101.587 32.1772 101.713 32.2342 101.843 32.2788C102.373 32.4585 102.588 32.8479 102.635 33.3849C102.787 35.1573 102.388 36.8464 101.861 38.5107C101.242 40.4614 100.341 42.2696 98.9978 43.8309C98.634 44.2539 98.2124 44.628 97.815 45.0225C97.7631 45.0737 97.7003 45.1146 97.6396 45.1562C97.3678 45.3425 97.0449 45.3981 96.8966 45.2585C96.6657 45.0408 96.7607 44.7822 96.8557 44.544C97.5914 42.6949 98.3205 40.8443 98.8334 38.917C99.0599 38.0665 99.2593 37.2088 99.2542 36.3212C99.2528 36.121 99.2243 35.9186 99.1841 35.7221C99.1074 35.3473 98.8838 35.0806 98.5412 34.9111C97.8749 34.5816 97.1516 34.4881 96.4283 34.4764C95.3098 34.4581 94.1876 34.4647 93.0719 34.5348C91.8935 34.6094 90.7209 34.7708 89.5454 34.8936C89.4906 34.8994 89.4358 34.9031 89.381 34.9045C89.1311 34.9104 88.8462 34.9447 88.7563 34.6393C88.673 34.3566 88.8586 34.1279 89.0698 33.9884C89.5658 33.6589 90.0707 33.3352 90.6018 33.0678C91.9498 32.3906 93.3898 31.9946 94.8838 31.8134C95.7474 31.7089 96.6168 31.657 97.484 31.5818H97.4833Z" fill="#655B55"/>
</g>
</svg>
