<svg width="125" height="49" viewBox="0 0 125 49" fill="none" xmlns="http://www.w3.org/2000/svg">
<path d="M88.9929 16.3343C88.989 16.6643 88.9812 16.9943 88.9812 17.3243C88.9812 19.2027 88.9832 21.0831 88.9754 22.9615C88.9754 23.1529 89.0261 23.1997 89.2155 23.1997C92.1191 23.1939 95.0246 23.1958 97.9282 23.1958C98.059 23.1958 98.1703 23.2192 98.1683 23.0103C98.1605 20.8175 98.1644 18.6228 98.1625 16.43C98.1625 16.3987 98.1547 16.3655 98.1508 16.3343C98.1742 16.2718 98.2308 16.2913 98.2757 16.2894C98.6955 16.2894 99.1134 16.2952 99.5332 16.2855C99.6855 16.2816 99.7246 16.3323 99.7226 16.4788C99.7168 17.2364 99.7187 17.994 99.7187 18.7516C99.7187 23.022 99.7187 27.2924 99.7187 31.5628C99.7187 31.6585 99.7421 31.7561 99.6972 31.8479C99.2696 31.8479 98.842 31.8362 98.4144 31.8518C98.2171 31.8596 98.1586 31.8108 98.1605 31.6038C98.1683 29.3622 98.1605 27.1206 98.1722 24.877C98.1722 24.631 98.1117 24.5783 97.8715 24.5783C94.9914 24.588 92.1113 24.5861 89.2292 24.5783C89.03 24.5783 88.9754 24.6232 88.9773 24.8263C88.9851 27.0679 88.9793 29.3095 88.9871 31.5531C88.9871 31.7796 88.9344 31.8655 88.6942 31.8499C88.3408 31.8284 87.9834 31.8401 87.63 31.8479C87.4992 31.8499 87.4289 31.8225 87.4504 31.6761C87.4582 31.6214 87.4504 31.5628 87.4504 31.5062C87.4504 26.4411 87.4504 21.376 87.4504 16.3108C87.9658 16.2835 88.4813 16.2445 88.9949 16.3304L88.9929 16.3343Z" fill="#58524E"/>
<path d="M113.491 16.3343C113.487 16.6877 113.465 17.0431 113.485 17.3965C113.496 17.6308 113.409 17.6718 113.196 17.6718C110.462 17.666 107.73 17.6718 104.997 17.6621C104.77 17.6621 104.725 17.7265 104.727 17.9393C104.737 19.6401 104.733 21.3408 104.731 23.0396C104.731 23.1763 104.735 23.2544 104.917 23.2524C107.359 23.2446 109.802 23.2485 112.245 23.2466C112.268 23.2466 112.292 23.2407 112.317 23.2368C112.397 23.2973 112.356 23.3833 112.356 23.4575C112.362 23.7757 112.36 24.096 112.356 24.4143C112.356 24.4709 112.393 24.5451 112.311 24.5822C112.239 24.5783 112.167 24.5685 112.094 24.5685C109.724 24.5685 107.353 24.5685 104.981 24.5626C104.788 24.5626 104.725 24.5958 104.725 24.8067C104.735 26.6129 104.735 28.4171 104.725 30.2233C104.725 30.4322 104.788 30.4693 104.981 30.4693C107.787 30.4635 110.593 30.4674 113.401 30.4596C113.617 30.4596 113.699 30.5084 113.684 30.7388C113.662 31.0434 113.672 31.3519 113.682 31.6565C113.688 31.8049 113.639 31.8499 113.491 31.846C113.006 31.8381 112.522 31.842 112.04 31.842C109.105 31.842 106.168 31.842 103.233 31.842C103.185 31.76 103.21 31.6683 103.21 31.5823C103.21 26.5778 103.21 21.5712 103.21 16.5666C103.21 16.2503 103.179 16.2855 103.499 16.2855C106.748 16.2855 109.999 16.2855 113.248 16.2874C113.328 16.2874 113.426 16.2386 113.494 16.3284L113.491 16.3343Z" fill="#58524E"/>
<path d="M79.6026 16.2075C80.8542 16.2739 82.018 16.6 83.0626 17.3205C83.8788 17.8829 84.4978 18.6112 84.9567 19.4821C84.9918 19.5465 85.0231 19.5973 84.9254 19.6559C84.5662 19.8628 84.2127 20.0796 83.8613 20.3002C83.7441 20.3744 83.7246 20.2807 83.6914 20.2163C83.4512 19.7711 83.17 19.3571 82.8068 18.9998C82.4749 18.6737 82.1019 18.412 81.6938 18.1972C79.173 16.8734 75.6231 17.6173 74.1469 20.9055C72.9441 23.5845 73.2077 26.1562 75.0471 28.4895C75.9648 29.6533 77.1891 30.3563 78.6712 30.5281C79.5948 30.6355 80.493 30.491 81.3619 30.1297C81.8833 29.913 82.3675 29.6357 82.7873 29.2725C83.2462 28.8742 83.6562 28.4134 83.9218 27.853C83.9999 27.689 84.0761 27.6831 84.2264 27.771C84.5369 27.9506 84.8591 28.1088 85.1812 28.2669C85.2984 28.3255 85.3082 28.3802 85.2496 28.4974C84.7224 29.5674 83.9023 30.3582 82.885 30.9499C81.8422 31.5532 80.7117 31.8832 79.5089 31.9535C79.2843 31.9769 79.0578 31.9769 78.8332 31.9535C77.5328 31.9047 76.3573 31.4888 75.3088 30.7273C74.0845 29.8388 73.1804 28.6907 72.5868 27.2926C72.2041 26.3924 71.958 25.4669 71.8995 24.4906C71.8663 24.4066 71.9034 24.3109 71.8643 24.227C71.8643 24.0336 71.8643 23.8384 71.8643 23.6451C71.9034 23.5611 71.8643 23.4654 71.8995 23.3795C71.9912 21.8506 72.495 20.4623 73.3698 19.2146C74.4047 17.7403 75.8067 16.7757 77.5699 16.3735C78.0288 16.268 78.5013 16.2095 78.9758 16.2056C79.1847 16.1841 79.3937 16.1841 79.6026 16.2056V16.2075Z" fill="#58524E"/>
<path d="M24.3686 8.96106C24.5697 8.56663 24.8372 8.2132 25.0871 7.85197C25.1516 7.63523 25.3234 7.48878 25.4445 7.31109C25.4855 7.22322 25.5616 7.16074 25.6104 7.08068C25.6163 7.06896 25.6358 7.0592 25.6339 7.05139C25.63 7.03186 25.63 7.03577 25.6241 7.0592C25.6183 7.09044 25.6261 7.04553 25.6124 7.07677C25.5636 7.15683 25.4874 7.21346 25.4464 7.29742C25.3039 7.46144 25.2141 7.66842 25.0286 7.79534C24.7064 8.15658 24.4643 8.57834 24.1635 8.9552C24.0757 8.90443 24.0347 8.81266 23.9917 8.73065C23.6266 8.0277 23.2419 7.33647 22.8826 6.63157C22.867 6.60229 22.8592 6.573 22.8592 6.5398C23.0349 6.23714 23.2927 5.99892 23.5094 5.72751C23.7359 5.44242 23.9741 5.16515 24.2338 4.90936C24.8294 4.31966 25.382 3.68115 26.1045 3.22814C26.3349 3.08365 26.5614 2.99578 26.8308 3.00945C26.9382 3.00555 26.9324 3.09732 26.9499 3.1598C27.4205 4.8332 27.8814 6.51051 28.35 8.18587C28.3851 8.30888 28.4242 8.43776 28.3285 8.55491C28.2504 8.6213 28.1547 8.63107 28.059 8.64669C27.0124 8.81657 25.96 8.9181 24.9055 9.02159C24.7279 9.03917 24.5365 9.07822 24.3686 8.96106Z" fill="#58524E"/>
<path d="M24.3081 16.9726C24.3569 16.9609 24.4057 16.9492 24.4545 16.9375C24.8548 17.0742 25.2336 17.2577 25.6046 17.4569C25.6456 17.4784 25.6866 17.5096 25.6671 17.5701C25.2453 18.6968 24.7474 19.7766 23.7984 20.5772C23.4606 20.8623 23.0916 21.0966 22.6952 21.2899C22.6327 21.3192 22.5624 21.3328 22.5234 21.3953C22.4882 21.4617 22.4433 21.4559 22.3847 21.4207C21.4026 20.8642 20.3501 20.4522 19.3367 19.9562C19.1551 19.8684 18.9716 19.7864 18.7939 19.6926C18.7216 19.6536 18.622 19.6243 18.6474 19.5032C18.8427 18.9428 19.1492 18.4332 19.3816 17.8904C19.4363 17.7634 19.5046 17.6443 19.5651 17.5213C19.8092 17.3378 20.106 17.4139 20.3755 17.3729C20.7133 17.3221 21.055 17.2948 21.3967 17.2597C21.8009 17.2147 22.2071 17.1816 22.6112 17.1366C23.0721 17.0839 23.5368 17.0742 23.9898 16.9531C24.0152 16.9453 24.0425 16.9394 24.0699 16.9355C24.1538 16.9219 24.228 16.9707 24.31 16.9707L24.3081 16.9726Z" fill="#58524E"/>
<path d="M19.3738 17.1389C18.7217 18.5018 18.0265 19.8432 17.4134 21.2238C17.388 21.2823 17.3548 21.339 17.3255 21.3956C17.2396 21.4678 17.1576 21.4171 17.0775 21.3819C16.2047 20.9914 15.3456 20.5677 14.4727 20.1732C14.3868 20.1342 14.2306 20.1205 14.2892 19.9506C14.6641 19.1169 15.1034 18.3163 15.5447 17.5177C16.0837 16.5453 16.648 15.5865 17.2045 14.6239C17.3216 14.4228 17.4544 14.2333 17.5813 14.0381C17.7512 14.0381 17.7571 14.2021 17.8332 14.2939C17.8937 14.3681 17.9308 14.4599 17.9738 14.5458C18.1437 14.8914 18.3155 15.237 18.4912 15.5787C18.6846 16.0083 18.9443 16.4047 19.1356 16.8342C19.1922 16.9612 19.3563 16.9905 19.3719 17.1389H19.3738Z" fill="#58524E"/>
<path d="M18.6435 19.5032C18.8075 19.6945 19.0497 19.7551 19.2625 19.8586C19.8776 20.1554 20.5005 20.4326 21.1194 20.7197C21.4983 20.8954 21.8712 21.0848 22.2578 21.241C22.3574 21.282 22.375 21.4519 22.5214 21.3933C23.0467 21.3504 23.5056 21.118 23.9683 20.8954C24.1226 20.8212 24.2612 20.706 24.4721 20.6591C23.8414 21.9186 22.9803 22.8988 21.7462 23.5295C21.7209 23.5842 21.6759 23.6095 21.6213 23.6213C21.5451 23.6349 21.4787 23.6701 21.4065 23.6955C21.383 23.7013 21.3596 23.7033 21.3362 23.7013C20.9007 23.5529 20.4966 23.3323 20.0806 23.139C19.3191 22.7894 18.5615 22.4321 17.8039 22.0748C17.7043 22.0279 17.5286 22.0182 17.5793 21.8248C17.7687 21.3113 18.0128 20.8232 18.2413 20.3272C18.3701 20.0499 18.4678 19.757 18.6435 19.5012V19.5032Z" fill="#58524E"/>
<path d="M24.3686 8.96114C25.2199 8.94943 26.0596 8.82446 26.9031 8.72683C27.3815 8.67215 27.854 8.596 28.3285 8.52375C28.6546 8.4105 28.9846 8.31287 29.338 8.37926C29.2911 8.84594 29.1662 9.29504 29.0197 9.73829C28.8284 10.3163 28.6019 10.8806 28.3285 11.4254C26.9578 10.7673 25.5733 10.1405 24.1967 9.49421C24.146 9.47078 24.0933 9.45125 24.064 9.39658C24.1557 9.24427 24.2006 9.06073 24.3686 8.96505V8.96114Z" fill="#58524E"/>
<path d="M15.209 27.443C15.3672 27.0368 15.5254 26.6327 15.6835 26.2265C15.7148 26.1484 15.7558 26.0722 15.7909 25.9961C15.8671 26.1015 15.9549 26.1875 16.078 26.2421C17.6166 26.9373 19.1358 27.6714 20.6725 28.3705C20.7252 28.3939 20.776 28.4174 20.8131 28.4623C20.5612 28.9075 20.2702 29.3253 19.9422 29.7198C19.8485 29.7842 19.7723 29.7198 19.6962 29.6846C18.8214 29.296 17.9583 28.8821 17.0914 28.4759C16.5232 28.2104 15.9452 27.9624 15.3887 27.6734C15.3028 27.6285 15.1485 27.6129 15.209 27.4449V27.443Z" fill="#58524E"/>
<path d="M20.8129 28.4622C20.4302 28.4075 20.1158 28.1791 19.7761 28.0248C18.6494 27.5171 17.5384 26.9782 16.4195 26.453C16.2594 26.3788 16.0993 26.3026 15.9372 26.2362C15.822 26.1894 15.7732 26.1152 15.7927 25.9941C15.9313 25.5977 16.0915 25.2091 16.277 24.8323C16.6265 24.9104 16.9272 25.1056 17.2455 25.2521C18.5889 25.8769 19.9303 26.5037 21.2718 27.1305C21.3382 27.1618 21.4085 27.1813 21.4475 27.2496C21.3147 27.6421 21.1039 27.9916 20.8773 28.3353C20.852 28.3743 20.8344 28.4173 20.8129 28.4583V28.4622Z" fill="#58524E"/>
<path d="M16.7104 23.8147C16.8471 23.4319 17.0033 23.059 17.1946 22.6997C17.5227 22.9867 17.9425 23.1019 18.3252 23.2835C19.1609 23.6819 19.9986 24.0744 20.8421 24.4551C21.2385 24.6348 21.6271 24.8281 22.0254 25.0038C22.1484 25.0585 22.2851 25.0975 22.3691 25.2186C22.2734 25.5935 22.1016 25.9372 21.9336 26.2828C21.8399 26.3492 21.7638 26.2828 21.6876 26.2476C20.2231 25.574 18.7626 24.8925 17.304 24.2032C17.1575 24.1349 17.0013 24.088 16.8627 24.0041C16.7904 23.9611 16.6908 23.9338 16.7123 23.8147H16.7104Z" fill="#58524E"/>
<path d="M16.7105 23.8149C16.7789 23.9399 16.9155 23.9653 17.0288 24.02C17.9602 24.4574 18.8936 24.8928 19.8269 25.3243C20.5279 25.6485 21.2289 25.9648 21.9318 26.285C21.8069 26.6267 21.6507 26.9509 21.4476 27.2535C21.1352 27.1891 20.8696 27.0133 20.5865 26.8825C19.1845 26.2382 17.7903 25.5743 16.3942 24.9162C16.3512 24.8967 16.3161 24.8635 16.277 24.8362C16.402 24.4886 16.5426 24.1469 16.7125 23.8169L16.7105 23.8149Z" fill="#58524E"/>
<path d="M14.2892 29.7685C14.4278 29.3428 14.584 28.923 14.7754 28.5168C15.6345 28.8996 16.482 29.3096 17.3372 29.7001C17.8488 29.9345 18.3604 30.1688 18.8661 30.4148C18.9716 30.4656 19.0965 30.5027 19.1336 30.6394C18.8193 30.9928 18.4541 31.2857 18.0695 31.559C17.9718 31.6274 17.884 31.5727 17.798 31.5317C16.6811 31.0025 15.5564 30.4851 14.4376 29.9579C14.3614 29.9227 14.2325 29.911 14.2892 29.7665V29.7685Z" fill="#58524E"/>
<path d="M29.3381 8.37732C29.0003 8.42028 28.6723 8.51791 28.3286 8.52181C28.2954 8.04342 28.1099 7.60212 27.9869 7.14716C27.6296 5.83109 27.2547 4.52088 26.8856 3.20676C26.8661 3.14037 26.9012 3.05836 26.8309 3.00564C27.3835 2.95878 27.8112 3.20871 28.1861 3.57971C28.5297 4.90359 28.9202 6.21381 29.2795 7.53378C29.3049 7.62751 29.2776 7.772 29.4338 7.79739C29.4045 7.9907 29.4143 8.19182 29.3381 8.37732Z" fill="#58524E"/>
<path d="M14.2892 29.7686C14.422 29.9404 14.6309 29.9853 14.8125 30.0732C15.4198 30.3661 16.0368 30.6394 16.648 30.9245C17.0834 31.1276 17.5169 31.3385 17.9523 31.5435C17.9875 31.5591 18.0304 31.5552 18.0714 31.5611C17.5813 31.9692 17.0346 32.2894 16.4644 32.5745C16.3102 32.6584 16.1813 32.5608 16.0563 32.5022C15.4744 32.2269 14.8886 31.9633 14.3087 31.6841C14.1564 31.6118 14.0002 31.5454 13.8479 31.4732C13.7678 31.4361 13.6546 31.4068 13.7093 31.2701C13.883 30.7624 14.0666 30.2567 14.2892 29.7686Z" fill="#58524E"/>
<path d="M12.4479 34.6537C12.5709 34.2437 12.692 33.8336 12.8853 33.449C12.9068 33.4607 12.9243 33.4744 12.94 33.4919C13.1606 33.6716 13.4262 33.7712 13.68 33.8883C14.3927 34.2222 15.1093 34.5464 15.8142 34.892C15.8923 34.931 15.9802 34.9584 16.0271 35.0404C15.8611 35.1263 15.6932 35.2122 15.4862 35.3176C16.2711 35.3957 16.9233 35.1966 17.4857 34.7045C17.5306 34.6928 17.554 34.7045 17.5364 34.7553C17.1674 35.4739 16.6519 36.0518 15.9372 36.4463C15.8455 36.497 15.7674 36.4502 15.6873 36.4111C14.7754 35.9581 13.8557 35.5246 12.9204 35.1204C12.7877 35.0638 12.6685 34.9798 12.5436 34.9076C12.444 34.851 12.3835 34.7729 12.4479 34.6518V34.6537Z" fill="#58524E"/>
<path d="M19.1337 30.6391C18.7217 30.3657 18.255 30.2056 17.8157 29.9869C17.2982 29.7292 16.7632 29.5046 16.238 29.2644C15.785 29.0555 15.3339 28.8446 14.8809 28.6337C14.8301 28.6103 14.7774 28.5849 14.7755 28.5166C14.9024 28.1514 15.0391 27.7902 15.2089 27.4426C15.371 27.6887 15.658 27.7355 15.8943 27.8527C16.484 28.1436 17.0893 28.4092 17.6868 28.6845C18.4386 29.0301 19.1767 29.405 19.9421 29.7194C19.7019 30.0513 19.4403 30.3657 19.1337 30.641V30.6391Z" fill="#58524E"/>
<path d="M22.3673 25.2186C21.9201 25.0175 21.471 24.8222 21.0278 24.6172C19.8679 24.0802 18.708 23.5433 17.554 22.9965C17.4174 22.9321 17.2006 22.934 17.1928 22.6997C17.2924 22.3971 17.4174 22.1042 17.5794 21.8269C17.6419 22.0065 17.8235 22.0222 17.9582 22.0866C18.6221 22.4049 19.2919 22.7134 19.9616 23.02C20.442 23.2406 20.9243 23.4534 21.4046 23.6702C21.8049 23.8303 22.174 24.0529 22.5723 24.215C22.6328 24.2404 22.6797 24.2833 22.7031 24.3477C22.6289 24.6543 22.4961 24.9355 22.3653 25.2206L22.3673 25.2186Z" fill="#58524E"/>
<path d="M15.3456 25.8981C15.1484 26.3862 14.9824 26.8881 14.7169 27.3469C14.6153 27.3879 14.5275 27.3391 14.4415 27.2962C13.6214 26.8998 12.7916 26.5288 11.9715 26.1363C11.8973 26.1011 11.7645 26.0933 11.8211 25.9469C11.9266 25.4704 12.1452 25.0331 12.2995 24.5742C12.3132 24.5312 12.3366 24.4902 12.3542 24.4492C12.569 24.7031 12.8892 24.7714 13.1704 24.9022C13.8929 25.242 14.6036 25.6032 15.3456 25.8981Z" fill="#58524E"/>
<path d="M51.7193 38.3091C51.442 37.4343 51.1647 36.5576 50.8679 35.6184C50.702 36.1124 50.5536 36.5459 50.411 36.9813C50.2802 37.3758 50.1435 37.7663 50.0342 38.1666C49.9892 38.3306 49.8994 38.3306 49.7705 38.3365C49.6319 38.3423 49.5577 38.3091 49.5109 38.1646C49.2023 37.2117 48.8821 36.2628 48.5716 35.3099C48.5443 35.2298 48.4291 35.1205 48.558 35.0521C48.7239 34.9662 48.9153 35.0619 48.968 35.2298C49.1262 35.7297 49.2785 36.2335 49.4445 36.7314C49.5616 37.0848 49.6397 37.4519 49.8116 37.8268C50.0693 36.9696 50.3134 36.1495 50.5633 35.3314C50.6102 35.1791 50.6356 35.0189 50.8816 35.0365C51.0554 35.0502 51.0925 35.1322 51.1315 35.2591C51.3737 36.0343 51.6158 36.8075 51.8599 37.5827C51.8755 37.6355 51.8989 37.6862 51.9184 37.7409C52.0395 37.6979 52.0336 37.5886 52.059 37.5046C52.2875 36.7861 52.5101 36.0655 52.7346 35.347C52.8036 35.127 52.965 35.0346 53.2189 35.0697C52.8616 36.1573 52.5062 37.243 52.1508 38.3267C52.0063 38.3677 51.8618 38.3989 51.7212 38.3111L51.7193 38.3091Z" fill="#58524E"/>
<path d="M22.664 11.7144C22.8124 11.441 22.9608 11.1677 23.1092 10.8943C23.2283 10.824 23.3298 10.8963 23.4255 10.9431C24.5151 11.4664 25.6203 11.9585 26.7079 12.4857C26.9949 12.6263 27.3132 12.7063 27.5592 12.927C27.3913 13.2316 27.2234 13.5362 27.0554 13.8408C26.7664 13.7412 26.5009 13.5889 26.2275 13.4601C25.0989 12.9289 23.9625 12.4174 22.8417 11.8706C22.7714 11.8355 22.6562 11.8374 22.662 11.7125L22.664 11.7144Z" fill="#58524E"/>
<path d="M10.8175 29.6769C10.9308 29.1926 11.0421 28.7064 11.1553 28.2222C11.3115 28.1968 11.4365 28.2866 11.5615 28.3452C12.2742 28.6771 12.983 29.0189 13.7035 29.3371C13.7777 29.3703 13.846 29.4094 13.8948 29.4797C13.7269 29.9893 13.516 30.4833 13.313 30.9793C13.2485 31.0398 13.1763 31.0184 13.1118 30.9852C12.3718 30.622 11.6044 30.3154 10.8839 29.9132C10.798 29.8526 10.8487 29.755 10.8195 29.6769H10.8175Z" fill="#58524E"/>
<path d="M27.5612 12.9289C27.2898 12.8098 27.0145 12.6965 26.747 12.5696C25.6242 12.0443 24.5054 11.5152 23.3846 10.988C23.2987 10.947 23.203 10.9255 23.1112 10.8942C23.2869 10.6209 23.4607 10.3455 23.6365 10.0722C23.7673 10.0331 23.8727 10.1054 23.9782 10.1561C25.0306 10.656 26.089 11.1403 27.1434 11.6362C27.3621 11.7397 27.5886 11.8198 27.7995 11.9389C27.8756 11.9818 27.9654 12.0072 27.9947 12.1049C27.8502 12.3802 27.7663 12.6848 27.5612 12.9289Z" fill="#58524E"/>
<path d="M15.3455 25.8982C15.1483 25.9822 15.0077 25.826 14.8613 25.7616C14.0841 25.4179 13.3167 25.0488 12.5474 24.6876C12.4459 24.6388 12.3326 24.5978 12.3541 24.4494C12.4966 24.0237 12.6431 23.6 12.8383 23.1958C13.1508 23.4594 13.5432 23.5785 13.9045 23.7464C14.5586 24.0511 15.201 24.385 15.8786 24.6388C15.7243 25.0684 15.5388 25.4843 15.3455 25.8963V25.8982Z" fill="#58524E"/>
<path d="M13.2719 22.1706C13.4183 21.7547 13.6038 21.3563 13.8069 20.9658C14.1076 21.247 14.5059 21.3485 14.8633 21.5282C15.5154 21.8543 16.193 22.1296 16.8432 22.4615C16.6675 22.8482 16.4917 23.2367 16.316 23.6233C16.2477 23.7405 16.1598 23.6722 16.0856 23.639C15.1991 23.2367 14.3204 22.8189 13.4359 22.4127C13.3422 22.3698 13.2094 22.3307 13.2719 22.1706Z" fill="#58524E"/>
<path d="M12.4477 34.6538C12.4868 34.9487 12.768 34.9818 12.9554 35.0639C13.6388 35.3607 14.3008 35.7024 14.9783 36.005C15.3005 36.1476 15.6012 36.335 15.9351 36.4483C15.4606 36.7626 14.9393 36.9638 14.3828 37.077C14.3066 37.12 14.2227 37.1102 14.1524 37.077C13.426 36.7392 12.6996 36.4034 11.9752 36.0617C11.9537 36.0519 11.9401 36.0304 11.9225 36.0128C12.0963 35.5598 12.2701 35.1088 12.4438 34.6558L12.4477 34.6538Z" fill="#58524E"/>
<path d="M12.8872 33.4899C12.8872 33.4762 12.8872 33.4626 12.8872 33.4489C13.1606 32.7225 13.4359 31.9962 13.7093 31.2698C13.7093 31.3498 13.7737 31.3752 13.8323 31.4026C14.6621 31.7853 15.494 32.168 16.3238 32.5487C16.3648 32.5683 16.4176 32.5663 16.4644 32.5741C15.8083 32.9197 15.1308 33.197 14.3907 33.3044C14.1115 33.529 13.7659 33.4723 13.4457 33.5094C13.2641 33.5309 13.0688 33.6285 12.8872 33.4919V33.4899Z" fill="#58524E"/>
<path d="M16.8412 22.4593C16.562 22.4593 16.3492 22.2777 16.1109 22.1762C15.3924 21.8657 14.6875 21.5221 13.9748 21.1921C13.8771 21.1472 13.7854 21.0983 13.8049 20.9656C13.9416 20.6141 14.1154 20.2821 14.2891 19.9502C14.2911 20.0049 14.3243 20.0361 14.3712 20.0576C15.3318 20.5028 16.2925 20.948 17.2532 21.3912C17.2728 21.401 17.3001 21.3951 17.3255 21.3971C17.1634 21.7525 17.0033 22.1078 16.8412 22.4613V22.4593Z" fill="#58524E"/>
<path d="M113.393 35.0423C113.645 35.0423 113.772 35.1705 113.772 35.427C113.772 36.3135 113.774 37.2 113.768 38.0865C113.768 38.1685 113.832 38.3188 113.69 38.3227C113.557 38.3266 113.407 38.4126 113.282 38.2388C112.93 37.7487 112.555 37.2761 112.194 36.7938C111.942 36.4599 111.694 36.1221 111.413 35.7433C111.413 36.5732 111.409 37.3464 111.417 38.1177C111.417 38.2798 111.386 38.3384 111.208 38.3403C111.02 38.3403 111.024 38.2485 111.024 38.1177C111.026 37.1746 111.024 36.2315 111.03 35.2884C111.03 35.2083 110.958 35.0638 111.102 35.0521C111.231 35.0404 111.378 34.9837 111.493 35.14C111.856 35.6379 112.231 36.128 112.604 36.62C112.84 36.9325 113.051 37.2644 113.315 37.5554C113.432 37.5183 113.373 37.4206 113.373 37.3542C113.377 36.663 113.375 35.9718 113.377 35.2805C113.377 35.2005 113.362 35.1204 113.395 35.0423H113.393Z" fill="#58524E"/>
<path d="M85.2242 35.0444C85.5503 34.9643 85.7123 35.1713 85.8783 35.3998C86.3957 36.1105 86.9249 36.8135 87.4482 37.5184C87.4599 37.534 87.4814 37.5438 87.5009 37.5574C87.581 37.5008 87.5478 37.4208 87.5478 37.3563C87.5517 36.7119 87.5478 36.0695 87.5478 35.4252C87.5478 35.17 87.6734 35.0431 87.9247 35.0444C87.9598 35.0854 87.952 35.1342 87.952 35.183C87.952 36.1867 87.952 37.1923 87.952 38.1959C87.952 38.2428 87.9618 38.2936 87.9247 38.3326C87.62 38.3951 87.4502 38.2487 87.2725 38.0046C86.7628 37.3016 86.2298 36.6143 85.728 35.9036C85.7065 35.8743 85.6674 35.8567 85.5991 35.804V36.8135C85.5991 37.2313 85.5874 37.6512 85.6049 38.069C85.6127 38.276 85.5639 38.3736 85.3433 38.3326C85.3042 38.3248 85.2632 38.3326 85.2222 38.3326C85.1851 38.2936 85.1929 38.2428 85.1929 38.1959C85.1929 37.1923 85.1929 36.1867 85.1929 35.183C85.1929 35.1362 85.1832 35.0854 85.2203 35.0444H85.2242Z" fill="#58524E"/>
<path d="M27.9928 12.1048C26.54 11.4272 25.0873 10.7497 23.6345 10.0721C23.7478 9.82606 23.902 9.60737 24.0641 9.39258C24.4234 9.46873 24.728 9.67571 25.056 9.82411C26.0831 10.2849 27.0985 10.7711 28.1158 11.2495C28.1959 11.2886 28.3111 11.2983 28.3267 11.4214C28.2291 11.6557 28.1353 11.8919 27.9908 12.1028L27.9928 12.1048Z" fill="#58524E"/>
<path d="M13.2719 22.1707C13.2758 22.3073 13.3949 22.3288 13.4847 22.3718C14.3595 22.7799 15.2362 23.1841 16.1129 23.5902C16.1774 23.6195 16.236 23.6742 16.3141 23.6234C16.1891 23.971 16.0407 24.3088 15.8786 24.6388C15.7283 24.7325 15.6111 24.6075 15.4998 24.5568C14.666 24.178 13.8381 23.7835 13.0083 23.391C12.9243 23.352 12.8169 23.3247 12.8364 23.1938C12.9594 22.8424 13.1 22.5006 13.2699 22.1687L13.2719 22.1707Z" fill="#58524E"/>
<path d="M13.8927 29.4776C13.5393 29.3234 13.1839 29.175 12.8344 29.0149C12.2721 28.7552 11.7136 28.4876 11.1552 28.2221C11.2684 27.8023 11.3817 27.3844 11.4949 26.9646C11.862 27.0857 12.1959 27.2829 12.5474 27.4391C13.1 27.6832 13.6389 27.9565 14.1915 28.2026C14.2501 28.2279 14.3106 28.2572 14.3418 28.3178C14.2266 28.7181 14.0587 29.0969 13.8947 29.4776H13.8927Z" fill="#58524E"/>
<path d="M12.8872 33.4899C13.391 33.4509 13.8948 33.4196 14.3888 33.3025C14.5489 33.4782 14.7598 33.3708 14.9472 33.4021C15.1991 33.4333 15.451 33.4372 15.7048 33.4021C15.7966 33.4021 15.8903 33.406 15.9821 33.406C15.9509 33.5212 16.0427 33.5349 16.1129 33.57C16.441 33.7399 16.7847 33.8805 17.1166 34.0445C17.2006 34.0855 17.3021 34.1109 17.3353 34.2183C16.935 34.5502 16.4976 34.8216 16.029 35.0423C15.7224 34.9056 15.4139 34.7709 15.1113 34.6283C14.422 34.3042 13.7346 33.9742 13.0493 33.6462C12.9809 33.613 12.8892 33.5973 12.8892 33.4899H12.8872Z" fill="#58524E"/>
<path d="M21.2114 14.3289C21.3109 14.0712 21.4535 13.8369 21.6019 13.6064C21.7601 13.6104 21.8948 13.6904 22.0315 13.7548C23.2089 14.3113 24.3883 14.8639 25.5735 15.4048C25.6809 15.4536 25.8274 15.4712 25.8586 15.6274C25.6673 15.8754 25.4525 16.1 25.1869 16.2718C24.1813 15.7465 23.1386 15.2974 22.1115 14.8151C21.8714 14.7019 21.637 14.5769 21.3891 14.4812C21.3149 14.4519 21.2387 14.4187 21.2133 14.3289H21.2114Z" fill="#58524E"/>
<path d="M25.8565 15.6275C25.2981 15.3092 24.6967 15.0808 24.1206 14.7977C23.4587 14.4696 22.7811 14.1767 22.1153 13.8584C21.9435 13.7764 21.7443 13.7452 21.5998 13.6066C21.6955 13.3879 21.8068 13.1789 21.9396 12.9817C22.0313 12.9309 22.1114 12.9739 22.1914 13.011C23.1756 13.4699 24.1616 13.9229 25.1438 14.3896C25.4562 14.538 25.7765 14.6688 26.0811 14.8348C26.1631 14.8797 26.2646 14.9051 26.2998 15.0105C26.1943 15.2468 26.0225 15.4362 25.8546 15.6295L25.8565 15.6275Z" fill="#58524E"/>
<path d="M12.4383 33.3496C12.3094 33.6874 12.1825 34.0272 12.0536 34.365C11.9481 34.4489 11.8505 34.3787 11.7607 34.3357C10.9874 33.9764 10.2083 33.6347 9.44878 33.2481C9.12269 32.7033 8.81222 32.1488 8.43536 31.6333C8.54666 31.5708 8.6111 31.6528 8.67749 31.6957C9.2457 32.0589 9.77096 32.4748 10.2083 32.9923C10.2337 33.0216 10.2454 33.0704 10.2943 33.0489C10.3372 33.0294 10.3646 32.9923 10.3685 32.9376C10.3841 32.7834 10.3528 32.6252 10.4114 32.4768C10.4876 32.4143 10.5637 32.4436 10.6379 32.4768C11.2159 32.7248 11.7802 33.006 12.3504 33.2696C12.3875 33.2871 12.4129 33.3203 12.4383 33.3516V33.3496Z" fill="#58524E"/>
<path d="M26.3019 15.0105C24.9077 14.3545 23.5135 13.6964 22.1193 13.0423C22.0627 13.0169 22.0022 13.0032 21.9417 12.9837C22.0549 12.7474 22.176 12.5151 22.3263 12.2983C22.586 12.3647 22.8086 12.5131 23.0468 12.6244C24.2223 13.1692 25.3958 13.7218 26.5733 14.2607C26.6319 14.2881 26.6885 14.3174 26.7217 14.3779C26.6045 14.6044 26.4698 14.8172 26.2999 15.0086L26.3019 15.0105Z" fill="#58524E"/>
<path d="M26.7215 14.378C26.1318 14.1632 25.5812 13.8605 25.0071 13.6067C24.2124 13.2552 23.4333 12.8745 22.6464 12.5054C22.5292 12.4507 22.4179 12.3902 22.3262 12.2965C22.4219 12.0915 22.5156 11.8864 22.664 11.7126C23.6618 12.2106 24.681 12.6694 25.6945 13.1361C26.1045 13.3255 26.5087 13.5227 26.9129 13.7199C26.9676 13.7473 27.0086 13.8 27.0574 13.841C26.9461 14.0187 26.8348 14.1983 26.7235 14.376L26.7215 14.378Z" fill="#58524E"/>
<path d="M14.342 28.3175C13.9339 28.1945 13.5707 27.9719 13.1821 27.804C12.6686 27.5833 12.1668 27.3334 11.6591 27.0991C11.5907 27.0678 11.54 27.0229 11.4951 26.9643C11.6044 26.6265 11.7138 26.2868 11.8231 25.949C11.9481 26.1189 12.1511 26.156 12.3249 26.2399C13.0318 26.5816 13.7445 26.9077 14.4552 27.2377C14.5412 27.2787 14.631 27.3119 14.7208 27.349C14.6486 27.6927 14.4962 28.0051 14.3459 28.3195L14.342 28.3175Z" fill="#58524E"/>
<path d="M66.1412 36.5028C66.1373 36.8797 66.2018 36.866 65.7781 36.866C65.4149 36.866 65.0536 36.8738 64.6904 36.8621C64.5284 36.8562 64.4835 36.9129 64.4893 37.0671C64.501 37.3073 64.4991 37.5494 64.4893 37.7915C64.4854 37.9204 64.5323 37.9556 64.6553 37.9556C65.2274 37.9497 65.7995 37.9497 66.3697 37.9477C66.4341 38.0747 66.4166 38.2035 66.3795 38.3324C65.6238 38.3324 64.8681 38.3324 64.1125 38.3324C64.0734 38.2934 64.0832 38.2426 64.0832 38.1957C64.0832 37.1901 64.0832 36.1865 64.0832 35.1809C64.0832 35.134 64.0734 35.0832 64.1125 35.0442C64.8506 35.0442 65.5906 35.0442 66.3287 35.0442C66.3658 35.1731 66.3951 35.3019 66.3131 35.4269C65.7585 35.423 65.2059 35.423 64.6514 35.4152C64.5245 35.4152 64.4835 35.4562 64.4874 35.5812C64.4971 35.8702 64.4952 36.1591 64.4991 36.4462C64.9599 36.5028 65.4227 36.454 65.8835 36.4735C65.9675 36.4774 66.0592 36.4423 66.1373 36.5048L66.1412 36.5028Z" fill="#58524E"/>
<path d="M31.324 35.7708C31.4255 35.2729 31.7946 35.1128 32.2398 35.0542C32.6166 35.0054 32.9701 35.0893 33.3137 35.2416C33.5227 35.3334 33.425 35.4564 33.3762 35.5892C33.3098 35.7708 33.2317 35.6732 33.1263 35.6282C32.806 35.4896 32.478 35.39 32.1187 35.472C31.9059 35.5209 31.7516 35.64 31.736 35.845C31.7223 36.0285 31.8161 36.2062 32.0113 36.2824C32.3159 36.3995 32.6264 36.503 32.931 36.6241C33.4055 36.8115 33.6222 37.1044 33.5851 37.4852C33.5402 37.9323 33.2493 38.2291 32.7611 38.3287C32.2671 38.4303 31.8024 38.3502 31.3728 38.0886C31.1424 37.948 31.119 37.8406 31.2303 37.6297C31.2928 37.5125 31.3279 37.5457 31.4041 37.6043C31.7633 37.8816 32.1597 38.0436 32.6264 37.9538C32.9486 37.8933 33.1595 37.6687 33.1302 37.4051C33.1107 37.2353 32.9974 37.1454 32.8607 37.0693C32.5698 36.9072 32.2417 36.8486 31.9352 36.7334C31.613 36.6124 31.3689 36.4288 31.326 36.0598C31.3045 35.9641 31.3045 35.8684 31.326 35.7727L31.324 35.7708Z" fill="#58524E"/>
<path d="M82.6565 35.0423C83.0315 35.0521 83.0373 34.9642 83.0275 35.4211C83.0139 36.0147 83.0627 36.6083 82.9944 37.2019C82.9182 37.8697 82.514 38.2739 81.8286 38.3403C81.7173 38.3637 81.606 38.3637 81.4928 38.3403C80.6805 38.311 80.3251 37.8112 80.2704 37.2156C80.2372 37.1336 80.2782 37.0418 80.2372 36.9618C80.2411 36.3896 80.249 35.8195 80.247 35.2474C80.247 35.1009 80.2704 35.0306 80.4442 35.0365C80.6024 35.0423 80.6551 35.0892 80.6551 35.2454C80.6512 35.8741 80.6492 36.5009 80.6649 37.1297C80.6746 37.5085 80.8582 37.776 81.2292 37.9088C81.8482 38.1294 82.6234 37.7799 82.6097 37.0418C82.6546 36.4599 82.6155 35.8781 82.6312 35.2981C82.6331 35.2122 82.6058 35.1224 82.6565 35.0404V35.0423Z" fill="#58524E"/>
<path d="M10.8994 29.864C11.6414 30.2194 12.3854 30.5728 13.1274 30.9301C13.1859 30.9575 13.2445 30.9829 13.3109 30.977C13.0532 31.6546 12.7954 32.3341 12.5357 33.0117C12.3814 33.0585 12.3658 32.9218 12.3248 32.8398C12.1491 32.504 11.9831 32.1662 11.8132 31.8264C11.5477 31.2582 11.2196 30.7212 10.9541 30.151C10.9131 30.0612 10.8252 29.9753 10.8994 29.8621V29.864Z" fill="#58524E"/>
<path d="M11.9266 36.011C12.1101 36.0188 12.2605 36.1262 12.4186 36.1965C13.0103 36.464 13.5941 36.751 14.1779 37.0381C14.2482 37.0732 14.3166 37.0732 14.3869 37.0771C13.7542 37.2529 13.1079 37.3232 12.4518 37.3173C12.2527 37.3173 12.0515 37.3173 11.8114 37.3173C12.2956 37.8269 12.6002 38.3893 12.6471 39.1313C12.4069 38.8442 12.2683 38.5533 12.0672 38.3053C11.9012 38.1003 11.7274 37.907 11.5068 37.7684C11.3857 37.6942 11.3701 37.6239 11.415 37.4969C11.5907 37.0029 11.7567 36.507 11.9246 36.011H11.9266Z" fill="#58524E"/>
<path d="M11.3251 36.3994C11.165 36.8505 11.003 37.3035 10.8428 37.7546C10.6417 37.8561 10.4289 37.735 10.4152 37.5085C10.4504 37.3523 10.3918 37.284 10.2317 37.3152C10.0969 37.2703 9.95634 37.3035 9.81966 37.2918C9.64978 37.2215 9.49357 37.1239 9.32369 37.0516C9.23973 37.0145 9.14405 36.9677 9.15772 36.8446C9.35298 36.7021 9.59706 36.6982 9.85285 36.6103C9.27097 36.4248 8.82187 36.0831 8.37276 35.7356C8.32395 35.6985 8.2888 35.6438 8.21655 35.5618C8.76719 35.6614 9.24168 35.9035 9.76889 35.8722C9.88995 35.9015 10.011 35.9054 10.1321 35.8703C10.3683 35.9035 10.2395 35.7141 10.2785 35.6282C10.3449 35.6243 10.3683 35.6789 10.3625 35.7199C10.3293 35.9484 10.4816 36.0187 10.6515 36.0929C10.878 36.1925 11.0928 36.3135 11.3251 36.4014V36.3994Z" fill="#58524E"/>
<path d="M9.44861 33.2478C9.56967 33.2146 9.65949 33.2888 9.75712 33.3337C10.462 33.6598 11.165 33.9878 11.8699 34.3159C11.9284 34.3432 11.987 34.3686 12.0534 34.3627C11.9695 34.7337 11.7859 35.0696 11.6668 35.4289C11.6316 35.5128 11.5653 35.4972 11.5047 35.4718C11.0498 35.2902 10.6124 35.0696 10.1711 34.8568C10.1262 34.8353 10.1086 34.7845 10.0734 34.7513C9.90748 34.2319 9.67902 33.7399 9.44861 33.2458V33.2478Z" fill="#58524E"/>
<path d="M22.8594 6.53809C23.0566 6.71578 23.1191 6.97547 23.2401 7.19612C23.5623 7.7741 23.8591 8.3677 24.1657 8.95544C24.1403 9.00621 24.1208 9.06088 24.0661 9.09017C23.7771 9.06283 23.5487 8.88514 23.2929 8.7758C22.8086 8.56687 22.338 8.32279 21.8538 8.10995C21.7952 8.08457 21.7386 8.05332 21.7054 7.99279C22.0432 7.54955 22.379 7.10435 22.7188 6.66305C22.7559 6.61424 22.8125 6.58104 22.8594 6.54004V6.53809Z" fill="#58524E"/>
<path d="M20.147 10.119C20.311 9.89251 20.4751 9.66796 20.6391 9.44145C20.725 9.37311 20.809 9.41412 20.8871 9.45317C21.5314 9.78121 22.2012 10.0546 22.8436 10.3826C22.9354 10.4295 23.0701 10.451 23.0545 10.6052C22.908 10.8708 22.7499 11.1305 22.5683 11.3746C22.5019 11.4019 22.4414 11.3746 22.3828 11.3492C21.6974 11.0289 21.0101 10.7146 20.3247 10.3924C20.2173 10.3416 20.0611 10.3006 20.147 10.1171V10.119Z" fill="#58524E"/>
<path d="M24.0719 16.9905C24.0543 16.9905 24.0387 16.9944 24.0211 16.9964C23.615 16.8656 23.244 16.6527 22.8593 16.475C22.1954 16.1724 21.5374 15.86 20.8735 15.5573C20.7876 15.5182 20.6938 15.485 20.6392 15.3972C20.7368 15.2039 20.8325 15.0106 20.9301 14.8172C21.0121 14.7567 21.0844 14.8094 21.1547 14.8426C22.2637 15.362 23.3709 15.8795 24.4819 16.393C24.5757 16.436 24.7045 16.4653 24.7006 16.6137C24.5386 16.7133 24.3784 16.8109 24.2164 16.9105C24.1871 16.971 24.1168 16.9593 24.0719 16.9944V16.9905Z" fill="#58524E"/>
<path d="M23.0546 10.6092C22.8788 10.4062 22.6191 10.3437 22.3926 10.2304C21.883 9.97462 21.3616 9.74226 20.8461 9.50013C20.7798 9.46889 20.7173 9.43374 20.6392 9.44351C20.8208 9.17795 20.9828 8.89872 21.2093 8.66831C21.2913 8.60583 21.3636 8.65855 21.4339 8.68979C22.0763 8.97097 22.705 9.28144 23.3416 9.57238C23.4412 9.61729 23.5544 9.6583 23.5876 9.78522C23.408 10.0605 23.2752 10.3632 23.0526 10.6112L23.0546 10.6092Z" fill="#58524E"/>
<path d="M20.6391 15.3953C21.0414 15.573 21.4475 15.7487 21.8478 15.9322C22.5254 16.2427 23.201 16.561 23.8785 16.8754C23.9371 16.9027 23.9957 16.93 24.0211 16.9964C23.8532 17.137 23.6384 17.1019 23.449 17.1253C23.1736 17.1585 22.8964 17.2171 22.6171 17.1878C22.3321 17.1077 22.086 16.9417 21.8185 16.8265C21.3343 16.6196 20.8715 16.3599 20.3755 16.1763C20.3326 16.1607 20.2799 16.1451 20.2955 16.0787C20.3814 15.8366 20.5181 15.6198 20.6411 15.3972L20.6391 15.3953Z" fill="#58524E"/>
<path d="M41.6005 11.8315C41.6005 11.4449 41.6064 11.0583 41.5986 10.6717C41.5946 10.5272 41.6181 10.4569 41.7899 10.4627C42.282 10.4745 42.774 10.4686 43.2641 10.4666C43.3911 10.4666 43.4789 10.4784 43.4828 10.6443C43.4887 10.8357 43.3637 10.7966 43.2583 10.7966C42.8717 10.7966 42.485 10.8025 42.0984 10.7966C41.9735 10.7947 41.9266 10.8298 41.9325 10.9587C41.9422 11.1442 41.9422 11.3297 41.9325 11.5152C41.9246 11.6499 41.9813 11.6753 42.1023 11.6734C42.4479 11.6675 42.7955 11.6734 43.1431 11.6695C43.2505 11.6695 43.3286 11.6695 43.3266 11.8159C43.3266 11.9565 43.2681 11.9956 43.1372 11.9936C42.7994 11.9877 42.4597 11.9995 42.1219 11.9877C41.9715 11.9838 41.9246 12.0346 41.9344 12.1811C41.9461 12.3568 41.9481 12.5364 41.9344 12.7122C41.9227 12.8684 41.9891 12.8996 42.1297 12.8977C42.5163 12.8899 42.9029 12.8938 43.2895 12.8957C43.4067 12.8957 43.5356 12.8684 43.5356 13.0656C43.5356 13.2589 43.4086 13.214 43.3051 13.214C42.8053 13.2159 42.3054 13.2101 41.8055 13.2179C41.6493 13.2199 41.5927 13.1788 41.5986 13.0168C41.6083 12.6223 41.6025 12.2279 41.6025 11.8315H41.6005Z" fill="#58524E"/>
<path d="M41.1124 36.5281C41.544 36.5691 41.9755 36.5418 42.407 36.5438C42.5535 36.5438 42.6179 36.5691 42.6179 36.739C42.6179 36.9069 42.5535 36.9343 42.407 36.9323C41.9755 36.9304 41.544 36.9421 41.1124 36.948C41.0539 37.3229 41.1046 37.7017 41.0851 38.0766C41.0812 38.1625 41.1144 38.2543 41.0558 38.3343C40.8046 38.3291 40.679 38.1996 40.679 37.9457C40.679 36.9812 40.679 36.0146 40.677 35.05C40.8332 34.9895 40.9953 35.0266 41.1534 35.0246C41.6279 35.0188 42.1024 35.0207 42.5789 35.0246C42.655 35.0246 42.7409 34.9875 42.8054 35.0617C42.8054 35.1633 42.8054 35.2667 42.8054 35.3683C42.7331 35.4503 42.6394 35.4034 42.5574 35.4054C42.0751 35.4249 41.5928 35.378 41.1124 35.4308C41.0753 35.7959 41.0714 36.163 41.1144 36.5301L41.1124 36.5281Z" fill="#58524E"/>
<path d="M73.3561 35.0502V35.3704C73.1452 35.4446 72.9285 35.3958 72.7137 35.4017C72.4071 35.4114 72.1025 35.4056 71.7959 35.4036C71.71 35.4036 71.6319 35.4036 71.6378 35.5247C71.6534 35.8605 71.6065 36.1983 71.6632 36.5322C72.0966 36.5361 72.5321 36.5479 72.9656 36.542C73.1296 36.54 73.1647 36.5947 73.1667 36.749C73.1686 36.911 73.1003 36.9306 72.9656 36.9306C72.5321 36.9286 72.0966 36.9364 71.6632 36.9403C71.6065 37.3191 71.6553 37.6999 71.6358 38.0787C71.6319 38.1627 71.669 38.2545 71.6046 38.3306C71.3559 38.3267 71.2316 38.2037 71.2316 37.9616C71.2316 36.9911 71.2277 36.0206 71.2277 35.0502C71.2726 34.9994 71.3332 35.017 71.3859 35.017C71.9892 35.017 72.5926 35.017 73.194 35.017C73.2487 35.017 73.3073 34.9994 73.3541 35.0482L73.3561 35.0502Z" fill="#58524E"/>
<path d="M24.7006 16.6095C24.4156 16.3635 24.0524 16.2659 23.7243 16.1018C23.1581 15.8187 22.5762 15.5688 22.0002 15.3052C21.6428 15.1412 21.2855 14.9791 20.9301 14.8151C21.0238 14.653 21.1176 14.4929 21.2113 14.3308C22.461 14.9146 23.7107 15.4965 24.9584 16.0843C25.0463 16.1253 25.1693 16.137 25.1849 16.2717C25.0365 16.4025 24.8861 16.5314 24.7006 16.6095Z" fill="#58524E"/>
<path d="M21.4085 13.3192C21.309 13.5632 21.182 13.7898 21.0219 13.9967C20.565 13.819 20.1296 13.5945 19.6863 13.3856C19.3309 13.2176 18.9638 13.0712 18.6182 12.8818C18.5421 12.8408 18.4523 12.8154 18.4054 12.7314C18.5147 12.4834 18.6846 12.2726 18.8408 12.0558C18.9482 12.0324 19.0459 12.0675 19.1415 12.1124C19.8289 12.4346 20.5181 12.7607 21.2074 13.077C21.3011 13.12 21.4593 13.1376 21.4066 13.3153L21.4085 13.3192Z" fill="#58524E"/>
<path d="M39.7398 13.2138C39.6539 13.2138 39.5699 13.2138 39.484 13.2138C39.3981 13.0849 39.4567 12.9404 39.445 12.8037C39.4235 12.544 39.4762 12.2824 39.4176 12.0246C38.9275 11.9758 38.4355 12.0188 37.9453 12.0032C37.8262 11.9993 37.8184 12.0637 37.8204 12.1555C37.8223 12.4464 37.8165 12.7354 37.8243 13.0263C37.8282 13.1572 37.793 13.2099 37.6505 13.2118C37.4982 13.2138 37.4826 13.1454 37.4845 13.0224C37.4884 12.2316 37.4884 11.4428 37.4845 10.6519C37.4845 10.5328 37.4943 10.4606 37.6485 10.4567C37.8184 10.4528 37.8262 10.5328 37.8243 10.6617C37.8184 10.9526 37.8223 11.2416 37.8243 11.5326C37.8243 11.6048 37.8145 11.6849 37.9258 11.681C38.4237 11.6673 38.9236 11.7142 39.4215 11.6556C39.4762 11.3607 39.4313 11.0639 39.4469 10.7691C39.4528 10.6656 39.4215 10.5602 39.4703 10.4606C39.566 10.4606 39.6617 10.4606 39.7574 10.4606C39.8042 10.5348 39.7808 10.6187 39.7808 10.6969C39.7808 11.4623 39.7828 12.2258 39.7808 12.9912C39.7808 13.0654 39.8199 13.1533 39.7418 13.2157L39.7398 13.2138Z" fill="#58524E"/>
<path d="M11.866 31.8011C12.0397 32.1486 12.2135 32.4962 12.3912 32.8418C12.4264 32.9102 12.4381 32.998 12.5377 33.0137C12.5728 33.1464 12.4225 33.2245 12.4381 33.3515C11.9597 33.1835 11.5164 32.9375 11.0556 32.7286C10.8447 32.6329 10.6436 32.5118 10.4093 32.4786C10.4308 31.9924 10.5089 31.514 10.5772 31.0337C10.8018 31.4516 11.2685 31.4906 11.6277 31.6937C11.7019 31.7366 11.7937 31.7503 11.866 31.803V31.8011Z" fill="#58524E"/>
<path d="M17.3354 34.2184C16.8882 34.0075 16.4411 33.7966 15.992 33.5896C15.8592 33.5291 15.828 33.4764 15.9822 33.4061C16.8199 33.2909 17.5756 32.9648 18.2687 32.4884C18.5558 32.2911 18.8213 32.0588 19.1162 31.8616C18.6671 32.7578 18.1477 33.5975 17.3373 34.2184H17.3354Z" fill="#58524E"/>
<path d="M21.4085 13.3193C21.3968 13.1943 21.2836 13.1807 21.2015 13.1416C20.4966 12.8097 19.7878 12.4836 19.0829 12.1497C19.0029 12.1126 18.9033 12.1321 18.8408 12.0579C18.9814 11.8002 19.1318 11.5502 19.3231 11.3257C19.8093 11.6459 20.36 11.8373 20.8735 12.0989C21.1937 12.2629 21.5452 12.3625 21.8322 12.5871C21.717 12.8468 21.5686 13.085 21.4066 13.3174L21.4085 13.3193Z" fill="#58524E"/>
<path d="M23.5897 9.78299C22.9454 9.41199 22.2502 9.14839 21.5863 8.81839C21.4653 8.75786 21.3364 8.71686 21.2095 8.66804C21.3325 8.41225 21.5336 8.21308 21.7035 7.99048C22.506 8.32243 23.289 8.69538 24.0642 9.08786C23.91 9.32217 23.7791 9.57406 23.5897 9.78299Z" fill="#58524E"/>
<path d="M29.4337 7.79946C29.4084 7.83852 29.3849 7.87562 29.3322 7.95958C29.1955 7.46947 29.0706 7.01646 28.9436 6.5654C28.6956 5.67891 28.4457 4.79437 28.2016 3.90592C28.1743 3.80439 28.1079 3.69504 28.186 3.58374C28.8753 4.14219 29.2326 4.88614 29.3908 5.73944C29.4747 6.19636 29.5158 6.65718 29.4806 7.12385C29.4318 7.26444 29.5021 7.41675 29.4396 7.55539C29.4376 7.6374 29.4337 7.71941 29.4318 7.79946H29.4337Z" fill="#58524E"/>
<path d="M45.4199 35.4445C45.1309 35.4387 44.8419 35.4231 44.5529 35.4309C44.3928 35.4348 44.3694 35.3703 44.3674 35.2337C44.3655 35.0872 44.4084 35.0403 44.5588 35.0423C45.2754 35.0501 45.992 35.0501 46.7086 35.0423C46.8629 35.0423 46.9215 35.0794 46.9195 35.2434C46.9195 35.3977 46.8609 35.4367 46.7204 35.4309C46.4958 35.4211 46.2693 35.4387 46.0447 35.425C45.8846 35.4152 45.8417 35.4738 45.8436 35.6281C45.8514 36.4013 45.8475 37.1746 45.8475 37.9478C45.8475 38.2056 45.7219 38.3344 45.4707 38.3344C45.4238 38.2348 45.4492 38.1274 45.4492 38.0259C45.4472 37.2449 45.4492 36.4638 45.4472 35.6828C45.4472 35.6047 45.4707 35.5207 45.4238 35.4465L45.4199 35.4445Z" fill="#58524E"/>
<path d="M98.9279 35.0442C99.6934 35.0442 100.459 35.0442 101.222 35.0442C101.353 35.0442 101.447 35.0364 101.445 35.2258C101.445 35.4055 101.378 35.4406 101.22 35.4309C101.004 35.4191 100.785 35.4367 100.568 35.425C100.41 35.4152 100.365 35.468 100.365 35.6261C100.373 36.4638 100.365 37.2995 100.373 38.1372C100.373 38.2973 100.326 38.3403 100.168 38.3403C100.016 38.3403 99.9804 38.2934 99.9823 38.147C99.9882 37.3171 99.9784 36.4892 99.9902 35.6593C99.9921 35.466 99.9374 35.4113 99.75 35.423C99.4766 35.4387 99.2032 35.4289 98.9279 35.4289C98.8752 35.302 98.8791 35.1731 98.9279 35.0442Z" fill="#58524E"/>
<path d="M20.1471 10.1191C20.1276 10.2617 20.2408 10.289 20.3326 10.332C21.0766 10.6815 21.8225 11.0291 22.5684 11.3786C22.4512 11.5719 22.3341 11.7652 22.2169 11.9585C22.1154 12.0405 22.0177 11.9917 21.924 11.9468C21.2386 11.6149 20.5435 11.2985 19.8523 10.9763C19.7605 10.9334 19.6531 10.8885 19.7097 10.7479C19.8542 10.539 20.0007 10.33 20.1452 10.1211L20.1471 10.1191Z" fill="#58524E"/>
<path d="M19.7118 10.7478C19.7118 10.8318 19.7645 10.8747 19.8367 10.9079C20.5611 11.2457 21.2856 11.5816 22.008 11.9213C22.0764 11.9545 22.1447 11.9604 22.217 11.9584C22.1037 12.1771 21.9807 12.39 21.8343 12.5872C21.4672 12.4876 21.1469 12.2787 20.7994 12.1303C20.3483 11.9389 19.9129 11.7104 19.4696 11.4976C19.3935 11.4625 19.3251 11.4215 19.3251 11.3238C19.454 11.1305 19.5848 10.9392 19.7137 10.7458L19.7118 10.7478Z" fill="#58524E"/>
<path d="M17.7727 13.7491C17.8489 13.5343 17.9973 13.3625 18.1144 13.1711C18.3038 13.1868 18.4659 13.2863 18.628 13.3645C19.286 13.6827 19.9557 13.9737 20.6118 14.2978C20.686 14.3349 20.7915 14.3486 20.7739 14.4716C20.6724 14.6727 20.5825 14.8836 20.438 15.0613C19.6297 14.6669 18.8056 14.3017 17.9934 13.9131C17.9074 13.8721 17.8059 13.8546 17.7688 13.7472L17.7727 13.7491Z" fill="#58524E"/>
<path d="M17.7728 13.749C18.6007 14.1317 19.4286 14.5125 20.2565 14.8952C20.3327 14.9304 20.4323 14.9479 20.4401 15.0612C20.3678 15.2662 20.2624 15.4537 20.1472 15.6353C19.4677 15.3131 18.794 14.9811 18.1028 14.6882C18.0344 14.6589 17.9837 14.6082 17.9212 14.5711C17.8177 14.3875 17.7415 14.1845 17.5814 14.0361C17.6537 13.9443 17.6615 13.8135 17.7728 13.7471V13.749Z" fill="#58524E"/>
<path d="M8.4782 44.8174C8.23607 45.618 7.99395 46.4186 7.74987 47.2192C7.63662 47.5882 7.43354 47.8752 7.00006 48.0002C7.35349 46.8306 7.70301 45.6805 8.05057 44.5284C8.28294 44.5206 8.45672 44.6378 8.4782 44.8155V44.8174Z" fill="#58524E"/>
<path d="M20.7758 14.4715C20.5103 14.2938 20.2154 14.1766 19.9303 14.04C19.327 13.749 18.7041 13.4952 18.1163 13.171C18.214 13.0246 18.3096 12.8801 18.4073 12.7336C18.6709 12.8508 18.9364 12.9641 19.1981 13.0851C19.7604 13.3448 20.3189 13.6104 20.8793 13.874C20.9379 13.9013 20.9965 13.9306 21.0218 13.997C20.9457 14.1591 20.891 14.3309 20.7758 14.4715Z" fill="#58524E"/>
<path d="M116.935 17.5176C116.833 17.3223 116.734 17.127 116.632 16.9298C116.619 16.9337 116.607 16.9376 116.593 16.9415C116.593 17.131 116.587 17.3223 116.595 17.5117C116.601 17.6503 116.529 17.6679 116.416 17.6679C116.3 17.6679 116.259 17.625 116.261 17.5117C116.265 17.1739 116.259 16.8342 116.265 16.4963C116.265 16.4143 116.209 16.2757 116.367 16.2757C116.499 16.2757 116.662 16.1995 116.747 16.387C116.839 16.5823 116.941 16.7736 117.048 16.9923C117.146 16.7834 117.243 16.6018 117.318 16.4124C117.404 16.1898 117.583 16.2737 117.728 16.2796C117.88 16.2874 117.839 16.43 117.841 16.5276C117.845 16.842 117.841 17.1563 117.843 17.4707C117.843 17.5957 117.808 17.664 117.665 17.6699C117.501 17.6757 117.509 17.5762 117.511 17.4668C117.513 17.2911 117.511 17.1153 117.486 16.9279C117.349 17.1095 117.243 17.3067 117.171 17.5195C117.091 17.5664 117.011 17.5664 116.931 17.5195L116.935 17.5176Z" fill="#58524E"/>
<path d="M10.0207 40.0744C9.94455 40.4903 9.77467 40.875 9.64189 41.2733C9.45444 41.8435 9.28651 42.4214 9.06196 42.9799C8.88232 43.0307 8.77297 42.8705 8.62262 42.8334C8.81398 42.029 9.13811 41.2674 9.37829 40.4786C9.45444 40.2286 9.55207 39.9846 9.63994 39.7385C9.72585 39.8967 9.93283 39.9162 10.0187 40.0744H10.0207Z" fill="#58524E"/>
<path d="M35.0905 13.214C34.8347 13.2511 34.7586 13.1554 34.7684 12.8879C34.7937 12.2592 34.7684 11.6304 34.7801 11.0017C34.782 10.8279 34.7293 10.7732 34.5614 10.7889C34.4169 10.8025 34.2704 10.7889 34.1259 10.7928C34.0029 10.7928 33.8897 10.8142 33.8916 10.619C33.8936 10.4315 34.0049 10.4628 34.1142 10.4608C34.7352 10.4608 35.3561 10.4608 35.977 10.4608C36.0083 10.5741 36.0239 10.6873 35.9692 10.7986C35.6978 10.7986 35.4264 10.8025 35.155 10.8045C35.1023 10.9783 35.1335 11.154 35.1315 11.3297C35.1276 11.8843 35.1315 12.4388 35.1276 12.9934C35.1276 13.0676 35.1686 13.1535 35.0886 13.216L35.0905 13.214Z" fill="#58524E"/>
<path d="M17.9211 14.5728C18.3507 14.6626 18.7119 14.9164 19.1122 15.0765C19.409 15.1937 19.6921 15.346 19.9811 15.4846C20.0494 15.5178 20.1412 15.5334 20.1471 15.6369C20.0514 15.8146 19.9557 15.9943 19.86 16.172C19.7937 16.2266 19.7195 16.2032 19.657 16.172C19.2567 15.9747 18.833 15.8302 18.4541 15.5901C18.2433 15.2679 18.1027 14.9106 17.923 14.5728H17.9211Z" fill="#58524E"/>
<path d="M10.0734 34.7534C10.544 34.9721 11.0165 35.1908 11.4871 35.4095C11.5438 35.4368 11.6004 35.4759 11.6648 35.431C11.6062 35.7727 11.3914 36.0597 11.3251 36.3995C11.2138 36.4503 11.1239 36.3819 11.0322 36.3429C10.958 36.3116 10.8877 36.2726 10.8174 36.2355C10.5557 36.1046 10.2335 36.0285 10.2804 35.6262C10.2121 35.3353 10.1418 35.0444 10.0734 34.7534Z" fill="#58524E"/>
<path d="M20.2955 16.0764C20.9574 16.3127 21.5666 16.6642 22.2129 16.9356C22.3613 16.9981 22.4961 17.082 22.6191 17.1855C22.4492 17.2949 22.25 17.2168 22.0665 17.2675C21.8576 17.3241 21.6291 17.3124 21.4085 17.33C20.9984 17.1875 20.6137 16.9883 20.2213 16.8028C20.1432 16.7657 20.0553 16.7384 20.0065 16.6544C20.0748 16.4474 20.1763 16.258 20.2955 16.0764Z" fill="#58524E"/>
<path d="M103.616 36.6885C103.616 37.1787 103.608 37.6707 103.62 38.1608C103.624 38.3307 103.544 38.3366 103.415 38.3366C103.294 38.3366 103.226 38.3248 103.228 38.1706C103.233 37.1806 103.235 36.1906 103.228 35.2006C103.228 35.0444 103.3 35.0405 103.417 35.0386C103.546 35.0386 103.624 35.0464 103.62 35.2143C103.608 35.7044 103.616 36.1965 103.616 36.6866V36.6885Z" fill="#58524E"/>
<path d="M10.0207 40.0741C9.89573 39.9608 9.63798 39.9959 9.64189 39.7382C9.81372 39.1134 10.0461 38.508 10.2628 37.8969C10.3097 37.766 10.298 37.6118 10.4151 37.5083C10.4952 37.6997 10.6475 37.7641 10.8428 37.7543C10.5772 38.5315 10.3409 39.3164 10.0207 40.0741Z" fill="#58524E"/>
<path d="M11.8659 31.801C11.6531 31.8088 11.4793 31.7014 11.2997 31.6135C11.1844 31.5569 11.0731 31.4807 10.9521 31.4456C10.7353 31.3831 10.5713 31.2874 10.5772 31.0316C10.6572 30.5806 10.7373 30.1276 10.8174 29.6765C10.8798 29.7234 10.8232 29.823 10.8994 29.864C11.0771 30.3209 11.325 30.7446 11.5535 31.1742C11.6628 31.3792 11.7624 31.5901 11.8659 31.799V31.801Z" fill="#58524E"/>
<path d="M18.4523 15.5884C18.7491 15.6391 18.9893 15.8207 19.2646 15.9242C19.4638 16.0004 19.6434 16.1293 19.8602 16.1683C19.7196 16.5022 19.5595 16.8263 19.374 17.1368C19.2041 17.0743 19.1182 16.9376 19.0498 16.7814C18.8702 16.3733 18.5949 16.0141 18.4523 15.5864V15.5884Z" fill="#58524E"/>
<path d="M22.7052 24.3456C22.34 24.1699 21.9768 23.9961 21.6117 23.8184C21.5356 23.7813 21.4438 23.7598 21.4047 23.6681C21.4867 23.6212 21.5824 23.629 21.6703 23.6075C21.7113 23.5841 21.7601 23.5958 21.8011 23.5763C22.178 23.5333 22.5236 23.3908 22.8692 23.2502C22.9317 23.2248 23.002 23.1506 23.0645 23.1955C23.1562 23.2619 23.0606 23.3459 23.0391 23.4103C22.9356 23.7247 22.8165 24.0352 22.7013 24.3456H22.7052Z" fill="#58524E"/>
<path d="M20.0045 16.6545C20.479 16.8654 20.9652 17.0509 21.4065 17.3301C20.7914 17.3946 20.1783 17.459 19.5632 17.5215C19.698 17.2247 19.8327 16.9299 20.0045 16.6526V16.6545Z" fill="#58524E"/>
<path d="M9.15767 36.8428C9.24358 36.9795 9.38613 37.0263 9.52867 37.0771C9.63411 37.1142 9.73174 37.1611 9.78642 37.2684C9.75517 37.3016 9.70831 37.2958 9.66926 37.3134C8.9956 37.3348 8.37076 37.5613 7.74592 37.782C7.67953 37.8054 7.61509 37.8328 7.54089 37.8386C8.04077 37.4422 8.54064 37.0517 9.15767 36.8467V36.8428Z" fill="#58524E"/>
<path d="M115.666 17.6679C115.574 17.6679 115.484 17.6679 115.392 17.6679C115.324 17.4355 115.379 17.1992 115.359 16.9649C115.349 16.8321 115.386 16.6974 115.334 16.5666C115.222 16.5627 115.111 16.5588 115 16.5568C114.957 16.4611 114.951 16.3635 115.004 16.2678C115.285 16.2678 115.566 16.2678 115.849 16.2678C115.97 16.2678 116.107 16.2463 116.099 16.4358C116.093 16.6134 115.955 16.5392 115.865 16.5549C115.818 16.5627 115.769 16.5627 115.72 16.5666C115.666 16.8478 115.713 17.1328 115.695 17.416C115.689 17.4999 115.726 17.5898 115.664 17.6679H115.666Z" fill="#58524E"/>
<path d="M25.6653 17.5704C25.3685 17.3575 25.0151 17.256 24.6968 17.0861C24.6128 17.0412 24.5132 17.0197 24.4527 16.9377C24.6206 16.844 24.8296 16.8791 24.9916 16.7659C25.2552 16.8225 25.472 16.9787 25.7024 17.1017C25.7649 17.1349 25.8137 17.1974 25.7629 17.2814C25.7629 17.3868 25.7239 17.4825 25.6653 17.5684V17.5704Z" fill="#58524E"/>
<path d="M25.7648 17.2834C25.7648 17.1721 25.6769 17.1428 25.5988 17.1018C25.3938 16.9963 25.179 16.9084 24.9935 16.7659C25.3138 16.6527 25.632 16.5375 25.9132 16.3402C25.9406 16.3207 25.9952 16.3149 26.0226 16.3305C26.0714 16.3578 26.0226 16.3949 26.0148 16.4301C25.964 16.7249 25.8761 17.0061 25.7629 17.2834H25.7648Z" fill="#58524E"/>
<path d="M8.62269 42.8333C8.81014 42.7572 8.90192 42.97 9.06203 42.9798C9.01517 43.1946 8.9644 43.4074 8.86482 43.6066C8.68908 43.6105 8.54654 43.5363 8.42548 43.4132L8.62269 42.8333Z" fill="#58524E"/>
<path d="M8.42555 43.4133C8.58371 43.4524 8.72235 43.5324 8.86489 43.6066C8.78483 43.796 8.79264 44.0147 8.67353 44.1905C8.51147 44.1905 8.36892 44.1299 8.23615 44.044C8.2791 43.8273 8.3162 43.6105 8.42555 43.4133Z" fill="#58524E"/>
<path d="M8.23604 44.0439C8.40201 44.0322 8.53674 44.1122 8.67343 44.1903C8.62851 44.4051 8.57384 44.6179 8.47816 44.8171C8.39225 44.6375 8.19503 44.6238 8.05054 44.5301C8.11302 44.368 8.17355 44.2079 8.23604 44.0458V44.0439Z" fill="#58524E"/>
<path d="M29.4435 7.55336C29.4631 7.40886 29.4025 7.25851 29.4846 7.12183C29.4846 7.26632 29.5275 7.41667 29.4435 7.55336Z" fill="#58524E"/>
<path d="M17.5363 34.7573C17.5187 34.7397 17.5031 34.7241 17.4855 34.7065C17.5109 34.6499 17.548 34.603 17.6144 34.5757C17.6242 34.6538 17.5871 34.7085 17.5363 34.7573Z" fill="#58524E"/>
<path d="M58.5025 20.9619C58.4205 19.8059 58.0124 18.7866 57.2548 17.9021C56.4542 16.9668 55.4564 16.4298 54.2321 16.3068C54.1852 16.2892 54.1364 16.2931 54.0896 16.2931C51.9338 16.2931 49.7762 16.2931 47.6205 16.2931C47.5658 16.2931 47.5072 16.2814 47.4565 16.3166C47.4565 21.3836 47.4565 26.4527 47.4565 31.5197C47.4565 31.5764 47.4623 31.633 47.4565 31.6896C47.4389 31.8185 47.4916 31.8556 47.6185 31.8517C47.9974 31.8439 48.3762 31.8361 48.755 31.8536C48.96 31.8634 49.0049 31.797 49.0049 31.5998C48.9971 29.8678 48.9991 28.1358 49.001 26.4038C49.001 26.316 49.0127 26.2281 49.0186 26.1402C49.1006 26.0914 49.1924 26.1168 49.2783 26.1168C50.8736 26.1168 52.4708 26.1168 54.0661 26.1168C54.154 26.1168 54.2438 26.1305 54.3297 26.1031C55.4505 26.0192 56.3937 25.5564 57.1474 24.7363C57.9968 23.8108 58.4224 22.6978 58.5025 21.4481C58.5279 21.288 58.5279 21.1278 58.5025 20.9658V20.9619ZM55.7551 24.0646C55.2514 24.5059 54.6578 24.7304 53.99 24.7324C52.4025 24.7402 50.813 24.7324 49.2256 24.7402C49.0283 24.7402 48.9932 24.6797 48.9932 24.4981C49.001 23.3948 48.9971 22.2897 48.9971 21.1864C48.9971 20.0832 49.001 18.978 48.9932 17.8748C48.9932 17.7029 49.0401 17.6639 49.208 17.6639C50.692 17.6697 52.176 17.6775 53.658 17.6639C54.935 17.6541 55.8606 18.238 56.4835 19.3138C57.3622 20.831 57.0283 22.9438 55.7551 24.0646Z" fill="#58524E"/>
<path d="M71.8917 31.7405C71.0872 29.8172 70.2808 27.8958 69.4763 25.9725C68.91 24.6193 68.3457 23.2661 67.7795 21.9149C67.2191 20.5773 66.6528 19.2417 66.0943 17.9003C65.8796 17.3828 65.6335 16.8752 65.4617 16.3401C65.4344 16.262 65.368 16.2933 65.3192 16.2933C64.9345 16.2933 64.5498 16.2874 64.1651 16.2952C64.1222 16.3792 64.0734 16.4612 64.0382 16.5471C63.6985 17.3594 63.3607 18.1717 63.0209 18.984C62.2828 20.7453 61.5428 22.5065 60.8047 24.2698C60.0783 26.0017 59.3558 27.7357 58.6294 29.4677C58.2995 30.2565 57.9675 31.0454 57.6317 31.8479C58.1413 31.8479 58.6334 31.846 59.1235 31.8479C59.2367 31.8479 59.2777 31.8069 59.3226 31.6976C59.9397 30.1862 60.5684 28.6788 61.1854 27.1655C61.2382 27.0366 61.2928 26.9956 61.4237 26.9956C63.634 26.9976 65.8444 26.9976 68.0548 26.9956C68.1856 26.9956 68.2442 27.0386 68.2969 27.1655C68.8768 28.5714 69.488 29.9675 70.0406 31.3832C70.189 31.7659 70.3628 31.8928 70.7553 31.8518C71.1321 31.8147 71.5168 31.844 71.9054 31.844C71.8976 31.7835 71.8995 31.7581 71.8897 31.7366L71.8917 31.7405ZM61.6228 25.742C62.6792 23.2056 63.7258 20.6867 64.7958 18.117C65.8405 20.6926 66.8617 23.2075 67.8908 25.742H61.6228Z" fill="#58524E"/>
<path d="M45.7636 31.7363C44.8185 29.4849 43.8734 27.2355 42.9303 24.9841C42.0204 22.8128 41.1085 20.6434 40.2005 18.4701C39.9018 17.7535 39.6128 17.035 39.318 16.3164C38.8825 16.2734 38.4471 16.2734 38.0117 16.3164C37.9765 16.3965 37.9414 16.4765 37.9082 16.5566C37.3985 17.7711 36.8908 18.9837 36.3812 20.1982C35.647 21.9536 34.9109 23.7071 34.1767 25.4625C33.4484 27.2023 32.72 28.9421 31.9917 30.6819C31.8335 31.0607 31.6754 31.4415 31.5055 31.8476C32.0093 31.8476 32.476 31.8378 32.9407 31.8535C33.1066 31.8593 33.175 31.8007 33.2336 31.6562C33.8389 30.1644 34.4481 28.6746 35.0573 27.1847C35.1061 27.0656 35.1647 26.9953 35.319 26.9953C37.5293 27.0012 39.7397 27.0012 41.9501 26.9973C42.079 26.9973 42.1415 27.0344 42.1942 27.1632C42.8171 28.6804 43.4517 30.1937 44.0824 31.709C44.1117 31.7812 44.1273 31.8515 44.2386 31.8496C44.7521 31.8417 45.2657 31.8456 45.7968 31.8456C45.7792 31.7929 45.7714 31.7636 45.7597 31.7343L45.7636 31.7363ZM35.4967 25.7456C36.5569 23.1975 37.6055 20.6766 38.6716 18.1167C39.7104 20.6766 40.7356 23.2014 41.7685 25.7456H35.4967Z" fill="#58524E"/>
<path d="M25.4738 7.31303C25.4601 7.29741 25.4465 7.28374 25.4348 7.26812C25.4719 7.1822 25.5343 7.11581 25.6046 7.05528C25.6281 7.05137 25.6398 7.06114 25.6378 7.08457C25.6027 7.17439 25.5441 7.24664 25.4758 7.31303H25.4738Z" fill="#58524E"/>
<path d="M25.6028 7.05708C25.6301 6.98288 25.6828 6.93016 25.7609 6.86768C25.7609 6.98874 25.6867 7.0317 25.636 7.08637C25.6243 7.07661 25.6145 7.06684 25.6028 7.05708Z" fill="#58524E"/>
<path d="M25.8253 6.82882C25.798 6.739 25.8663 6.72924 25.8995 6.69409C25.921 6.76439 25.8761 6.79172 25.8253 6.82882Z" fill="#58524E"/>
<path d="M21.596 23.5728C21.598 23.645 21.6605 23.6138 21.6956 23.6294C21.6077 23.7036 21.5023 23.6567 21.4066 23.6704C21.4554 23.6079 21.5218 23.5825 21.598 23.5728H21.596Z" fill="#58524E"/>
<path d="M91.9061 35.089C91.3926 35.0012 90.879 35.0715 90.3655 35.0383C90.1839 35.0266 90.1566 35.1027 90.1585 35.2609C90.1683 35.7276 90.1624 36.1962 90.1624 36.6629C90.1624 37.1295 90.1722 37.6294 90.1585 38.1137C90.1526 38.3031 90.2171 38.3441 90.3909 38.3382C90.7619 38.3246 91.1329 38.3324 91.5039 38.3343C92.0799 38.3363 92.5388 38.1078 92.8941 37.6568C93.6049 36.7546 93.0386 35.2843 91.9081 35.091L91.9061 35.089ZM92.7047 37.194C92.5075 37.6568 92.1326 37.9223 91.6191 37.9477C91.3301 37.9633 91.0391 37.9477 90.7502 37.9575C90.6213 37.9614 90.5861 37.9145 90.5881 37.7895C90.592 37.0573 90.5939 36.3251 90.5881 35.5928C90.5881 35.4581 90.6271 35.4054 90.7658 35.4151C90.9181 35.4249 91.0723 35.4171 91.2246 35.4171C91.7108 35.3722 92.156 35.4561 92.4958 35.8467C92.8492 36.2509 92.9117 36.7156 92.7067 37.194H92.7047Z" fill="#58524E"/>
<path d="M38.699 36.544C38.6931 36.4874 38.697 36.4308 38.6834 36.3761C38.4998 35.64 38.0234 35.1889 37.2892 35.0679C36.639 34.9605 36.0571 35.1167 35.6177 35.6751C35.0983 36.3351 35.1647 37.2118 35.6373 37.7605C36.0961 38.2956 36.7034 38.4908 37.3927 38.3112C38.1269 38.1198 38.574 37.6395 38.7009 36.8799C38.7263 36.7686 38.7244 36.6573 38.7009 36.544H38.699ZM36.9709 37.9929C36.2523 37.9812 35.6509 37.3876 35.6607 36.6866C35.6724 35.8762 36.4144 35.3549 36.9943 35.4252C37.7441 35.4291 38.3143 35.9797 38.3104 36.7003C38.3085 37.4208 37.7031 38.0046 36.9709 37.9929Z" fill="#58524E"/>
<path d="M107.33 35.0424C106.356 35.017 105.619 35.7453 105.604 36.6806C105.59 37.6374 106.385 38.354 107.193 38.3619C108.269 38.3716 109.021 37.6628 109.044 36.7021C109.068 35.759 108.23 35.0229 107.328 35.0424H107.33ZM107.318 37.9948C106.606 37.987 105.992 37.3836 105.996 36.6924C105.998 35.9972 106.592 35.4251 107.308 35.4271C108.082 35.4271 108.66 35.9718 108.658 36.6963C108.658 37.4129 108.049 38.0026 107.32 37.9948H107.318Z" fill="#58524E"/>
<path d="M76.619 35.0426C75.6212 35.0075 74.8928 35.7944 74.8967 36.6809C74.9006 37.7509 75.668 38.3152 76.4784 38.3621C77.5582 38.4246 78.3138 37.624 78.3353 36.7043C78.3568 35.7807 77.5797 35.0426 76.619 35.0426ZM76.617 37.995C75.9023 37.9853 75.2951 37.3897 75.2931 36.6946C75.2912 36.0014 75.8848 35.4254 76.6014 35.4273C77.3746 35.4273 77.9565 35.974 77.9565 36.6946C77.9565 37.4034 77.3375 38.0048 76.6151 37.995H76.617Z" fill="#58524E"/>
<path d="M61.412 37.4305C61.3026 37.2899 61.2948 37.2411 61.4686 37.1454C61.9704 36.8662 62.0466 36.4171 61.9704 35.882C61.9118 35.4642 61.5564 35.1752 61.0859 35.0893C60.629 35.0053 60.1701 35.0737 59.7132 35.0424C59.5179 35.0287 59.4535 35.0776 59.4554 35.2865C59.4671 36.3019 59.4613 37.3172 59.4613 38.3306C59.5902 38.3697 59.719 38.3775 59.846 38.3267C59.846 38.0456 59.8518 37.7663 59.842 37.4852C59.8362 37.3465 59.885 37.3055 60.0197 37.3114C60.2443 37.3211 60.4688 37.3231 60.6934 37.3114C60.8437 37.3036 60.9414 37.3407 61.0234 37.4793C61.2011 37.7741 61.4022 38.0573 61.5936 38.3443C61.738 38.3424 61.8923 38.4244 62.0192 38.2877C61.8181 38.0006 61.6267 37.7058 61.412 37.4305ZM59.9397 36.9306C59.842 36.9345 59.8479 36.8623 59.8479 36.7959C59.8479 36.5948 59.8479 36.3936 59.8479 36.1906C59.8479 35.9875 59.8499 35.7707 59.8479 35.5618C59.8479 35.4759 59.8635 35.4232 59.9651 35.429C60.3341 35.4466 60.7051 35.3919 61.0742 35.4739C61.4217 35.5501 61.617 35.7707 61.6385 36.13C61.658 36.4776 61.4627 36.7842 61.1425 36.874C60.7481 36.9853 60.3419 36.9169 59.9397 36.9306Z" fill="#58524E"/>
<path d="M56.2707 35.226C56.2141 35.0971 56.1614 35.0366 56.013 35.0405C55.8626 35.0444 55.7592 35.0619 55.6967 35.226C55.601 35.4857 55.4741 35.7317 55.3628 35.9855C55.0191 36.7646 54.6754 37.5437 54.3318 38.3209C54.4743 38.3795 54.6188 38.3716 54.7633 38.3267C54.8629 38.0924 54.9625 37.8601 55.0601 37.6257C55.0953 37.5418 55.146 37.5066 55.2417 37.5086C55.7318 37.5144 56.2219 37.5125 56.712 37.5086C56.8097 37.5086 56.8604 37.534 56.9034 37.6414C56.9971 37.8815 57.124 38.11 57.2373 38.3424C57.3818 38.3463 57.5282 38.399 57.6669 38.315C57.2002 37.286 56.7296 36.2569 56.2707 35.224V35.226ZM56.5754 37.1259C56.1594 37.1259 55.7416 37.1259 55.312 37.1259C55.3257 37.0771 55.3296 37.0458 55.3413 37.0185C55.5541 36.5264 55.7689 36.0343 56.0032 35.5013C56.2376 36.0285 56.4543 36.5206 56.6769 37.0126C56.7316 37.1356 56.6515 37.1278 56.5773 37.1278L56.5754 37.1259Z" fill="#58524E"/>
<path d="M97.8089 38.1864C97.3696 37.1964 96.9283 36.2084 96.4948 35.2165C96.4323 35.0739 96.3425 35.0427 96.198 35.0388C96.0535 35.0349 95.9832 35.0895 95.9285 35.2106C95.7079 35.7124 95.4755 36.2103 95.2607 36.7141C95.0303 37.253 94.757 37.7744 94.5656 38.3289C94.7101 38.366 94.8546 38.3875 94.9971 38.3153C95.0538 38.0712 95.1983 37.8642 95.2783 37.6299C95.3135 37.5245 95.3857 37.5069 95.4833 37.5088C95.7821 37.5127 96.0848 37.542 96.3777 37.503C96.8892 37.4327 97.2388 37.5674 97.3442 38.1181C97.3579 38.1864 97.3989 38.2489 97.4262 38.3133C97.5785 38.37 97.7289 38.409 97.8695 38.2879C97.8499 38.2547 97.8265 38.2215 97.8089 38.1845V38.1864ZM95.5204 37.1183C95.7528 36.5833 95.9793 36.0659 96.2253 35.5015C96.4753 36.0659 96.7057 36.5833 96.942 37.1183H95.5185H95.5204Z" fill="#58524E"/>
</svg>
