<svg width="164" height="55" viewBox="0 0 164 55" fill="none" xmlns="http://www.w3.org/2000/svg">
<path d="M20.2535 8C21.2031 10.7545 23.0406 12.7195 24.9325 14.6396C27.0568 16.795 29.2775 18.86 31.1012 21.2922C35.3687 26.9851 35.6896 33.587 31.9494 38.9721C28.6662 43.6988 22.677 45.9883 17.0276 44.6766C11.318 43.3504 6.99181 38.6418 6.15743 32.9069C5.42372 27.8687 7.32064 23.7251 10.4727 19.9769C12.4008 17.6845 14.6396 15.6891 16.6777 13.5032C18.1589 11.9148 19.5235 10.2446 20.2535 8ZM30.0539 31.0071C30.0829 28.5633 29.2796 26.5903 28.0643 24.747C26.5512 22.4525 24.5355 20.6005 22.6379 18.6449C21.8629 17.8467 21.0401 17.0949 20.2391 16.3221C19.4206 17.1391 18.5804 17.9358 17.7888 18.7774C16.9501 19.6698 16.9305 20.7352 17.7084 21.7072C18.0343 22.1142 18.4168 22.4764 18.7796 22.853C22.1454 26.347 25.7929 29.5831 28.651 33.5399C29.1572 34.241 29.494 34.0114 29.7091 33.3443C29.9728 32.5237 30.1039 31.677 30.0546 31.0078L30.0539 31.0071ZM19.9573 41.363C24.1111 41.3774 26.489 37.4018 24.6297 34.2091C23.6287 32.4904 22.1208 31.157 20.8265 29.6621C20.5563 29.3506 20.3578 29.4122 20.1087 29.691C18.9143 31.0281 17.6266 32.2912 16.5271 33.7007C15.3233 35.2434 15.2212 37.0035 16.1352 38.7468C17.0239 40.4424 18.4863 41.2862 19.9573 41.363ZM10.4742 30.5703C10.4836 31.6242 10.6321 32.649 11.2709 33.5356C11.6577 34.0715 12.0148 34.2251 12.4138 33.4935C12.7325 32.909 13.1265 32.3521 13.5604 31.8451C14.7982 30.3987 16.0606 28.9725 17.3405 27.5631C17.7453 27.1176 17.9583 26.7468 17.4419 26.2427C16.3996 25.2251 15.3697 24.1944 14.3564 23.1485C14.042 22.824 13.8581 22.8516 13.5828 23.1963C11.8496 25.3656 10.4952 27.6869 10.4742 30.5703Z" fill="#655B55"/>
<path d="M45.896 28.0189C45.896 24.6241 45.9184 21.2294 45.8793 17.8353C45.8699 17.0386 46.0278 16.7156 46.9187 16.7489C49.726 16.8525 52.537 16.6815 55.3465 16.9488C59.8921 17.3812 62.5293 19.7076 63.3984 24.1613C63.8895 26.6782 63.925 29.2038 63.4288 31.7149C62.5343 36.2395 59.9696 38.5457 55.3573 39.1142C52.4421 39.4735 49.516 39.2917 46.5949 39.367C45.7996 39.3873 45.8952 38.9151 45.8952 38.4276C45.8967 34.9583 45.896 31.4889 45.896 28.0196V28.0189ZM50.7255 28.0384C50.7255 30.2004 50.7443 32.3631 50.7139 34.5244C50.7052 35.1335 50.8595 35.3552 51.5172 35.3755C52.5297 35.4066 53.5372 35.4001 54.5454 35.3291C56.7726 35.1734 58.0981 34.1282 58.592 31.959C59.178 29.387 59.1729 26.7832 58.6051 24.2055C58.1973 22.3542 57.0681 21.2127 55.1125 20.9092C53.9175 20.7238 52.7209 20.8107 51.5288 20.7253C50.8754 20.6782 50.7038 20.9295 50.7132 21.5509C50.7458 23.7129 50.7255 25.875 50.7255 28.037V28.0384Z" fill="#655B55"/>
<path d="M104.106 36.5517C104.106 39.036 104.075 41.5203 104.124 44.0032C104.139 44.776 103.946 45.0606 103.138 45.0012C102.169 44.9302 101.189 44.9549 100.216 44.9954C99.6159 45.0201 99.3566 44.8897 99.3624 44.2118C99.4001 39.5886 99.2936 34.9611 99.4356 30.3416C99.5775 25.7163 103.191 22.2216 108.039 21.7392C112.219 21.3235 116.406 24.3604 117.498 28.6026C118.609 32.9165 116.402 37.4447 112.313 39.2402C109.177 40.6178 106.451 39.795 104.654 36.9283C104.558 36.7762 104.452 36.6306 104.351 36.4821C104.269 36.5053 104.187 36.5285 104.105 36.5509L104.106 36.5517ZM108.581 26.3312C106.024 26.3377 104.02 28.3237 104.012 30.858C104.005 33.4546 106.025 35.4355 108.657 35.4131C111.189 35.3914 113.206 33.351 113.184 30.8363C113.161 28.3179 111.124 26.3247 108.581 26.3312Z" fill="#655B55"/>
<path d="M133.141 36.5088C132.635 36.5754 132.624 36.939 132.477 37.1635C130.884 39.5993 128.405 40.4554 125.63 39.5102C121.306 38.0377 118.752 33.5334 119.663 28.987C120.523 24.6927 124.787 21.3943 129.056 21.7202C133.958 22.094 137.685 25.7313 137.844 30.4139C137.937 33.1343 137.854 35.8605 137.879 38.5846C137.884 39.1379 137.771 39.3929 137.144 39.3654C136.059 39.3176 134.968 39.3197 133.882 39.3654C133.28 39.39 133.092 39.1857 133.13 38.6034C133.175 37.9168 133.14 37.2251 133.14 36.5102L133.141 36.5088ZM124.104 30.8637C124.101 33.4226 126.072 35.4028 128.633 35.4129C131.22 35.4231 133.211 33.487 133.235 30.9375C133.261 28.3257 131.265 26.3224 128.645 26.3303C126.079 26.3383 124.107 28.3069 124.104 30.8629V30.8637Z" fill="#655B55"/>
<path d="M97.8035 27.6196C97.7 29.1689 97.9701 31.0346 97.6051 32.8881C96.7432 37.2671 93.5172 39.8811 89.0215 39.7993C85.185 39.7297 81.9662 36.7753 81.3745 32.6158C80.9059 29.321 81.2774 25.9907 81.1753 22.6785C81.1594 22.1541 81.4303 22.0636 81.8692 22.0694C82.9179 22.0839 83.9703 22.1165 85.0162 22.0585C85.7217 22.0194 85.9006 22.2577 85.889 22.9392C85.8491 25.3989 85.8759 27.8593 85.8723 30.3198C85.8709 31.257 85.9578 32.1797 86.3025 33.0612C86.8813 34.5424 88.0264 35.3166 89.5865 35.2906C91.0597 35.2652 92.2019 34.4489 92.7393 33.0221C93.0594 32.1718 93.113 31.2816 93.1116 30.3835C93.1065 27.9231 93.1348 25.4627 93.0942 23.003C93.0826 22.2772 93.2832 22.01 94.0365 22.0585C95.0071 22.1208 95.9877 22.1208 96.9576 22.0585C97.6833 22.0114 97.839 22.2888 97.818 22.9516C97.7724 24.4038 97.8035 25.8589 97.8035 27.6203V27.6196Z" fill="#655B55"/>
<path d="M70.6567 25.3281C71.1796 24.4893 71.7315 23.8853 72.345 23.3464C74.1956 21.7211 76.2656 21.2786 78.5971 22.2172C79.1468 22.4382 79.4206 22.7228 79.3974 23.366C79.346 24.7791 79.3815 26.1958 79.3815 27.732C78.3124 27.2858 77.3607 26.8223 76.3286 26.5326C73.6907 25.7902 70.112 28.2817 70.4256 31.2962C70.6603 33.5473 70.4068 35.8455 70.5002 38.1168C70.5452 39.1975 70.1664 39.4553 69.1806 39.3662C68.3252 39.2895 67.4546 39.3112 66.5949 39.3626C65.9343 39.4025 65.7866 39.1453 65.7895 38.5319C65.8105 33.3097 65.809 28.0869 65.7909 22.864C65.7887 22.2918 65.9401 22.0673 66.5449 22.097C67.6292 22.1499 68.9003 21.7914 69.7521 22.2426C70.6017 22.6924 70.1113 24.1641 70.6567 25.3273V25.3281Z" fill="#655B55"/>
<path d="M139.668 27.9253C139.668 24.5357 139.691 21.146 139.651 17.757C139.642 16.9922 139.826 16.6909 140.637 16.7546C141.53 16.8242 142.438 16.83 143.33 16.7539C144.198 16.68 144.385 17.0023 144.381 17.8215C144.348 24.1909 144.363 30.5603 144.363 36.929C144.363 38.5442 143.548 39.3517 141.919 39.3517C140.419 39.3517 139.669 38.5973 139.669 37.0883V27.9253H139.668Z" fill="#655B55"/>
<path d="M152.762 18.9564C152.762 19.4634 152.774 19.9711 152.758 20.4774C152.747 20.8207 152.888 21.2727 152.26 21.2466C151.624 21.2198 151.838 20.7425 151.829 20.426C151.805 19.4598 151.81 18.4929 151.827 17.5259C151.832 17.229 151.675 16.7843 152.222 16.7814C152.677 16.7785 153.211 16.5916 153.415 17.2797C153.625 17.9895 153.901 18.6805 154.173 19.4518C154.691 18.8594 154.784 18.1488 154.955 17.5028C155.131 16.8393 155.496 16.7234 156.091 16.7633C156.787 16.8096 156.571 17.3115 156.579 17.6672C156.604 18.6703 156.584 19.6749 156.587 20.6788C156.588 21.0083 156.54 21.2517 156.109 21.2531C155.666 21.2546 155.644 20.9931 155.646 20.673C155.651 20.0914 155.648 19.509 155.486 18.8891C155.261 19.4967 155.024 20.1008 154.817 20.715C154.715 21.0185 154.614 21.2589 154.225 21.2539C153.84 21.2488 153.726 20.9996 153.623 20.7063C153.416 20.1153 153.2 19.5272 152.988 18.9376L152.76 18.9579L152.762 18.9564Z" fill="#655B55"/>
<path d="M149.556 16.77C150.003 16.7715 150.451 16.7758 150.898 16.77C151.216 16.7657 151.373 16.8888 151.375 17.2263C151.378 17.5703 151.213 17.7094 150.898 17.6645C150.028 17.5399 150.039 18.0926 150.057 18.6923C150.077 19.3593 150.055 20.0271 150.062 20.6949C150.065 21.0375 149.986 21.2548 149.568 21.2526C149.144 21.2505 149.083 21.0165 149.085 20.6833C149.09 19.9417 149.062 19.1986 149.092 18.4583C149.114 17.9093 148.965 17.6044 148.348 17.6652C148.048 17.6949 147.738 17.6957 147.74 17.2401C147.742 16.7222 148.101 16.7715 148.437 16.77C148.81 16.7678 149.183 16.77 149.556 16.77Z" fill="#655B55"/>
</svg>
