<svg width="162" height="50" viewBox="0 0 162 50" fill="none" xmlns="http://www.w3.org/2000/svg">
<g opacity="0.9">
<path d="M11.8781 36.8635C11.8055 36.8665 11.7329 36.8733 11.661 36.8733C9.45681 36.8733 7.25337 36.859 5.04917 36.8822C4.37084 36.889 3.89167 36.3739 4.02119 35.6544C4.25704 34.3441 4.43748 33.0249 4.64412 31.7094C4.859 30.3423 5.07687 28.9759 5.29325 27.6095C5.53957 26.0537 5.78515 24.4986 6.03073 22.9428C6.31898 21.1204 6.60723 19.2973 6.89474 17.475C7.21593 15.4377 7.53563 13.3998 7.85757 11.3625C8.1316 9.62477 8.41985 7.88852 8.67516 6.14777C8.76426 5.53907 9.06749 5.16546 9.64923 5H22.5592C22.8108 5.07487 23.0743 5.06664 23.3311 5.10182C25.4926 5.40056 27.3891 6.26008 28.9457 7.79792C30.2215 9.058 31.0398 10.5779 31.3797 12.3478C31.4935 12.9386 31.5355 13.5345 31.5422 14.1342C31.498 14.6508 31.4696 15.1697 31.37 15.6803C31.1147 16.9943 30.6662 18.2357 29.9797 19.3894C29.1433 20.794 28.0547 21.9635 26.719 22.9039C25.7375 23.5949 24.6676 24.1055 23.5183 24.4537C22.6071 24.73 21.6757 24.9067 20.7264 24.9171C18.7483 24.9389 16.7694 24.9254 14.7906 24.9269C14.5413 24.9269 14.3114 24.9928 14.104 25.1365C13.7252 25.3986 13.6428 25.7991 13.5814 26.2139C13.4968 26.7829 13.4055 27.3512 13.3157 27.9195C13.2198 28.5267 13.1225 29.1339 13.0267 29.7411C12.9376 30.3093 12.8507 30.8784 12.7616 31.4459C12.6927 31.8854 12.6194 32.3234 12.5497 32.7628C12.4599 33.3311 12.3715 33.8994 12.2832 34.4677C12.2121 34.9266 12.1522 35.3878 12.0691 35.8445C12.0069 36.1845 11.9949 36.5348 11.8789 36.865L11.8781 36.8635Z" fill="#655B55"/>
<path d="M11.8781 36.8636C11.9934 36.5334 12.0061 36.1838 12.0683 35.8431C12.1514 35.3864 12.2113 34.9252 12.2824 34.4662C12.3708 33.898 12.4591 33.3297 12.549 32.7614C12.6186 32.3219 12.6912 31.8839 12.7608 31.4444C12.8507 30.8762 12.9368 30.3072 13.0259 29.7396C13.121 29.1324 13.219 28.5252 13.3149 27.918C13.4047 27.3498 13.4961 26.7815 13.5807 26.2125C13.6421 25.7969 13.7252 25.3971 14.1033 25.1351C14.3114 24.9913 14.5405 24.9254 14.7898 24.9254C16.7687 24.9239 18.7475 24.9374 20.7256 24.9157C21.675 24.9052 22.6064 24.7285 23.5175 24.4523C24.6668 24.1034 25.7367 23.5927 26.7183 22.9024C28.054 21.9628 29.1418 20.7926 29.9789 19.388C30.6662 18.2342 31.1147 16.9929 31.3692 15.6789C31.4681 15.169 31.4965 14.6494 31.5414 14.1328C33.4933 15.1907 34.9338 16.7144 35.7514 18.7913C36.3586 20.3336 36.4837 21.9246 36.1924 23.5553C35.8697 25.3672 35.1614 27.0091 34.0399 28.4668C32.532 30.4262 30.5861 31.7567 28.2119 32.4544C27.1667 32.7614 26.0968 32.8984 25.0075 32.8954C23.9001 32.8924 22.7928 32.8954 21.6854 32.8954C20.954 32.8954 20.5302 33.2631 20.4171 33.9841C20.0884 36.0745 19.7575 38.1648 19.4273 40.2552C19.2394 41.4472 19.0515 42.6391 18.8643 43.8311C18.7677 44.448 18.311 44.8441 17.6926 44.8441C15.7265 44.8441 13.7604 44.8441 11.795 44.8441C11.1137 44.8441 10.7086 44.3312 10.8217 43.6611C11.0253 42.4587 11.2058 41.2525 11.3959 40.0478C11.5479 39.0843 11.7007 38.1214 11.8512 37.1578C11.8661 37.0605 11.8691 36.9609 11.8781 36.8628V36.8636Z" fill="#424242"/>
<path d="M114.972 12.9768C116.349 12.9768 117.728 12.9229 119.102 12.988C121.888 13.1198 124.146 14.2571 125.644 16.6784C126.415 17.925 126.726 19.3033 126.599 20.7671C126.391 23.1487 125.382 25.1455 123.617 26.7455C122.147 28.079 120.406 28.8434 118.426 29.0568C117.657 29.1399 116.886 29.1174 116.115 29.1212C115.288 29.1256 114.461 29.1212 113.633 29.1227C113.21 29.1234 112.99 29.3285 112.927 29.7403C112.754 30.8612 112.575 31.9805 112.397 33.1005C112.231 34.142 112.063 35.1834 111.898 36.2249C111.834 36.6299 111.614 36.8299 111.2 36.8299C109.814 36.8321 108.428 36.8314 107.043 36.8299C106.605 36.8299 106.355 36.5483 106.418 36.1118C106.507 35.4986 106.612 34.887 106.709 34.2753C106.915 32.9733 107.121 31.6705 107.328 30.3685C107.529 29.0987 107.731 27.8289 107.934 26.5598C108.142 25.2443 108.351 23.9296 108.561 22.6141C108.738 21.5075 108.917 20.401 109.093 19.2944C109.327 17.8231 109.558 16.3512 109.791 14.88C109.859 14.4502 109.924 14.0205 109.998 13.5914C110.075 13.1392 110.28 12.9715 110.741 12.9708C111.966 12.9708 113.19 12.9708 114.415 12.9708C114.601 12.9708 114.786 12.9708 114.971 12.9708V12.9768H114.972ZM115.817 24.0494C116.371 24.0284 117.054 24.0906 117.733 24.009C118.443 23.9244 119.119 23.7372 119.709 23.3157C120.651 22.6426 121.052 21.6895 121.055 20.5687C121.057 19.7234 120.731 19.0113 119.994 18.5382C119.414 18.1661 118.76 18.038 118.086 18.0275C117.047 18.0103 116.008 18.0245 114.968 18.0133C114.806 18.0118 114.772 18.0777 114.751 18.211C114.455 20.0932 114.158 21.9755 113.853 23.857C113.827 24.0195 113.86 24.0569 114.022 24.0546C114.578 24.0457 115.134 24.0509 115.817 24.0509V24.0494Z" fill="#424242"/>
<path d="M56.5851 12.975C57.8954 12.975 59.2064 12.9646 60.5166 12.9773C62.3075 12.9953 63.9569 13.4902 65.3929 14.5698C67.0543 15.8194 68.0344 17.4808 68.2425 19.5674C68.3863 21.0027 68.0913 22.3668 67.5065 23.6673C66.4643 25.9861 64.7281 27.5891 62.3667 28.5152C61.168 28.9854 59.9131 29.1344 58.6306 29.1142C57.5367 29.097 56.4421 29.1067 55.3483 29.1052C54.8706 29.1052 54.6542 29.2991 54.5793 29.7746C54.3053 31.5131 54.0283 33.2508 53.752 34.9893C53.6839 35.4191 53.621 35.8496 53.5469 36.2778C53.4862 36.6297 53.2421 36.8274 52.8813 36.8274C51.4909 36.8281 50.1013 36.8289 48.711 36.8274C48.2722 36.8274 48.0184 36.5406 48.0865 36.1101C48.3194 34.6254 48.559 33.1422 48.7941 31.6576C48.9753 30.512 49.1497 29.365 49.3316 28.2202C49.5353 26.9384 49.7472 25.6574 49.9501 24.3749C50.2234 22.6498 50.4891 20.9233 50.7624 19.1983C51.005 17.6687 51.2543 16.1406 51.4999 14.6117C51.5576 14.2538 51.61 13.896 51.6699 13.5388C51.7342 13.16 51.9641 12.9713 52.3557 12.9705C53.7655 12.9698 55.1753 12.9705 56.5851 12.9705V12.9743V12.975ZM57.5045 24.0492C58.0646 24.0275 58.7467 24.0904 59.4257 24.0088C60.268 23.9077 61.0519 23.6539 61.6868 23.0646C62.4947 22.3152 62.7882 21.3606 62.7036 20.2892C62.6444 19.5397 62.2903 18.9363 61.6456 18.5275C61.0654 18.1598 60.4133 18.0348 59.7402 18.0251C58.7152 18.0101 57.6895 18.0236 56.6645 18.0116C56.4863 18.0094 56.4316 18.0678 56.4062 18.2317C56.1149 20.1132 55.8207 21.9947 55.5167 23.874C55.489 24.0439 55.5399 24.0522 55.6769 24.0507C56.246 24.0447 56.815 24.0484 57.5038 24.0484L57.5045 24.0492Z" fill="#655B55"/>
<path d="M140.204 21.4499C140.249 21.1713 140.293 20.9123 140.333 20.654C140.383 20.3365 140.621 20.1089 140.94 20.1082C142.304 20.1044 143.669 20.1059 145.034 20.1127C145.402 20.1149 145.645 20.4024 145.59 20.773C145.456 21.6797 145.311 22.5842 145.167 23.4893C144.974 24.7008 144.779 25.9107 144.587 27.1221C144.368 28.4952 144.152 29.8691 143.934 31.243C143.713 32.6431 143.492 34.0431 143.27 35.4432C143.228 35.7105 143.19 35.9778 143.145 36.2443C143.081 36.6254 142.836 36.8291 142.445 36.8291C141.14 36.8291 139.837 36.8291 138.533 36.8291C138.051 36.8291 137.794 36.5116 137.885 36.0369C137.908 35.9149 137.928 35.7921 137.956 35.6364C137.631 35.8393 137.336 36.0325 137.025 36.2002C135.231 37.1667 133.348 37.443 131.358 36.9616C129.871 36.6022 128.575 35.9164 127.539 34.7724C126.606 33.7414 126.042 32.5307 125.804 31.1688C125.533 29.616 125.603 28.0692 126.076 26.5688C127.1 23.3201 129.159 21.0516 132.463 20.0071C133.453 19.6941 134.467 19.5257 135.506 19.5676C137.237 19.6372 138.783 20.1935 140.089 21.3563C140.122 21.3855 140.158 21.4132 140.204 21.4506V21.4499ZM134.543 32.5457C135.383 32.5427 136.163 32.3421 136.882 31.9086C138.074 31.1898 138.771 30.1349 139.044 28.77C139.318 27.4021 138.745 25.8875 137.575 25.1343C136.165 24.2261 134.683 24.2515 133.22 24.9665C131.909 25.6082 131.114 26.6946 130.819 28.1261C130.592 29.2222 130.781 30.2434 131.476 31.1367C132.25 32.1317 133.309 32.5367 134.543 32.545L134.543 32.5457Z" fill="#424242"/>
<path d="M81.8748 21.4243C81.91 21.2012 81.9504 20.9758 81.9811 20.7489C82.041 20.3065 82.2618 20.111 82.7073 20.1103C84.0041 20.1088 85.3001 20.1073 86.5969 20.1065C87.076 20.1065 87.3134 20.3813 87.2385 20.8553C86.9757 22.5159 86.7099 24.1765 86.4471 25.8372C86.0705 28.2203 85.6962 30.6042 85.3196 32.9873C85.1489 34.0685 84.9759 35.1488 84.8037 36.23C84.7423 36.6186 84.4945 36.8289 84.0977 36.8289C82.8002 36.8289 81.5027 36.8289 80.2051 36.8289C79.7192 36.8289 79.4819 36.5512 79.5523 36.069C79.571 35.9395 79.5875 35.81 79.6047 35.6827C79.5276 35.6625 79.4946 35.7134 79.4527 35.7411C78.4936 36.3775 77.4611 36.8469 76.3261 37.0588C74.661 37.3695 73.0505 37.1531 71.5179 36.4456C69.2695 35.4079 67.9091 33.6424 67.4898 31.2181C66.929 27.9717 67.7833 25.0914 69.9553 22.617C71.1488 21.2566 72.6739 20.415 74.4034 19.9269C75.6455 19.5765 76.9041 19.4514 78.1844 19.6715C79.5336 19.9036 80.7375 20.4442 81.7617 21.3629C81.7894 21.3883 81.8089 21.428 81.8733 21.425L81.8748 21.4243ZM76.7296 24.4663C76.5874 24.4835 76.3216 24.497 76.064 24.5501C73.9804 24.9836 72.5219 26.648 72.4171 28.7743C72.3437 30.2673 72.9943 31.4075 74.3188 32.1083C75.8252 32.9057 77.8579 32.6107 79.1847 31.4532C80.1408 30.6192 80.6716 29.568 80.7599 28.3071C80.843 27.1197 80.4313 26.1157 79.5261 25.3378C78.7609 24.6797 77.8445 24.4408 76.7281 24.4655L76.7296 24.4663Z" fill="#655B55"/>
<path d="M96.6654 28.6682C96.9499 28.1928 97.212 27.754 97.474 27.316C98.3687 25.8186 99.2634 24.3219 100.157 22.8238C100.599 22.0833 101.043 21.3436 101.476 20.5979C101.667 20.2692 101.931 20.1112 102.315 20.1127C103.831 20.1194 105.347 20.1172 106.863 20.1127C107.081 20.1127 107.275 20.1486 107.389 20.353C107.504 20.5589 107.43 20.7416 107.317 20.9273C105.908 23.2371 104.504 25.5491 103.098 27.8603C101.838 29.9298 100.579 31.9992 99.3188 34.0686C97.8776 36.4353 96.4341 38.8012 94.995 41.1686C94.8243 41.4501 94.5787 41.5834 94.2576 41.5842C92.7062 41.5856 91.1549 41.5871 89.6036 41.5842C89.1521 41.5834 88.9365 41.2038 89.1731 40.8227C90.0378 39.4301 90.9078 38.0405 91.7756 36.6494C92.2143 35.9456 92.6523 35.2411 93.0918 34.5373C93.1427 34.4557 93.157 34.3808 93.124 34.2798C92.5333 32.4799 91.9463 30.6785 91.3616 28.8763C90.4908 26.1915 89.6223 23.5058 88.7531 20.821C88.6078 20.3725 88.7957 20.1104 89.2599 20.1097C90.6615 20.1082 92.0631 20.1067 93.4647 20.106C93.9042 20.106 94.0861 20.234 94.2141 20.654C94.9853 23.1772 95.7535 25.7011 96.5231 28.2242C96.5636 28.356 96.607 28.487 96.6646 28.6674L96.6654 28.6682Z" fill="#655B55"/>
<path d="M148.665 36.8284C147.977 36.8284 147.288 36.8284 146.6 36.8284C146.156 36.8284 145.907 36.5559 145.973 36.1156C146.135 35.0539 146.311 33.9938 146.479 32.9336C146.643 31.8914 146.805 30.8492 146.97 29.807C147.23 28.1793 147.492 26.5531 147.75 24.9254C148.022 23.2139 148.289 21.5008 148.562 19.7893C148.82 18.1751 149.082 16.5616 149.341 14.9481C149.414 14.4922 149.485 14.0362 149.551 13.5795C149.612 13.1625 149.83 12.9678 150.257 12.9663C151.621 12.9633 152.986 12.9701 154.35 12.9573C154.851 12.9528 155.109 13.262 155.027 13.7599C154.832 14.9377 154.649 16.1169 154.461 17.2953C154.252 18.6108 154.044 19.9256 153.834 21.241C153.633 22.5041 153.432 23.7672 153.23 25.0302C153.021 26.3457 152.813 27.6612 152.603 28.9759C152.426 30.0825 152.247 31.1891 152.071 32.2957C151.89 33.4352 151.712 34.5748 151.532 35.7143C151.501 35.9097 151.473 36.1059 151.431 36.2983C151.355 36.6442 151.123 36.8276 150.769 36.8284C150.068 36.8299 149.366 36.8284 148.665 36.8284Z" fill="#424242"/>
</g>
</svg>
