<svg width="40" height="40" viewBox="0 0 40 40" fill="none" xmlns="http://www.w3.org/2000/svg">
<path d="M3.75878 39.9999L2.93181 39.2215L7.45893 34.9579L0 27.9382L0.831016 27.1597L9.11691 34.9579L3.75878 39.9999Z" fill="white"/>
<path d="M40 34.4059H8.28394V35.5098H40V34.4059Z" fill="white"/>
<path d="M10.9631 0.751328C10.9499 0.640327 10.967 0.527991 11.013 0.425003C11.0589 0.322015 11.132 0.2318 11.2255 0.162935C11.3189 0.094071 11.4295 0.0488471 11.5467 0.031566C11.6639 0.0142848 11.7839 0.0255202 11.8952 0.0642035L18.4766 2.34827L11.8709 8.34776L10.9631 0.751328Z" fill="#502D17"/>
<path d="M34.2375 0.751548C34.2511 0.640635 34.2343 0.528286 34.1887 0.425237C34.143 0.322189 34.07 0.231885 33.9767 0.162954C33.8834 0.0940241 33.7729 0.0487715 33.6557 0.0315212C33.5386 0.0142708 33.4186 0.0255984 33.3074 0.0644231L26.724 2.34849L33.3317 8.34799L34.2375 0.751548Z" fill="#502D17"/>
<path d="M22.6781 33.6895C31.453 33.6895 38.5664 27.9415 38.5664 20.8511C38.5664 13.7606 31.453 8.0127 22.6781 8.0127C13.9031 8.0127 6.78967 13.7606 6.78967 20.8511C6.78967 27.9415 13.9031 33.6895 22.6781 33.6895Z" fill="#794422"/>
<path d="M35.8247 17.3399C35.8247 26.914 29.9389 34.676 22.6821 34.676C15.4254 34.676 9.53955 26.914 9.53955 17.3399C9.53955 7.76584 15.4254 0 22.6821 0C29.9389 0 35.8247 7.76965 35.8247 17.3399Z" fill="#502D17"/>
<path d="M17.3705 18.0234C20.7563 18.0234 23.501 15.08 23.501 11.4491C23.501 7.81818 20.7563 4.87476 17.3705 4.87476C13.9847 4.87476 11.24 7.81818 11.24 11.4491C11.24 15.08 13.9847 18.0234 17.3705 18.0234Z" fill="white"/>
<path d="M31.8355 24.5115C31.8355 28.9407 27.735 32.5324 22.6781 32.5324C17.6213 32.5324 13.5309 28.9502 13.5309 24.5115C13.5309 20.0728 17.6293 16.4868 22.6862 16.4868C27.7431 16.4868 31.8355 20.0785 31.8355 24.5115Z" fill="white"/>
<path d="M34.001 11.44C34.001 15.0717 31.2552 18.0143 27.8685 18.0143C24.4817 18.0143 21.74 15.0793 21.74 11.44C21.74 7.8007 24.4838 4.86377 27.8685 4.86377C31.2532 4.86377 34.001 7.82354 34.001 11.44Z" fill="white"/>
<path d="M22.1747 13.6872C22.5141 13.5626 22.8914 13.5661 23.2281 13.6967C24.2001 14.0506 25.0622 14.6285 25.7353 15.3774C25.8403 15.501 25.9017 15.6522 25.9111 15.8101C25.9205 15.9681 25.8775 16.1248 25.7879 16.2587C25.0902 17.278 24.1992 18.1677 23.1594 18.8835C23.03 18.9759 22.872 19.026 22.7095 19.026C22.547 19.026 22.389 18.9759 22.2596 18.8835C21.2189 18.1688 20.3277 17.2788 19.6311 16.2587C19.5409 16.1267 19.4975 15.9711 19.5073 15.8144C19.5172 15.6577 19.5796 15.508 19.6857 15.3869C20.3369 14.619 21.1971 14.0316 22.1747 13.6872Z" fill="#FF7F2B"/>
<path d="M22.0674 20.4443C22.0674 20.7503 21.9383 21.0436 21.7085 21.26C21.4787 21.4763 21.1671 21.5978 20.8421 21.5978C20.5171 21.5978 20.2055 21.4763 19.9757 21.26C19.7459 21.0436 19.6168 20.7503 19.6168 20.4443H22.0674Z" fill="#DDDDDD"/>
<path d="M25.7897 20.4443C25.7897 20.7503 25.6606 21.0436 25.4308 21.26C25.201 21.4763 24.8894 21.5978 24.5644 21.5978C24.2394 21.5978 23.9278 21.4763 23.698 21.26C23.4682 21.0436 23.3391 20.7503 23.3391 20.4443H25.7897Z" fill="#DDDDDD"/>
<path d="M20.2031 22.7437C20.2031 23.0496 20.0741 23.343 19.8443 23.5593C19.6145 23.7756 19.3028 23.8971 18.9779 23.8971C18.6529 23.8971 18.3412 23.7756 18.1114 23.5593C17.8817 23.343 17.7526 23.0496 17.7526 22.7437H20.2031Z" fill="#DDDDDD"/>
<path d="M23.9315 22.7437C23.9315 23.0496 23.8025 23.343 23.5727 23.5593C23.3429 23.7756 23.0312 23.8971 22.7063 23.8971C22.3813 23.8971 22.0696 23.7756 21.8398 23.5593C21.6101 23.343 21.481 23.0496 21.481 22.7437H23.9315Z" fill="#DDDDDD"/>
<path d="M27.652 22.7437C27.652 23.0496 27.5229 23.343 27.2931 23.5593C27.0633 23.7756 26.7517 23.8971 26.4267 23.8971C26.1017 23.8971 25.7901 23.7756 25.5603 23.5593C25.3305 23.343 25.2014 23.0496 25.2014 22.7437H27.652Z" fill="#DDDDDD"/>
<path d="M18.3471 24.9946C18.3471 25.3005 18.218 25.5939 17.9882 25.8102C17.7584 26.0266 17.4467 26.1481 17.1218 26.1481C16.7968 26.1481 16.4852 26.0266 16.2554 25.8102C16.0256 25.5939 15.8965 25.3005 15.8965 24.9946H18.3471Z" fill="#DDDDDD"/>
<path d="M22.0674 24.9946C22.0674 25.3005 21.9383 25.5939 21.7085 25.8102C21.4787 26.0266 21.1671 26.1481 20.8421 26.1481C20.5171 26.1481 20.2055 26.0266 19.9757 25.8102C19.7459 25.5939 19.6168 25.3005 19.6168 24.9946H22.0674Z" fill="#DDDDDD"/>
<path d="M25.7897 24.9946C25.7897 25.3005 25.6606 25.5939 25.4308 25.8102C25.201 26.0266 24.8894 26.1481 24.5644 26.1481C24.2394 26.1481 23.9278 26.0266 23.698 25.8102C23.4682 25.5939 23.3391 25.3005 23.3391 24.9946H25.7897Z" fill="#DDDDDD"/>
<path d="M29.5163 24.9946C29.5035 25.2927 29.3686 25.5745 29.1401 25.7811C28.9115 25.9877 28.6069 26.1031 28.29 26.1031C27.9731 26.1031 27.6685 25.9877 27.44 25.7811C27.2114 25.5745 27.0766 25.2927 27.0637 24.9946H29.5163Z" fill="#DDDDDD"/>
<path d="M20.2031 27.2949C20.2031 27.6008 20.0741 27.8942 19.8443 28.1105C19.6145 28.3269 19.3028 28.4484 18.9779 28.4484C18.6529 28.4484 18.3412 28.3269 18.1114 28.1105C17.8817 27.8942 17.7526 27.6008 17.7526 27.2949H20.2031Z" fill="#DDDDDD"/>
<path d="M23.9315 27.2949C23.9315 27.6008 23.8025 27.8942 23.5727 28.1105C23.3429 28.3269 23.0312 28.4484 22.7063 28.4484C22.3813 28.4484 22.0696 28.3269 21.8398 28.1105C21.6101 27.8942 21.481 27.6008 21.481 27.2949H23.9315Z" fill="#DDDDDD"/>
<path d="M27.652 27.2949C27.652 27.6008 27.5229 27.8942 27.2931 28.1105C27.0633 28.3269 26.7517 28.4484 26.4267 28.4484C26.1017 28.4484 25.7901 28.3269 25.5603 28.1105C25.3305 27.8942 25.2014 27.6008 25.2014 27.2949H27.652Z" fill="#DDDDDD"/>
<path d="M22.0674 29.5441C22.0674 29.85 21.9383 30.1434 21.7085 30.3597C21.4787 30.576 21.1671 30.6975 20.8421 30.6975C20.5171 30.6975 20.2055 30.576 19.9757 30.3597C19.7459 30.1434 19.6168 29.85 19.6168 29.5441H22.0674Z" fill="#DDDDDD"/>
<path d="M25.7897 29.5441C25.7897 29.85 25.6606 30.1434 25.4308 30.3597C25.201 30.576 24.8894 30.6975 24.5644 30.6975C24.2394 30.6975 23.9278 30.576 23.698 30.3597C23.4682 30.1434 23.3391 29.85 23.3391 29.5441H25.7897Z" fill="#DDDDDD"/>
<path d="M18.1712 14.0655C20.141 14.0655 21.7379 12.5623 21.7379 10.7079C21.7379 8.85358 20.141 7.35034 18.1712 7.35034C16.2014 7.35034 14.6045 8.85358 14.6045 10.7079C14.6045 12.5623 16.2014 14.0655 18.1712 14.0655Z" fill="#CED8E1"/>
<path d="M18.1711 12.8128C19.4039 12.8128 20.4033 11.872 20.4033 10.7115C20.4033 9.55091 19.4039 8.61011 18.1711 8.61011C16.9382 8.61011 15.9388 9.55091 15.9388 10.7115C15.9388 11.872 16.9382 12.8128 18.1711 12.8128Z" fill="#333333"/>
<path d="M18.7354 10.7125C19.1921 10.7125 19.5624 10.364 19.5624 9.934C19.5624 9.50406 19.1921 9.15552 18.7354 9.15552C18.2787 9.15552 17.9084 9.50406 17.9084 9.934C17.9084 10.364 18.2787 10.7125 18.7354 10.7125Z" fill="white"/>
<path d="M26.9 14.072C28.871 14.072 30.4687 12.5679 30.4687 10.7125C30.4687 8.85712 28.871 7.35303 26.9 7.35303C24.9291 7.35303 23.3313 8.85712 23.3313 10.7125C23.3313 12.5679 24.9291 14.072 26.9 14.072Z" fill="#CED8E1"/>
<path d="M26.8999 12.8128C28.1328 12.8128 29.1322 11.872 29.1322 10.7115C29.1322 9.55091 28.1328 8.61011 26.8999 8.61011C25.6671 8.61011 24.6677 9.55091 24.6677 10.7115C24.6677 11.872 25.6671 12.8128 26.8999 12.8128Z" fill="#333333"/>
<path d="M27.46 10.7125C27.9168 10.7125 28.287 10.364 28.287 9.934C28.287 9.50406 27.9168 9.15552 27.46 9.15552C27.0033 9.15552 26.6331 9.50406 26.6331 9.934C26.6331 10.364 27.0033 10.7125 27.46 10.7125Z" fill="white"/>
<path d="M30.0804 34.6876C30.0804 35.5746 29.5608 36.2903 28.9218 36.2903C28.2829 36.2903 27.7633 35.5746 27.7633 34.6876C27.7633 35.5746 27.2436 36.2903 26.6027 36.2903C25.9617 36.2903 25.4441 35.5746 25.4441 34.6876C25.4441 35.5746 24.9265 36.2903 24.2855 36.2903C23.6446 36.2903 23.127 35.5746 23.127 34.6876C23.127 33.4371 24.6778 32.4226 26.5926 32.4226C28.5073 32.4226 30.0602 33.4371 30.0602 34.6876H30.0804Z" fill="#FF7F2B"/>
<path d="M22.1767 34.6876C22.1767 35.5746 21.6571 36.2903 21.0181 36.2903C20.3792 36.2903 19.8575 35.5746 19.8575 34.6876C19.8575 35.5746 19.3399 36.2903 18.699 36.2903C18.058 36.2903 17.5404 35.5746 17.5404 34.6876C17.5404 35.5746 17.0208 36.2903 16.3818 36.2903C15.7429 36.2903 15.2233 35.5746 15.2233 34.6876C15.2233 33.4371 16.7741 32.4226 18.6889 32.4226C20.6036 32.4226 22.1565 33.4371 22.1565 34.6876H22.1767Z" fill="#FF7F2B"/>
</svg>
