<?xml version="1.0" encoding="utf-8"?>
<!-- Generator: Adobe Illustrator 16.0.0, SVG Export Plug-In . SVG Version: 6.00 Build 0)  -->
<!DOCTYPE svg PUBLIC "-//W3C//DTD SVG 1.1//EN" "http://www.w3.org/Graphics/SVG/1.1/DTD/svg11.dtd">
<svg version="1.1" id="Layer_1" xmlns="http://www.w3.org/2000/svg" xmlns:xlink="http://www.w3.org/1999/xlink" x="0px" y="0px"
	 width="164px" height="214.5px" viewBox="0 0 164 214.5" enable-background="new 0 0 164 214.5" xml:space="preserve">
<g>
	<g>
		<path fill="#91366C" d="M59.492,46.096h-2.979c-2.323,0-2.858,2.621-2.858,5.124v10.902c0,5.6-3.813,7.625-5.186,7.981v0.181
			c1.371,0.177,5.186,1.906,5.186,7.98v10.903c0,2.442,0.535,5.124,2.858,5.124h2.979v3.575h-4.171
			c-2.979,0-6.435-2.741-6.435-7.805V79.22c0-4.349-2.441-6.97-4.943-6.97v-4.051c2.502,0,4.943-2.86,4.943-7.031V50.324
			c0-5.063,3.455-7.803,6.435-7.803h4.171V46.096z"/>
		<path fill="#91366C" d="M63.484,79.459h6.612v6.611h-6.612V79.459z"/>
		<path fill="#91366C" d="M77.664,79.459h6.612v6.611h-6.612V79.459z"/>
		<path fill="#91366C" d="M91.844,79.459h6.611v6.611h-6.611V79.459z"/>
		<path fill="#91366C" d="M102.508,94.293h2.979c2.324,0,2.859-2.622,2.859-5.124V78.266c0-5.599,3.813-7.625,5.185-7.98v-0.18
			c-1.371-0.179-5.185-1.905-5.185-7.982V51.339c0-2.562-0.535-5.242-2.859-5.242h-2.979v-3.573h4.17
			c2.979,0,6.436,2.739,6.436,7.803V61.17c0,4.35,2.442,7.031,4.944,7.031v4.051c-2.502,0-4.944,2.8-4.944,6.97v10.845
			c0,5.063-3.455,7.805-6.436,7.805h-4.17V94.293z"/>
	</g>
</g>
<g opacity="0.2">
	<g>
		
			<linearGradient id="SVGID_1_" gradientUnits="userSpaceOnUse" x1="-622.2817" y1="2499.1396" x2="-622.2817" y2="2459.9331" gradientTransform="matrix(1 0 0 -1 674 2605)">
			<stop  offset="0" style="stop-color:#91366C"/>
			<stop  offset="1" style="stop-color:#91366C;stop-opacity:0"/>
		</linearGradient>
		<path fill="url(#SVGID_1_)" d="M59.492,157.399h-2.979c-2.323,0-2.858-2.621-2.858-5.123v-10.903c0-5.599-3.813-7.625-5.186-7.982
			v-0.179c1.371-0.179,5.186-1.907,5.186-7.982v-10.902c0-2.442,0.535-5.124,2.858-5.124h2.979v-3.575h-4.171
			c-2.979,0-6.435,2.74-6.435,7.805v10.845c0,4.348-2.441,6.97-4.943,6.97v4.051c2.502,0,4.943,2.86,4.943,7.031v10.844
			c0,5.063,3.455,7.803,6.435,7.803h4.171V157.399z"/>
		
			<linearGradient id="SVGID_2_" gradientUnits="userSpaceOnUse" x1="-607.209" y1="2499.1357" x2="-607.209" y2="2459.939" gradientTransform="matrix(1 0 0 -1 674 2605)">
			<stop  offset="0" style="stop-color:#91366C"/>
			<stop  offset="1" style="stop-color:#91366C;stop-opacity:0"/>
		</linearGradient>
		<path fill="url(#SVGID_2_)" d="M63.484,124.036h6.612v-6.611h-6.612V124.036z"/>
		
			<linearGradient id="SVGID_3_" gradientUnits="userSpaceOnUse" x1="-593.0293" y1="2499.1357" x2="-593.0293" y2="2459.939" gradientTransform="matrix(1 0 0 -1 674 2605)">
			<stop  offset="0" style="stop-color:#91366C"/>
			<stop  offset="1" style="stop-color:#91366C;stop-opacity:0"/>
		</linearGradient>
		<path fill="url(#SVGID_3_)" d="M77.664,124.036h6.612v-6.611h-6.612V124.036z"/>
		
			<linearGradient id="SVGID_4_" gradientUnits="userSpaceOnUse" x1="-578.8501" y1="2499.1357" x2="-578.8501" y2="2459.939" gradientTransform="matrix(1 0 0 -1 674 2605)">
			<stop  offset="0" style="stop-color:#91366C"/>
			<stop  offset="1" style="stop-color:#91366C;stop-opacity:0"/>
		</linearGradient>
		<path fill="url(#SVGID_4_)" d="M91.844,124.036h6.611v-6.611h-6.611V124.036z"/>
		
			<linearGradient id="SVGID_5_" gradientUnits="userSpaceOnUse" x1="-563.7168" y1="2499.1396" x2="-563.7168" y2="2459.9331" gradientTransform="matrix(1 0 0 -1 674 2605)">
			<stop  offset="0" style="stop-color:#91366C"/>
			<stop  offset="1" style="stop-color:#91366C;stop-opacity:0"/>
		</linearGradient>
		<path fill="url(#SVGID_5_)" d="M102.508,109.202h2.979c2.324,0,2.859,2.622,2.859,5.124v10.902c0,5.601,3.813,7.625,5.185,7.982
			v0.179c-1.371,0.179-5.185,1.905-5.185,7.982v10.784c0,2.562-0.535,5.242-2.859,5.242h-2.979v3.573h4.17
			c2.979,0,6.436-2.739,6.436-7.803v-10.844c0-4.351,2.442-7.031,4.944-7.031v-4.051c-2.502,0-4.944-2.8-4.944-6.97v-10.845
			c0-5.063-3.455-7.805-6.436-7.805h-4.17V109.202z"/>
	</g>
</g>
<path fill="#332B28" d="M82,164c-45.215,0-82-36.785-82-82S36.785,0,82,0s82,36.785,82,82S127.215,164,82,164z M82,1
	C37.336,1,1,37.337,1,82s36.336,81,81,81c44.663,0,81-36.337,81-81S126.663,1,82,1z"/>
<rect x="80.82" y="163.5" fill="#332B28" width="1" height="51"/>
</svg>
