<?xml version="1.0" encoding="utf-8"?>
<!-- Generator: Adobe Illustrator 16.0.0, SVG Export Plug-In . SVG Version: 6.00 Build 0)  -->
<!DOCTYPE svg PUBLIC "-//W3C//DTD SVG 1.1//EN" "http://www.w3.org/Graphics/SVG/1.1/DTD/svg11.dtd">
<svg version="1.1" id="Layer_1" xmlns="http://www.w3.org/2000/svg" xmlns:xlink="http://www.w3.org/1999/xlink" x="0px" y="0px"
	 width="170.835px" height="214.5px" viewBox="0 0 170.835 214.5" enable-background="new 0 0 170.835 214.5" xml:space="preserve">

<g>
	<g>
		<rect x="70.024" y="91.191" fill="#8F933B" width="28.361" height="5.776"/>
		<polygon fill="#787C2C" points="110.466,89.615 98.386,96.969 98.386,91.191 110.466,83.838 		"/>
		<polygon fill="#656826" points="98.386,91.191 70.024,91.191 82.104,83.838 110.466,83.838 		"/>
	</g>
	<g>
		<rect x="70.024" y="82.787" fill="#8F933B" width="28.361" height="5.778"/>
		<polygon fill="#787C2C" points="110.466,81.213 98.386,88.565 98.386,82.787 110.466,75.435 		"/>
		<polygon fill="#656826" points="98.386,82.787 70.024,82.787 82.104,75.435 110.466,75.435 		"/>
	</g>
	<g>
		<rect x="70.024" y="74.385" fill="#8F933B" width="28.361" height="5.777"/>
		<polygon fill="#787C2C" points="110.466,72.809 98.386,80.162 98.386,74.385 110.466,67.031 		"/>
		<polygon fill="#AAAA4F" points="98.386,74.385 70.024,74.385 82.104,67.031 110.466,67.031 		"/>
	</g>
</g>
<path fill="#332B28" d="M89.001,112.415c-16.68,0-30.25-13.57-30.25-30.25s13.57-30.25,30.25-30.25s30.25,13.57,30.25,30.25
	S105.681,112.415,89.001,112.415z M89.001,52.915c-16.128,0-29.25,13.121-29.25,29.25s13.122,29.25,29.25,29.25
	c16.129,0,29.25-13.121,29.25-29.25S105.13,52.915,89.001,52.915z"/>
<rect x="32.745" y="81.5" fill="#332B28" width="26" height="1"/>
<rect x="96.989" y="118.786" transform="matrix(-0.5001 -0.866 0.866 -0.5001 61.6926 274.1862)" fill="#332B28" width="26.002" height="0.999"/>
<path fill="#332B28" d="M88.836,164c-39.852,0-73.801-28.452-80.724-67.653l0.984-0.174C15.935,134.896,49.469,163,88.835,163
	c9.479,0,18.774-1.628,27.625-4.839l0.342,0.938C107.842,162.352,98.433,164,88.836,164z"/>
<path fill="#332B28" d="M141.478,144.855l-0.643-0.767c18.43-15.451,29-38.081,29-62.09c0-24.013-10.573-46.646-29.008-62.098
	l0.643-0.767c18.662,15.643,29.365,38.555,29.365,62.863C170.836,106.305,160.136,129.215,141.478,144.855z"/>
<path fill="#332B28" d="M9.032,68.196l-0.985-0.17C14.818,28.609,48.795,0,88.837,0c9.735,0,19.27,1.692,28.333,5.031l-0.346,0.938
	C107.871,2.672,98.454,1,88.837,1C49.283,1,15.72,29.26,9.032,68.196z"/>
<path fill="#332B28" d="M8.353,96.691C3.2,93.675,0,88.109,0,82.165c0-5.911,3.174-11.461,8.285-14.484l0.509,0.861
	c-4.807,2.844-7.793,8.064-7.793,13.623c0,5.591,3.011,10.826,7.857,13.663L8.353,96.691z"/>
<path fill="#332B28" d="M16.834,99c-2.967,0-5.899-0.798-8.481-2.309l0.505-0.863C11.286,97.249,14.044,98,16.834,98
	c8.731,0,15.835-7.104,15.835-15.835S25.565,66.33,16.834,66.33c-2.815,0-5.595,0.765-8.041,2.212l-0.509-0.861
	c2.599-1.538,5.555-2.351,8.549-2.351c9.283,0,16.835,7.552,16.835,16.835S26.117,99,16.834,99z"/>
<path fill="#332B28" d="M116.381,159.063c-2.546-1.477-4.664-3.595-6.125-6.127c-2.249-3.895-2.847-8.432-1.683-12.774
	s3.95-7.975,7.846-10.222c8.035-4.643,18.354-1.878,22.995,6.161c1.464,2.535,2.239,5.431,2.243,8.37l-1,0.002
	c-0.004-2.767-0.733-5.487-2.108-7.872c-4.366-7.56-14.067-10.158-21.63-5.796c-3.664,2.115-6.284,5.529-7.38,9.614
	c-1.095,4.086-0.533,8.354,1.582,12.017c1.374,2.382,3.366,4.373,5.762,5.763L116.381,159.063z"/>
<path fill="#332B28" d="M124.855,161.339c-2.929,0-5.859-0.759-8.476-2.274l0.502-0.865c4.901,2.843,10.982,2.854,15.87,0.033
	c4.888-2.821,7.915-8.094,7.904-13.759l1-0.002c0.012,6.021-3.209,11.626-8.404,14.625
	C130.665,160.592,127.763,161.339,124.855,161.339z"/>
<path fill="#332B28" d="M124.806,36.653c-2.916,0-5.794-0.766-8.387-2.264c-3.896-2.248-6.682-5.879-7.846-10.223
	s-0.566-8.881,1.683-12.774c1.534-2.658,3.782-4.849,6.501-6.332l0.479,0.878c-2.558,1.396-4.671,3.454-6.114,5.954
	c-2.115,3.662-2.677,7.931-1.582,12.017c1.096,4.086,3.716,7.501,7.38,9.616c3.661,2.113,7.927,2.674,12.015,1.581
	c4.084-1.097,7.498-3.717,9.613-7.378c1.432-2.479,2.157-5.313,2.104-8.199l1-0.021c0.059,3.069-0.715,6.084-2.237,8.72
	c-2.248,3.894-5.878,6.68-10.221,7.844C127.741,36.461,126.269,36.653,124.806,36.653z"/>
<path fill="#332B28" d="M140.649,19.529c-0.104-5.616-3.058-10.639-7.896-13.434c-4.813-2.775-10.615-2.836-15.517-0.158
	l-0.48-0.877c5.213-2.849,11.378-2.783,16.497,0.17c5.146,2.972,8.285,8.311,8.396,14.278L140.649,19.529z"/>
<rect x="109.618" y="32.589" transform="matrix(-0.8658 -0.5003 0.5003 -0.8658 182.651 140.1557)" fill="#332B28" width="0.999" height="25.997"/>
<circle fill="#818E33" cx="16.188" cy="82.502" r="5.688"/>
<circle fill="#818E33" cx="125.188" cy="144.502" r="5.688"/>
<circle fill="#818E33" cx="125.188" cy="19.502" r="5.688"/>
	<rect x="84.195" y="163.5" fill="#332B28" width="1" height="51"/>
</svg>
