<?xml version="1.0" encoding="utf-8"?>
<!-- Generator: Adobe Illustrator 16.0.0, SVG Export Plug-In . SVG Version: 6.00 Build 0)  -->
<!DOCTYPE svg PUBLIC "-//W3C//DTD SVG 1.1//EN" "http://www.w3.org/Graphics/SVG/1.1/DTD/svg11.dtd">
<svg version="1.1" id="Layer_1" xmlns="http://www.w3.org/2000/svg" xmlns:xlink="http://www.w3.org/1999/xlink" x="0px" y="0px"
	 width="164px" height="215.017px" viewBox="0 0 164 215.017" enable-background="new 0 0 164 215.017" xml:space="preserve">
<path fill="#332B28" d="M82,164.017c-45.215,0-82-36.785-82-82s36.785-82,82-82s82,36.785,82,82S127.215,164.017,82,164.017z
	 M82,1.017c-44.664,0-81,36.337-81,81s36.336,81,81,81c44.663,0,81-36.337,81-81S126.663,1.017,82,1.017z"/>
<rect x="80.745" y="164.017" fill="#332B28" width="1" height="51"/>
<g>
	<g>
		<g>
			<path fill="#497770" d="M81.245,53.484c0,0.19,0.364,0.35,0.588,0.471c0.423,0.229,1.168,0.221,1.537-0.021
				c1.015-0.662,2.658-1.09,4.091-1.09c3.697,0,6.737,3.027,6.737,6.751c0,3.723-3.057,6.752-6.831,6.752
				c-1.373,0-2.812-0.408-3.857-1.091c-0.366-0.24-1.255-0.248-1.678-0.019c-0.226,0.122-0.586,0.279-0.586,0.468v15.313h15.777
				c0.592,0,1.099,0.06,1.391,0.599c0.361,0.667,0.32,1.427-0.103,2.074c-0.6,0.916-0.93,1.983-0.93,3.118
				c0,3.187,2.58,5.748,5.752,5.748s5.75-2.59,5.75-5.755c0-1.146-0.338-2.33-0.927-3.233c-0.423-0.648-0.465-1.285-0.104-1.95
				c0.291-0.538,0.799-0.601,1.392-0.601h15.244c-0.271-24-19.435-42.25-42.737-42.25c-0.085,0,0.495-0.244-0.505-0.244
				L81.245,53.484L81.245,53.484z"/>
		</g>
		<g>
			<path fill="#497770" d="M54.246,81.017c0.219,0,0.389-0.36,0.506-0.577c0.191-0.354,0.167-0.985-0.057-1.33
				c-0.693-1.061-1.091-2.513-1.091-3.873c0-3.714,3.028-6.767,6.752-6.767c3.723,0,6.752,3.03,6.752,6.772
				c0,1.342-0.389,2.664-1.092,3.741c-0.226,0.345-0.248,1.102-0.055,1.458c0.118,0.218,0.288,0.574,0.505,0.574h13.778V65.703
				c0-0.56,0.564-1.051,1.114-1.348c0.75-0.404,1.907-0.379,2.58,0.061c0.877,0.572,2.211,0.929,3.381,0.929
				c3.224,0,5.878-2.58,5.878-5.752c0-3.171-2.544-5.751-5.69-5.751c-1.231,0-2.624,0.373-3.474,0.928
				c-0.67,0.438-1.94,0.465-2.682,0.063c-0.547-0.297-1.107-0.787-1.107-1.35V38.546c-22,0.661-40.468,19.469-40.732,42.469h14.733
				V81.017z"/>
		</g>
		<g>
			<path fill="#497770" d="M109.243,82.017c-0.225,0-0.396-0.142-0.512,0.073c-0.186,0.341-0.158,0.709,0.063,1.048
				c0.692,1.062,1.089,2.374,1.089,3.71c0,3.716-3.028,6.708-6.75,6.708c-3.723,0-6.752-3.057-6.752-6.795
				c0-1.327,0.388-2.659,1.091-3.735c0.223-0.339,0.247-0.587,0.063-0.931c-0.117-0.215-0.289-0.078-0.512-0.078H81.245v14.242
				c0,0.623-0.05,1.144-0.573,1.427c-0.6,0.323-1.239,0.271-1.868-0.139c-0.955-0.625-1.896-0.93-3.002-0.93
				c-3.154,0-5.689,2.58-5.689,5.753c0,3.171,2.603,5.75,5.784,5.75c1.083,0,2.046-0.296,3.016-0.928
				c0.631-0.412,1.151-0.465,1.756-0.139c0.523,0.283,0.577,0.803,0.577,1.425v15.031c1,0,0.419,0.256,0.505,0.256
				c23.304,0,42.468-18.75,42.737-41.75L109.243,82.017L109.243,82.017z"/>
		</g>
		<g>
			<path fill="#497770" d="M80.245,108.48c0-0.254,0.148-0.438-0.049-0.545c-0.276-0.15-0.535-0.112-0.854,0.097
				c-1.124,0.732-2.224,1.089-3.491,1.089c-3.732,0-6.737-3.027-6.737-6.75s3.03-6.752,6.737-6.752c1.289,0,2.512,0.367,3.618,1.092
				c0.316,0.208,0.451,0.246,0.725,0.097c0.198-0.107,0.053-0.291,0.053-0.547V82.017H66.468c-0.587,0-1.092-0.561-1.385-1.104
				c-0.369-0.683-0.33-1.704,0.098-2.358c0.6-0.917,0.929-2.116,0.929-3.265c0-3.192-2.58-5.82-5.752-5.82
				c-3.171,0-5.751,2.558-5.751,5.72c0,1.154,0.347,2.366,0.927,3.256c0.427,0.654,0.467,1.796,0.1,2.476
				c-0.293,0.541-0.798,1.097-1.386,1.097H39.513c0.265,22,18.732,40.808,40.732,41.469V108.48z"/>
		</g>
	</g>
</g>
</svg>
