<?xml version="1.0" encoding="utf-8"?>
<!-- Generator: Adobe Illustrator 16.0.0, SVG Export Plug-In . SVG Version: 6.00 Build 0)  -->
<!DOCTYPE svg PUBLIC "-//W3C//DTD SVG 1.1//EN" "http://www.w3.org/Graphics/SVG/1.1/DTD/svg11.dtd">
<svg version="1.1" id="Layer_1" xmlns="http://www.w3.org/2000/svg" xmlns:xlink="http://www.w3.org/1999/xlink" x="0px" y="0px"
	 width="1121.847px" height="221.526px" viewBox="0 0 1121.847 221.526" enable-background="new 0 0 1121.847 221.526"
	 xml:space="preserve">
<circle fill="#241E1B" cx="484.64" cy="103.732" r="14.727"/>
<circle fill="#241E1B" cx="390.384" cy="172.213" r="14.728"/>
<circle fill="#241E1B" cx="316.009" cy="126.559" r="20.619"/>
<circle fill="#241E1B" cx="159.898" cy="158.224" r="20.619"/>
<circle fill="#241E1B" cx="38.397" cy="72.804" r="20.619"/>
<circle fill="#241E1B" cx="542.813" cy="163.377" r="14.728"/>
<circle fill="#241E1B" cx="673.151" cy="153.068" r="14.727"/>
<circle fill="#241E1B" cx="797.597" cy="178.105" r="14.728"/>
<circle fill="#241E1B" cx="835.888" cy="192.096" r="14.728"/>
<circle fill="#241E1B" cx="950.027" cy="179.578" r="14.728"/>
<circle fill="#241E1B" cx="1093.619" cy="193.569" r="14.728"/>
<circle fill="#241E1B" cx="998.628" cy="194.304" r="14.728"/>
<circle fill="#241E1B" cx="1039.128" cy="156.75" r="7.322"/>
<path fill="#1B1614" d="M12.22,53.56H0L12.729,0L61.61,0.769l16.804,49.37L67.77,51.795l9.627,32.077l35.132,7.297l58.047-13.708
	l55.501,48.438l-25.967,3.952l2.544,43.789l15.277,40.733l-206.729-3.057l5.601-92.171L12.22,53.56z M173.63,168.56l-3.563-18.947
	l-17.823-2.842l-6.108,21.789H173.63z M47.864,83.841l-1.02-18.147l-16.452-1.776l-4.425,17.563L47.864,83.841z"/>
<path fill="#1B1614" d="M215.741,164.581v-59.577l21.977-37.573l61.023,1.857V56.166l15.776,2.703l-1.257,10.85l13.84,0.416
	l22.999,34.87l4.063,65.156l5.766,51.365l-154.188-4.057v-1.951L215.741,164.581z M306.865,137.56h21.025l2.403-20.875
	l-26.435-1.662L306.865,137.56z"/>
<path fill="#1B1614" d="M871.056,167.82l-11.955-0.718l21.52-28.691l39.266,6.621l20.855-0.742v-5.879l7.359-1.436l0.756,7.039
	l16.598,0.21l14.395,27.335h-6.694l-4.303,20.247l2.39,24.471l-105.443-3.547l5.021-20.39L871.056,167.82z M941.472,186.56h11.797
	l1.436-11.189l-15.782-0.702L941.472,186.56z"/>
<path fill="#1B1614" d="M812.888,183.272l5.213-20.394l8.641-0.667v-8.634l7.676,1.144l0.745,6.871l26.14-1.978l9.32,22.517
	l-4.232,1.141l-2.114,7.558l1.147,22.729h-48.781l3.426-30.726L812.888,183.272z M835.73,196.561l-1.198-9.323l-9.463-0.539
	l-1.088,10.98L835.73,196.561z"/>
<path fill="#1B1614" d="M976.995,185.56h-8.009l10.106-21.626l27.551-1.19l0.099-3.184h-3.001v-5h9.484l0.953,3.886l-2.099,0.607
	l-0.228,2.827l9.189-0.203l12.969,23.883h-9.916l0.379,15.096l0.767,15.904h-52.248l3.813-19.555L976.995,185.56z M1003.12,198.56
	l-1.283-7.977l-7.854-1.494l-1.924,9.471H1003.12L1003.12,198.56z"/>
<path fill="#1B1614" d="M1027.831,147.56h-5.372l5.595-23.484l21.491,0.368l7.388,21.72l-4.682,0.738l4.232,14.105l15.445,3.209
	l25.519-6.025l24.399,21.296l-11.416,1.736l1.119,19.251l6.717,17.909l-90.883-1.345l2.461-40.584L1027.831,147.56z M1098.79,197.56
	l-1.564-7.99l-7.836-1.42l-2.688,9.41H1098.79z M1043.501,160.997l-0.449-7.979l-7.232-0.782l-1.944,7.72L1043.501,160.997z"/>
<path fill="#1B1614" d="M498.246,152.56l19.209-35.909l22.159,0.594l0.708-9.517l9.419,1.828v7.872l28.355,0.991l52.918-8.863
	l28.858,38.418l-15.985,0.96l0.332,32.699l6.729,27.168l-141.18,4.479l3.2-32.922l-5.761-27.799H498.246z M533.834,173.56h15.793
	l3.415-16.033l-21.13,1.507L533.834,173.56z"/>
<path fill="#1B1614" d="M739.812,163.995l13.58-32.879l38.108,2.888l1.121-10.035l11.119-1.668v12.605l12.709,0.975l7.783,29.782
	l-10.522,0.195l4.965,45.701h-71.238l1.668-34.026l-3.099-11.534L739.812,163.995z M807.955,186.7l-1.589-16.032l-13.82,0.784
	l-1.746,13.614L807.955,186.7z"/>
<path fill="#1B1614" d="M359.99,149.928l-20.28-3.089l43.348-37.833l45.334,10.698l27.438-5.711l7.517-25.077l-8.313-1.342
	l13.124-38.656l38.176-0.296l9.941,41.938h-9.544l-3.579,51.117l4.374,72.127l-161.454,2.262l11.931-31.875L359.99,149.928z
	 M495.995,112.149l-3.455-13.716l-12.851,1.387l-0.795,14.173L495.995,112.149z M402.145,179.56l-4.771-16.92l-13.92,2.471
	l-2.783,14.449H402.145z"/>
<path fill="#1B1614" d="M646.733,184.615l2.914-46.821l16.514-25.059l9.916-0.299l-0.76-7.795l11.424-1.943v9.43l44.029-1.335
	l15.971,27v42.813l5,36.603v1.403l-109.978,2.914L646.733,184.615z M665.62,161.56h15.111l2.16-16.38l-18.998,1.284L665.62,161.56z"
	/>
</svg>
