<?xml version="1.0" encoding="utf-8"?>
<!-- Generator: Adobe Illustrator 16.0.0, SVG Export Plug-In . SVG Version: 6.00 Build 0)  -->
<!DOCTYPE svg PUBLIC "-//W3C//DTD SVG 1.1//EN" "http://www.w3.org/Graphics/SVG/1.1/DTD/svg11.dtd">
<svg version="1.1" id="Layer_1" xmlns="http://www.w3.org/2000/svg" xmlns:xlink="http://www.w3.org/1999/xlink" x="0px" y="0px"
	 width="1604.491px" height="221.526px" viewBox="0 0 1604.491 221.526" enable-background="new 0 0 1604.491 221.526"
	 xml:space="preserve">
<circle fill="#241E1B" cx="1568.305" cy="166.323" r="20.619"/>
<circle fill="#241E1B" cx="1261.502" cy="165.587" r="20.619"/>
<circle fill="#241E1B" cx="1359.502" cy="142.587" r="20.619"/>
<circle fill="#241E1B" cx="1050.162" cy="157.486" r="20.618"/>
<circle fill="#241E1B" cx="1173.137" cy="75.749" r="20.618"/>
<circle fill="#241E1B" cx="893.314" cy="127.295" r="20.618"/>
<circle fill="#241E1B" cx="805.686" cy="179.578" r="20.618"/>
<circle fill="#241E1B" cx="730.577" cy="172.214" r="20.618"/>
<circle fill="#241E1B" cx="637.794" cy="105.939" r="15.832"/>
<circle fill="#241E1B" cx="580.355" cy="165.587" r="15.832"/>
<circle fill="#241E1B" cx="448.546" cy="153.804" r="15.832"/>
<circle fill="#241E1B" cx="325.571" cy="179.577" r="15.832"/>
<circle fill="#241E1B" cx="292.939" cy="191.36" r="9.587"/>
<circle fill="#241E1B" cx="175.855" cy="179.578" r="10.815"/>
<circle fill="#241E1B" cx="126.519" cy="194.304" r="10.815"/>
<circle fill="#241E1B" cx="83.073" cy="156.013" r="10.814"/>
<circle fill="#241E1B" cx="50.055" cy="193.569" r="10.815"/>
<path fill="#1B1614" d="M1500.418,121.104l22.351-1.342l-40.236-53.649l-73.955,12.38l-39.529-1.386V66.113l-13.229-2.683
	l-1.147,13.161l-30.899-0.875l-26.781,49.843h12.52l8.046,39.127l-4.471,46.39l197.165-6.312l-9.391-37.967L1500.418,121.104z
	 M1368.745,154.56h-22.055l-2.683-20.133l29.508-1.707L1368.745,154.56z"/>
<path fill="#1B1614" d="M1604.491,149.997l-10.52-38.133l-16.925-1.249V94.475l-13.582,2.136l-1.013,12.849l-48.682-3.697
	l-17.331,42.101l7.958,2.135l3.98,14.597l-2.121,42.966h91.217l-6.406-57.914L1604.491,149.997z M1561.782,174.844l2.236-17.433
	l17.693-1.008l2.035,20.53L1561.782,174.844z"/>
<path fill="#1B1614" d="M1303.552,145.56h16.621l-20.977-44.227l-57.181-2.318l-0.205-6.455h5.237v-10h-18.693l-1.979,8.053
	l4.354,1.256l0.469,5.864l-19.069-1.084l-26.913,48.911h20.58l-0.792,31.66l-1.583,33.34h108.439l-7.914-40.915L1303.552,145.56z
	 M1249.329,173.56l2.662-16.406l16.301-3.173l3.99,19.579H1249.329z"/>
<path fill="#1B1614" d="M1199.274,53.56h12.221L1198.766,0l-48.882,0.769l-16.803,49.37l10.644,1.656l-9.627,32.077l-35.131,7.297
	l-58.048-13.708l-55.501,48.438l25.968,3.952l-2.545,43.789l-15.275,40.734l206.728-3.057l-5.6-92.172L1199.274,53.56z
	 M1037.864,168.56l3.563-18.947l17.822-2.842l6.109,21.789H1037.864L1037.864,168.56z M1163.63,83.841l1.02-18.147l16.452-1.776
	l4.425,17.563L1163.63,83.841z"/>
<path fill="#1B1614" d="M996.048,164.581v-59.577l-22.475-37.573l-61.525,1.857V56.166l-15.424,2.703l1.433,10.85l-13.751,0.416
	l-22.955,34.87l-4.044,65.156l-6.104,51.365l153.846-4.056v-1.952L996.048,164.581z M904.63,137.56h-21.026l-2.403-20.875
	l26.435-1.662L904.63,137.56z"/>
<path fill="#1B1614" d="M252.176,167.82l11.955-0.718l-21.519-28.691l-39.489,6.621l-21.075-0.742v-5.88l-7.138-1.436l-0.646,7.039
	l-16.543,0.21l-14.338,27.336h6.695l4.302,20.247l-2.39,24.471l105.443-3.547l-5.021-20.388L252.176,167.82z M181.759,186.56
	h-11.795l-1.436-11.189l15.78-0.702L181.759,186.56z"/>
<path fill="#1B1614" d="M310.343,183.272l-5.434-20.394l-8.861-0.667v-8.634l-7.455,1.144l-0.636,6.871l-26.083-1.978l-9.292,22.517
	l4.244,1.141l2.122,7.558l-1.14,22.729h48.782l-3.426-30.725L310.343,183.272z M287.501,196.561l1.197-9.323l9.463-0.539
	l1.088,10.98L287.501,196.561z"/>
<path fill="#1B1614" d="M146.235,185.56h8.009l-10.105-21.626l-27.551-1.19l-0.099-3.184h1.559v-5h-8.043l-0.952,3.886l2.096,0.607
	l0.227,2.828l-9.188-0.204L89.22,185.56h9.917l-0.381,15.096l-0.763,15.904h52.249l-3.814-19.555L146.235,185.56z M120.111,198.56
	l1.283-7.977l7.854-1.494l1.923,9.471H120.111L120.111,198.56z"/>
<path fill="#1B1614" d="M95.401,147.56h5.373l-5.596-23.484l-21.491,0.368l-7.386,21.72l4.679,0.738l-4.231,14.105l-15.445,3.209
	l-25.521-6.025L1.384,179.486l11.417,1.736l-1.12,19.252l-6.716,17.908l90.883-1.346l-2.462-40.582L95.401,147.56z M24.441,197.56
	l1.566-7.99l7.835-1.42l2.687,9.41H24.441z M79.731,160.997l0.448-7.979l7.233-0.782l1.945,7.722L79.731,160.997z"/>
<path fill="#1B1614" d="M624.985,152.56l-19.209-35.909l-22.16,0.594l-0.928-9.517l-9.641,1.828v7.872l-28.135,0.992l-52.807-8.864
	l-28.804,38.417l16.011,0.96l-0.315,32.699l-6.722,27.168l141.185,4.479l-3.2-32.922l5.762-27.799L624.985,152.56L624.985,152.56z
	 M589.396,173.56h-15.793l-3.416-16.033l21.132,1.507L589.396,173.56z"/>
<path fill="#1B1614" d="M383.419,163.995l-13.58-32.879l-38.108,2.888l-1.344-10.035l-11.339-1.668v12.604l-12.487,0.975
	l-7.674,29.783l10.579,0.194l-4.91,45.702h71.239l-1.668-34.026l3.098-11.534L383.419,163.995z M315.276,186.7l1.59-16.032
	l13.818,0.784l1.748,13.614L315.276,186.7z"/>
<path fill="#1B1614" d="M850.833,162.56h16.072l-21.019-38.366l-14.895,0.739l0.366-4.586l3.399-0.266l-1.546-5.521h-14.164v5h3.658
	l-0.162,5.694l-44.658,2.548l-16.381,34.758h12.982l-0.311,18.427l-6.181,31.573h84.692l-1.235-25.656L850.833,162.56z
	 M798.905,184.56l3.116-15.6l12.731,2.722l2.079,12.878H798.905L798.905,184.56z"/>
<path fill="#1B1614" d="M763.241,149.928l20.279-3.089l-43.346-37.833l-45.334,10.698l-27.439-5.711l-7.518-25.076l8.313-1.342
	l-13.123-38.656l-38.176-0.297l-9.941,41.938h9.544l3.579,51.117l-4.374,72.127l161.455,2.262l-11.932-31.874L763.241,149.928z
	 M627.237,112.149l3.455-13.716l12.85,1.387l0.795,14.173L627.237,112.149z M721.087,179.56l4.771-16.92l13.918,2.471l2.784,14.449
	H721.087L721.087,179.56z"/>
<path fill="#1B1614" d="M476.498,184.615l-2.914-46.82l-16.515-25.06l-9.916-0.299l0.539-7.795l-11.645-1.943v9.43l-44.03-1.335
	l-15.97,27.001v42.813l-5,36.603v1.403l110.196,2.914L476.498,184.615z M457.61,161.56H442.5l-2.158-16.38l18.997,1.284
	L457.61,161.56z"/>
<radialGradient id="SVGID_1_" cx="500.4629" cy="2531.3564" r="36.1377" gradientTransform="matrix(1 0 0 -1 674 2605)" gradientUnits="userSpaceOnUse">
	<stop  offset="0" style="stop-color:#CE8E32"/>
	<stop  offset="1" style="stop-color:#CE8E32;stop-opacity:0"/>
</radialGradient>
<circle opacity="0.3" fill="url(#SVGID_1_)" enable-background="new    " cx="1174.463" cy="73.644" r="36.138"/>
<polygon fill="#CE8E32" points="1163.63,83.841 1164.649,65.693 1181.102,63.917 1185.526,81.479 "/>
</svg>
