<?xml version="1.0" encoding="utf-8"?>
<!-- Generator: Adobe Illustrator 16.0.0, SVG Export Plug-In . SVG Version: 6.00 Build 0)  -->
<!DOCTYPE svg PUBLIC "-//W3C//DTD SVG 1.1//EN" "http://www.w3.org/Graphics/SVG/1.1/DTD/svg11.dtd">
<svg version="1.1" id="Layer_1" xmlns="http://www.w3.org/2000/svg" xmlns:xlink="http://www.w3.org/1999/xlink" x="0px" y="0px"
	 width="330.705px" height="62.875px" viewBox="0 0 330.705 62.875" enable-background="new 0 0 330.705 62.875"
	 xml:space="preserve">
<g>
	<path fill="#FFFFFF" d="M73.652,58.946H16.273C7.3,58.946,0,51.645,0,42.672c0-6.744,4.135-12.741,10.369-15.164
		c-0.07-0.477-0.106-0.957-0.106-1.435c0-5.407,4.399-9.808,9.807-9.808c1.378,0,2.742,0.293,3.995,0.853
		C28.683,7.831,38.228,1.882,48.646,1.882c10.394,0,19.979,5.969,24.591,15.256c0.141-0.002,0.279-0.004,0.417-0.004
		c11.526,0,20.905,9.379,20.905,20.906C94.56,49.566,85.181,58.946,73.652,58.946z M20.068,18.091c-4.401,0-7.982,3.581-7.982,7.982
		c0,0.606,0.071,1.221,0.212,1.82l0.188,0.811l-0.789,0.263c-5.906,1.972-9.874,7.479-9.874,13.705
		c0,7.968,6.481,14.45,14.449,14.45h57.379c10.521,0,19.081-8.562,19.081-19.082c0-10.521-8.561-19.081-19.081-19.081
		c-0.303,0-0.616,0.007-0.937,0.022l-0.609,0.029l-0.259-0.554C67.642,9.496,58.535,3.705,48.644,3.705
		c-10.021,0-19.181,5.896-23.329,15.024l-0.415,0.912l-0.869-0.498C22.828,18.456,21.457,18.091,20.068,18.091z"/>
	<g>
		<path fill="#3D737F" d="M30.278,1.229c-0.089-0.799,0.692-1.412,1.447-1.135l10.25,3.772L31.688,13.79L30.278,1.229z"/>
		<path fill="#3D737F" d="M66.517,1.229c0.09-0.799-0.693-1.412-1.448-1.135l-10.25,3.772l10.288,9.923L66.517,1.229z"/>
		<ellipse fill="#538496" cx="48.517" cy="34.476" rx="24.735" ry="21.234"/>
		<ellipse fill="#3D737F" cx="48.517" cy="28.676" rx="20.468" ry="28.676"/>
		<ellipse fill="#FFFFFF" cx="40.254" cy="18.919" rx="9.544" ry="10.874"/>
		<ellipse fill="#FFFFFF" cx="48.517" cy="40.525" rx="14.256" ry="13.269"/>
		<ellipse fill="#FFFFFF" cx="56.599" cy="18.919" rx="9.543" ry="10.874"/>
		<path fill="#FF9E5C" d="M47.733,22.624c0.525-0.207,1.115-0.201,1.639,0.017c1.665,0.692,2.855,1.543,3.903,2.78
			c0.347,0.409,0.368,1.001,0.082,1.455c-1.091,1.739-2.413,3.045-4.099,4.34c-0.413,0.317-0.988,0.317-1.401,0
			c-1.686-1.295-3.007-2.601-4.1-4.34c-0.282-0.449-0.257-1.035,0.085-1.439C44.931,24.15,45.991,23.31,47.733,22.624z"/>
		<g>
			<path fill="#D6D6D6" d="M47.569,33.798c0,1.055-0.854,1.908-1.908,1.908s-1.908-0.854-1.908-1.908H47.569z"/>
			<path fill="#D6D6D6" d="M53.365,33.798c0,1.055-0.854,1.908-1.908,1.908s-1.908-0.854-1.908-1.908H53.365z"/>
			<path fill="#D6D6D6" d="M44.671,37.603c0,1.055-0.854,1.908-1.908,1.908c-1.054,0-1.908-0.854-1.908-1.908H44.671z"/>
			<path fill="#D6D6D6" d="M50.467,37.603c0,1.055-0.854,1.908-1.907,1.908c-1.055,0-1.908-0.854-1.908-1.908H50.467z"/>
			<path fill="#D6D6D6" d="M56.263,37.603c0,1.055-0.854,1.908-1.908,1.908c-1.054,0-1.907-0.854-1.907-1.908H56.263z"/>
			<path fill="#D6D6D6" d="M41.773,41.322c0,1.054-0.854,1.906-1.908,1.906s-1.908-0.854-1.908-1.906H41.773z"/>
			<path fill="#D6D6D6" d="M47.569,41.322c0,1.054-0.854,1.906-1.908,1.906s-1.908-0.854-1.908-1.906H47.569z"/>
			<path fill="#D6D6D6" d="M53.365,41.322c0,1.054-0.854,1.906-1.908,1.906s-1.908-0.854-1.908-1.906H53.365z"/>
			<path fill="#D6D6D6" d="M59.161,41.322c0,1.054-0.854,1.906-1.908,1.906c-1.054,0-1.908-0.854-1.908-1.906H59.161z"/>
			<path fill="#D6D6D6" d="M44.671,45.126c0,1.055-0.854,1.908-1.908,1.908c-1.054,0-1.908-0.854-1.908-1.908H44.671z"/>
			<path fill="#D6D6D6" d="M50.467,45.126c0,1.055-0.854,1.908-1.907,1.908c-1.055,0-1.908-0.854-1.908-1.908H50.467z"/>
			<path fill="#D6D6D6" d="M56.263,45.126c0,1.055-0.854,1.908-1.908,1.908c-1.054,0-1.907-0.854-1.907-1.908H56.263z"/>
			<path fill="#D6D6D6" d="M47.569,48.847c0,1.053-0.854,1.906-1.908,1.906s-1.908-0.854-1.908-1.906H47.569z"/>
			<path fill="#D6D6D6" d="M53.365,48.847c0,1.053-0.854,1.906-1.908,1.906s-1.908-0.854-1.908-1.906H53.365z"/>
		</g>
		<g>
			<circle fill="#C2DDEB" cx="41.499" cy="17.701" r="5.555"/>
			<circle cx="41.499" cy="17.701" r="3.475"/>
			<circle fill="#FFFFFF" cx="42.375" cy="16.415" r="1.286"/>
		</g>
		<g>
			<circle fill="#C2DDEB" cx="55.087" cy="17.701" r="5.554"/>
			<circle cx="55.088" cy="17.701" r="3.475"/>
			<circle fill="#FFFFFF" cx="55.963" cy="16.415" r="1.286"/>
		</g>
	</g>
	<g>
		<path fill="#FFFFFF" d="M113.565,28.69v25.075h-2.083V24.77h1.592l20.339,25.525V24.77h2.083v28.996h-1.919L113.565,28.69z"/>
		<path fill="#FFFFFF" d="M141.214,27.71v-3.757h2.042v3.757H141.214z M141.214,53.767V32.53h2.042v21.236H141.214z"/>
		<path fill="#FFFFFF" d="M157.019,54.094c-1.471,0-2.817-0.307-4.043-0.919c-1.226-0.613-2.281-1.43-3.166-2.45
			s-1.578-2.186-2.082-3.493c-0.505-1.307-0.757-2.653-0.757-4.043c0-1.441,0.238-2.83,0.716-4.166
			c0.476-1.333,1.149-2.512,2.021-3.53c0.871-1.021,1.913-1.832,3.124-2.432c1.211-0.599,2.553-0.898,4.023-0.898
			c1.852,0,3.464,0.483,4.84,1.451c1.375,0.966,2.539,2.144,3.492,3.531V32.53h1.879v21.646c0,1.442-0.272,2.708-0.817,3.798
			c-0.545,1.089-1.272,1.994-2.185,2.716c-0.913,0.722-1.976,1.267-3.187,1.635c-1.211,0.366-2.484,0.551-3.818,0.551
			c-1.226,0-2.328-0.115-3.309-0.347c-0.979-0.231-1.845-0.56-2.594-0.98c-0.749-0.423-1.416-0.938-2.001-1.552
			c-0.586-0.612-1.097-1.286-1.532-2.021l1.39-0.938c0.844,1.442,1.986,2.498,3.431,3.165c1.442,0.667,2.981,1.001,4.615,1.001
			c1.089,0,2.116-0.15,3.083-0.45c0.966-0.299,1.811-0.741,2.533-1.326c0.721-0.587,1.291-1.313,1.715-2.186
			c0.422-0.872,0.633-1.894,0.633-3.063v-4.656c-0.872,1.39-2.028,2.498-3.471,3.329C160.109,53.679,158.599,54.094,157.019,54.094z
			 M157.509,52.337c0.899,0,1.777-0.17,2.635-0.51s1.634-0.782,2.327-1.328c0.695-0.544,1.268-1.156,1.716-1.837
			c0.449-0.681,0.729-1.361,0.838-2.042v-6.984c-0.327-0.815-0.764-1.572-1.308-2.267c-0.545-0.694-1.164-1.286-1.857-1.776
			c-0.694-0.49-1.443-0.879-2.246-1.164C158.81,34.143,158,34,157.183,34c-1.28,0-2.424,0.271-3.431,0.817
			c-1.008,0.545-1.858,1.252-2.553,2.123c-0.695,0.87-1.226,1.857-1.593,2.961c-0.368,1.103-0.552,2.213-0.552,3.327
			c0,1.227,0.218,2.384,0.653,3.473s1.035,2.056,1.797,2.898c0.762,0.846,1.661,1.513,2.696,2.002
			C155.235,52.092,156.338,52.337,157.509,52.337z"/>
		<path fill="#FFFFFF" d="M189.569,53.767h-2.042V41.923c0-5.255-1.757-7.883-5.27-7.883c-0.87,0-1.723,0.164-2.553,0.49
			c-0.83,0.327-1.606,0.791-2.328,1.389c-0.722,0.6-1.354,1.301-1.897,2.104c-0.545,0.805-0.954,1.669-1.226,2.595v13.149h-2.043
			V23.954h2.043v13.641c0.871-1.661,2.075-2.98,3.613-3.962c1.538-0.98,3.192-1.471,4.962-1.471c1.171,0,2.179,0.219,3.021,0.654
			c0.844,0.435,1.545,1.062,2.104,1.879c0.558,0.815,0.967,1.803,1.226,2.961c0.26,1.157,0.389,2.457,0.389,3.899V53.767z"/>
		<path fill="#FFFFFF" d="M203.782,52.746c-0.109,0.056-0.293,0.157-0.552,0.306c-0.259,0.15-0.587,0.293-0.979,0.43
			c-0.396,0.137-0.838,0.26-1.327,0.367c-0.491,0.108-1.021,0.162-1.594,0.162s-1.109-0.08-1.613-0.244
			c-0.504-0.163-0.945-0.407-1.327-0.734c-0.381-0.326-0.681-0.722-0.897-1.186c-0.219-0.463-0.327-1.006-0.327-1.633v-16.01h-2.98
			v-1.675h2.98v-7.271h2.042v7.271h4.942v1.675h-4.942v15.52c0,0.789,0.272,1.384,0.817,1.776c0.544,0.396,1.156,0.592,1.838,0.592
			c0.843,0,1.572-0.144,2.185-0.429c0.613-0.285,0.986-0.469,1.123-0.551L203.782,52.746z"/>
		<path fill="#FFFFFF" d="M204.476,39.063c0-1.741,0.307-3.478,0.92-5.206c0.611-1.729,1.504-3.273,2.675-4.636
			c1.171-1.361,2.605-2.472,4.31-3.329c1.701-0.856,3.642-1.285,5.819-1.285c2.587,0,4.792,0.592,6.616,1.775
			c1.823,1.185,3.186,2.703,4.084,4.554l-1.715,0.98c-0.519-1.007-1.123-1.852-1.818-2.532c-0.693-0.681-1.443-1.23-2.246-1.653
			s-1.641-0.729-2.512-0.92c-0.871-0.189-1.729-0.284-2.572-0.284c-1.854,0-3.486,0.374-4.901,1.123
			c-1.416,0.749-2.613,1.722-3.595,2.92c-0.979,1.197-1.722,2.553-2.225,4.063c-0.504,1.511-0.756,3.029-0.756,4.554
			c0,1.717,0.299,3.351,0.897,4.9c0.599,1.553,1.416,2.92,2.45,4.105c1.034,1.185,2.26,2.131,3.676,2.838
			c1.415,0.708,2.94,1.062,4.574,1.062c0.872,0,1.77-0.107,2.696-0.325c0.925-0.219,1.81-0.559,2.653-1.021
			c0.845-0.463,1.634-1.055,2.369-1.777c0.734-0.721,1.349-1.571,1.838-2.553l1.798,0.858c-0.49,1.089-1.158,2.056-2.002,2.898
			c-0.845,0.843-1.783,1.552-2.818,2.124c-1.035,0.571-2.131,1-3.287,1.286c-1.158,0.286-2.295,0.428-3.41,0.428
			c-1.987,0-3.805-0.435-5.452-1.306c-1.646-0.871-3.069-2.008-4.269-3.411c-1.198-1.401-2.131-2.994-2.797-4.777
			C204.81,42.733,204.476,40.916,204.476,39.063z"/>
		<path fill="#FFFFFF" d="M232.983,23.953h2.082v25.605c0,0.791,0.225,1.417,0.674,1.88s1.067,0.694,1.858,0.694
			c0.3,0,0.659-0.034,1.082-0.103c0.423-0.067,0.811-0.17,1.164-0.308l0.408,1.634c-0.463,0.191-1.035,0.349-1.715,0.471
			c-0.683,0.122-1.267,0.183-1.757,0.183c-1.145,0-2.063-0.346-2.757-1.04c-0.694-0.693-1.041-1.627-1.041-2.798L232.983,23.953
			L232.983,23.953z"/>
		<path fill="#FFFFFF" d="M251.075,54.176c-1.498,0-2.879-0.294-4.146-0.879s-2.362-1.381-3.288-2.389
			c-0.927-1.007-1.646-2.18-2.164-3.514c-0.519-1.334-0.775-2.735-0.775-4.206c0-1.497,0.265-2.912,0.796-4.247
			c0.53-1.334,1.259-2.506,2.186-3.514c0.926-1.007,2.021-1.803,3.288-2.389c1.267-0.585,2.634-0.879,4.104-0.879
			s2.832,0.294,4.084,0.879c1.252,0.586,2.349,1.382,3.288,2.389c0.938,1.008,1.675,2.18,2.206,3.514
			c0.53,1.335,0.796,2.75,0.796,4.247c0,1.471-0.266,2.872-0.796,4.206c-0.531,1.334-1.261,2.507-2.187,3.514
			c-0.926,1.008-2.021,1.804-3.286,2.389C253.914,53.882,252.546,54.176,251.075,54.176z M242.744,43.271
			c0,1.254,0.218,2.432,0.653,3.533c0.435,1.104,1.026,2.063,1.775,2.879c0.748,0.816,1.627,1.465,2.635,1.94
			c1.008,0.477,2.082,0.714,3.227,0.714s2.219-0.237,3.227-0.714c1.008-0.478,1.894-1.137,2.654-1.981
			c0.764-0.843,1.361-1.816,1.798-2.92c0.436-1.103,0.653-2.293,0.653-3.572c0-1.252-0.219-2.432-0.653-3.533
			c-0.437-1.104-1.034-2.068-1.798-2.899c-0.762-0.83-1.641-1.491-2.634-1.98c-0.993-0.49-2.063-0.734-3.206-0.734
			s-2.219,0.244-3.227,0.734c-1.009,0.489-1.886,1.157-2.635,2.002s-1.348,1.831-1.797,2.961
			C242.968,40.827,242.744,42.019,242.744,43.271z"/>
		<path fill="#FFFFFF" d="M271.7,54.176c-4.521,0-6.78-3.131-6.78-9.395V32.529h2.042v11.967c0,5.228,1.783,7.841,5.352,7.841
			c0.897,0,1.77-0.156,2.612-0.469c0.845-0.313,1.634-0.749,2.369-1.308s1.382-1.231,1.94-2.021c0.557-0.79,1-1.659,1.326-2.614
			V32.529h2.043v18.379c0,0.681,0.284,1.021,0.856,1.021v1.838c-0.137,0.027-0.259,0.041-0.367,0.041s-0.19,0-0.245,0
			c-0.545,0-1.027-0.17-1.449-0.511c-0.422-0.339-0.633-0.796-0.633-1.368v-3.186c-0.927,1.716-2.199,3.05-3.818,4.003
			C275.328,53.699,273.579,54.176,271.7,54.176z"/>
		<path fill="#FFFFFF" d="M296.612,54.176c-1.471,0-2.832-0.307-4.084-0.919c-1.252-0.613-2.335-1.43-3.247-2.451
			c-0.912-1.021-1.62-2.19-2.124-3.512s-0.756-2.689-0.756-4.105c0-1.469,0.246-2.871,0.735-4.205
			c0.49-1.334,1.171-2.506,2.042-3.513c0.87-1.008,1.899-1.812,3.083-2.41c1.186-0.599,2.484-0.898,3.9-0.898
			c0.926,0,1.797,0.137,2.613,0.409c0.816,0.271,1.579,0.633,2.288,1.082c0.708,0.449,1.348,0.974,1.919,1.571
			c0.571,0.601,1.063,1.239,1.471,1.92v-13.19h2.042v26.955c0,0.681,0.286,1.021,0.857,1.021v1.838
			c-0.163,0.027-0.301,0.048-0.408,0.063c-0.109,0.013-0.219,0.021-0.327,0.021c-0.544,0-1.009-0.211-1.39-0.633
			c-0.381-0.423-0.569-0.863-0.569-1.328v-2.367c-0.873,1.416-2.036,2.546-3.492,3.39C299.71,53.753,298.191,54.176,296.612,54.176z
			 M296.979,52.337c0.735,0,1.524-0.148,2.369-0.449c0.844-0.299,1.627-0.714,2.349-1.245c0.721-0.53,1.341-1.136,1.858-1.816
			c0.517-0.681,0.815-1.415,0.897-2.205v-6.984c-0.3-0.762-0.729-1.489-1.287-2.186c-0.558-0.693-1.19-1.292-1.897-1.796
			c-0.708-0.504-1.472-0.905-2.287-1.205c-0.816-0.3-1.607-0.449-2.369-0.449c-1.225,0-2.342,0.266-3.35,0.796
			c-1.008,0.531-1.864,1.227-2.572,2.084c-0.708,0.856-1.253,1.837-1.635,2.939c-0.381,1.102-0.57,2.239-0.57,3.409
			c0,1.227,0.218,2.384,0.652,3.473c0.436,1.089,1.042,2.056,1.817,2.898c0.776,0.846,1.674,1.513,2.695,2.002
			C294.673,52.092,295.782,52.337,296.979,52.337z"/>
		<path fill="#FFFFFF" d="M310.172,53.767v-2.399h1.445v2.399H310.172z"/>
		<path fill="#FFFFFF" d="M314.313,38.329v-2.451h1.667v2.451H314.313z M314.313,53.767V40.999h1.667v12.768H314.313z"/>
		<path fill="#FFFFFF" d="M324.359,54.011c-0.933,0-1.78-0.174-2.549-0.525c-0.77-0.352-1.435-0.829-1.997-1.434
			c-0.564-0.604-1.001-1.307-1.312-2.106c-0.311-0.802-0.466-1.644-0.466-2.524c0-0.898,0.159-1.747,0.479-2.548
			c0.318-0.801,0.76-1.503,1.323-2.107c0.563-0.604,1.229-1.087,1.996-1.445c0.768-0.359,1.609-0.539,2.524-0.539
			s1.76,0.18,2.536,0.539c0.774,0.358,1.444,0.842,2.01,1.445c0.563,0.604,1.004,1.308,1.323,2.107
			c0.316,0.801,0.478,1.649,0.478,2.548c0,0.882-0.155,1.724-0.466,2.524c-0.311,0.8-0.747,1.503-1.312,2.106
			c-0.563,0.604-1.232,1.082-2.01,1.434C326.144,53.837,325.29,54.011,324.359,54.011z M319.728,47.444
			c0,0.719,0.123,1.385,0.366,1.997c0.246,0.612,0.576,1.15,0.993,1.617c0.416,0.466,0.907,0.828,1.47,1.091
			c0.564,0.262,1.164,0.393,1.803,0.393c0.637,0,1.236-0.136,1.801-0.404c0.563-0.27,1.058-0.638,1.481-1.103
			c0.426-0.466,0.761-1.01,1.006-1.63c0.244-0.62,0.366-1.29,0.366-2.011c0-0.701-0.122-1.367-0.366-1.997
			c-0.245-0.628-0.58-1.176-1.006-1.642c-0.425-0.465-0.918-0.833-1.481-1.103c-0.563-0.271-1.164-0.404-1.801-0.404
			c-0.639,0-1.233,0.134-1.789,0.404c-0.557,0.27-1.046,0.641-1.47,1.113c-0.427,0.476-0.761,1.025-1.007,1.654
			C319.851,46.052,319.728,46.726,319.728,47.444z"/>
	</g>
	<g>
		<path fill="#FF9E5C" d="M60.045,57.352c0,1.464-0.808,2.651-1.804,2.651c-0.997,0-1.805-1.188-1.805-2.651
			c0,1.464-0.809,2.651-1.805,2.651s-1.804-1.188-1.804-2.651c0,1.464-0.808,2.651-1.805,2.651s-1.806-1.188-1.806-2.651
			c0-2.068,2.417-3.747,5.397-3.747c2.979,0,5.397,1.679,5.397,3.747H60.045z"/>
		<path fill="#FF9E5C" d="M47.735,57.352c0,1.464-0.809,2.651-1.805,2.651c-0.998,0-1.805-1.188-1.805-2.651
			c0,1.464-0.808,2.651-1.805,2.651c-0.996,0-1.805-1.188-1.805-2.651c0,1.464-0.809,2.651-1.805,2.651s-1.804-1.188-1.804-2.651
			c0-2.068,2.416-3.747,5.396-3.747s5.397,1.679,5.397,3.747H47.735z"/>
	</g>
</g>
</svg>
