<?xml version="1.0" encoding="utf-8"?>
<!-- Generator: Adobe Illustrator 16.0.0, SVG Export Plug-In . SVG Version: 6.00 Build 0)  -->
<!DOCTYPE svg PUBLIC "-//W3C//DTD SVG 1.1//EN" "http://www.w3.org/Graphics/SVG/1.1/DTD/svg11.dtd">
<svg version="1.1" id="Layer_1" xmlns="http://www.w3.org/2000/svg" xmlns:xlink="http://www.w3.org/1999/xlink" x="0px" y="0px"
	 width="187.255px" height="217.221px" viewBox="885 897.779 187.255 217.221" enable-background="new 885 897.779 187.255 217.221"
	 xml:space="preserve">
<path fill="#332B28" d="M1054.948,957.765c-3.502-10.769-9.123-20.518-16.706-28.976l0.744-0.668
	c7.677,8.563,13.366,18.433,16.912,29.335L1054.948,957.765z"/>
<path fill="#332B28" d="M1039.01,1037.518l-0.744-0.668c7.674-8.565,13.331-18.438,16.814-29.34l0.953,0.305
	C1052.506,1018.851,1046.779,1028.845,1039.01,1037.518z"/>
<path fill="#332B28" d="M1044.367,1010.554c-15.283,0-27.792-12.435-27.883-27.718l1-0.006
	c0.088,14.735,12.146,26.724,26.883,26.724c3.813,0,7.511-0.79,10.984-2.348l0.408,0.912
	C1052.157,1009.734,1048.324,1010.554,1044.367,1010.554z"/>
<path fill="#332B28" d="M1017.484,983h-0.5l-0.502-0.148l-0.002-0.143c0-15.377,12.51-27.909,27.887-27.909
	c3.904,0,7.691,0.789,11.259,2.364l-0.404,0.908c-3.438-1.52-7.09-2.29-10.854-2.29c-14.825,0-26.888,12.144-26.888,26.97
	L1017.484,983z"/>
<path fill="#332B28" d="M1055.761,1008.118l-0.407-0.912c9.659-4.331,15.901-13.963,15.901-24.539c0-10.64-6.293-20.295-16.033-24.6
	l0.404-0.914c10.103,4.464,16.629,14.479,16.629,25.514C1072.255,993.637,1065.78,1003.627,1055.761,1008.118z"/>
<path fill="#332B28" d="M1011.367,1067.554c-5.63,0-11.057-1.672-15.693-4.835l0.564-0.826c4.47,3.051,9.701,4.661,15.129,4.661
	c14.826,0,26.888-12.062,26.888-26.887c0-0.774-0.038-1.571-0.114-2.438l0.995-0.09c0.08,0.897,0.119,1.726,0.119,2.528
	C1039.255,1055.044,1026.744,1067.554,1011.367,1067.554z"/>
<path fill="#332B28" d="M984.484,1040h-0.5l-0.502-0.148l-0.002-0.143c0-15.377,12.51-27.909,27.887-27.909
	c14.529,0,26.468,10.894,27.769,25.351l-0.996,0.084c-1.254-13.938-12.764-24.451-26.771-24.451
	c-14.825,0-26.888,12.144-26.888,26.97L984.484,1040z"/>
<path fill="#332B28" d="M995.675,1062.719c-7.578-5.168-12.135-13.722-12.189-22.883l1-0.006c0.054,8.832,4.446,17.08,11.753,22.063
	L995.675,1062.719z"/>
<path fill="#332B28" d="M1011.367,953.554c-15.283,0-27.792-12.435-27.883-27.718l1-0.006c0.088,14.735,12.146,26.724,26.883,26.724
	c13.856,0,25.356-10.382,26.75-24.148l0.994,0.102C1037.667,942.785,1025.739,953.554,1011.367,953.554z"/>
<path fill="#332B28" d="M1039.111,928.506l-0.994-0.102c0.091-0.905,0.138-1.826,0.138-2.737c0-14.826-12.062-26.888-26.888-26.888
	c-5.574,0-10.926,1.696-15.478,4.906l-0.575-0.815c4.72-3.33,10.271-5.091,16.053-5.091c15.377,0,27.888,12.511,27.888,27.888
	C1039.255,926.611,1039.207,927.566,1039.111,928.506z"/>
<path fill="#332B28" d="M984.484,926h-0.5l-0.502-0.148l-0.002-0.143c0-9.047,4.424-17.591,11.834-22.818l0.575,0.808
	c-7.145,5.041-11.409,13.336-11.409,22.059L984.484,926z"/>
<path fill="#332B28" d="M1017.177,982.333"/>
<path fill="#332B28" d="M984.177,925.333"/>
<path fill="#332B28" d="M984.177,1039.333"/>
<path fill="#2F7C57" d="M1025.472,908.088c-0.284,1.773-1.284,3.423-2.915,4.469c-3.037,1.953-7.082,1.069-9.032-1.967
	c-1.494-2.327-1.322-5.24,0.2-7.354c-0.773-0.081-1.561-0.124-2.356-0.124c-3.168,0-6.183,0.655-8.918,1.835
	c-2.149,1.925-1.379,6.04,2.054,6.48c3.358,0.431,5.516,3.784,4.507,7.018c-1.239,3.987,4.009,6.695,6.539,3.374
	c2.052-2.694,6.033-2.882,8.33-0.396c2.834,3.068,7.799-0.123,6.19-3.974c-0.607-1.456-0.53-2.997,0.052-4.31
	C1028.839,911.227,1027.265,909.528,1025.472,908.088z"/>
<path fill="#2F7C57" d="M1000.49,1024.126c0.608,2.617-1.017,5.229-3.635,5.84c-1.898,0.443-3.789-0.304-4.92-1.745
	c-0.903,1.53-1.634,3.176-2.157,4.91c0.186,0.552,0.256,1.154,0.181,1.777c-0.37,3.085,3.832,4.359,5.236,1.587
	c1.139-2.244,4.025-2.918,6.042-1.406c2.485,1.863,5.688-1.14,3.991-3.74c-1.373-2.109-0.517-4.946,1.803-5.937
	c2.856-1.223,1.861-5.5-1.24-5.33c-1.232,0.067-2.344-0.422-3.125-1.229c-1.499,0.627-2.913,1.415-4.229,2.336
	C999.436,1021.854,1000.197,1022.87,1000.49,1024.126z"/>
<g>
	<path fill="#2F7C57" d="M903.947,974.801l-6.428-6.412l1.95-1.982l8.396,8.396l-8.396,8.396l-1.95-1.968L903.947,974.801z"/>
	<path fill="#2F7C57" d="M907.867,986v-3.05h15.283V986H907.867z"/>
</g>
<path fill="#332B28" d="M935.5,1009h-40c-5.79,0-10.5-4.71-10.5-10.5v-32c0-5.79,4.71-10.5,10.5-10.5h40c5.79,0,10.5,4.71,10.5,10.5
	v32C946,1004.29,941.29,1009,935.5,1009z M895.5,957c-5.238,0-9.5,4.262-9.5,9.5v32c0,5.238,4.262,9.5,9.5,9.5h40
	c5.238,0,9.5-4.262,9.5-9.5v-32c0-5.238-4.262-9.5-9.5-9.5H895.5z"/>
<rect x="945" y="982" fill="#332B28" width="72" height="1"/>
<path fill="#332B28" d="M997.377,1016.395l-6.396-11.168C983.125,991.502,968.438,983,952.63,983c-0.043,0-0.085,0-0.129,0
	l-7.5,0.012l-0.003-0.995l7.5-0.017c0.043,0,0.088,0,0.132,0c16.167,0,31.185,8.693,39.216,22.73l6.397,11.174L997.377,1016.395z"/>
<path fill="#332B28" d="M952.63,983c-0.044,0-0.087,0-0.132,0l-7.5-0.199l0.003-0.912l7.5,0.111c0.042,0,0.086,0,0.129,0
	c15.81,0,30.494-8.688,38.349-22.415l6.397-11.267l0.867,0.451l-6.397,11.334C983.814,974.141,968.796,983,952.63,983z"/>
<path fill="#332B28" d="M977.922,1064.833c-35.408,0-66.684-22.575-77.825-56.177l0.949-0.314
	c11.005,33.191,41.899,55.491,76.876,55.491c5.977,0,12.007-0.678,17.924-2.015l0.221,0.975
	C990.077,1064.146,983.973,1064.833,977.922,1064.833z"/>
<path fill="#332B28" d="M901.268,956.661l-0.945-0.322c11.329-33.2,42.514-55.506,77.6-55.506c5.934,0,11.918,0.658,17.789,1.957
	l-0.217,0.977c-5.8-1.282-11.712-1.934-17.572-1.934C943.264,901.833,912.459,923.867,901.268,956.661z"/>

<path fill="#2F7C57" d="M1032.646,1032.223c-0.308,0.167-0.611,0.366-0.907,0.609c-3.638,2.992-9.089,1.976-11.401-2.128
	c-2.857-5.058-10.604-2.324-9.65,3.404c0.772,4.646-2.834,8.857-7.543,8.813c-5.808-0.056-7.311,8.015-1.878,10.058
	c3.598,1.352,5.484,5.073,4.765,8.603c1.712,0.415,3.497,0.641,5.337,0.641c3.066,0,5.983-0.624,8.648-1.732
	c-4.571-1.195-7.514-5.731-6.634-10.453c0.92-4.937,5.67-8.19,10.604-7.271c3.868,0.724,6.692,3.797,7.297,7.467
	c1.678-3.152,2.639-6.743,2.639-10.563C1033.922,1037.056,1033.465,1034.555,1032.646,1032.223z"/>
<path fill="#2F7C57" d="M1053.473,962.032c-0.679-0.3-1.375-0.566-2.087-0.8c-0.796,2.896-3.846,4.66-6.821,3.759
	c-3.995-1.211-6.666,4.054-3.325,6.563c2.709,2.032,2.926,6.015,0.452,8.327c-3.047,2.856,0.181,7.803,4.021,6.163
	c3.113-1.33,6.668,0.474,7.438,3.771c0.948,4.066,6.844,3.743,7.346-0.399c0.381-3.135,3.305-5.236,6.324-4.713
	c0.062-0.671,0.102-1.348,0.102-2.035C1066.922,973.451,1061.393,965.532,1053.473,962.032z M1062.551,974.567
	c0.197,3.604-2.564,6.688-6.172,6.884c-3.604,0.198-6.686-2.567-6.883-6.171c-0.196-3.606,2.566-6.688,6.171-6.884
	C1059.273,968.2,1062.354,970.964,1062.551,974.567z"/>
<path fill="#2F7C57" d="M1051.34,1001.598c2.611-0.313,2.818-4.023,0.258-4.624c-2.076-0.485-3.207-2.727-2.366-4.687
	c1.032-2.418-2.076-4.449-3.875-2.534c-1.462,1.553-3.966,1.416-5.243-0.292c-1.577-2.104-4.896-0.431-4.135,2.087
	c0.616,2.043-0.758,4.144-2.873,4.396c-2.61,0.313-2.817,4.023-0.258,4.625c1.418,0.333,2.377,1.487,2.585,2.809
	c2.74,1.185,5.761,1.844,8.936,1.844c1.356,0,2.684-0.127,3.974-0.357C1048.406,1003.236,1049.616,1001.804,1051.34,1001.598z
	 M1044.078,1002.442c-2.029,1.025-4.504,0.212-5.528-1.815c-1.025-2.029-0.213-4.505,1.815-5.53
	c2.029-1.024,4.504-0.212,5.529,1.818C1046.92,998.941,1046.107,1001.418,1044.078,1002.442z"/>
<path fill="#2F7C57" d="M1032.042,990.847c-1.358-0.523-1.914-2.145-1.163-3.394c0.928-1.537-0.986-3.204-2.383-2.077
	c-1.133,0.914-2.814,0.584-3.521-0.691c-0.798-1.439-2.881-0.862-3.004,0.611c0.187,1.603,0.542,3.15,1.045,4.631
	c0.318-0.637,0.875-1.153,1.603-1.403c1.47-0.505,3.065,0.279,3.569,1.751c0.502,1.465-0.278,3.063-1.748,3.567
	c-0.545,0.188-1.107,0.194-1.627,0.058c0.935,1.622,2.063,3.116,3.355,4.451c0.596-0.272,1.035-0.883,0.908-1.697
	c-0.227-1.438,0.897-2.73,2.354-2.701C1033.229,993.983,1033.717,991.492,1032.042,990.847z"/>
<path fill="#2F7C57" d="M1020.582,946.251c1.716-0.769,3.31-1.757,4.766-2.91c-0.119-0.048-0.24-0.092-0.375-0.124
	c-2.076-0.486-3.207-2.727-2.367-4.687c1.033-2.418-2.075-4.449-3.875-2.534c-1.461,1.553-3.965,1.416-5.242-0.292
	c-1.577-2.105-4.896-0.431-4.135,2.087c0.616,2.043-0.758,4.143-2.872,4.396c-2.611,0.313-2.818,4.024-0.259,4.625
	c0.772,0.182,1.413,0.606,1.872,1.169c1.068,0.156,2.16,0.239,3.272,0.239c0.53,0,1.055-0.024,1.575-0.062
	c-0.41-0.347-0.761-0.778-1.019-1.288c-1.025-2.029-0.213-4.505,1.815-5.53s4.504-0.212,5.528,1.818
	c0.598,1.18,0.557,2.506,0.028,3.615C1019.73,946.611,1020.161,946.439,1020.582,946.251z"/>
<path fill="#2F7C57" d="M997.011,924.467c-1.357-0.523-1.914-2.145-1.163-3.394c0.928-1.537-0.985-3.204-2.383-2.077
	c-1.101,0.888-2.711,0.594-3.449-0.592c-0.437,1.283-0.763,2.614-0.963,3.989c0.166-0.1,0.346-0.186,0.535-0.251
	c1.47-0.504,3.066,0.28,3.57,1.751c0.502,1.466-0.279,3.063-1.748,3.568c-0.895,0.306-1.833,0.13-2.547-0.382
	c0.063,1.032,0.197,2.045,0.396,3.035c0.724,0.081,1.407,0.482,1.794,1.184c0.87,1.57,3.271,0.747,2.993-1.025
	c-0.226-1.438,0.898-2.729,2.354-2.7C998.198,927.604,998.686,925.112,997.011,924.467z"/>

	<rect x="977.25" y="1064" fill="#332B28" width="1" height="51"/>
	<rect x="977.25" y="894" fill="#332B28" width="1" height="7"/>
</svg>
