<?xml version="1.0" encoding="utf-8"?>
<!-- Generator: Adobe Illustrator 16.0.0, SVG Export Plug-In . SVG Version: 6.00 Build 0)  -->
<!DOCTYPE svg PUBLIC "-//W3C//DTD SVG 1.1//EN" "http://www.w3.org/Graphics/SVG/1.1/DTD/svg11.dtd">
<svg version="1.1" id="Layer_1" xmlns="http://www.w3.org/2000/svg" xmlns:xlink="http://www.w3.org/1999/xlink" x="0px" y="0px"
	 width="164px" height="265.5px" viewBox="0 0 164 265.5" enable-background="new 0 0 164 265.5" xml:space="preserve">
<path fill="#332B28" d="M82,164c-45.215,0-82-36.785-82-82S36.785,0,82,0s82,36.785,82,82S127.215,164,82,164z M82,1
	C37.336,1,1,37.337,1,82s36.336,81,81,81c44.663,0,81-36.337,81-81S126.663,1,82,1z"/>
<rect x="80.745" y="163.5" fill="#332B28" width="1" height="102"/>
<g>
	<path fill="#AA3149" d="M75.414,74.5h-26.53v24h26.53c0.224,0,0.399-0.114,0.521-0.341c0.203-0.373,0.18-0.903-0.055-1.263
		c-0.695-1.063-1.108-2.521-1.108-3.898c0-3.781,3.084-6.857,6.876-6.857s6.876,3.104,6.876,6.922c0,1.372-0.396,2.731-1.109,3.827
		c-0.235,0.359-0.257,0.894-0.054,1.271c0.123,0.227,0.298,0.341,0.521,0.341h26.621v-24H87.881c-0.563,0-1.058-0.319-1.358-0.877
		c-0.42-0.775-0.396-1.84,0.055-2.53c0.584-0.895,0.947-2.199,0.947-3.406c0-3.299-2.638-5.982-5.876-5.982
		c-3.24,0-5.876,2.613-5.876,5.826c0,1.259,0.389,2.732,0.945,3.587c0.449,0.688,0.475,1.742,0.061,2.508
		C76.476,74.181,75.979,74.5,75.414,74.5z"/>
	<path fill="#AA3149" d="M87.882,99.5c-0.592,0-1.103-0.315-1.398-0.865c-0.38-0.702-0.342-1.623,0.095-2.292
		c0.603-0.921,0.947-2.117,0.947-3.28c0-3.266-2.638-5.922-5.876-5.922c-3.24,0-5.876,2.628-5.876,5.857
		c0,1.191,0.354,2.445,0.946,3.353c0.437,0.669,0.476,1.587,0.097,2.285c-0.297,0.549-0.809,0.864-1.401,0.864h-26.53v16.156
		c0,4.39,3.561,7.949,7.95,7.949h49.721c4.391,0,7.948-3.561,7.948-7.949V99.5H87.882z"/>
	<path fill="#AA3149" d="M87.882,48.5c-0.592,0-1.103-0.315-1.398-0.865c-0.38-0.702-0.342-1.623,0.095-2.292
		c0.603-0.921,0.947-2.117,0.947-3.28c0-3.266-2.638-5.922-5.876-5.922c-3.24,0-5.876,2.628-5.876,5.857
		c0,1.191,0.354,2.445,0.946,3.353c0.437,0.669,0.476,1.587,0.097,2.285c-0.297,0.549-0.809,0.864-1.401,0.864h-18.03
		c-4.693,0-8.5,3.806-8.5,8.5v16.5h26.53c0.194,0,0.357-0.118,0.484-0.352c0.238-0.44,0.229-1.106-0.018-1.485
		c-0.664-1.016-1.108-2.677-1.108-4.134c0-3.765,3.084-6.826,6.876-6.826s6.876,3.133,6.876,6.982c0,1.412-0.415,2.891-1.109,3.953
		c-0.25,0.384-0.256,1.06-0.013,1.509c0.126,0.233,0.288,0.353,0.479,0.353h26.621V57c0-4.694-3.806-8.5-8.5-8.5H87.882L87.882,48.5
		z"/>
</g>
</svg>
