<?xml version="1.0" encoding="utf-8"?>
<!-- Generator: Adobe Illustrator 16.0.0, SVG Export Plug-In . SVG Version: 6.00 Build 0)  -->
<!DOCTYPE svg PUBLIC "-//W3C//DTD SVG 1.1//EN" "http://www.w3.org/Graphics/SVG/1.1/DTD/svg11.dtd">
<svg version="1.1" id="Layer_1" xmlns="http://www.w3.org/2000/svg" xmlns:xlink="http://www.w3.org/1999/xlink" x="0px" y="0px"
	 width="164px" height="214.5px" viewBox="0 0 164 214.5" enable-background="new 0 0 164 214.5" xml:space="preserve">
<rect x="80.745" y="47.5" fill="#332B28" width="1" height="116"/>
<path fill="#332B28" d="M81.745,163.5h-1v-37c0-6.959-4.456-13.053-11.086-15.162l-21.13-6.723
	c-7.049-2.242-11.784-8.719-11.784-16.115v-10h1v10c0,6.959,4.456,13.053,11.086,15.162l21.13,6.723
	c7.048,2.242,11.784,8.719,11.784,16.115V163.5z"/>
<path fill="#332B28" d="M81.745,163.5h-1v-15c0-7.382,4.622-14.14,11.502-16.814l13.633-5.302
	c6.499-2.526,10.865-8.911,10.865-15.884v-14h1v14c0,7.382-4.622,14.14-11.502,16.815l-13.633,5.301
	c-6.499,2.528-10.865,8.911-10.865,15.884V163.5z"/>
<path fill="#332B28" d="M82,164c-45.215,0-82-36.785-82-82S36.785,0,82,0s82,36.785,82,82S127.215,164,82,164z M82,1
	C37.336,1,1,37.337,1,82s36.336,81,81,81c44.663,0,81-36.337,81-81S126.663,1,82,1z"/>
<rect x="80.745" y="163.5" fill="#332B28" width="1" height="51"/>
<path fill="#893F89" d="M97.086,36.443c0.046-0.407,0.07-0.821,0.07-1.241c0-6.076-4.926-11.002-11.002-11.002
	c-4.532,0-8.423,2.741-10.109,6.655c-0.875-0.485-1.881-0.764-2.953-0.764c-3.368,0-6.098,2.73-6.098,6.1
	c0,0.064,0.003,0.132,0.005,0.196c-4.023,0.665-7.092,4.161-7.092,8.373c0,4.688,3.8,8.488,8.488,8.488h26.991
	c4.688,0,8.488-3.801,8.488-8.488C103.875,40.655,100.96,37.231,97.086,36.443z"/>
<path fill="#893F89" d="M51.284,77.518c0.222-0.606,0.344-1.263,0.344-1.945c0-3.128-2.535-5.662-5.662-5.662
	c-2.046,0-3.837,1.085-4.832,2.711c-1.478-2.63-4.294-4.407-7.524-4.407c-4.141,0-7.6,2.918-8.434,6.81
	c-3.413,0.337-6.079,3.215-6.079,6.717c0,3.727,3.021,6.749,6.75,6.749h25.057c3.033,0,5.493-2.46,5.493-5.493
	C56.396,80.09,54.14,77.713,51.284,77.518z"/>
<path fill="#893F89" d="M124.349,92.107c-0.552,0-1.084,0.077-1.589,0.224c-0.51-2.202-2.482-3.844-4.841-3.844
	c-1.859,0-3.479,1.021-4.332,2.531c-0.576-0.265-1.217-0.411-1.893-0.411c-2.51,0-4.544,2.033-4.544,4.544
	c0,0.141,0.007,0.279,0.019,0.418c-2.005,0.207-3.568,1.9-3.568,3.962c0,2.199,1.783,3.981,3.982,3.981h16.766
	c3.149,0,5.703-2.554,5.703-5.703C130.053,94.66,127.499,92.107,124.349,92.107z"/>
</svg>
