<?xml version="1.0" encoding="utf-8"?>
<!-- Generator: Adobe Illustrator 16.0.0, SVG Export Plug-In . SVG Version: 6.00 Build 0)  -->
<!DOCTYPE svg PUBLIC "-//W3C//DTD SVG 1.1//EN" "http://www.w3.org/Graphics/SVG/1.1/DTD/svg11.dtd">
<svg version="1.1" id="Layer_1" xmlns="http://www.w3.org/2000/svg" xmlns:xlink="http://www.w3.org/1999/xlink" x="0px" y="0px"
	 width="164.001px" height="214.501px" viewBox="0 0 164.001 214.501" enable-background="new 0 0 164.001 214.501"
	 xml:space="preserve">
<path fill="#9E663F" d="M49.969,14.769c-3.686-2.01-7.911-3.152-12.405-3.152c-14.331,0-25.949,11.618-25.949,25.947
	c0,4.494,1.143,8.722,3.152,12.407c4.4,8.067,12.959,13.543,22.796,13.543c14.331,0,25.948-11.618,25.948-25.95
	C63.513,27.726,58.037,19.169,49.969,14.769z M31.936,27.222h-1.379c-1.278,0-1.404,1.002-1.404,1.755v4.889
	c-0.025,2.031-1.805,2.532-2.607,2.632v0.05c0.802,0.075,2.583,0.351,2.607,2.783v4.738c0,0.752,0.125,1.755,1.404,1.755h1.379
	v2.256h-2.281c-1.078,0-3.209-1.078-3.209-3.435v-4.964c0-1.629-1.655-2.03-2.356-2.03v-2.256c0.702,0,2.356-0.376,2.356-1.83V28.4
	c0-2.356,2.131-3.435,3.209-3.435h2.281V27.222z M50.433,37.651c-0.702,0-2.356,0.376-2.356,1.83v5.165
	c0,2.356-2.131,3.435-3.209,3.435h-2.281v-2.256h1.378c1.279,0,1.404-1.003,1.404-1.755v-4.889c0.025-2.031,1.805-2.532,2.607-2.632
	v-0.05c-0.802-0.075-2.582-0.351-2.607-2.783v-4.738c0-0.752-0.125-1.755-1.404-1.755h-1.378v-2.256h2.281
	c1.078,0,3.209,1.078,3.209,3.435v4.964c0,1.629,1.655,2.031,2.356,2.031V37.651z"/>
<path fill="#9E663F" d="M137.969,102.769c-3.686-2.01-7.911-3.152-12.404-3.152c-14.332,0-25.949,11.618-25.949,25.947
	c0,4.494,1.143,8.722,3.153,12.407c4.399,8.067,12.957,13.543,22.796,13.543c14.33,0,25.948-11.618,25.948-25.95
	C151.512,115.726,146.037,107.169,137.969,102.769z M118.041,122.504l-8.525,3.625l8.525,3.625v2.325l-11.58-5.13v-1.641l11.58-5.13
	V122.504z M127.404,132.284h-2.485l6.543-17.052h2.485L127.404,132.284z M134.491,132.079v-2.325l8.525-3.625l-8.525-3.625v-2.325
	l11.58,5.13v1.641L134.491,132.079z"/>
<rect x="80.745" y="163.501" fill="#332B28" width="1" height="51"/>
<path fill="#332B28" d="M159.3,109.383l-0.942-0.334c3.081-8.697,4.644-17.798,4.644-27.048c0-44.663-36.337-81-81-81
	c-9.06,0-17.994,1.506-26.554,4.477l-0.328-0.944c8.666-3.007,17.71-4.531,26.882-4.531c45.215,0,82,36.785,82,82
	C164,91.365,162.419,100.578,159.3,109.383z"/>
<path fill="#332B28" d="M82,164.001c-45.215,0-82-36.785-82-82c0-9.172,1.524-18.216,4.532-26.882l0.943,0.328
	C2.506,64.008,1,72.941,1,82.001c0,44.663,36.336,81,81,81c9.25,0,18.351-1.563,27.048-4.645l0.334,0.943
	C100.577,162.42,91.364,164.001,82,164.001z"/>
<path fill="#332B28" d="M37.563,75.127c-13.76,0-26.403-7.512-32.998-19.604l0.878-0.479c6.419,11.771,18.728,19.083,32.12,19.083
	c20.16,0,36.563-16.402,36.563-36.563c0-13.393-7.312-25.699-19.083-32.119l0.479-0.877c12.093,6.595,19.604,19.237,19.604,32.996
	C75.126,58.276,58.275,75.127,37.563,75.127z"/>
<path fill="#332B28" d="M4.565,55.522C1.579,50.046,0,43.835,0,37.563C0,16.851,16.851,0,37.563,0
	c6.272,0,12.482,1.578,17.958,4.565l-0.479,0.877C49.713,2.536,43.668,1,37.563,1C17.401,1,0.999,17.402,0.999,37.563
	c0,6.105,1.536,12.149,4.443,17.479L4.565,55.522z"/>
<path fill="#332B28" d="M125.563,163.127c-5.806,0-11.381-1.295-16.569-3.85l0.44-0.896c5.052,2.485,10.479,3.746,16.129,3.746
	c20.16,0,36.563-16.402,36.563-36.563c0-5.652-1.261-11.078-3.746-16.127l0.896-0.44c2.555,5.187,3.85,10.761,3.85,16.567
	C163.126,146.276,146.275,163.127,125.563,163.127z"/>
<path fill="#332B28" d="M108.994,159.277C96.044,152.9,88,139.981,88,125.563C88,104.851,104.851,88,125.563,88
	c14.418,0,27.336,8.044,33.713,20.994l-0.896,0.44c-6.208-12.604-18.781-20.436-32.815-20.436
	c-20.161,0-36.563,16.402-36.563,36.563c0,14.035,7.83,26.609,20.437,32.817L108.994,159.277z"/>
<rect x="56.548" y="81.051" transform="matrix(-0.7071 -0.7071 0.7071 -0.7071 81.5558 196.8831)" fill="#332B28" width="50.011" height="1"/>
</svg>
