<?xml version="1.0" encoding="UTF-8" standalone="no"?>
<!DOCTYPE svg PUBLIC "-//W3C//DTD SVG 1.1//EN" "http://www.w3.org/Graphics/SVG/1.1/DTD/svg11.dtd">
<svg width="100%" height="100%" viewBox="0 0 129 163" version="1.1" xmlns="http://www.w3.org/2000/svg" xmlns:xlink="http://www.w3.org/1999/xlink" xml:space="preserve" style="fill-rule:evenodd;clip-rule:evenodd;stroke-linejoin:round;stroke-miterlimit:1.41421;">
    <g transform="matrix(1.72576,0,0,1.72576,-46.8117,-59.1497)">
        <g>
            <g>
                <g transform="matrix(1,0,0,1,-8936.7,-7324.44)">
                    <path d="M8968.37,7400.51L8973.59,7400.51C8975.02,7400.51 8976.08,7400.13 8976.79,7399.36C8977.49,7398.6 8977.85,7397.63 8977.85,7396.46C8977.85,7395.3 8977.49,7394.32 8976.78,7393.54C8976.07,7392.76 8975.01,7392.37 8973.59,7392.37L8968.37,7392.37L8968.37,7400.51ZM8968.37,7402.76L8968.37,7411.22L8965.52,7411.22L8965.52,7390.12L8973.59,7390.12C8975.84,7390.12 8977.59,7390.7 8978.83,7391.86C8980.08,7393.02 8980.7,7394.55 8980.7,7396.44C8980.7,7398.36 8980.08,7399.9 8978.83,7401.04C8977.59,7402.18 8975.84,7402.76 8973.59,7402.76L8968.37,7402.76Z" style="fill:white;fill-rule:nonzero;"/>
                </g>
                <g transform="matrix(1,0,0,1,-8936.7,-7324.44)">
                    <path d="M9011,7411.22L9008.14,7411.22L8997.99,7394.9L8997.9,7394.93L8997.9,7411.22L8995.05,7411.22L8995.05,7390.12L8997.9,7390.12L9008.05,7406.41L9008.14,7406.38L9008.14,7390.12L9011,7390.12L9011,7411.22Z" style="fill:white;fill-rule:nonzero;"/>
                </g>
                <g transform="matrix(1,0,0,1,-8936.7,-7324.44)">
                    <path d="M9032.29,7401.44L9022.62,7401.44L9022.62,7408.97L9033.77,7408.97L9033.77,7411.22L9019.77,7411.22L9019.77,7390.12L9033.61,7390.12L9033.61,7392.37L9022.62,7392.37L9022.62,7399.19L9032.29,7399.19L9032.29,7401.44Z" style="fill:white;fill-rule:nonzero;"/>
                </g>
                <g transform="matrix(1,0,0,1,-8936.7,-7324.44)">
                    <path d="M8970.34,7450.76C8970.34,7450.38 8970.2,7450.05 8969.91,7449.79C8969.61,7449.53 8969.1,7449.31 8968.35,7449.13C8967.46,7448.92 8966.76,7448.6 8966.25,7448.19C8965.75,7447.77 8965.5,7447.24 8965.5,7446.61C8965.5,7445.95 8965.77,7445.4 8966.31,7444.95C8966.85,7444.51 8967.56,7444.29 8968.42,7444.29C8969.35,7444.29 8970.09,7444.54 8970.64,7445.05C8971.19,7445.56 8971.45,7446.15 8971.43,7446.82L8971.42,7446.86L8970.32,7446.86C8970.32,7446.36 8970.16,7445.96 8969.83,7445.65C8969.5,7445.35 8969.03,7445.19 8968.42,7445.19C8967.85,7445.19 8967.41,7445.32 8967.1,7445.58C8966.8,7445.84 8966.65,7446.18 8966.65,7446.59C8966.65,7446.96 8966.81,7447.27 8967.14,7447.52C8967.47,7447.76 8968.01,7447.98 8968.75,7448.16C8969.64,7448.39 8970.32,7448.71 8970.79,7449.14C8971.26,7449.57 8971.49,7450.11 8971.49,7450.75C8971.49,7451.43 8971.21,7451.98 8970.65,7452.4C8970.09,7452.81 8969.36,7453.02 8968.46,7453.02C8967.61,7453.02 8966.86,7452.79 8966.21,7452.33C8965.56,7451.87 8965.24,7451.25 8965.26,7450.49L8965.28,7450.45L8966.37,7450.45C8966.37,7450.99 8966.57,7451.41 8966.97,7451.69C8967.37,7451.98 8967.87,7452.12 8968.46,7452.12C8969.04,7452.12 8969.5,7451.99 8969.83,7451.75C8970.17,7451.51 8970.34,7451.18 8970.34,7450.76" style="fill:rgb(148,148,148);fill-rule:nonzero;"/>
                </g>
                <g transform="matrix(1,0,0,1,-8936.7,-7324.44)">
                    <path d="M8979.4,7447.89C8979.4,7447.11 8979.19,7446.48 8978.77,7445.98C8978.35,7445.48 8977.78,7445.23 8977.07,7445.23C8976.41,7445.23 8975.87,7445.48 8975.47,7445.98C8975.08,7446.48 8974.88,7447.11 8974.88,7447.89L8974.88,7449.41C8974.88,7450.2 8975.08,7450.84 8975.47,7451.34C8975.87,7451.83 8976.41,7452.08 8977.07,7452.08C8977.79,7452.08 8978.35,7451.83 8978.77,7451.34C8979.19,7450.84 8979.4,7450.2 8979.4,7449.41L8979.4,7447.89ZM8980.54,7449.41C8980.54,7450.45 8980.22,7451.31 8979.58,7451.99C8978.94,7452.68 8978.1,7453.02 8977.07,7453.02C8976.08,7453.02 8975.28,7452.68 8974.66,7451.99C8974.04,7451.31 8973.73,7450.45 8973.73,7449.41L8973.73,7447.9C8973.73,7446.87 8974.04,7446.01 8974.66,7445.32C8975.28,7444.63 8976.08,7444.29 8977.07,7444.29C8978.1,7444.29 8978.94,7444.63 8979.58,7445.32C8980.22,7446 8980.54,7446.86 8980.54,7447.9L8980.54,7449.41Z" style="fill:rgb(148,148,148);fill-rule:nonzero;"/>
                </g>
                <g transform="matrix(1,0,0,1,-8936.7,-7324.44)">
                    <path d="M8988.23,7449.14L8984.36,7449.14L8984.36,7452.9L8983.21,7452.9L8983.21,7444.41L8988.83,7444.41L8988.83,7445.31L8984.36,7445.31L8984.36,7448.24L8988.23,7448.24L8988.23,7449.14Z" style="fill:rgb(148,148,148);fill-rule:nonzero;"/>
                </g>
                <g transform="matrix(1,0,0,1,-8936.7,-7324.44)">
                    <path d="M8996.99,7445.31L8994.26,7445.31L8994.26,7452.9L8993.11,7452.9L8993.11,7445.31L8990.39,7445.31L8990.39,7444.41L8996.99,7444.41L8996.99,7445.31Z" style="fill:rgb(148,148,148);fill-rule:nonzero;"/>
                </g>
                <g transform="matrix(1,0,0,1,-8936.7,-7324.44)">
                    <path d="M9000.98,7449.96L9001.14,7451.02L9001.17,7451.03L9001.4,7449.96L9002.96,7444.41L9003.97,7444.41L9005.54,7449.96L9005.77,7451.05L9005.81,7451.05L9005.98,7449.96L9007.24,7444.41L9008.39,7444.41L9006.34,7452.9L9005.32,7452.9L9003.65,7447.01L9003.49,7446.25L9003.46,7446.25L9003.31,7447.01L9001.61,7452.9L9000.59,7452.9L8998.54,7444.41L8999.69,7444.41L9000.98,7449.96Z" style="fill:rgb(148,148,148);fill-rule:nonzero;"/>
                </g>
                <g transform="matrix(1,0,0,1,-8936.7,-7324.44)">
                    <path d="M9011.93,7449.75L9014.79,7449.75L9013.39,7445.89L9013.35,7445.89L9011.93,7449.75ZM9015.13,7450.71L9011.57,7450.71L9010.77,7452.9L9009.6,7452.9L9012.88,7444.41L9013.86,7444.41L9017.09,7452.9L9015.92,7452.9L9015.13,7450.71Z" style="fill:rgb(148,148,148);fill-rule:nonzero;"/>
                </g>
                <g transform="matrix(1,0,0,1,-8936.7,-7324.44)">
                    <path d="M9020.36,7448.32L9022.17,7448.32C9022.82,7448.32 9023.29,7448.19 9023.57,7447.95C9023.86,7447.7 9024,7447.32 9024,7446.82C9024,7446.34 9023.86,7445.97 9023.59,7445.71C9023.31,7445.45 9022.88,7445.32 9022.29,7445.32L9020.36,7445.32L9020.36,7448.32ZM9020.36,7449.22L9020.36,7452.9L9019.22,7452.9L9019.22,7444.42L9022.29,7444.42C9023.22,7444.42 9023.93,7444.62 9024.42,7445.03C9024.91,7445.44 9025.15,7446.04 9025.15,7446.83C9025.15,7447.26 9025.04,7447.64 9024.81,7447.97C9024.58,7448.29 9024.25,7448.55 9023.82,7448.74C9024.28,7448.89 9024.62,7449.13 9024.82,7449.47C9025.03,7449.81 9025.13,7450.23 9025.13,7450.74L9025.13,7451.53C9025.13,7451.8 9025.16,7452.03 9025.22,7452.24C9025.27,7452.45 9025.38,7452.63 9025.52,7452.76L9025.52,7452.9L9024.34,7452.9C9024.18,7452.77 9024.09,7452.57 9024.04,7452.32C9024,7452.06 9023.98,7451.8 9023.98,7451.52L9023.98,7450.75C9023.98,7450.29 9023.84,7449.92 9023.58,7449.64C9023.31,7449.36 9022.95,7449.22 9022.5,7449.22L9020.36,7449.22Z" style="fill:rgb(148,148,148);fill-rule:nonzero;"/>
                </g>
                <g transform="matrix(1,0,0,1,-8936.7,-7324.44)">
                    <path d="M9033.12,7448.96L9029.23,7448.96L9029.23,7451.99L9033.72,7451.99L9033.72,7452.9L9028.08,7452.9L9028.08,7444.41L9033.65,7444.41L9033.65,7445.31L9029.23,7445.31L9029.23,7448.06L9033.12,7448.06L9033.12,7448.96Z" style="fill:rgb(148,148,148);fill-rule:nonzero;"/>
                </g>
                <g transform="matrix(1,0,0,1,-8936.7,-7324.44)">
                    <path d="M8972.28,7433.19L8972.76,7434.85L8972.84,7434.85L8973.32,7433.19L8978.77,7417.34L8981.85,7417.34L8974.01,7438.43L8971.57,7438.43L8963.73,7417.34L8966.83,7417.34L8972.28,7433.19Z" style="fill:white;fill-rule:nonzero;"/>
                </g>
                <g transform="matrix(1,0,0,1,-8936.7,-7324.44)">
                    <path d="M9008.83,7428.65L8999.16,7428.65L8999.16,7436.19L9010.3,7436.19L9010.3,7438.43L8996.31,7438.43L8996.31,7417.34L9010.14,7417.34L9010.14,7419.58L8999.16,7419.58L8999.16,7426.41L9008.83,7426.41L9008.83,7428.65Z" style="fill:white;fill-rule:nonzero;"/>
                </g>
                <g transform="matrix(1,0,0,1,-8936.7,-7324.44)">
                    <path d="M9020.25,7431.13L9020.64,7433.77L9020.73,7433.78L9021.3,7431.13L9025.16,7417.34L9027.68,7417.34L9031.58,7431.13L9032.16,7433.84L9032.25,7433.84L9032.67,7431.13L9035.81,7417.34L9038.67,7417.34L9033.58,7438.43L9031.03,7438.43L9026.87,7423.8L9026.5,7421.9L9026.41,7421.9L9026.05,7423.8L9021.82,7438.43L9019.27,7438.43L9014.2,7417.34L9017.04,7417.34L9020.25,7431.13Z" style="fill:white;fill-rule:nonzero;"/>
                </g>
                <g transform="matrix(1,0,0,1,-8936.7,-7324.44)">
                    <clipPath id="_clip1">
                        <path d="M8985.79,7359.9C8985.15,7361.66 8984,7362.79 8982.35,7363.27C8980.99,7363.86 8981.76,7365.91 8983.07,7365.92C8983.26,7365.92 8983.46,7365.92 8983.66,7365.92C8981.84,7366.84 8979.95,7367.62 8978.13,7368.39C8976.82,7368.95 8977.49,7371.14 8978.85,7371.05C8981.19,7370.89 8983.55,7370.55 8985.89,7370.05C8981.18,7372.51 8976.23,7374.57 8971.38,7376.37C8969.66,7377.02 8970.33,7379.44 8972.14,7379.12C8975.54,7378.52 8978.95,7377.89 8982.35,7377.15C8980.59,7377.81 8978.81,7378.41 8977.05,7378.96C8975.58,7379.41 8975.77,7381.95 8977.43,7381.75C8981.25,7381.3 8985.09,7380.76 8988.9,7380.11C8986.72,7380.79 8984.51,7381.33 8982.3,7381.7C8980.7,7381.97 8981.09,7384.56 8982.68,7384.5C8985.45,7384.39 8986.26,7384.4 8986.26,7387.22L8986.26,7438.43L8989.12,7438.43L8989.12,7387.22C8989.12,7385.49 8988.81,7384.15 8988.2,7383.3C8993.22,7381.91 8998.13,7379.78 9002.47,7377.1C9003.84,7376.26 9002.95,7374.07 9001.38,7374.5C8997.6,7375.52 8993.77,7376.36 8989.91,7377.06C8992.42,7375.85 8994.82,7374.48 8997.05,7372.9C8998.27,7372.03 8997.56,7369.67 8995.95,7370.29C8992.45,7371.65 8988.82,7372.7 8985.15,7373.59C8989.65,7371.37 8993.96,7368.81 8997.88,7365.78C8997.89,7365.77 8997.9,7365.76 8997.91,7365.76C8997.91,7365.76 8997.91,7365.76 8997.91,7365.75C8998,7365.68 8998.1,7365.61 8998.2,7365.53C8999.52,7364.49 8997.84,7362.58 8996.48,7363.3C8993.91,7364.65 8991.1,7365.74 8988.22,7366.55C8989.23,7365.89 8990.19,7365.17 8991.08,7364.35C8992.32,7363.2 8990.74,7361.42 8989.35,7362.11C8988.86,7362.35 8988.33,7362.53 8987.79,7362.67C8988.12,7362.1 8988.38,7361.45 8988.54,7360.65C8988.76,7359.57 8987.85,7358.87 8987.02,7358.87C8986.46,7358.87 8985.94,7359.18 8985.79,7359.9Z"/>
                    </clipPath>
                    <g clip-path="url(#_clip1)">
                        <path d="M9003.84,7358.87L9003.84,7438.43L8969.66,7438.43L8969.66,7358.87L9003.84,7358.87Z" style="fill:url(#_Linear2);fill-rule:nonzero;"/>
                    </g>
                </g>
            </g>
        </g>
    </g>
    <defs>
        <linearGradient id="_Linear2" x1="0" y1="0" x2="1" y2="0" gradientUnits="userSpaceOnUse" gradientTransform="matrix(-1.2e-06,26.3424,-26.3424,-1.2e-06,8986.76,7363.79)"><stop offset="0" style="stop-color:rgb(32,105,38);stop-opacity:1"/><stop offset="1" style="stop-color:white;stop-opacity:1"/></linearGradient>
    </defs>
</svg>
