<svg width="110" height="100" viewBox="5 -20 100 100" fill="none" xmlns="http://www.w3.org/2000/svg">
<g clip-path="url(#clip0_1885_32841)">
<path d="M25.0172 1.34598C26.3495 2.1753 27.2876 3.19495 27.845 4.37774C28.6743 6.28109 29.5988 8.34758 30.6048 10.5908C31.6109 12.834 32.6305 15.1045 33.6366 17.4021C34.6427 19.6997 35.6215 21.9429 36.546 24.1182C37.4705 26.2934 38.3134 28.2919 39.0475 30.1001C39.7817 31.9083 40.3663 33.4446 40.8013 34.7089C41.2364 35.9733 41.4539 36.8162 41.4539 37.2105C41.4539 37.8902 41.3587 38.5428 41.182 39.1954C41.0053 39.848 40.679 40.4461 40.2031 40.9764C39.7273 41.5066 39.0611 41.9416 38.2182 42.2543C37.3617 42.567 36.2605 42.7302 34.9146 42.7302C33.487 42.7302 32.3314 42.5398 31.4342 42.1592C30.5369 41.7785 29.8027 41.3027 29.2045 40.7045C28.6063 40.1063 28.1169 39.4809 27.7226 38.8283C27.3284 38.1757 26.9205 37.5503 26.499 36.9521C26.0776 36.354 25.6018 35.8781 25.0715 35.4974C24.5413 35.1168 23.8072 34.9264 22.8963 34.9264H19.0896C17.9748 34.9264 17.1047 35.1168 16.4385 35.4974C15.7859 35.8781 15.2557 36.354 14.8343 36.9521C14.4128 37.5503 14.0321 38.1757 13.6787 38.8283C13.3252 39.4809 12.8629 40.1063 12.3055 40.7045C11.7481 41.3027 11.0276 41.7785 10.1303 42.1592C9.23298 42.5398 8.03659 42.7302 6.52751 42.7302C4.31147 42.7302 2.68004 42.2407 1.64679 41.2483C0.613546 40.2558 0.0969238 39.0866 0.0969238 37.7407C0.0969238 37.2241 0.300854 36.3268 0.722309 35.0352C1.14376 33.7436 1.70117 32.2074 2.42172 30.4264C3.16947 28.6318 3.98519 26.6605 4.89607 24.4716C5.80696 22.2964 6.77223 20.0396 7.80547 17.7284C8.83872 15.4036 9.87196 13.0923 10.8916 10.7675C11.9249 8.44275 12.9173 6.21311 13.869 4.07865C14.4264 2.85507 15.3509 1.8762 16.6288 1.16925C17.9204 0.462289 19.3479 0.0952148 20.9386 0.0952148C22.3253 0.0952148 23.6848 0.51667 25.0172 1.34598ZM73.1038 1.54991C74.1371 2.48799 74.6537 3.68438 74.6537 5.15268C74.6537 5.98199 74.4498 7.06962 74.0283 8.42915C73.6068 9.77509 73.0766 11.2978 72.4241 13.0108C71.7715 14.7102 71.0101 16.5592 70.1672 18.5441C69.3107 20.529 68.4542 22.5411 67.5841 24.6076C66.4013 27.4218 65.3681 29.9506 64.5252 32.1938C63.6687 34.437 62.7986 36.3404 61.9149 37.9038C61.0176 39.4673 60.0523 40.6773 59.0055 41.5338C57.9586 42.3903 56.6535 42.8117 55.1172 42.8117C53.5266 42.8117 52.2078 42.4719 51.161 41.7649C50.1141 41.0715 49.1625 40.0247 48.306 38.6108C47.4494 37.2105 46.6201 35.4295 45.8044 33.295C44.9887 31.1605 44.037 28.6182 42.9222 25.6816C42.0929 23.4656 41.2364 21.2903 40.3663 19.1695C39.4962 17.0486 38.7077 15.0909 37.9871 13.3099C37.2801 11.5289 36.6955 9.92464 36.2333 8.52432C35.7847 7.124 35.5535 6.02278 35.5535 5.22065C35.5535 3.39888 36.1653 2.09373 37.4025 1.2916C38.6261 0.503075 40.1623 0.10881 41.9841 0.10881C43.6428 0.10881 44.9479 0.31274 45.8724 0.734195C46.7969 1.15565 47.6126 1.69946 48.2788 2.36563C48.7546 2.84147 49.2304 3.53483 49.7063 4.44572C50.1821 5.35661 50.6308 6.36266 51.0386 7.45029C51.4601 8.53791 51.8679 9.63913 52.2894 10.754C52.7108 11.8688 53.0915 12.8884 53.445 13.8129C53.7985 14.751 54.1519 15.4987 54.4918 16.0697C54.8317 16.6407 55.1308 16.9262 55.4163 16.9262C55.729 16.9262 56.0553 16.6407 56.3952 16.0697C56.7351 15.4987 57.0749 14.751 57.442 13.8401C57.7955 12.9292 58.1626 11.9231 58.5432 10.8355C58.9239 9.7479 59.3182 8.66027 59.726 7.59983C60.1339 6.5394 60.5825 5.54694 61.0312 4.66324C61.4798 3.76595 61.9557 3.08619 62.4315 2.61035C62.8665 2.1753 63.288 1.80823 63.7095 1.50913C64.1309 1.21003 64.5796 0.965316 65.0826 0.761386C65.572 0.557456 66.143 0.421503 66.782 0.31274C67.421 0.217573 68.1823 0.163191 69.1068 0.163191C70.7246 0.163191 72.0706 0.625432 73.1038 1.54991ZM93.2929 1.34598C94.6252 2.1753 95.5633 3.19495 96.1207 4.37774C96.95 6.28109 97.8745 8.34758 98.8806 10.5908C99.8866 12.834 100.906 15.1045 101.912 17.4021C102.918 19.6997 103.897 21.9429 104.822 24.1182C105.746 26.2934 106.589 28.2919 107.323 30.1001C108.057 31.9083 108.642 33.4446 109.077 34.7089C109.512 35.9733 109.73 36.8162 109.73 37.2105C109.73 37.8902 109.634 38.5428 109.458 39.1954C109.281 39.848 108.955 40.4461 108.479 40.9764C108.003 41.5066 107.337 41.9416 106.494 42.2543C105.637 42.567 104.536 42.7302 103.19 42.7302C101.763 42.7302 100.607 42.5398 99.7099 42.1592C98.8126 41.7785 98.0784 41.3027 97.4802 40.7045C96.882 40.1063 96.3926 39.4809 95.9984 38.8283C95.6041 38.1757 95.1962 37.5503 94.7748 36.9521C94.3533 36.354 93.8775 35.8781 93.3473 35.4974C92.8171 35.1168 92.0829 34.9264 91.172 34.9264H87.3653C86.2505 34.9264 85.3804 35.1168 84.7142 35.4974C84.0617 35.8781 83.5314 36.354 83.11 36.9521C82.6885 37.5503 82.3079 38.1757 81.9544 38.8283C81.6009 39.4809 81.1387 40.1063 80.5813 40.7045C80.0238 41.3027 79.3033 41.7785 78.406 42.1592C77.5087 42.5398 76.3123 42.7302 74.8032 42.7302C72.5872 42.7302 70.9558 42.2407 69.9225 41.2483C68.8893 40.2558 68.3727 39.0866 68.3727 37.7407C68.3727 37.2241 68.5766 36.3268 68.998 35.0352C69.4195 33.7436 69.9769 32.2074 70.6975 30.4264C71.4044 28.6454 72.2201 26.6605 73.131 24.4852C74.0419 22.31 75.0072 20.0532 76.0404 17.7419C77.0737 15.4171 78.1069 13.1059 79.1266 10.7811C80.1598 8.45634 81.1523 6.22671 82.1039 4.09224C82.6613 2.86866 83.5858 1.8898 84.8638 1.18284C86.1553 0.475884 87.5828 0.10881 89.1735 0.10881C90.601 0.0952148 91.9605 0.51667 93.2929 1.34598Z" fill="#4B4B77"/>
<path d="M20.8026 59.9011C21.1289 59.9011 21.4416 59.7243 21.5911 59.4252C21.5911 59.4116 22.8827 57.0325 24.1606 54.2182C24.7996 52.8043 25.4522 51.2952 25.9416 49.8949C26.1863 49.188 26.3903 48.5218 26.5398 47.91C26.6894 47.2846 26.7845 46.7136 26.7845 46.197C26.7845 44.1713 26.0368 42.3631 24.786 41.1123C23.7392 40.0655 22.3253 39.4265 20.789 39.4265C19.2527 39.4265 17.8388 40.0655 16.792 41.1123C15.5548 42.3495 14.7935 44.1577 14.7935 46.197C14.7935 46.7272 14.8886 47.2982 15.0382 47.91C15.2965 48.9976 15.7451 50.2348 16.2482 51.5128C17.7844 55.333 19.9869 59.4116 19.9869 59.4388C20.1636 59.7107 20.4627 59.9011 20.8026 59.9011ZM89.0783 59.9011C89.4046 59.9011 89.7173 59.7243 89.8669 59.4252C89.8669 59.4116 91.1584 57.0325 92.4364 54.2182C93.0753 52.8043 93.7279 51.2952 94.2174 49.8949C94.4621 49.188 94.666 48.5218 94.8156 47.91C94.9651 47.2846 95.0603 46.7136 95.0603 46.197C95.0603 44.1713 94.3125 42.3631 93.0618 41.1123C92.0149 40.0655 90.601 39.4265 89.0647 39.4265C87.5285 39.4265 86.1145 40.0655 85.0677 41.1123C83.8305 42.3495 83.0692 44.1577 83.0692 46.197C83.0692 46.7272 83.1644 47.2982 83.3139 47.91C83.5722 48.9976 84.0209 50.2348 84.5239 51.5128C86.0602 55.333 88.2626 59.4116 88.2626 59.4388C88.4393 59.7107 88.7384 59.9011 89.0783 59.9011Z" fill="#E0C7C1"/>
</g>
<defs>
<clipPath id="clip0_1885_32841">
<rect width="109.714" height="60" fill="white" transform="translate(0.0424805)"/>
</clipPath>
</defs>
</svg>
