<svg version="1.1" id="Layer_1" xmlns:x="ns_extend;" xmlns:i="ns_ai;" xmlns:graph="ns_graphs;" xmlns="http://www.w3.org/2000/svg" xmlns:xlink="http://www.w3.org/1999/xlink" x="0px" y="0px" viewBox="0 0 66.4 65" style="enable-background:new 0 0 66.4 65;" xml:space="preserve">
 <style type="text/css">
  .st0{fill:#3DDC91;}
 </style>
 <metadata>
  <sfw xmlns="ns_sfw;">
   <slices>
   </slices>
   <sliceSourceBounds bottomLeftOrigin="true" height="65" width="66.4" x="-168.7" y="0.4">
   </sliceSourceBounds>
  </sfw>
 </metadata>
 <g>
  <g>
   <g>
    <path class="st0" d="M27.7,32.5h-7.8l5.5-16.3h13.4L44.3,0H19.4c-3.6,0-6.7,2.2-7.9,5.6L0.4,38.1c-0.8,2.5-0.4,5.2,1.1,7.3
				c1.6,2.1,4.1,3.4,6.7,3.4h19.4l5.5-16.3H27.7L27.7,32.5z">
    </path>
    <path class="st0" d="M64.8,19.6c-1.6-2.1-4.1-3.4-6.7-3.4H38.7l-5.5,16.3h13.4L41,48.8H27.7L22.1,65H47c3.6,0,6.7-2.2,7.9-5.6
				L66,26.9C66.8,24.5,66.4,21.7,64.8,19.6L64.8,19.6z">
    </path>
   </g>
  </g>
 </g>
</svg>