<?xml version="1.0" ?><!DOCTYPE svg  PUBLIC '-//W3C//DTD SVG 1.1//EN'  'http://www.w3.org/Graphics/SVG/1.1/DTD/svg11.dtd'><svg enable-background="new 0 0 155 155" height="155px" id="Layer_1" version="1.1" viewBox="0 0 155 155" width="155px" xml:space="preserve" xmlns="http://www.w3.org/2000/svg" xmlns:xlink="http://www.w3.org/1999/xlink"><g><g><defs><circle cx="77.5" cy="77.5" id="SVGID_1_" r="77.5"/></defs><use fill="#3E4959" overflow="visible" xlink:href="#SVGID_1_"/><clipPath id="SVGID_2_"><use overflow="visible" xlink:href="#SVGID_1_"/></clipPath><g clip-path="url(#SVGID_2_)"><g><rect fill="#FFFFFF" height="85.711" width="68.568" x="43.217" y="52.145"/><g><g><path d="M46.643,35c-0.88,0-1.756,0.335-2.424,1.004c-0.672,0.671-1.002,1.549-1.002,2.425v13.716h68.568        V38.429c0-0.876-0.335-1.754-1.004-2.425c-0.67-0.669-1.546-1.004-2.426-1.004H46.643z" fill="#F15424"/><path d="M46.643,155c-0.88,0-1.756-0.338-2.424-1.004c-0.672-0.671-1.002-1.547-1.002-2.426v-13.715h68.568        v13.715c0,0.879-0.335,1.755-1.004,2.426c-0.67,0.666-1.546,1.004-2.426,1.004H46.643z" fill="#F15424"/></g></g><g><rect fill="#FFFFFF" height="3.43" width="25.712" x="46.643" y="41.855"/><rect fill="#FFFFFF" height="3.43" width="3.428" x="104.928" y="41.855"/></g><g><g><g><rect fill="#CCCBCA" height="3.43" width="3.428" x="104.928" y="127.568"/><rect fill="#CCCBCA" height="3.43" width="18.856" x="53.498" y="127.568"/><rect fill="#CCCBCA" height="3.43" width="3.428" x="46.643" y="127.568"/></g><g><rect fill="#CCCBCA" height="3.429" width="3.428" x="104.928" y="110.428"/><rect fill="#CCCBCA" height="3.429" width="18.854" x="46.643" y="110.428"/></g><g><g><rect fill="#CCCBCA" height="3.433" width="3.428" x="104.928" y="93.283"/><rect fill="#CCCBCA" height="3.433" width="18.856" x="53.498" y="93.283"/><rect fill="#CCCBCA" height="3.433" width="3.428" x="46.643" y="93.283"/></g></g><g><g><rect fill="#CCCBCA" height="3.428" width="18.856" x="53.498" y="59"/><rect fill="#CCCBCA" height="3.428" width="3.428" x="46.643" y="59"/><rect fill="#CCCBCA" height="3.428" width="3.428" x="104.928" y="59"/></g></g><g><g><rect fill="#F15424" height="3.43" width="3.428" x="104.928" y="76.141"/><rect fill="#F15424" height="3.43" width="18.854" x="46.643" y="76.141"/></g></g></g></g></g><g><g><rect fill="#CCCBCA" height="1.159" width="68.568" x="43.217" y="68.706"/><rect fill="#CCCBCA" height="1.159" width="68.568" x="43.217" y="85.849"/><rect fill="#CCCBCA" height="1.158" width="68.568" x="43.217" y="102.99"/><rect fill="#CCCBCA" height="1.159" width="68.568" x="43.217" y="120.133"/></g></g></g></g><g><path d="M78.162,135.615c-0.116,0-0.227,0.012-0.341,0.02c0.449-1.164,0.698-2.426,0.698-3.747    c0-5.739-4.649-10.39-10.392-10.39c-1.583,0-3.08,0.354-4.423,0.984c-2.213-7.326-9.014-12.662-17.064-12.662    c-9.844,0-17.823,7.98-17.823,17.826c0,0.172,0.011,0.342,0.011,0.512c0,0-0.006,0-0.011,0c-5.738,0-10.392,4.65-10.392,10.393    c0,5.737,4.653,10.39,10.392,10.39h49.345c3.68,0,6.661-2.982,6.661-6.663C84.823,138.6,81.842,135.615,78.162,135.615z" fill="#E6E5E5"/><path d="M36.76,75.848c-0.416,0-0.814,0.07-1.186,0.199c0.106-0.557,0.166-1.128,0.166-1.713    c0-4.886-3.957-8.84-8.84-8.84c-4.887,0-8.846,3.957-8.846,8.84c0,0.066,0.006,0.129,0.006,0.193    c-0.559-0.246-1.177-0.387-1.828-0.387c-2.498,0-4.52,2.022-4.52,4.518c0,2.496,2.022,4.52,4.52,4.52l20.527-0.002    c2.023,0,3.664-1.641,3.664-3.664S38.783,75.848,36.76,75.848z" fill="#FFFFFF"/><path d="M111.415,115.16c0.003,0,0.005,0,0.007,0c-0.002-0.102-0.007-0.2-0.007-0.301    c0-5.803,4.705-10.507,10.506-10.507c4.745,0,8.752,3.146,10.056,7.464c0.791-0.375,1.676-0.584,2.608-0.584    c3.382,0,6.124,2.742,6.124,6.124c0,0.78-0.146,1.524-0.412,2.21c0.069-0.006,0.135-0.012,0.202-0.012    c2.168,0,3.925,1.758,3.925,3.926s-1.757,3.928-3.925,3.928h-29.084c-3.382,0-6.122-2.742-6.122-6.126    C105.293,117.9,108.033,115.16,111.415,115.16z" fill="#E6E5E5"/></g></g></svg>