<?xml version="1.0" ?><svg height="128" width="128" xmlns="http://www.w3.org/2000/svg" xmlns:xlink="http://www.w3.org/1999/xlink"><path d="M64 0c35.346 0 64 28.654 64 64 0 35.347-28.654 64-64 64s-64-28.653-64-64c0-35.346 28.654-64 64-64z" fill="#E27C3F"/><defs><circle cx="64" cy="64" id="a" r="64"/></defs><clipPath id="b"><use overflow="visible" xlink:href="#a"/></clipPath><polygon clip-path="url(#b)" fill="#EA9667" points="34,73 95,73 105,128 24,128"/><path d="M64.5 57c9.665 0 17.5 7.836 17.5 17.5 0 9.666-7.835 17.5-17.5 17.5s-17.5-7.834-17.5-17.5c0-9.664 7.835-17.5 17.5-17.5z" fill="#F0B18E"/><path d="M64.5 43c15.434.062 32.5 11.999 32.5 30.5-.007 2.506-.991 2.501-.996 2.519-.016-.011-59.575.032-62.913-.027-1.06-.035-1.091-1.643-1.091-2.492 0-18.501 16.994-30.516 32.5-30.5z" fill="#F4EFEF"/><path d="M64 0h1v30h-1v-30z" fill="#EDA47B"/><path d="M69 36h-2.714l1.714-6h-7l1.714 6h-2.714c-4.418 0-8 3.582-8 8v1.521c.008.021 25.047.004 25 0v-1.521c0-4.418-3.582-8-8-8z" fill="#334D5D"/><path d="M58 49c-3.841 0-16 7.71-16 21.141.005 1.818.725 1.814.729 1.828.011-.008 7.671.023 10.11-.02-1.308-10.005 5.134-22.799 5.161-22.949z" fill="#FAF8F8"/><path d="M62.714 36c-1.681 0-6.714 2.896-6.714 8.736.002.79.316.789.318.794.005-.003 3.356.01 4.424-.009-.572-4.349 1.96-9.455 1.972-9.521z" fill="#3F5765"/></svg>