<?xml version="1.0" ?><!DOCTYPE svg  PUBLIC '-//W3C//DTD SVG 1.1//EN'  'http://www.w3.org/Graphics/SVG/1.1/DTD/svg11.dtd'><svg enable-background="new 0 0 512 512" id="Layer_1" version="1.1" viewBox="0 0 512 512" xml:space="preserve" xmlns="http://www.w3.org/2000/svg" xmlns:xlink="http://www.w3.org/1999/xlink"><g><g><circle cx="256" cy="256" fill="#324A5E" r="254"/></g><g><path d="M264.5,209.2l21.3-3.7l0-36.7l-21.3-3.7c-2-7.3-4.9-14.2-8.6-20.6l12.4-17.7l-25.9-25.9l-17.7,12.4    c-6.4-3.7-13.3-6.6-20.6-8.6l-3.7-21.3h-36.7l-3.7,21.3c-7.3,2-14.2,4.9-20.6,8.6l-17.7-12.4l-25.9,25.9l12.4,17.7    c-3.7,6.4-6.6,13.3-8.6,20.6l-21.3,3.7v36.7l21.3,3.7c2,7.3,4.9,14.2,8.6,20.6l-12.4,17.7l25.9,25.9l17.7-12.4    c6.4,3.7,13.3,6.6,20.6,8.6l3.7,21.3h36.7l3.7-21.3c7.3-2,14.2-4.9,20.6-8.6l17.7,12.4l25.9-25.9L256,229.8    C259.7,223.4,262.6,216.5,264.5,209.2z" fill="#84DBFF"/></g><g><circle cx="182.1" cy="187.1" fill="#324A5E" r="57.8"/></g><g><circle cx="182.1" cy="187.1" fill="#84DBFF" r="42.8"/></g><g><path d="M420.8,210.9l12.8-4l-3-22.5l-13.4-0.5c-1.8-4.3-4.1-8.4-6.9-12l6.2-11.9l-18-13.8l-9.9,9.1    c-4.2-1.8-8.7-3-13.4-3.6l-4-12.8l-22.5,3l-0.5,13.4c-4.3,1.8-8.4,4.1-12,6.9l-11.9-6.2l-13.8,18l9.1,9.9c-1.8,4.2-3,8.7-3.6,13.4    l-12.8,4l3,22.5l13.4,0.5c1.8,4.3,4.1,8.4,6.9,12l-6.2,11.9l18,13.8l9.9-9.1c4.2,1.8,8.7,3,13.4,3.6l4,12.8l22.5-3l0.5-13.4    c4.3-1.8,8.4-4.1,12-6.9l11.9,6.2l13.8-18l-9.1-9.9C419,220,420.2,215.6,420.8,210.9z" fill="#FFD05B"/></g><g><circle cx="368.4" cy="204.1" fill="#324A5E" r="35.8"/></g><g><circle cx="368.4" cy="204.1" fill="#FFD05B" r="26.6"/></g><g><path d="M358.8,354.2l16.3-5.1l-3.8-28.7l-17-0.7c-2.3-5.5-5.3-10.6-8.9-15.3l7.9-15.1l-23-17.6l-12.6,11.6    c-5.4-2.2-11.1-3.8-17.1-4.6l-5.1-16.3l-28.7,3.8l-0.7,17c-5.5,2.3-10.6,5.3-15.3,8.9l-15.1-7.9l-17.6,23l11.6,12.6    c-2.2,5.4-3.8,11.1-4.6,17.1l-16.3,5.1l3.8,28.7l17,0.7c2.3,5.5,5.3,10.6,8.9,15.3l-7.9,15.1l23,17.6l12.6-11.6    c5.4,2.2,11.1,3.8,17.1,4.6l5.1,16.3l28.7-3.8l0.7-17c5.5-2.3,10.6-5.3,15.3-8.9l15.1,7.9l17.6-23l-11.6-12.6    C356.5,365.8,358.1,360.1,358.8,354.2z" fill="#FFFFFF"/></g><g><circle cx="292" cy="345.5" fill="#324A5E" r="45.7"/></g><g><circle cx="292" cy="345.5" fill="#FFFFFF" r="33.8"/></g></g></svg>