<?xml version="1.0" ?><!DOCTYPE svg  PUBLIC '-//W3C//DTD SVG 1.1//EN'  'http://www.w3.org/Graphics/SVG/1.1/DTD/svg11.dtd'><svg enable-background="new 0 0 155 155" height="155px" id="Layer_1" version="1.1" viewBox="0 0 155 155" width="155px" xml:space="preserve" xmlns="http://www.w3.org/2000/svg" xmlns:xlink="http://www.w3.org/1999/xlink"><g><circle cx="77.5" cy="77.5" fill="#F2F2F2" r="77.5"/><g><g><path d="M61.538,49.063c-11.094,0-20.09,8.995-20.09,20.09c0,11.097,8.996,20.091,20.09,20.091     c11.098,0,20.091-8.994,20.091-20.091C81.629,58.058,72.635,49.063,61.538,49.063z M61.538,79.198     c-5.547,0-10.043-4.497-10.043-10.046c0-5.548,4.496-10.045,10.043-10.045c5.549,0,10.047,4.497,10.047,10.045     C71.584,74.701,67.086,79.198,61.538,79.198z" fill="#F15424"/><path d="M126.387,117.66c0,9.025-7.314,16.34-16.342,16.34c-9.025,0-16.338-7.314-16.338-16.34     c0-9.024,7.313-16.34,16.338-16.34C119.072,101.32,126.387,108.636,126.387,117.66z" fill="#D9D8D7"/><circle cx="32.994" cy="97.699" fill="#06B2B8" r="10.38"/><path d="M111.689,31.857c0,7.1-5.754,12.857-12.854,12.857c-7.104,0-12.859-5.758-12.859-12.857     C85.975,24.756,91.732,19,98.836,19C105.936,19,111.689,24.756,111.689,31.857z" fill="#242D3C"/><circle cx="35.906" cy="43.521" fill="#D9D8D7" r="6.261"/><path d="M97.393,69.152c0,2.303-1.867,4.169-4.168,4.169c-2.307,0-4.17-1.866-4.17-4.169     c0-2.302,1.863-4.168,4.17-4.168C95.525,64.984,97.393,66.851,97.393,69.152z" fill="#242D3C"/></g><g><path d="M42.084,50.45c-0.201,0-0.391-0.077-0.533-0.222c-0.293-0.292-0.293-0.771,0-1.064     c0.143-0.141,0.33-0.22,0.531-0.22s0.393,0.079,0.533,0.22c0.143,0.144,0.221,0.332,0.221,0.534c0,0.2-0.078,0.39-0.221,0.53     C42.475,50.373,42.286,50.45,42.084,50.45z" fill="#242D3C"/><path d="M43.834,52.199c-0.201,0-0.391-0.076-0.533-0.221c-0.141-0.142-0.221-0.331-0.221-0.531     c0-0.201,0.08-0.39,0.221-0.533c0.143-0.141,0.332-0.221,0.533-0.221c0.199,0,0.391,0.08,0.531,0.221     c0.295,0.295,0.295,0.771,0,1.064C44.225,52.123,44.034,52.199,43.834,52.199z" fill="#242D3C"/><path d="M45.584,53.949c-0.203,0-0.391-0.078-0.533-0.221c-0.295-0.293-0.295-0.771,0-1.063     c0.143-0.143,0.332-0.22,0.533-0.22s0.389,0.077,0.531,0.22c0.293,0.293,0.293,0.771,0,1.063     C45.973,53.871,45.784,53.949,45.584,53.949z" fill="#242D3C"/><path d="M84.105,69.906c-0.416,0-0.754-0.338-0.754-0.754c0-0.414,0.338-0.752,0.754-0.752     c0.412,0,0.75,0.338,0.75,0.752C84.855,69.568,84.518,69.906,84.105,69.906z" fill="#242D3C"/><path d="M86.58,69.906c-0.201,0-0.393-0.08-0.533-0.221c-0.143-0.143-0.221-0.332-0.221-0.533     c0-0.413,0.338-0.752,0.754-0.752c0.414,0,0.75,0.338,0.75,0.752C87.33,69.568,86.994,69.906,86.58,69.906z" fill="#242D3C"/><path d="M42.083,89.361c-0.201,0-0.391-0.077-0.533-0.221c-0.141-0.141-0.219-0.331-0.219-0.531     c0-0.201,0.078-0.391,0.219-0.533c0.145-0.141,0.332-0.221,0.533-0.221s0.391,0.08,0.531,0.221     c0.143,0.143,0.221,0.332,0.221,0.533c0,0.199-0.078,0.391-0.221,0.531C42.473,89.284,42.284,89.361,42.083,89.361z" fill="#242D3C"/><path d="M43.833,87.612c-0.201,0-0.391-0.079-0.533-0.221c-0.293-0.293-0.293-0.772,0-1.065     c0.143-0.142,0.332-0.22,0.533-0.22c0.199,0,0.391,0.078,0.531,0.22c0.295,0.293,0.295,0.771,0,1.065     C44.223,87.533,44.032,87.612,43.833,87.612z" fill="#242D3C"/><path d="M45.581,85.862c-0.201,0-0.391-0.079-0.531-0.22c-0.293-0.293-0.293-0.771,0.002-1.064     c0.141-0.144,0.33-0.222,0.531-0.222s0.391,0.077,0.531,0.221c0.143,0.142,0.221,0.331,0.221,0.531     c0,0.202-0.078,0.39-0.221,0.534C45.971,85.783,45.784,85.862,45.581,85.862z" fill="#242D3C"/><path d="M87.992,43.451c-0.201,0-0.387-0.078-0.533-0.22c-0.141-0.143-0.221-0.331-0.221-0.533     c0-0.201,0.08-0.39,0.221-0.53c0.146-0.144,0.332-0.221,0.533-0.221s0.393,0.077,0.535,0.22c0.293,0.292,0.293,0.771,0,1.064     C88.385,43.373,88.193,43.451,87.992,43.451z" fill="#242D3C"/><path d="M86.244,45.201c-0.199,0-0.391-0.079-0.533-0.221c-0.295-0.294-0.295-0.771,0-1.064     c0.143-0.143,0.332-0.219,0.533-0.219c0.199,0,0.389,0.076,0.531,0.219c0.145,0.143,0.221,0.332,0.221,0.532     c0,0.201-0.076,0.39-0.221,0.532C86.633,45.122,86.443,45.201,86.244,45.201z" fill="#242D3C"/><path d="M84.494,46.951c-0.203,0-0.389-0.079-0.533-0.221c-0.291-0.293-0.291-0.771,0-1.064     c0.145-0.143,0.33-0.221,0.533-0.221c0.201,0,0.389,0.078,0.531,0.221c0.293,0.293,0.293,0.771,0,1.064     C84.883,46.872,84.695,46.951,84.494,46.951z" fill="#242D3C"/><path d="M82.744,48.701c-0.199,0-0.389-0.078-0.531-0.221c-0.295-0.293-0.295-0.771,0-1.064     c0.141-0.142,0.332-0.221,0.531-0.221s0.391,0.079,0.531,0.221c0.295,0.293,0.295,0.771,0,1.064     C83.135,48.623,82.943,48.701,82.744,48.701z" fill="#242D3C"/><path d="M80.996,50.451c-0.203,0-0.393-0.078-0.535-0.222c-0.295-0.293-0.295-0.771,0-1.064     c0.141-0.141,0.332-0.221,0.535-0.221c0.201,0,0.389,0.08,0.531,0.22c0.291,0.295,0.291,0.772,0,1.066     C81.385,50.373,81.197,50.451,80.996,50.451z" fill="#242D3C"/><path d="M79.244,52.2c-0.203,0-0.389-0.077-0.531-0.222c-0.293-0.292-0.293-0.769,0-1.064     c0.143-0.141,0.33-0.22,0.531-0.22s0.391,0.079,0.533,0.22c0.141,0.145,0.221,0.332,0.221,0.534c0,0.2-0.08,0.39-0.221,0.53     C79.635,52.123,79.443,52.2,79.244,52.2z" fill="#242D3C"/><path d="M77.497,53.949c-0.201,0-0.395-0.077-0.533-0.22c-0.141-0.142-0.221-0.329-0.221-0.532     c0-0.201,0.08-0.39,0.221-0.532c0.141-0.142,0.332-0.22,0.533-0.22c0.197,0,0.389,0.078,0.529,0.22     c0.145,0.143,0.221,0.33,0.221,0.532c0,0.201-0.076,0.391-0.221,0.532C77.885,53.872,77.694,53.949,77.497,53.949z" fill="#242D3C"/><path d="M77.497,85.861c-0.201,0-0.393-0.078-0.533-0.219c-0.295-0.295-0.295-0.773,0-1.065     c0.141-0.144,0.332-0.221,0.533-0.221c0.197,0,0.389,0.077,0.529,0.221c0.145,0.142,0.221,0.331,0.221,0.531     c0,0.202-0.076,0.39-0.221,0.534C77.885,85.783,77.694,85.861,77.497,85.861z" fill="#242D3C"/><path d="M79.244,87.612c-0.203,0-0.389-0.08-0.531-0.222c-0.143-0.143-0.219-0.332-0.219-0.532     s0.076-0.39,0.219-0.532s0.33-0.221,0.531-0.221s0.391,0.078,0.533,0.221c0.293,0.293,0.293,0.771,0,1.064     C79.635,87.532,79.443,87.612,79.244,87.612z" fill="#242D3C"/><path d="M80.994,89.361c-0.201,0-0.391-0.078-0.533-0.221C80.32,89,80.24,88.809,80.24,88.609     c0-0.202,0.08-0.391,0.221-0.533c0.143-0.141,0.332-0.221,0.535-0.221c0.201,0,0.389,0.08,0.531,0.221     c0.291,0.293,0.291,0.771,0,1.064C81.383,89.283,81.197,89.361,80.994,89.361z" fill="#242D3C"/><path d="M82.744,91.111c-0.199,0-0.389-0.078-0.531-0.221c-0.145-0.143-0.221-0.332-0.221-0.532     c0-0.202,0.076-0.39,0.221-0.533c0.143-0.141,0.332-0.221,0.531-0.221s0.391,0.08,0.531,0.221c0.295,0.293,0.295,0.772,0,1.065     C83.135,91.033,82.943,91.111,82.744,91.111z" fill="#242D3C"/><path d="M84.494,92.859c-0.203,0-0.389-0.077-0.533-0.219c-0.143-0.143-0.219-0.331-0.219-0.532     c0-0.202,0.076-0.39,0.219-0.533c0.145-0.142,0.33-0.22,0.533-0.22c0.201,0,0.391,0.078,0.533,0.22     c0.291,0.294,0.291,0.771-0.002,1.064C84.883,92.782,84.695,92.859,84.494,92.859z" fill="#242D3C"/><path d="M86.246,94.61c-0.201,0-0.393-0.079-0.535-0.22c-0.295-0.295-0.295-0.771,0-1.064     c0.143-0.143,0.332-0.221,0.533-0.221c0.199,0,0.391,0.078,0.531,0.221c0.295,0.293,0.295,0.77,0,1.064     C86.635,94.531,86.443,94.61,86.246,94.61z" fill="#242D3C"/><path d="M87.992,96.361c-0.201,0-0.387-0.079-0.531-0.221c-0.293-0.295-0.293-0.771-0.002-1.064     c0.146-0.143,0.332-0.221,0.533-0.221s0.393,0.078,0.535,0.221c0.139,0.141,0.219,0.33,0.219,0.531     c0,0.202-0.078,0.39-0.219,0.533C88.385,96.282,88.195,96.361,87.992,96.361z" fill="#242D3C"/><path d="M89.744,98.11c-0.201,0-0.393-0.079-0.533-0.22c-0.295-0.294-0.295-0.772,0-1.066     c0.141-0.143,0.33-0.221,0.531-0.221c0.203,0,0.389,0.079,0.533,0.222c0.143,0.143,0.221,0.332,0.221,0.532     c0,0.201-0.078,0.389-0.221,0.533C90.131,98.031,89.947,98.11,89.744,98.11z" fill="#242D3C"/><path d="M91.492,99.859c-0.199,0-0.389-0.077-0.531-0.22c-0.293-0.293-0.293-0.772,0-1.065     c0.143-0.141,0.332-0.221,0.531-0.221c0.201,0,0.391,0.08,0.533,0.221c0.141,0.144,0.221,0.332,0.221,0.533     s-0.08,0.39-0.221,0.532S91.693,99.859,91.492,99.859z" fill="#242D3C"/><path d="M93.244,101.609c-0.203,0-0.393-0.077-0.533-0.22c-0.293-0.294-0.293-0.771,0-1.065     c0.141-0.141,0.33-0.221,0.533-0.221c0.201,0,0.387,0.08,0.533,0.222c0.141,0.143,0.219,0.33,0.219,0.532     c0,0.2-0.078,0.39-0.219,0.531C93.631,101.531,93.445,101.609,93.244,101.609z" fill="#242D3C"/><path d="M94.992,103.358c-0.199,0-0.391-0.077-0.531-0.22c-0.295-0.294-0.295-0.77,0-1.064     c0.143-0.143,0.332-0.22,0.531-0.22c0.201,0,0.391,0.077,0.533,0.219c0.141,0.144,0.219,0.331,0.219,0.533     c0,0.2-0.078,0.391-0.219,0.532C95.383,103.281,95.193,103.358,94.992,103.358z" fill="#242D3C"/><path d="M96.742,105.109c-0.201,0-0.389-0.078-0.533-0.221c-0.141-0.143-0.221-0.33-0.221-0.533     c0-0.2,0.08-0.39,0.221-0.53c0.145-0.144,0.332-0.221,0.533-0.221c0.203,0,0.393,0.077,0.533,0.221     c0.291,0.293,0.291,0.77,0,1.063C97.133,105.031,96.945,105.109,96.742,105.109z" fill="#242D3C"/></g></g></g></svg>