<svg width="158" height="60" viewBox="0 0 158 60" fill="none" xmlns="http://www.w3.org/2000/svg">
<path d="M25.7118 0.270035C24.7645 0.825565 23.1881 2.39841 21.3076 4.67956L23.0308 7.91553C24.2437 6.19685 25.4741 4.64484 26.701 3.3324C26.7989 3.22824 26.8443 3.17963 26.8443 3.17963C26.7989 3.22824 26.7464 3.28379 26.701 3.3324C26.299 3.76988 25.0791 5.18648 23.2406 7.98497C25.0127 7.89817 27.7146 7.53707 29.9517 7.16209C30.6158 3.4817 29.305 1.8151 29.305 1.8151C29.305 1.8151 27.6412 -0.858387 25.7048 0.283923L25.7118 0.270035Z" fill="url(#paint0_linear_633_29430)"/>
<path d="M19.9094 27.4528C19.6892 27.491 19.4656 27.5327 19.2315 27.5709C19.2315 27.5709 19.228 27.5709 19.228 27.5743C19.3468 27.557 19.4621 27.5396 19.5774 27.5223C19.6858 27.498 19.7976 27.4771 19.9094 27.4528Z" fill="#BD202E"/>
<path d="M19.9094 27.4528C19.6892 27.491 19.4656 27.5327 19.2315 27.5709C19.2315 27.5709 19.228 27.5709 19.228 27.5743C19.3468 27.557 19.4621 27.5396 19.5774 27.5223C19.6858 27.498 19.7976 27.4771 19.9094 27.4528Z" fill="#333333"/>
<path d="M20.504 24.6405C20.5005 24.6405 20.5005 24.6405 20.5005 24.644C20.5354 24.6405 20.5739 24.6335 20.6088 24.6266C20.7556 24.6058 20.8988 24.5815 21.0386 24.5468C20.8639 24.578 20.6892 24.6092 20.504 24.6405Z" fill="#BD202E"/>
<path d="M20.504 24.6405C20.5005 24.6405 20.5005 24.6405 20.5005 24.644C20.5354 24.6405 20.5739 24.6335 20.6088 24.6266C20.7556 24.6058 20.8988 24.5815 21.0386 24.5468C20.8639 24.578 20.6892 24.6092 20.504 24.6405Z" fill="#333333"/>
<path d="M17.9521 16.2728C18.4764 15.2971 19.0077 14.3458 19.5425 13.4222C20.0983 12.457 20.6645 11.5265 21.2342 10.6237C21.2657 10.5717 21.3042 10.5161 21.3356 10.464C21.8984 9.57864 22.4681 8.72452 23.0379 7.91205L21.3146 4.67609C21.1853 4.83233 21.056 4.99204 20.9232 5.1587C20.4233 5.77673 19.9095 6.43642 19.3782 7.14125C18.7805 7.93288 18.1688 8.78007 17.5431 9.66892C16.9699 10.4883 16.3827 11.3459 15.7954 12.2382C15.2956 12.9952 14.7993 13.7729 14.3029 14.5715C14.2854 14.5993 14.268 14.6305 14.2505 14.6618L16.498 19.0713C16.9734 18.1165 17.4627 17.1825 17.9521 16.2728Z" fill="url(#paint1_linear_633_29430)"/>
<path d="M7.71058 41.0981C7.41348 41.9071 7.11287 42.7369 6.81577 43.5806C6.81227 43.591 6.80878 43.6049 6.80179 43.6153C6.75984 43.7334 6.7144 43.8549 6.67595 43.973C6.47322 44.5424 6.29845 45.0562 5.89648 46.2194C6.55711 46.518 7.08841 47.3096 7.59174 48.2054C7.53931 47.2784 7.15482 46.4069 6.41729 45.7333C9.67848 45.8791 12.4992 45.0597 13.9324 42.6918C14.0617 42.48 14.1805 42.2612 14.2889 42.0217C13.6283 42.855 12.8068 43.2056 11.2654 43.1223C11.2619 43.1223 11.2584 43.1258 11.2549 43.1258C11.2584 43.1258 11.2619 43.1223 11.2654 43.1223C13.5374 42.1119 14.6734 41.1432 15.6696 39.5461C15.9072 39.1641 16.1414 38.751 16.3791 38.2892C14.3937 40.3134 12.1148 40.8898 9.66799 40.4523L7.8504 40.6502C7.79098 40.803 7.73855 40.9523 7.67913 41.105L7.71058 41.0981Z" fill="url(#paint2_linear_633_29430)"/>
<path d="M8.58462 37.0705C8.97611 36.0636 9.38157 35.0428 9.79402 34.015C10.1925 33.029 10.598 32.036 11.0174 31.0429C11.4369 30.0499 11.8633 29.0465 12.2967 28.0466C12.7371 27.0292 13.1915 26.0154 13.6564 25.005C14.1143 24.0051 14.5757 23.0121 15.0476 22.0329C15.2154 21.6788 15.3901 21.3246 15.5614 20.974C15.8585 20.3663 16.1591 19.7622 16.4632 19.165C16.4807 19.1338 16.4947 19.099 16.5121 19.0678L14.2646 14.6583C14.2297 14.7173 14.1912 14.7798 14.1528 14.8353C13.6284 15.686 13.1076 16.554 12.5973 17.4394C12.08 18.3352 11.5732 19.2483 11.0768 20.1754C10.6609 20.9566 10.2519 21.7413 9.84995 22.5399C9.76956 22.6996 9.69266 22.8628 9.61226 23.0225C9.12291 24.0259 8.68249 24.9877 8.28053 25.9216C7.82613 26.9737 7.42765 27.9806 7.08161 28.9354C6.85092 29.5638 6.64469 30.168 6.45244 30.7513C6.29515 31.2478 6.14835 31.7478 6.00154 32.2443C5.66599 33.4109 5.37587 34.5775 5.13818 35.7511L7.3962 40.1953C7.6933 39.4037 8.0009 38.5982 8.31548 37.7857C8.40985 37.5531 8.49374 37.3239 8.58462 37.1017V37.0705Z" fill="url(#paint3_linear_633_29430)"/>
<path d="M5.08927 35.89C4.80614 37.3066 4.60341 38.7162 4.50204 40.1259L4.49156 40.2717C3.78549 39.1502 1.90148 38.0565 1.90498 38.067C3.25769 40.0113 4.28183 41.9557 4.43214 43.8306C3.70859 43.9764 2.7194 43.7646 1.57641 43.348C2.76834 44.4382 3.66315 44.7368 4.01619 44.8201C2.91864 44.8896 1.77915 45.6361 0.629167 46.4971C2.31044 45.8166 3.67014 45.5458 4.64885 45.7645C3.10389 50.1046 1.55894 54.8961 0 60C0.475371 59.8611 0.758496 59.5417 0.915788 59.1146C1.19192 58.1945 3.02 52.1358 5.87922 44.2195C5.96311 43.9938 6.0435 43.7646 6.12739 43.5389C6.14837 43.473 6.17283 43.4105 6.1973 43.3515C6.4979 42.5182 6.81598 41.6675 7.13756 40.7995C7.21096 40.6016 7.28436 40.4037 7.36126 40.2058C7.36126 40.2023 7.36476 40.1988 7.36476 40.1953L5.10325 35.7511C5.09626 35.7962 5.08577 35.8483 5.07528 35.9004L5.08927 35.89Z" fill="url(#paint4_linear_633_29430)"/>
<path d="M16.8336 19.4323C16.7672 19.5643 16.7042 19.6962 16.6378 19.8282C16.4421 20.2274 16.2463 20.6337 16.0436 21.0503C15.8269 21.5017 15.6102 21.96 15.39 22.4322C15.2781 22.6683 15.1663 22.9079 15.0544 23.1509C14.7189 23.8766 14.3798 24.6265 14.0338 25.4008C13.6108 26.3487 13.1739 27.3382 12.737 28.366C12.321 29.3451 11.8911 30.3555 11.4647 31.404C11.0557 32.397 10.6433 33.4248 10.2238 34.4803C9.84981 35.4212 9.47231 36.3934 9.09481 37.3899C9.07733 37.435 9.05985 37.4871 9.04238 37.5322C8.66488 38.5218 8.28388 39.5391 7.90289 40.5807C7.89589 40.605 7.88541 40.6258 7.87842 40.6536L9.69601 40.4557C9.66106 40.4488 9.62261 40.4453 9.58766 40.4383C11.7583 40.171 14.656 38.5565 16.5085 36.5496C17.3684 35.633 18.1478 34.5497 18.8679 33.2824C19.4027 32.3415 19.9095 31.2929 20.3919 30.1367C20.8113 29.1263 21.2133 28.0292 21.6013 26.8452C21.1014 27.1056 20.5317 27.3 19.9025 27.432C19.7907 27.4563 19.6788 27.4771 19.5635 27.4979C19.4481 27.5188 19.3328 27.5361 19.2139 27.55C19.2139 27.55 19.2174 27.55 19.2174 27.5466C21.2447 26.7723 22.5205 25.2793 23.4468 23.4495C22.9155 23.8106 22.0487 24.2828 21.0105 24.5085C20.8707 24.5397 20.7274 24.564 20.5806 24.5884C20.5457 24.5918 20.5072 24.5988 20.4723 24.6057H20.4792C21.1853 24.3141 21.776 23.9842 22.2898 23.5988C22.4017 23.5155 22.5101 23.4322 22.6079 23.3419C22.7652 23.2065 22.912 23.0641 23.0588 22.9183C23.1497 22.8211 23.2371 22.7239 23.3245 22.6232C23.5272 22.3836 23.716 22.1267 23.8907 21.8489C23.9432 21.7621 23.9991 21.6788 24.048 21.5885C24.1179 21.46 24.1808 21.3316 24.2438 21.21C24.5269 20.6476 24.7541 20.1406 24.9324 19.6997C25.0232 19.4775 25.1001 19.2761 25.17 19.0817C25.198 19.0053 25.2225 18.9324 25.2469 18.8594C25.3203 18.6476 25.3763 18.4602 25.4217 18.2935C25.4916 18.0435 25.5336 17.8456 25.5545 17.7032C25.4846 17.7553 25.4077 17.8109 25.3168 17.863C24.7052 18.2275 23.6565 18.5539 22.8107 18.7101L24.478 18.5296L22.8107 18.7101C22.8002 18.7136 22.7862 18.7136 22.7722 18.7171C22.6848 18.731 22.6044 18.7449 22.517 18.7553L22.559 18.7345L16.8615 19.3559C16.8615 19.3698 16.851 19.3941 16.8406 19.415L16.8336 19.4323Z" fill="url(#paint5_linear_633_29430)"/>
<path d="M23.2652 7.97455C22.7584 8.74882 22.2061 9.62725 21.6049 10.6237C21.5734 10.6723 21.5385 10.7314 21.5105 10.78C20.9967 11.641 20.4514 12.5854 19.8712 13.6236C19.3748 14.5194 18.8575 15.4777 18.3192 16.5089C17.8509 17.4081 17.3685 18.363 16.8687 19.3733L22.5661 18.7518C24.2299 17.9915 24.9709 17.3075 25.691 16.311C25.8797 16.0367 26.0755 15.752 26.2642 15.4534C26.8514 14.5437 27.4247 13.5437 27.9385 12.5473C28.4348 11.5855 28.8718 10.6341 29.2073 9.77308C29.4205 9.22796 29.5918 8.72104 29.7107 8.27314C29.8155 7.8808 29.8959 7.50582 29.9588 7.14819C27.7463 7.52665 25.0304 7.88774 23.2477 7.97455H23.2652Z" fill="url(#paint6_linear_633_29430)"/>
<path d="M19.5599 27.5223C19.4446 27.5431 19.3292 27.5605 19.2104 27.5744C19.3292 27.5639 19.448 27.5431 19.5599 27.5223Z" fill="#BD202E"/>
<path opacity="0.35" d="M19.5599 27.5223C19.4446 27.5431 19.3292 27.5605 19.2104 27.5744C19.3292 27.5639 19.448 27.5431 19.5599 27.5223Z" fill="#BD202E"/>
<path d="M19.5599 27.5223C19.4446 27.5431 19.3292 27.5605 19.2104 27.5744C19.3292 27.5639 19.448 27.5431 19.5599 27.5223Z" fill="url(#paint7_linear_633_29430)"/>
<path d="M20.5039 24.6405C20.5388 24.637 20.5773 24.6301 20.6122 24.6231C20.5773 24.6266 20.5423 24.637 20.5039 24.6405Z" fill="#BD202E"/>
<path opacity="0.35" d="M20.5039 24.6405C20.5388 24.637 20.5773 24.6301 20.6122 24.6231C20.5773 24.6266 20.5423 24.637 20.5039 24.6405Z" fill="#BD202E"/>
<path d="M20.5039 24.6405C20.5388 24.637 20.5773 24.6301 20.6122 24.6231C20.5773 24.6266 20.5423 24.637 20.5039 24.6405Z" fill="url(#paint8_linear_633_29430)"/>
<path d="M20.5039 24.6404C20.5072 24.6404 20.5072 24.6371 20.5039 24.6404C20.5072 24.6371 20.5072 24.6404 20.5039 24.6404Z" fill="#BD202E"/>
<path opacity="0.35" d="M20.5039 24.6404C20.5072 24.6404 20.5072 24.6371 20.5039 24.6404C20.5072 24.6371 20.5072 24.6404 20.5039 24.6404Z" fill="#BD202E"/>
<path d="M20.5039 24.6404C20.5072 24.6404 20.5072 24.6371 20.5039 24.6404C20.5072 24.6371 20.5072 24.6404 20.5039 24.6404Z" fill="url(#paint9_linear_633_29430)"/>
<path d="M102.187 40.3938C101.837 40.3315 100.517 39.9944 100.316 39.916C99.83 39.7302 98.1658 38.8821 97.9647 38.7223C97.7033 38.5088 97.6693 38.4827 97.193 38.1293C96.7212 37.7806 95.7097 36.7743 95.3525 36.3011C95.2023 36.1014 95.0385 35.8863 94.9875 35.8264C94.937 35.7655 94.8526 35.6635 94.8003 35.599C94.6893 35.464 93.7502 33.8937 93.7502 33.8322C93.7502 33.8133 93.6526 33.5818 93.5336 33.3176C93.4142 33.0533 93.2444 32.6324 93.1578 32.382C93.0701 32.1315 92.9629 31.8443 92.9196 31.7444C92.8227 31.5201 92.5577 30.2818 92.4618 29.6089C92.3607 28.893 92.3638 26.9357 92.4671 26.2905C92.7393 24.6005 92.9543 23.8785 93.576 22.5573C93.6719 22.3529 93.7508 22.1378 93.7508 22.0795C93.7508 22.0202 93.7921 21.9716 93.8425 21.9716C93.8929 21.9716 93.9342 21.9188 93.9342 21.8539C93.9342 21.7892 94.1894 21.3531 94.5003 20.8845C95.0045 20.124 96.1552 18.8566 96.913 18.2421C97.6972 17.5937 99.2484 16.7503 100.176 16.4599C100.449 16.3767 100.775 16.2725 100.9 16.2295C101.366 16.0697 102.261 15.9529 103.421 15.9022C104.917 15.836 106.484 16.0299 107.597 16.4185C108.425 16.7088 109.175 17.056 109.237 17.1682C109.253 17.2058 109.307 17.2365 109.356 17.2365C109.549 17.2365 110.59 18.0201 111.212 18.6346C111.934 19.3474 112.408 19.9712 112.79 20.7086C113.025 21.1695 113.028 21.191 112.863 21.3032C112.769 21.3674 112.65 21.452 112.597 21.4906C112.545 21.5291 112.393 21.6235 112.262 21.698C112.13 21.7731 111.833 21.9515 111.6 22.0944C111.126 22.3847 110.945 22.3647 110.806 22.0005C110.418 20.985 108.641 19.3119 107.419 18.8357C106.083 18.3041 105.269 18.1459 103.893 18.1474C102.436 18.149 101.496 18.3256 100.336 18.8234C99.9381 18.9924 99.089 19.4963 98.9096 19.6699C98.8429 19.7343 98.7603 19.787 98.7255 19.787C98.6281 19.787 97.6088 20.7871 97.1634 21.3217C96.6778 21.9009 95.8349 23.3958 95.6354 24.0257C95.5562 24.2761 95.4559 24.5634 95.4111 24.6632C95.0213 25.5451 94.7924 27.6744 94.9347 29.1032C95.0319 30.0772 95.2363 31.1004 95.4126 31.4998C95.4573 31.6 95.5212 31.784 95.5548 31.91C95.7025 32.4616 96.5663 34.0608 97.0179 34.6139C97.4695 35.1716 98.2939 36.0319 98.6728 36.3346C99.1012 36.6833 100.498 37.5483 100.622 37.5483C100.655 37.5483 100.789 37.6041 100.92 37.6715C101.05 37.7389 101.525 37.8927 101.975 38.0126C102.662 38.1954 102.989 38.2292 104.032 38.22C105.78 38.2044 106.878 37.9066 108.347 37.0554C109.306 36.4993 110.636 35.2119 111.1 34.3822C111.276 34.0704 111.462 33.8138 111.513 33.8123C111.708 33.8097 113.477 34.7694 113.477 34.8769C113.477 35.0045 112.943 36.0169 112.838 36.0875C112.801 36.1126 112.723 36.2227 112.665 36.3318C112.447 36.7451 111.443 37.7191 110.5 38.4366C109.999 38.8176 108.675 39.4874 107.747 39.8239C106.523 40.2709 105.783 40.3908 104.081 40.4169C103.173 40.4307 102.334 40.4236 102.21 40.4011L102.187 40.3938ZM29.0316 40.2665C29.0316 40.2158 29.0713 40.1036 29.1201 40.0161C29.1686 39.9291 29.2948 39.6535 29.4 39.4031C29.5053 39.1527 29.6274 38.8654 29.6722 38.7655C29.7166 38.6653 30.0047 37.9897 30.3125 37.263C30.6203 36.5363 30.9095 35.8603 30.9559 35.7605C31.0017 35.6603 31.1461 35.3119 31.2761 34.9862C31.4066 34.6605 31.5498 34.3117 31.5962 34.2119C31.6426 34.112 31.7663 33.8247 31.8731 33.5743C31.9802 33.3239 32.1267 32.9905 32.1994 32.8323C32.2721 32.674 32.3302 32.5189 32.3302 32.4851C32.3302 32.4334 32.5066 32.0134 32.7896 31.3881C32.8351 31.288 32.9783 30.9395 33.1097 30.6138C33.2412 30.2881 33.385 29.9394 33.4299 29.8395C33.4758 29.7394 33.6201 29.3909 33.75 29.0652C33.8806 28.7395 34.0253 28.3908 34.0702 28.2909C34.1157 28.1908 34.2403 27.9038 34.3455 27.6533C34.4519 27.4029 34.5759 27.1156 34.6192 27.0158C34.6636 26.9156 34.8899 26.3828 35.1234 25.8328C35.3554 25.2813 35.5843 24.7497 35.6292 24.6499C35.6745 24.5497 35.8813 24.0584 36.087 23.5575C36.2942 23.0567 36.4999 22.5651 36.5448 22.4652C36.5898 22.3651 36.7706 21.9352 36.9469 21.5096C37.9352 19.1284 38.161 18.5906 38.3806 18.099C38.4253 17.9989 38.5693 17.6504 38.7008 17.3247C38.8323 16.999 39.0194 16.5581 39.1184 16.3461L39.2962 15.9589H41.2914L41.4955 16.4367C41.7507 17.0313 42.0307 17.6765 42.1389 17.9162C42.4514 18.6121 42.5967 18.9609 42.5967 19.0085C42.5967 19.0594 42.7731 19.4725 43.1071 20.2053C43.179 20.3635 43.238 20.5187 43.238 20.5525C43.238 20.604 43.3796 20.9427 43.6958 21.6494C44.0082 22.3454 44.1536 22.6941 44.1536 22.7418C44.1536 22.7723 44.2391 22.9891 44.3438 23.2242C44.4485 23.4592 44.5959 23.7957 44.6702 23.9708C44.7456 24.146 44.8434 24.3718 44.8882 24.4717C44.9329 24.5718 45.0769 24.9203 45.2068 25.2459C45.3374 25.5716 45.4806 25.9204 45.5254 26.0202C45.5704 26.1204 45.8595 26.7961 46.1688 27.5228C46.4782 28.2494 46.7674 28.9254 46.8122 29.0253C46.8572 29.1254 46.9612 29.3709 47.0427 29.5722C47.8856 31.6309 48.2197 32.4297 48.3248 32.6756C48.3926 32.8258 48.6171 33.3577 48.8259 33.8585C49.0332 34.3594 49.2404 34.851 49.2853 34.9508C49.3301 35.0507 49.4539 35.338 49.5606 35.5884C49.667 35.8388 49.791 36.1261 49.8359 36.226C49.8807 36.3258 50.0246 36.6746 50.156 37.0003C50.2866 37.326 50.4313 37.6747 50.4762 37.7746C50.9201 38.7517 51.4846 40.1251 51.4846 40.2327C51.4846 40.343 51.2603 40.3656 50.1622 40.3656C48.8692 40.3656 48.8383 40.3608 48.7764 40.1612C48.7201 39.9784 48.5073 39.4638 48.2769 38.9552C48.2314 38.8551 48.0867 38.5066 47.9552 38.1809C47.7309 37.6263 47.55 37.1977 47.3582 36.7691C47.3135 36.6689 47.1695 36.3205 47.0396 35.9948C46.909 35.6691 46.7643 35.3203 46.7194 35.2205C46.441 34.6075 46.2601 34.1758 46.2601 34.1281C46.2601 34.0976 46.1834 33.9008 46.09 33.6903C45.9962 33.4798 45.8626 33.1756 45.793 33.0128L45.6659 32.7163H34.824L34.6384 33.1495C34.5367 33.3876 34.3399 33.8685 34.2023 34.2188C34.0643 34.5691 33.8744 35.0284 33.78 35.2389C33.6857 35.4494 33.6084 35.646 33.6084 35.6767C33.6084 35.725 33.4274 36.1561 33.149 36.7691C33.1036 36.8692 32.9603 37.2177 32.8289 37.5434C32.6974 37.8691 32.5536 38.2178 32.5056 38.3177C32.4586 38.4178 32.2705 38.8692 32.0896 39.3193C31.9071 39.7695 31.737 40.1904 31.7107 40.2519C31.6503 40.3964 29.0195 40.4178 29.0195 40.2734L29.0316 40.2665ZM45.1165 30.6952C45.1165 30.6083 44.9813 30.2804 44.6061 29.457C44.5342 29.2987 44.4753 29.142 44.4753 29.1067C44.4753 29.0717 44.4153 28.9147 44.3421 28.7564C44.2688 28.5982 43.9787 27.8961 43.6987 27.1894C43.4188 26.4888 43.1497 25.8328 43.1033 25.733C43.0566 25.6328 42.828 25.0585 42.5975 24.4578C42.3655 23.8571 42.1397 23.2825 42.0949 23.1827C42.05 23.0825 41.9516 22.857 41.8768 22.6818C41.8013 22.5067 41.6541 22.1703 41.5505 21.9352C41.4459 21.7001 41.3602 21.4743 41.3602 21.4344C41.3602 21.3941 41.3064 21.2592 41.2413 21.1332C41.1762 21.008 41.0232 20.6386 40.9026 20.3144C40.7813 19.9887 40.6288 19.62 40.5639 19.4955C40.4987 19.3703 40.4452 19.2159 40.4449 19.1545C40.4434 18.9624 40.2779 19.028 40.2114 19.2456C40.1772 19.3582 40.0946 19.5728 40.0273 19.7234C39.9607 19.8736 39.7366 20.407 39.5293 20.9063C39.3221 21.4072 39.0313 22.1031 38.8844 22.458C38.7378 22.8083 37.9595 24.6703 37.1522 26.6061C36.3479 28.5264 35.6225 30.2625 35.5437 30.4468L35.3983 30.7879H40.2547C43.5954 30.7879 45.1111 30.7579 45.1111 30.6919L45.1165 30.6952ZM54.1024 28.145V15.9466L59.2063 15.9482C64.5421 15.9497 65.5165 15.9986 66.3672 16.3154C66.9719 16.5397 67.9076 17.0006 68.0839 17.1573C68.1495 17.2176 68.3406 17.3693 68.5092 17.4937C69.6924 18.3679 70.8292 20.1055 71.2468 21.7339C71.6643 23.301 71.4927 25.4365 70.8323 26.9267C69.8826 29.0622 68.2803 30.537 66.2697 31.1515C65.8645 31.2734 65.0603 31.3018 61.1813 31.3313L56.5724 31.3655V40.3683H54.0978V28.17L54.1024 28.145ZM64.9752 29.0483C66.661 28.8163 68.0375 27.5366 68.718 25.5455C68.9531 24.8619 69.0072 22.9799 68.8127 22.2117C68.5482 21.1824 68.0641 20.3221 67.3449 19.6154C66.9877 19.2651 66.5732 18.9163 66.4216 18.8411C66.271 18.7661 66.1277 18.6828 66.1014 18.6552C66.0762 18.6281 65.8694 18.5267 65.6436 18.4293C65.2585 18.2649 64.9446 18.2511 60.8955 18.2235L56.5649 18.1943V29.1328H60.4006C62.6586 29.1328 64.5455 29.0921 64.9631 29.0343L64.9752 29.0483ZM70.11 40.2788C70.0879 40.2413 70.2278 39.8425 70.4209 39.3908C70.6142 38.9406 71.1277 37.7162 71.5638 36.6561C71.9984 35.6038 72.4098 34.6282 72.4779 34.4746C72.5459 34.3243 72.7717 33.7909 72.9805 33.2916C73.3455 32.4144 73.5435 31.9489 73.7152 31.5556C73.7597 31.4554 73.9657 30.9641 74.173 30.4633C74.3802 29.9624 74.6045 29.4293 74.671 29.2803C74.7375 29.1313 75.0051 28.4953 75.2649 27.8684C75.5247 27.2432 75.8573 26.4427 76.0026 26.0863C76.3135 25.3397 77.3544 22.8908 77.4735 22.6296C77.5185 22.5294 77.6622 22.181 77.7921 21.8553C77.9226 21.5296 78.0658 21.1809 78.1122 21.081C78.1577 20.9808 78.2824 20.6939 78.3891 20.4434C78.4963 20.193 78.6427 19.8596 78.7154 19.7014C78.7873 19.5432 78.8463 19.388 78.8463 19.3542C78.8463 19.3027 78.9879 18.964 79.3041 18.2573C79.4866 17.8517 79.7479 17.2249 79.9506 16.7056C80.069 16.4045 80.2042 16.108 80.2506 16.045C80.3089 15.9662 80.6373 15.9311 81.3209 15.9311H82.3076L82.4272 16.2276C82.6669 16.8222 83.7201 19.3003 83.9738 19.8994C84.0183 19.9996 84.2243 20.4909 84.43 20.9918C84.6357 21.4926 84.8445 21.9842 84.8909 22.0841C84.9373 22.1842 85.2884 23.0243 85.6689 23.9584C86.0509 24.8848 86.4004 25.7251 86.4453 25.8173C86.4906 25.9175 86.7422 26.5117 87.0036 27.137C87.6238 28.6165 88.2672 30.1328 88.3708 30.3633C88.4159 30.4634 88.5394 30.7504 88.6461 31.0008C88.7526 31.2512 88.8766 31.5385 88.9214 31.6384C88.9669 31.7386 89.1117 32.087 89.2431 32.4127C89.4674 32.9673 89.6484 33.3959 89.8401 33.8246C89.8848 33.9247 90.0288 34.2732 90.1603 34.5989C90.2918 34.9246 90.4588 35.3194 90.5315 35.4776C90.604 35.6359 90.6633 35.7926 90.6633 35.8264C90.6633 35.8608 90.787 36.1552 90.9386 36.4793C91.0898 36.8035 91.2139 37.0908 91.2139 37.1184C91.2139 37.1461 91.2731 37.2951 91.3456 37.4533C91.4182 37.6116 91.5854 38.0064 91.7168 38.3321C91.8483 38.6578 91.9937 39.0065 92.0385 39.1064C92.3556 39.807 92.4979 40.1557 92.4979 40.2402C92.4979 40.3866 89.9769 40.3696 89.8686 40.2224C89.818 40.1597 89.4154 39.2269 88.9762 38.1484C88.5354 37.0714 88.1209 36.0743 88.0544 35.9207C87.9879 35.7705 87.8255 35.3815 87.694 35.0558C87.5626 34.7301 87.4172 34.3813 87.3723 34.2815C87.248 34.008 86.9578 33.3182 86.8248 32.9833L86.7073 32.6868L75.8036 32.7338L75.2607 34.0535C74.9622 34.7801 74.6776 35.4684 74.6297 35.5852C74.5811 35.7012 74.5414 35.8156 74.5414 35.8402C74.5414 35.8792 74.3419 36.3472 74.082 36.9218C74.0366 37.0219 73.8918 37.3704 73.7603 37.6961C73.6289 38.0218 73.4665 38.4105 73.4015 38.561C73.3353 38.7113 73.1448 39.1725 72.9762 39.5857L72.6715 40.337H71.411C70.7181 40.337 70.1335 40.3063 70.1103 40.2688L70.11 40.2788ZM86.0402 30.7383C86.0402 30.6934 85.7247 29.9133 85.4525 29.2849C85.3874 29.1347 85.2375 28.7457 85.1185 28.42C85 28.0943 84.8493 27.7256 84.7844 27.6011C84.7193 27.4759 84.6658 27.3399 84.6654 27.3C84.6639 27.2365 84.5031 26.8468 84.2061 26.1892C84.1606 26.0891 84.0159 25.7406 83.8844 25.4149C83.7529 25.0892 83.5921 24.7006 83.5256 24.55C83.4595 24.3997 83.3292 24.0722 83.2364 23.8218C83.1437 23.5714 83.0152 23.2641 82.9502 23.1381C82.8856 23.0129 82.8324 22.8754 82.8321 22.8339C82.8321 22.7914 82.7719 22.6281 82.6991 22.4698C82.6262 22.3116 82.4145 21.7939 82.2289 21.3176C82.0433 20.8413 81.8206 20.2883 81.7324 20.0885C81.6449 19.8888 81.5159 19.5908 81.4463 19.4279C81.287 19.0592 81.1834 19.0884 81.0272 19.547C80.96 19.7452 80.8663 19.9879 80.8184 20.0878C80.7707 20.1879 80.6451 20.4749 80.5384 20.7254C80.432 20.9758 80.308 21.2631 80.2616 21.3629C80.187 21.5273 79.1898 23.8978 77.9571 26.8322C77.705 27.4329 77.4622 28.0075 77.4173 28.1073C77.3725 28.2072 77.1668 28.6988 76.9611 29.1996C76.7554 29.7005 76.5265 30.2443 76.4522 30.4087C76.378 30.5731 76.3177 30.7267 76.3177 30.7498C76.3177 30.7731 78.4984 30.7922 81.1741 30.7922C83.8498 30.7922 86.0305 30.7704 86.0305 30.7439L86.0402 30.7383ZM116.818 40.2327C116.794 40.1686 116.784 34.6866 116.797 28.0497L116.821 15.9897H119.202L119.226 21.3821L119.25 26.7746H133.633V15.9436H136.108V40.3709H133.633V28.9869H119.25L119.203 40.3249L118.032 40.3504C117.146 40.3697 116.85 40.3476 116.816 40.2593L116.818 40.2327ZM141.564 28.1419V15.9436H157.649V18.2173H143.992V26.7746H155.901V28.9561H143.992V38.0665H157.927V40.3402H141.533L141.564 28.1419Z" fill="#AA0000"/>
<defs>
<linearGradient id="paint0_linear_633_29430" x1="22.8566" y1="5.18481" x2="35.4784" y2="1.61327" gradientUnits="userSpaceOnUse">
<stop stop-color="#F59723"/>
<stop offset="0.312" stop-color="#F69822"/>
<stop offset="0.838" stop-color="#E87726"/>
</linearGradient>
<linearGradient id="paint1_linear_633_29430" x1="-4.80679" y1="61.5736" x2="20.6097" y2="6.62618" gradientUnits="userSpaceOnUse">
<stop offset="0.323" stop-color="#9C2063"/>
<stop offset="0.63" stop-color="#C82037"/>
<stop offset="0.751" stop-color="#CC2135"/>
<stop offset="1" stop-color="#E87726"/>
</linearGradient>
<linearGradient id="paint2_linear_633_29430" x1="3.84106" y1="57.5016" x2="18.9799" y2="24.7732" gradientUnits="userSpaceOnUse">
<stop stop-color="#282661"/>
<stop offset="0.0955" stop-color="#662E8C"/>
<stop offset="0.788" stop-color="#9E2064"/>
<stop offset="0.949" stop-color="#CC2032"/>
</linearGradient>
<linearGradient id="paint3_linear_633_29430" x1="-3.88673" y1="58.2583" x2="21.5297" y2="3.3109" gradientUnits="userSpaceOnUse">
<stop offset="0.323" stop-color="#9C2063"/>
<stop offset="0.63" stop-color="#C82037"/>
<stop offset="0.751" stop-color="#CC2135"/>
<stop offset="1" stop-color="#E87726"/>
</linearGradient>
<linearGradient id="paint4_linear_633_29430" x1="-1.25638" y1="54.5923" x2="12.097" y2="25.7239" gradientUnits="userSpaceOnUse">
<stop stop-color="#282661"/>
<stop offset="0.0955" stop-color="#662E8C"/>
<stop offset="0.788" stop-color="#9E2064"/>
<stop offset="0.949" stop-color="#CC2032"/>
</linearGradient>
<linearGradient id="paint5_linear_633_29430" x1="1.84666" y1="60.9104" x2="27.2631" y2="5.96299" gradientUnits="userSpaceOnUse">
<stop offset="0.323" stop-color="#9C2063"/>
<stop offset="0.63" stop-color="#C82037"/>
<stop offset="0.751" stop-color="#CC2135"/>
<stop offset="1" stop-color="#E87726"/>
</linearGradient>
<linearGradient id="paint6_linear_633_29430" x1="-0.0392475" y1="64.1726" x2="25.3772" y2="9.22516" gradientUnits="userSpaceOnUse">
<stop offset="0.323" stop-color="#9C2063"/>
<stop offset="0.63" stop-color="#C82037"/>
<stop offset="0.751" stop-color="#CC2135"/>
<stop offset="1" stop-color="#E87726"/>
</linearGradient>
<linearGradient id="paint7_linear_633_29430" x1="3.54639" y1="61.69" x2="28.9639" y2="6.75382" gradientUnits="userSpaceOnUse">
<stop offset="0.323" stop-color="#9C2063"/>
<stop offset="0.63" stop-color="#C82037"/>
<stop offset="0.751" stop-color="#CC2135"/>
<stop offset="1" stop-color="#E87726"/>
</linearGradient>
<linearGradient id="paint8_linear_633_29430" x1="3.35178" y1="61.5992" x2="28.7694" y2="6.66323" gradientUnits="userSpaceOnUse">
<stop offset="0.323" stop-color="#9C2063"/>
<stop offset="0.63" stop-color="#C82037"/>
<stop offset="0.751" stop-color="#CC2135"/>
<stop offset="1" stop-color="#E87726"/>
</linearGradient>
<linearGradient id="paint9_linear_633_29430" x1="17.8925" y1="30.3928" x2="23.1621" y2="19.0034" gradientUnits="userSpaceOnUse">
<stop offset="0.323" stop-color="#9C2063"/>
<stop offset="0.63" stop-color="#C82037"/>
<stop offset="0.751" stop-color="#CC2135"/>
<stop offset="1" stop-color="#E87726"/>
</linearGradient>
</defs>
</svg>
