<svg width="314" height="185" viewBox="0 0 314 185" fill="none" xmlns="http://www.w3.org/2000/svg">
<path d="M265.28 170.603V25.8004C265.28 23.5912 263.489 21.8004 261.28 21.8004H238.221H184.103H157.044H52.8091C50.5999 21.8004 48.8091 23.5912 48.8091 25.8004V170.603C48.8091 172.812 50.5999 174.603 52.8091 174.603H261.28C263.489 174.603 265.28 172.812 265.28 170.603Z" fill="white" stroke="#787878"/>
<rect x="61.4902" y="43.4474" width="151.529" height="79.3726" rx="8" fill="#DADDC6"/>
<rect x="61.4902" y="133.643" width="57.7255" height="50.5098" rx="8" fill="#C7D8CE"/>
<rect x="124.627" y="133.643" width="57.7255" height="50.5098" rx="8" fill="#C7D8CE"/>
<rect x="187.765" y="133.643" width="57.7255" height="50.5098" rx="8" fill="#C7D8CE"/>
<path d="M277.961 140.467V13.1729C277.961 10.9638 276.17 9.17291 273.961 9.17291H254.059H206.255H182.353H90.7451C88.536 9.17291 86.7451 10.9638 86.7451 13.1729V140.467C86.7451 142.676 88.536 144.467 90.7451 144.467H273.961C276.17 144.467 277.961 142.676 277.961 140.467Z" fill="white" stroke="#787878"/>
<path d="M175.34 85.4359L158.348 78.9559V74.7799L175.34 68.2999V73.3399L169.508 75.1399L164.612 76.7959V76.9399L169.508 78.5959L175.34 80.3959V85.4359ZM177.12 94.5799L183.456 63.2599H187.416L181.08 94.5799H177.12ZM189.913 85.4359V80.3959L195.745 78.5959L200.641 76.9399V76.7959L195.745 75.1399L189.913 73.3399V68.2999L206.905 74.7799V78.9559L189.913 85.4359Z" fill="#457E5C"/>
<circle cx="106.589" cy="25.4082" r="5.41176" fill="#A3A3A3"/>
<circle cx="124.628" cy="25.4082" r="5.41176" fill="#CCCCCC"/>
<circle cx="142.667" cy="25.4082" r="5.41176" fill="#DDDDDD"/>
<path d="M20 171.526C20 178.5 25.6535 184.153 32.6274 184.153H281.569C288.543 184.153 294.196 178.5 294.196 171.526H20Z" fill="#787878"/>
</svg>
