<svg width="60" height="60" viewBox="0 0 60 60" fill="none" xmlns="http://www.w3.org/2000/svg">
<g clip-path="url(#clip0_1885_32764)">
<path d="M22.611 30C22.611 26.0646 25.7864 22.8707 29.6988 22.8707C33.6113 22.8707 36.7866 26.0646 36.7866 30C36.7866 33.9354 33.6113 37.1293 29.6988 37.1293C25.7864 37.1863 22.611 33.9354 22.611 30ZM29.6988 0C15.75 0 4.06932 9.58175 0.780579 22.5856C0.780579 22.6996 0.723877 22.7567 0.723877 22.8707C0.723877 23.6692 1.3476 24.2966 2.14144 24.2966H14.1624C14.7294 24.2966 15.2397 23.9544 15.4665 23.4411C17.9614 18.0228 23.3482 14.2586 29.6988 14.2586C38.3176 14.2586 45.3487 21.3308 45.3487 30C45.3487 38.6692 38.3176 45.7414 29.6988 45.7414C23.4049 45.7414 17.9614 41.9772 15.4665 36.5589C15.2397 36.0456 14.7294 35.7034 14.1624 35.7034H2.14144C1.3476 35.7034 0.723877 36.3308 0.723877 37.1293C0.723877 37.2433 0.723877 37.3004 0.780579 37.4145C4.06932 50.4183 15.75 60 29.6988 60C46.1992 60 59.581 46.5399 59.581 29.943C59.581 13.403 46.1992 0 29.6988 0Z" fill="#343434"/>
</g>
<defs>
<clipPath id="clip0_1885_32764">
<rect width="58.8571" height="60" fill="white" transform="translate(0.723877)"/>
</clipPath>
</defs>
</svg>
