<svg width="59" height="32" viewBox="0 0 59 32" fill="none" xmlns="http://www.w3.org/2000/svg">
<rect y="-0.000488281" width="59" height="32" rx="4" fill="#502D17"/>
<path d="M17.408 22.1915C16.5333 22.1915 15.7493 21.9782 15.056 21.5515C14.3733 21.1142 13.8293 20.4902 13.424 19.6795C13.0293 18.8688 12.832 17.8928 12.832 16.7515C12.832 15.6208 13.0347 14.6502 13.44 13.8395C13.8453 13.0288 14.4 12.4048 15.104 11.9675C15.808 11.5302 16.6027 11.3115 17.488 11.3115C18.128 11.3115 18.6933 11.4448 19.184 11.7115C19.6747 11.9675 20.0693 12.2662 20.368 12.6075L19.648 13.4715C19.3707 13.1728 19.056 12.9328 18.704 12.7515C18.352 12.5702 17.952 12.4795 17.504 12.4795C16.8427 12.4795 16.2613 12.6555 15.76 13.0075C15.2693 13.3488 14.8853 13.8342 14.608 14.4635C14.3413 15.0928 14.208 15.8448 14.208 16.7195C14.208 17.5942 14.3413 18.3568 14.608 19.0075C14.8747 19.6475 15.248 20.1435 15.728 20.4955C16.2187 20.8475 16.7947 21.0235 17.456 21.0235C17.9573 21.0235 18.4053 20.9168 18.8 20.7035C19.1947 20.4902 19.5573 20.2022 19.888 19.8395L20.624 20.6715C20.208 21.1515 19.7387 21.5248 19.216 21.7915C18.6933 22.0582 18.0907 22.1915 17.408 22.1915ZM25.4766 22.1915C24.8473 22.1915 24.2553 22.0315 23.7006 21.7115C23.1566 21.3915 22.714 20.9275 22.3726 20.3195C22.042 19.7115 21.8766 18.9808 21.8766 18.1275C21.8766 17.2528 22.042 16.5115 22.3726 15.9035C22.714 15.2955 23.1566 14.8315 23.7006 14.5115C24.2553 14.1915 24.8473 14.0315 25.4766 14.0315C26.1166 14.0315 26.7086 14.1915 27.2526 14.5115C27.7966 14.8315 28.234 15.2955 28.5646 15.9035C28.906 16.5115 29.0766 17.2528 29.0766 18.1275C29.0766 18.9808 28.906 19.7115 28.5646 20.3195C28.234 20.9275 27.7966 21.3915 27.2526 21.7115C26.7086 22.0315 26.1166 22.1915 25.4766 22.1915ZM25.4766 21.1035C26.1486 21.1035 26.6873 20.8315 27.0926 20.2875C27.5086 19.7328 27.7166 19.0128 27.7166 18.1275C27.7166 17.2315 27.5086 16.5062 27.0926 15.9515C26.6873 15.3968 26.1486 15.1195 25.4766 15.1195C24.8153 15.1195 24.2766 15.3968 23.8606 15.9515C23.4446 16.5062 23.2366 17.2315 23.2366 18.1275C23.2366 19.0128 23.4446 19.7328 23.8606 20.2875C24.2766 20.8315 24.8153 21.1035 25.4766 21.1035ZM31.1245 25.2795V14.2235H32.2125L32.3245 15.1195H32.3725C32.7245 14.8208 33.1085 14.5648 33.5245 14.3515C33.9512 14.1382 34.3938 14.0315 34.8525 14.0315C35.8552 14.0315 36.6178 14.3942 37.1405 15.1195C37.6632 15.8342 37.9245 16.7942 37.9245 17.9995C37.9245 18.8742 37.7645 19.6262 37.4445 20.2555C37.1352 20.8848 36.7245 21.3648 36.2125 21.6955C35.7112 22.0262 35.1618 22.1915 34.5645 22.1915C34.2018 22.1915 33.8392 22.1115 33.4765 21.9515C33.1245 21.7915 32.7672 21.5728 32.4045 21.2955L32.4365 22.6555V25.2795H31.1245ZM34.3405 21.0875C34.9805 21.0875 35.5085 20.8155 35.9245 20.2715C36.3512 19.7168 36.5645 18.9595 36.5645 17.9995C36.5645 17.1462 36.4045 16.4582 36.0845 15.9355C35.7752 15.4022 35.2525 15.1355 34.5165 15.1355C34.1858 15.1355 33.8498 15.2262 33.5085 15.4075C33.1778 15.5888 32.8205 15.8502 32.4365 16.1915V20.2715C32.7885 20.5702 33.1298 20.7835 33.4605 20.9115C33.7912 21.0288 34.0845 21.0875 34.3405 21.0875ZM40.065 25.3435C39.8943 25.3435 39.729 25.3275 39.569 25.2955C39.4197 25.2635 39.281 25.2262 39.153 25.1835L39.409 24.1435C39.4943 24.1648 39.5903 24.1862 39.697 24.2075C39.8037 24.2395 39.905 24.2555 40.001 24.2555C40.4383 24.2555 40.801 24.0955 41.089 23.7755C41.377 23.4662 41.601 23.0715 41.761 22.5915L41.937 22.0155L38.817 14.2235H40.177L41.761 18.5275C41.8783 18.8582 42.001 19.2155 42.129 19.5995C42.2677 19.9835 42.3957 20.3568 42.513 20.7195H42.577C42.6943 20.3675 42.8063 19.9995 42.913 19.6155C43.0197 19.2315 43.1263 18.8688 43.233 18.5275L44.625 14.2235H45.905L42.977 22.6395C42.7957 23.1515 42.577 23.6102 42.321 24.0155C42.0757 24.4208 41.7663 24.7408 41.393 24.9755C41.0303 25.2208 40.5877 25.3435 40.065 25.3435Z" fill="white"/>
</svg>
