<svg width="38" height="28" viewBox="0 0 38 28" fill="none" xmlns="http://www.w3.org/2000/svg">
<path d="M31.6067 2.32105C29.2421 1.24674 26.7064 0.45523 24.0552 0.00190165C24.0069 -0.00684744 23.9586 0.015017 23.9338 0.0587469C23.6077 0.633057 23.2464 1.38229 22.9935 1.97119C20.1419 1.54848 17.3049 1.54848 14.5118 1.97119C14.2588 1.3692 13.8845 0.633057 13.5569 0.0587469C13.532 0.0164761 13.4838 -0.00538839 13.4355 0.00190165C10.7857 0.453781 8.25003 1.24529 5.88394 2.32105C5.86346 2.32979 5.8459 2.34438 5.83425 2.36332C1.02455 9.47818 -0.293032 16.4182 0.353328 23.2721C0.356253 23.3056 0.375263 23.3377 0.401586 23.3581C3.57489 25.6655 6.64878 27.0664 9.66558 27.9949C9.71386 28.0095 9.76502 27.992 9.79574 27.9526C10.5094 26.9877 11.1455 25.9702 11.6909 24.9003C11.7231 24.8376 11.6924 24.7633 11.6266 24.7385C10.6176 24.3595 9.6568 23.8974 8.73259 23.3727C8.65949 23.3304 8.65364 23.2269 8.72089 23.1773C8.91538 23.033 9.10992 22.8829 9.29563 22.7313C9.32922 22.7036 9.37604 22.6977 9.41555 22.7152C15.4872 25.46 22.0605 25.46 28.0605 22.7152C28.1 22.6963 28.1468 22.7021 28.1819 22.7298C28.3676 22.8814 28.5621 23.033 28.7581 23.1773C28.8253 23.2269 28.8209 23.3304 28.7478 23.3727C27.8236 23.9076 26.8628 24.3595 25.8524 24.737C25.7866 24.7618 25.7573 24.8376 25.7895 24.9003C26.3466 25.9687 26.9828 26.9862 27.6832 27.9512C27.7125 27.992 27.7651 28.0095 27.8134 27.9949C30.8448 27.0664 33.9187 25.6655 37.092 23.3581C37.1198 23.3377 37.1373 23.3071 37.1403 23.2735C37.9138 15.3496 35.8446 8.46657 31.655 2.36477C31.6447 2.34438 31.6272 2.32979 31.6067 2.32105ZM12.5976 19.0988C10.7696 19.0988 9.26344 17.4371 9.26344 15.3963C9.26344 13.3556 10.7404 11.6939 12.5976 11.6939C14.4694 11.6939 15.961 13.3702 15.9318 15.3963C15.9318 17.4371 14.4548 19.0988 12.5976 19.0988ZM24.9252 19.0988C23.0973 19.0988 21.5911 17.4371 21.5911 15.3963C21.5911 13.3556 23.068 11.6939 24.9252 11.6939C26.7971 11.6939 28.2886 13.3702 28.2594 15.3963C28.2594 17.4371 26.7971 19.0988 24.9252 19.0988Z" fill="white"/>
</svg>
