<svg width="30" height="23" viewBox="0 0 30 23" fill="none" xmlns="http://www.w3.org/2000/svg">
<path d="M28.8754 7.89395C29.0963 7.71836 29.4248 7.88262 29.4248 8.16016V19.7432C29.4248 21.2441 28.207 22.4619 26.7061 22.4619H3.14355C1.64258 22.4619 0.424805 21.2441 0.424805 19.7432V8.16582C0.424805 7.88262 0.747656 7.72402 0.974219 7.89961C2.24297 8.88516 3.9252 10.1369 9.70254 14.334C10.8977 15.2062 12.9141 17.0414 14.9248 17.0301C16.9469 17.0471 19.0029 15.1723 20.1527 14.334C25.9301 10.1369 27.6066 8.87949 28.8754 7.89395ZM14.9248 15.2119C16.2389 15.2346 18.1307 13.558 19.0822 12.867C26.5984 7.4125 27.1705 6.93672 28.9037 5.57734C29.2322 5.32246 29.4248 4.92598 29.4248 4.50684V3.43066C29.4248 1.92969 28.207 0.711914 26.7061 0.711914H3.14355C1.64258 0.711914 0.424805 1.92969 0.424805 3.43066V4.50684C0.424805 4.92598 0.617383 5.3168 0.945898 5.57734C2.6791 6.93105 3.25117 7.4125 10.7674 12.867C11.7189 13.558 13.6107 15.2346 14.9248 15.2119Z" fill="#DDDDDD"/>
</svg>
