<svg width="42" height="42" viewBox="0 0 42 42" fill="none" xmlns="http://www.w3.org/2000/svg">
<path d="M2.39004 18.8361V18.7675C2.39004 14.9262 5.48659 11.778 9.25768 11.778C9.89355 11.778 10.5301 11.8643 11.1669 12.037L11.1685 12.0374C11.3449 12.0822 11.6001 12.0936 11.7686 11.9346C11.9713 11.8242 12.064 11.6162 12.1084 11.3909L12.1087 11.3909L12.1097 11.3831C12.7064 6.26816 16.9657 2.41256 22.0748 2.41256C27.6091 2.41256 32.0823 7.00466 32.0823 12.5969C32.0823 13.5947 31.9544 14.591 31.6568 15.5421C31.5573 15.8465 31.6593 16.1511 31.904 16.3504L31.9041 16.3504C32.1416 16.5436 32.4442 16.6043 32.7041 16.4479C33.3745 16.1075 34.0457 15.9791 34.806 15.9791C37.4594 15.9791 39.652 18.1651 39.652 20.9116C39.652 23.6158 37.5012 25.8442 34.806 25.8442L9.25879 25.8445C5.50783 25.7581 2.42627 22.6877 2.39004 18.8361ZM26.605 27.2702H34.7631C38.2608 27.2702 41.0995 24.3793 41.0995 20.8246C41.0995 17.2699 38.2608 14.379 34.7631 14.379C34.296 14.379 33.8248 14.4144 33.3828 14.5187C33.4923 13.8622 33.5294 13.207 33.5294 12.5541C33.573 6.15374 28.4111 0.9 22.0746 0.9C16.5099 0.9 11.7614 4.95731 10.7677 10.4251C10.284 10.3434 9.79023 10.2654 9.25755 10.2654C4.64165 10.2654 0.899512 14.0754 0.899512 18.7679C0.899512 23.4604 4.64157 27.2704 9.25755 27.2704H15.394V32.672H11.2732C10.9343 31.2233 9.66567 30.1338 8.09619 30.1338C6.31906 30.1338 4.85649 31.6244 4.85649 33.4284C4.85649 35.2324 6.31898 36.723 8.09619 36.723C9.6228 36.723 10.9326 35.6342 11.2732 34.1848H16.139C16.54 34.1848 16.8841 33.8318 16.8841 33.4285L16.8843 27.2708H20.2542V34.5748C18.8282 34.9204 17.7596 36.212 17.7596 37.8054C17.7596 39.6093 19.2221 41.1 20.9993 41.1C22.7765 41.1 24.239 39.6094 24.239 37.8054C24.239 36.2556 23.1712 34.9222 21.7444 34.5748V27.2708H25.1143V33.4288C25.1143 33.8325 25.4587 34.1851 25.8593 34.1851H30.7251C31.064 35.6338 32.3327 36.7233 33.9021 36.7233C35.6793 36.7233 37.1418 35.2327 37.1418 33.4287C37.1422 31.6248 35.6796 30.1341 33.9025 30.1341C32.3758 30.1341 31.066 31.2229 30.7254 32.6724H26.6046L26.605 27.2702ZM8.09647 35.2101C7.12101 35.2101 6.34717 34.4249 6.34717 33.4284C6.34717 32.4316 7.12129 31.6468 8.09647 31.6468C9.07194 31.6468 9.84577 32.4319 9.84577 33.4284C9.84577 34.4249 9.07193 35.2101 8.09647 35.2101ZM22.7491 37.8044C22.7491 38.8012 21.975 39.586 20.9998 39.586C20.0243 39.586 19.2505 38.8009 19.2505 37.8044C19.2505 36.8076 20.0246 36.0227 20.9998 36.0227C21.9753 36.0227 22.7491 36.8079 22.7491 37.8044ZM33.9028 31.6463C34.8783 31.6463 35.6521 32.4314 35.6521 33.4279C35.6521 34.4247 34.878 35.2096 33.9028 35.2096C32.9274 35.2096 32.1535 34.4244 32.1535 33.4279C32.1535 32.4314 32.9274 31.6463 33.9028 31.6463Z" fill="#914618" stroke="#914618" stroke-width="0.2"/>
</svg>
