<svg width="41" height="40" viewBox="0 0 41 40" fill="none" xmlns="http://www.w3.org/2000/svg">
<path d="M11.9261 35.0851C11.1346 35.2893 10.4934 35.868 10.2091 36.6345C9.92477 37.4009 10.0336 38.258 10.5004 38.9291C10.9674 39.6002 11.7331 40 12.5503 40C13.3678 40 14.1334 39.6001 14.6002 38.9291C15.067 38.2581 15.1761 37.4009 14.8917 36.6345C14.6074 35.868 13.9663 35.2893 13.1747 35.0851V12.7514L14.3164 13.8934L14.3161 13.8937C14.5603 14.1376 14.9556 14.1373 15.1992 13.8934C15.443 13.6496 15.443 13.2542 15.1989 13.0104L12.9916 10.8019C12.8747 10.6847 12.716 10.6189 12.5502 10.6189C12.3848 10.6189 12.226 10.6847 12.1088 10.8019L9.90158 13.0104C9.65772 13.2542 9.65772 13.6496 9.9013 13.8934C10.1452 14.1373 10.5405 14.1376 10.7844 13.8937L11.9261 12.7517V26.5453L4.06402 18.106V8.94526L5.26408 10.1459H5.26436C5.50822 10.3898 5.90358 10.3898 6.14713 10.1456C6.39099 9.90176 6.39099 9.50639 6.14713 9.26284L3.93987 7.0544V7.05412C3.75573 6.87052 3.47699 6.82058 3.24066 6.92884C3.09558 6.97795 2.97337 7.07923 2.89831 7.21288L0.849766 9.26254V9.26281C0.605626 9.5064 0.605626 9.90177 0.849487 10.1456C1.09307 10.3897 1.48843 10.3897 1.73255 10.1459L2.81567 9.06216L2.8154 18.3515C2.8154 18.5097 2.87538 18.6618 2.98309 18.7776L11.9265 28.3769L11.9261 35.0851ZM12.5506 36.2522L12.5503 36.252C12.8818 36.252 13.1996 36.3834 13.4339 36.6175C13.6686 36.8519 13.8003 37.1697 13.8003 37.5008C13.8005 37.8323 13.6689 38.1501 13.4348 38.3845C13.2004 38.6189 12.8826 38.7506 12.5514 38.7506C12.2199 38.7508 11.9021 38.6192 11.6678 38.3848C11.4334 38.1507 11.3017 37.8329 11.3017 37.5014C11.302 37.1702 11.4337 36.8527 11.6678 36.6186C11.9019 36.3842 12.2194 36.2525 12.5503 36.252L12.5506 36.2522Z" fill="#914618"/>
<path d="M22.4319 3.27483C22.6757 3.5187 23.0711 3.51842 23.315 3.27455C23.5588 3.03069 23.5585 2.63532 23.3147 2.39148L21.1074 0.183037C20.9905 0.0658503 20.8314 0 20.666 0C20.5002 0 20.3415 0.0658489 20.2246 0.183037L18.0173 2.39148C17.7734 2.63534 17.7731 3.03071 18.017 3.27455C18.2609 3.51842 18.6562 3.5187 18.9001 3.27483L20.0415 2.13282V35.0851C19.2502 35.2894 18.6087 35.8681 18.3244 36.6345C18.0404 37.4009 18.1492 38.2581 18.616 38.9291C19.0828 39.6002 19.8484 40 20.6659 40C21.4834 40 22.2491 39.6002 22.7159 38.9291C23.1827 38.2581 23.2915 37.4009 23.0074 36.6345C22.7231 35.8681 22.0817 35.2893 21.2904 35.0851V2.13282L22.4319 3.27483ZM21.9146 37.5014C21.9143 37.8326 21.7826 38.1501 21.5485 38.3839C21.3141 38.618 20.9966 38.7494 20.6654 38.7492C20.3345 38.7492 20.017 38.6175 19.7829 38.3834C19.5488 38.1493 19.4174 37.8315 19.4174 37.5006C19.4174 37.1694 19.5491 36.8519 19.7832 36.6178C20.0173 36.3837 20.3348 36.252 20.666 36.252C20.9972 36.2526 21.3144 36.3842 21.5485 36.6186C21.7826 36.8527 21.9143 37.1702 21.9146 37.5014L21.9146 37.5014Z" fill="#914618"/>
<path d="M38.4345 7.21286C38.3285 7.03987 38.1516 6.92212 37.9507 6.89171C37.7501 6.86102 37.5459 6.92045 37.393 7.0541L35.1857 9.26253V9.26281C34.9418 9.5064 34.9418 9.90177 35.1857 10.1456C35.4293 10.3897 35.8246 10.3897 36.0685 10.1459L37.2688 8.94523V18.106L29.4068 26.5453V12.7517L30.5485 13.894C30.7923 14.1378 31.1877 14.1376 31.4315 13.8937C31.6751 13.6498 31.6751 13.2545 31.4313 13.0106L29.224 10.8022C29.1068 10.685 28.9481 10.6191 28.7826 10.6191C28.6169 10.6191 28.4581 10.685 28.3412 10.8022L26.1339 13.0106C25.8898 13.2545 25.8898 13.6498 26.1337 13.8937C26.3772 14.1376 26.7726 14.1378 27.0167 13.894L28.1584 12.752L28.1581 35.0849C27.3666 35.2892 26.7254 35.8679 26.4411 36.6343C26.1568 37.4007 26.2659 38.2579 26.7327 38.9289C27.1995 39.6 27.9651 39.9998 28.7826 39.9998C29.5998 39.9998 30.3657 39.6 30.8325 38.9289C31.2993 38.2579 31.4081 37.4007 31.1238 36.6343C30.8394 35.8679 30.1983 35.2891 29.4067 35.0849V28.3773L38.3502 18.778C38.4579 18.6622 38.5179 18.5101 38.5179 18.3519V9.06261L39.601 10.1463V10.146C39.8448 10.3899 40.2402 10.3899 40.4838 10.1458C40.7276 9.9019 40.7276 9.50654 40.4838 9.26298L38.4345 7.21286ZM30.0303 37.5016H30.0306C30.0303 37.8328 29.8986 38.1503 29.6643 38.3841C29.4302 38.6182 29.1127 38.7496 28.7815 38.7493C28.4503 38.7493 28.1328 38.6176 27.8987 38.3835C27.6646 38.1494 27.5332 37.8316 27.5335 37.5007C27.5335 37.1695 27.6649 36.852 27.8993 36.6179C28.1334 36.3838 28.4509 36.2521 28.7821 36.2521C29.113 36.2527 29.4305 36.3844 29.6646 36.6188C29.8986 36.8529 30.0303 37.1704 30.0306 37.5016L30.0303 37.5016Z" fill="#914618"/>
<path d="M16.6084 23.1237C16.2636 23.1237 15.984 23.4033 15.9843 23.7482V33.1182C15.9843 33.4631 16.2636 33.7424 16.6084 33.7424C16.9533 33.7424 17.2329 33.4631 17.2329 33.1182V23.7482C17.2329 23.4033 16.9533 23.1237 16.6084 23.1237Z" fill="#914618"/>
<path d="M24.7238 33.7423C25.0687 33.742 25.3483 33.4624 25.348 33.1176V23.7475C25.348 23.4029 25.0687 23.1234 24.7238 23.1234C24.3789 23.1234 24.0994 23.4029 24.0994 23.7475V33.1176C24.0994 33.4624 24.3789 33.742 24.7238 33.7423Z" fill="#914618"/>
</svg>
