<svg width="116" height="48" fill="none" xmlns="http://www.w3.org/2000/svg">
<rect y="-0.000244141" width="116" height="48" rx="4" fill="#502D17"/>
<path d="M25.568 30.1918C24.6507 30.1918 23.8347 29.9784 23.12 29.5518C22.4053 29.1144 21.8453 28.4904 21.44 27.6798C21.0347 26.8691 20.832 25.8931 20.832 24.7518C20.832 23.6211 21.04 22.6504 21.456 21.8398C21.872 21.0291 22.4427 20.4051 23.168 19.9678C23.8933 19.5304 24.72 19.3118 25.648 19.3118C26.3733 19.3118 26.9813 19.4504 27.472 19.7278C27.9733 19.9944 28.3733 20.2878 28.672 20.6078L27.936 21.4718C27.6693 21.1944 27.36 20.9598 27.008 20.7678C26.656 20.5758 26.2133 20.4798 25.68 20.4798C24.976 20.4798 24.3627 20.6558 23.84 21.0078C23.3173 21.3491 22.912 21.8344 22.624 22.4638C22.3467 23.0931 22.208 23.8451 22.208 24.7198C22.208 26.0424 22.5067 27.0931 23.104 27.8718C23.712 28.6398 24.576 29.0238 25.696 29.0238C26.0693 29.0238 26.4267 28.9704 26.768 28.8638C27.1093 28.7464 27.3813 28.5918 27.584 28.3998V25.6638H25.36V24.5598H28.8V28.9758C28.4693 29.3278 28.0213 29.6211 27.456 29.8558C26.9013 30.0798 26.272 30.1918 25.568 30.1918ZM34.339 30.1918C33.6457 30.1918 33.0163 30.0318 32.451 29.7118C31.8857 29.3811 31.4377 28.9118 31.107 28.3038C30.7763 27.6958 30.611 26.9704 30.611 26.1278C30.611 25.2744 30.7763 24.5438 31.107 23.9358C31.4483 23.3278 31.8857 22.8584 32.419 22.5278C32.9523 22.1971 33.5123 22.0318 34.099 22.0318C35.091 22.0318 35.8537 22.3624 36.387 23.0238C36.931 23.6851 37.203 24.5704 37.203 25.6798C37.203 25.8184 37.1977 25.9571 37.187 26.0958C37.187 26.2238 37.1763 26.3358 37.155 26.4318H31.907C31.9603 27.2531 32.2163 27.9091 32.675 28.3998C33.1443 28.8904 33.7523 29.1358 34.499 29.1358C34.8723 29.1358 35.2137 29.0824 35.523 28.9758C35.843 28.8584 36.147 28.7091 36.435 28.5278L36.899 29.3918C36.5683 29.6051 36.1897 29.7918 35.763 29.9518C35.347 30.1118 34.8723 30.1918 34.339 30.1918ZM31.891 25.4878H36.051C36.051 24.6984 35.8803 24.1011 35.539 23.6958C35.2083 23.2798 34.739 23.0718 34.131 23.0718C33.587 23.0718 33.0963 23.2851 32.659 23.7118C32.2323 24.1278 31.9763 24.7198 31.891 25.4878ZM41.4163 30.1918C40.5843 30.1918 40.0029 29.9518 39.6723 29.4718C39.3523 28.9918 39.1923 28.3678 39.1923 27.5998V23.2958H38.0403V22.3038L39.2563 22.2238L39.4163 20.0478H40.5203V22.2238H42.6163V23.2958H40.5203V27.6158C40.5203 28.0958 40.6056 28.4691 40.7763 28.7358C40.9576 28.9918 41.2723 29.1198 41.7203 29.1198C41.8589 29.1198 42.0083 29.0984 42.1683 29.0558C42.3283 29.0024 42.4723 28.9544 42.6003 28.9118L42.8563 29.9038C42.6429 29.9784 42.4083 30.0424 42.1523 30.0958C41.9069 30.1598 41.6616 30.1918 41.4163 30.1918ZM50.6176 30.1918C49.8816 30.1918 49.199 30.0531 48.5696 29.7758C47.9403 29.4878 47.3963 29.1091 46.9376 28.6398L47.7376 27.7118C48.111 28.1064 48.5483 28.4264 49.0496 28.6718C49.5616 28.9064 50.0896 29.0238 50.6336 29.0238C51.327 29.0238 51.8656 28.8691 52.2496 28.5598C52.6336 28.2398 52.8256 27.8238 52.8256 27.3118C52.8256 26.9491 52.7456 26.6611 52.5856 26.4478C52.4363 26.2344 52.2283 26.0531 51.9616 25.9038C51.7056 25.7544 51.4123 25.6051 51.0816 25.4558L49.5776 24.7998C49.247 24.6611 48.9163 24.4798 48.5856 24.2558C48.2656 24.0318 47.9936 23.7438 47.7696 23.3918C47.5563 23.0398 47.4496 22.6078 47.4496 22.0958C47.4496 21.5624 47.5883 21.0878 47.8656 20.6718C48.1536 20.2451 48.5483 19.9144 49.0496 19.6798C49.551 19.4344 50.1163 19.3118 50.7456 19.3118C51.375 19.3118 51.9563 19.4344 52.4896 19.6798C53.023 19.9144 53.4763 20.2238 53.8496 20.6078L53.1296 21.4718C52.8096 21.1624 52.4523 20.9224 52.0576 20.7518C51.6736 20.5704 51.2363 20.4798 50.7456 20.4798C50.159 20.4798 49.6843 20.6184 49.3216 20.8958C48.9696 21.1731 48.7936 21.5464 48.7936 22.0158C48.7936 22.3464 48.879 22.6238 49.0496 22.8478C49.231 23.0611 49.455 23.2371 49.7216 23.3758C49.9883 23.5144 50.2603 23.6424 50.5376 23.7598L52.0256 24.3998C52.431 24.5704 52.7936 24.7784 53.1136 25.0238C53.4443 25.2584 53.7056 25.5518 53.8976 25.9038C54.0896 26.2451 54.1856 26.6771 54.1856 27.1998C54.1856 27.7544 54.0416 28.2611 53.7536 28.7198C53.4656 29.1678 53.055 29.5251 52.5216 29.7918C51.9883 30.0584 51.3536 30.1918 50.6176 30.1918ZM58.1819 30.1918C57.3499 30.1918 56.7685 29.9518 56.4379 29.4718C56.1179 28.9918 55.9579 28.3678 55.9579 27.5998V23.2958H54.8059V22.3038L56.0219 22.2238L56.1819 20.0478H57.2859V22.2238H59.3819V23.2958H57.2859V27.6158C57.2859 28.0958 57.3712 28.4691 57.5419 28.7358C57.7232 28.9918 58.0379 29.1198 58.4859 29.1198C58.6245 29.1198 58.7739 29.0984 58.9339 29.0558C59.0939 29.0024 59.2379 28.9544 59.3659 28.9118L59.6219 29.9038C59.4085 29.9784 59.1739 30.0424 58.9179 30.0958C58.6725 30.1598 58.4272 30.1918 58.1819 30.1918ZM62.5884 30.1918C61.9377 30.1918 61.3937 29.9998 60.9564 29.6158C60.5297 29.2211 60.3164 28.6771 60.3164 27.9838C60.3164 27.1304 60.695 26.4798 61.4524 26.0318C62.2204 25.5731 63.431 25.2531 65.0844 25.0718C65.0844 24.7411 65.0364 24.4264 64.9404 24.1278C64.855 23.8291 64.695 23.5891 64.4604 23.4078C64.2364 23.2158 63.911 23.1198 63.4844 23.1198C63.0364 23.1198 62.615 23.2051 62.2204 23.3758C61.8257 23.5464 61.4737 23.7384 61.1644 23.9518L60.6524 23.0398C61.015 22.8051 61.4577 22.5811 61.9804 22.3678C62.5137 22.1438 63.0897 22.0318 63.7084 22.0318C64.6577 22.0318 65.3457 22.3251 65.7724 22.9118C66.199 23.4878 66.4124 24.2611 66.4124 25.2318V29.9998H65.3244L65.2124 29.0718H65.1644C64.8017 29.3704 64.4017 29.6318 63.9644 29.8558C63.5377 30.0798 63.079 30.1918 62.5884 30.1918ZM62.9724 29.1358C63.3457 29.1358 63.6977 29.0451 64.0284 28.8638C64.359 28.6824 64.711 28.4264 65.0844 28.0958V25.9358C63.7937 26.0958 62.887 26.3358 62.3644 26.6558C61.8524 26.9758 61.5964 27.3864 61.5964 27.8878C61.5964 28.3251 61.7297 28.6451 61.9964 28.8478C62.263 29.0398 62.5884 29.1358 62.9724 29.1358ZM68.8589 29.9998V22.2238H69.9469L70.0589 23.6318H70.1069C70.3735 23.1411 70.6989 22.7518 71.0829 22.4638C71.4669 22.1758 71.8775 22.0318 72.3149 22.0318C72.6242 22.0318 72.9015 22.0851 73.1469 22.1918L72.8909 23.3438C72.7629 23.3011 72.6455 23.2691 72.5389 23.2478C72.4322 23.2264 72.2989 23.2158 72.1389 23.2158C71.8082 23.2158 71.4615 23.3491 71.0989 23.6158C70.7469 23.8824 70.4375 24.3464 70.1709 25.0078V29.9998H68.8589ZM76.8538 30.1918C76.0218 30.1918 75.4404 29.9518 75.1098 29.4718C74.7898 28.9918 74.6298 28.3678 74.6298 27.5998V23.2958H73.4778V22.3038L74.6938 22.2238L74.8538 20.0478H75.9578V22.2238H78.0538V23.2958H75.9578V27.6158C75.9578 28.0958 76.0431 28.4691 76.2138 28.7358C76.3951 28.9918 76.7098 29.1198 77.1578 29.1198C77.2964 29.1198 77.4458 29.0984 77.6058 29.0558C77.7658 29.0024 77.9098 28.9544 78.0378 28.9118L78.2938 29.9038C78.0804 29.9784 77.8458 30.0424 77.5898 30.0958C77.3444 30.1598 77.0991 30.1918 76.8538 30.1918ZM82.7453 30.1918C82.0519 30.1918 81.4226 30.0318 80.8573 29.7118C80.2919 29.3811 79.8439 28.9118 79.5133 28.3038C79.1826 27.6958 79.0173 26.9704 79.0173 26.1278C79.0173 25.2744 79.1826 24.5438 79.5133 23.9358C79.8546 23.3278 80.2919 22.8584 80.8253 22.5278C81.3586 22.1971 81.9186 22.0318 82.5052 22.0318C83.4973 22.0318 84.2599 22.3624 84.7933 23.0238C85.3373 23.6851 85.6093 24.5704 85.6093 25.6798C85.6093 25.8184 85.6039 25.9571 85.5933 26.0958C85.5933 26.2238 85.5826 26.3358 85.5613 26.4318H80.3133C80.3666 27.2531 80.6226 27.9091 81.0813 28.3998C81.5506 28.8904 82.1586 29.1358 82.9053 29.1358C83.2786 29.1358 83.6199 29.0824 83.9293 28.9758C84.2493 28.8584 84.5533 28.7091 84.8413 28.5278L85.3053 29.3918C84.9746 29.6051 84.5959 29.7918 84.1693 29.9518C83.7533 30.1118 83.2786 30.1918 82.7453 30.1918ZM80.2973 25.4878H84.4573C84.4573 24.6984 84.2866 24.1011 83.9453 23.6958C83.6146 23.2798 83.1453 23.0718 82.5373 23.0718C81.9933 23.0718 81.5026 23.2851 81.0653 23.7118C80.6386 24.1278 80.3826 24.7198 80.2973 25.4878ZM90.1868 30.1918C89.2161 30.1918 88.4374 29.8398 87.8508 29.1358C87.2641 28.4211 86.9708 27.4184 86.9708 26.1278C86.9708 25.2851 87.1254 24.5598 87.4348 23.9518C87.7548 23.3331 88.1708 22.8584 88.6828 22.5278C89.2054 22.1971 89.7601 22.0318 90.3468 22.0318C90.7948 22.0318 91.1841 22.1118 91.5148 22.2718C91.8454 22.4318 92.1814 22.6504 92.5228 22.9278L92.4588 21.5998V18.6078H93.7868V29.9998H92.6988L92.5868 29.0878H92.5388C92.2401 29.3864 91.8881 29.6478 91.4828 29.8718C91.0774 30.0851 90.6454 30.1918 90.1868 30.1918ZM90.4748 29.0878C91.1574 29.0878 91.8188 28.7304 92.4588 28.0158V23.9518C92.1281 23.6531 91.8081 23.4451 91.4988 23.3278C91.2001 23.1998 90.8908 23.1358 90.5708 23.1358C90.1548 23.1358 89.7761 23.2638 89.4348 23.5198C89.1041 23.7651 88.8374 24.1118 88.6348 24.5598C88.4321 24.9971 88.3307 25.5144 88.3307 26.1118C88.3307 27.0398 88.5174 27.7704 88.8908 28.3038C89.2641 28.8264 89.7921 29.0878 90.4748 29.0878Z" fill="white"/>
</svg>           