<svg width="61" height="60" viewBox="0 0 61 60" fill="none" xmlns="http://www.w3.org/2000/svg">
<path d="M13.4791 0H16.1744V2.67188H18.6588V0H21.3541V8.08594H18.6588V5.39062H16.1979V8.08594H13.4791M24.9166 2.69531H22.5377V0H30.0026V2.69531H27.6119V8.08594H24.9166M31.1862 0H34.0104L35.7448 2.84766L37.4791 0H40.3033V8.08594H37.608V4.07812L35.7213 6.98438L33.8346 4.07812V8.08594H31.1862M41.6393 0H44.3346V5.41406H48.1549V8.08594H41.6393" fill="black"/>
<path d="M13.3854 55.1953L9.51819 11.7891H52.0338L48.1666 55.1719L30.7408 60" fill="#E44D26"/>
<path d="M30.776 56.3086V15.3516H48.1549L44.8385 52.3828" fill="#F16529"/>
<path d="M17.4166 20.6602H30.776V25.9805H23.2526L23.7448 31.4297H30.776V36.7383H18.8698M19.1041 39.4102H24.4479L24.8229 43.6641L30.776 45.2578V50.8125L19.8541 47.7656" fill="#EBEBEB"/>
<path d="M44.0885 20.6602H30.7526V25.9805H43.5963M43.1158 31.4297H30.7526V36.75H37.3151L36.694 43.6641L30.7526 45.2578V50.7891L41.651 47.7656" fill="white"/>
</svg>
