<svg width="45" height="60" viewBox="0 0 45 60" fill="none" xmlns="http://www.w3.org/2000/svg">
<g clip-path="url(#clip0_1885_32766)">
<path fill-rule="evenodd" clip-rule="evenodd" d="M43.3018 28.9269C43.3018 40.8089 33.8847 50.4412 22.2681 50.4412C10.6517 50.4412 1.23462 40.8089 1.23462 28.9269C1.23462 17.0447 10.6517 7.41227 22.2681 7.41227C33.8847 7.41227 43.3018 17.0447 43.3018 28.9269Z" fill="#D33833"/>
<path d="M2.09165 34.2552C2.09165 34.2552 0.568961 11.8194 21.2421 11.1783L19.7999 8.77448L8.58204 12.5406L5.37684 16.2264L2.57242 21.5952L0.969727 27.8452L1.4505 32.0117" fill="#EF3D3A"/>
<path d="M7.8619 14.2502C4.17151 18.0261 1.88786 23.2396 1.88786 29.0072C1.88786 34.7735 4.17151 39.9876 7.8619 43.7629C11.5541 47.5382 16.6424 49.8677 22.2678 49.8677C27.8933 49.8677 32.982 47.5382 36.6738 43.7629C40.364 39.9876 42.6481 34.7735 42.6481 29.0072C42.6481 23.2396 40.364 18.0261 36.6738 14.2502C32.982 10.4757 27.8933 8.1461 22.2678 8.14561C16.6424 8.1461 11.5541 10.4757 7.8619 14.2502ZM6.92776 44.6762C3.00574 40.6651 0.581055 35.1218 0.581055 29.0072C0.581055 22.8915 3.00574 17.3487 6.92776 13.3374C10.8489 9.32542 16.2767 6.83865 22.2678 6.83937C28.2589 6.83865 33.6873 9.32542 37.6077 13.3374C41.5301 17.3487 43.9551 22.892 43.9546 29.0072C43.9551 35.1218 41.5301 40.6651 37.6077 44.6762C33.6873 48.688 28.2589 51.1744 22.2678 51.1744C16.2767 51.1744 10.8489 48.688 6.92776 44.6762Z" fill="#231F20"/>
<path fill-rule="evenodd" clip-rule="evenodd" d="M31.1221 29.0462L27.9168 29.527L23.5899 30.0077L20.7853 30.0878L18.061 30.0077L15.9776 29.3666L14.1346 27.3635L12.6923 23.2769L12.3718 22.3955L10.4487 21.7546L9.32689 19.9116L8.52563 17.2673L9.40717 14.9435L11.4903 14.2224L13.173 15.0238L13.9745 16.7866L14.936 16.6262L15.2564 16.2257L14.936 14.3827L14.8557 12.0589L15.3365 8.85387L15.3177 7.0231L16.7788 4.68729L19.3429 2.84426L23.8302 0.921181L28.7981 1.64233L33.125 4.76733L35.1284 7.97239L36.4103 10.2962L36.7308 16.0654L35.7692 21.0334L34.0065 25.4404L32.3238 27.7642" fill="#F0D6B7"/>
<path fill-rule="evenodd" clip-rule="evenodd" d="M28.3977 42.9082L16.9392 43.389V45.3121L17.9007 52.0428L17.42 52.6039L9.40728 49.8794L8.84623 48.9178L8.04498 39.8635L6.20228 34.4147L5.80151 33.1327L12.2116 28.7258L14.215 27.9243L15.9777 30.0878L17.5001 31.45L19.2631 32.0109L20.0642 32.2512L21.0257 36.4178L21.7469 37.2993L23.59 36.6582L22.3078 39.1423L29.279 42.4274L28.3977 42.9082Z" fill="#335061"/>
<path fill-rule="evenodd" clip-rule="evenodd" d="M9.4071 14.9435L11.4903 14.2223L13.173 15.0238L13.9744 16.7865L14.9359 16.6262L15.1763 15.6646L14.6956 13.8218L15.1763 9.41463L14.7756 7.01078L16.2179 5.32809L19.3429 2.84419L18.4614 1.64227L14.0544 3.80573L12.2114 5.24804L11.1698 7.49155L9.5672 9.65501L9.08643 12.2192L9.4071 14.9435Z" fill="#6D6B6D"/>
<path fill-rule="evenodd" clip-rule="evenodd" d="M12.6924 7.41156C12.6924 7.41156 13.8943 4.4469 18.702 3.00459C23.5097 1.56228 18.9424 1.96277 18.9424 1.96277L13.7342 3.96613L11.7309 5.96925L10.8496 7.5719L12.6924 7.41156Z" fill="#DCD9D8"/>
<path fill-rule="evenodd" clip-rule="evenodd" d="M10.2883 14.3827C10.2883 14.3827 8.60566 8.77353 15.0159 7.97233L14.7756 7.01079L10.3686 8.05262L9.08643 12.2192L9.4071 14.9435L10.2883 14.3827Z" fill="#DCD9D8"/>
<path fill-rule="evenodd" clip-rule="evenodd" d="M12.8525 21.8346L13.9017 20.818C13.9017 20.818 14.3752 20.8731 14.4552 21.4339C14.5352 21.9949 14.7756 27.043 18.2211 29.7675C18.5354 30.0161 15.6572 29.3666 15.6572 29.3666L13.0929 25.3603" fill="#F7E4CD"/>
<path fill-rule="evenodd" clip-rule="evenodd" d="M27.5967 20.3123C27.5967 20.3123 27.7835 17.8834 28.4376 18.0702C29.0917 18.257 29.0917 18.9111 29.0917 18.9111C29.0917 18.9111 27.5032 19.9387 27.5967 20.3123Z" fill="#F7E4CD"/>
<path d="M34.2469 11.418C34.2469 11.418 32.9262 11.6968 32.8046 12.8603C32.6829 14.024 34.2469 13.1007 34.4873 13.0206" fill="#F7E4CD"/>
<path d="M24.5516 11.4983C24.5516 11.4983 22.7886 11.7387 22.7886 12.8603C22.7886 13.9822 24.792 13.9022 25.3528 13.4214" fill="#F7E4CD"/>
<path fill-rule="evenodd" clip-rule="evenodd" d="M13.6537 16.7065C13.6537 16.7065 10.6087 14.8634 10.2883 16.6264C9.96786 18.3892 9.24652 19.6714 10.7691 21.5142L9.72748 21.1937L8.76594 18.7098L8.44556 16.306L10.2883 14.3827L12.3717 14.543L13.5736 15.5045L13.6537 16.7065Z" fill="#F7E4CD"/>
<path fill-rule="evenodd" clip-rule="evenodd" d="M15.0961 11.6584C15.0961 11.6584 16.4583 4.60724 23.3494 3.24499C29.0228 2.12359 32.0031 3.48537 33.125 4.76734C33.125 4.76734 28.0769 -1.24203 23.2692 0.600755C18.4615 2.44378 14.936 5.80917 15.016 7.97239C15.1524 11.657 15.0961 11.6584 15.0961 11.6584Z" fill="#F7E4CD"/>
<path fill-rule="evenodd" clip-rule="evenodd" d="M33.6861 5.56854C33.6861 5.56854 31.3625 5.48849 31.2822 7.5719C31.2822 7.5719 31.282 7.89234 31.4423 8.21277C31.4423 8.21277 33.2856 6.12936 34.4072 7.25123" fill="#F7E4CD"/>
<path fill-rule="evenodd" clip-rule="evenodd" d="M23.5111 8.42987C23.5111 8.42987 23.1111 5.23203 20.3847 7.09117C18.6219 8.29309 18.7823 9.97578 19.1027 10.2962C19.4232 10.6169 19.336 11.2623 19.58 10.8193C19.8239 10.3763 19.7436 8.93395 20.6251 8.53347C21.5065 8.13275 22.9515 7.68516 23.5111 8.42987Z" fill="#F7E4CD"/>
<path fill-rule="evenodd" clip-rule="evenodd" d="M15.9777 30.0877L8.44574 33.4531C8.44574 33.4531 11.5707 45.8731 9.96805 49.7192L8.84623 49.3188L8.76613 44.5911L6.68305 35.6168L5.80151 33.1327L13.6539 27.8445L15.9777 30.0877Z" fill="#49728B"/>
<path fill-rule="evenodd" clip-rule="evenodd" d="M16.7521 36.9572L17.8207 38.261V43.0687H16.5385C16.5385 43.0687 16.3784 39.7033 16.3784 39.3026C16.3784 38.9019 16.5385 37.4596 16.5385 37.4596" fill="#49728B"/>
<path fill-rule="evenodd" clip-rule="evenodd" d="M16.7789 43.7899L13.1731 43.95L14.2149 44.6711L16.7789 45.0718" fill="#49728B"/>
<path fill-rule="evenodd" clip-rule="evenodd" d="M29.1189 42.9885L32.0836 42.9084L32.8047 50.2803L29.7598 50.6808L29.1189 42.9885Z" fill="#335061"/>
<path fill-rule="evenodd" clip-rule="evenodd" d="M29.9199 42.9884L34.4072 42.748C34.4072 42.748 36.25 38.1006 36.25 37.8602C36.25 37.6198 37.8526 31.1295 37.8526 31.1295L34.2468 27.3636L33.5257 26.7225L31.6026 28.6456V36.0975L29.9199 42.9884Z" fill="#335061"/>
<path fill-rule="evenodd" clip-rule="evenodd" d="M31.9232 42.4276L29.1189 42.9885L29.5194 45.2322C30.561 45.713 32.3239 44.4308 32.3239 44.4308" fill="#49728B"/>
<path fill-rule="evenodd" clip-rule="evenodd" d="M32.0034 28.4053L37.6123 32.5719L37.7726 30.6488L33.5258 26.7226L32.0034 28.4053Z" fill="#49728B"/>
<path fill-rule="evenodd" clip-rule="evenodd" d="M19.5597 58.7746L17.9007 52.0428L17.0757 47.0758L16.9392 43.389L24.4476 42.9893L29.1189 42.9885L28.6941 51.4027L29.4153 57.8931L29.3352 59.095L23.2457 59.5758L19.5597 58.7746Z" fill="white"/>
<path fill-rule="evenodd" clip-rule="evenodd" d="M28.077 42.9084C28.077 42.9084 27.6765 51.2418 28.8784 57.1712C28.8784 57.1712 26.4745 58.6938 22.9487 59.0942L29.6796 58.8539L30.4808 58.3731L29.5193 45.2322L29.2789 42.4274" fill="#DCD9D8"/>
<path fill-rule="evenodd" clip-rule="evenodd" d="M32.9412 49.6399L36.0662 48.7584L41.9955 48.438L42.877 45.7137L41.2744 40.986L39.4316 40.7457L36.8674 41.5469L34.4073 42.7481L33.1013 42.5084L32.0835 42.9084" fill="white"/>
<path fill-rule="evenodd" clip-rule="evenodd" d="M32.8848 48.0365C32.8848 48.0365 34.9679 47.0752 35.2886 47.1553L34.4074 42.7481L35.449 42.3476C35.449 42.3476 36.1701 46.5141 36.1701 46.9949C36.1701 46.9949 40.6571 47.2353 41.0578 47.2353C41.0578 47.2353 42.0194 45.3923 41.779 43.4692L42.6605 46.0334L42.7405 47.4757L41.4586 49.3988L40.0163 49.7192L37.6124 49.6391L36.8112 48.5976L34.0066 48.9981L33.1252 49.3188" fill="#DCD9D8"/>
<path d="M29.7359 42.3484L27.9732 37.8611L26.1301 35.2169C26.1301 35.2169 26.5306 34.095 27.0917 34.095C27.6527 34.095 28.9347 34.095 28.9347 34.095L30.6974 34.7361L30.5373 37.7008L29.7359 42.3484Z" fill="white"/>
<path fill-rule="evenodd" clip-rule="evenodd" d="M30.0804 40.825C30.0804 40.825 27.8367 36.4983 27.8367 35.8572C27.8367 35.8572 28.2372 34.8957 28.7982 35.1361C29.3593 35.3765 30.5612 36.0173 30.5612 36.0173V34.495L27.8367 33.9339L25.9939 34.1743L29.1189 41.5462L29.7598 41.6265" fill="#DCD9D8"/>
<path d="M20.2808 30.249L18.061 30.0076L15.9775 29.3665V30.0877L16.9955 31.2103L20.2006 32.6526" fill="white"/>
<path fill-rule="evenodd" clip-rule="evenodd" d="M16.6991 30.4892C16.6991 30.4892 19.1833 31.531 19.9845 31.2906L20.0642 32.2512L17.821 31.7714L16.4587 30.8099L16.6991 30.4892Z" fill="#DCD9D8"/>
<path fill-rule="evenodd" clip-rule="evenodd" d="M32.9326 34.3678C31.573 34.3279 30.3446 34.1664 29.2691 33.863C29.3422 33.4221 29.2054 32.9894 29.3153 32.6719C29.615 32.456 30.1174 32.4594 30.5705 32.4087C30.1787 32.2161 29.6282 32.1399 29.1761 32.2512C29.1655 31.9452 29.0282 31.7555 28.9451 31.5161C29.7095 31.2433 31.5141 29.4546 32.5292 30.0469C33.0129 30.3286 33.2184 31.9377 33.2559 32.7202C33.2871 33.3692 33.197 34.024 32.9326 34.3678Z" fill="#D33833"/>
<path d="M32.9326 34.3678C31.573 34.3279 30.3446 34.1664 29.2691 33.863C29.3422 33.4221 29.2054 32.9894 29.3153 32.6719C29.615 32.456 30.1174 32.4594 30.5705 32.4087C30.1787 32.2161 29.6282 32.1399 29.1761 32.2512C29.1655 31.9452 29.0282 31.7555 28.9451 31.5161C29.7095 31.2433 31.5141 29.4546 32.5292 30.0469C33.0129 30.3286 33.2184 31.9377 33.2559 32.7202C33.2871 33.3692 33.197 34.024 32.9326 34.3678Z" stroke="#D33833" stroke-width="2.5"/>
<path fill-rule="evenodd" clip-rule="evenodd" d="M26.4309 32.1452C26.4273 32.2481 26.423 32.3517 26.4189 32.4555C25.9944 32.7344 25.309 32.731 24.8432 32.9654C25.53 32.9954 26.0706 33.1608 26.5384 33.394C26.528 33.6531 26.5182 33.912 26.5081 34.1711C25.73 34.7038 25.0191 35.4971 24.103 35.9966C23.6698 36.2329 22.1496 36.8408 21.6887 36.7334C21.428 36.6728 21.4045 36.3492 21.3002 36.0442C21.0782 35.3911 20.5669 34.3514 20.5223 33.3682C20.4655 32.1264 20.3401 30.0452 21.6784 30.3009C22.7581 30.5069 24.0138 31.0043 24.8497 31.461C25.3605 31.7404 25.6559 32.0856 26.4309 32.1452Z" fill="#D33833"/>
<path d="M26.4309 32.1452C26.4273 32.2481 26.423 32.3517 26.4189 32.4555C25.9944 32.7344 25.309 32.731 24.8432 32.9654C25.53 32.9954 26.0706 33.1608 26.5384 33.394C26.528 33.6531 26.5182 33.912 26.5081 34.1711C25.73 34.7038 25.0191 35.4971 24.103 35.9966C23.6698 36.2329 22.1496 36.8408 21.6887 36.7334C21.428 36.6728 21.4045 36.3492 21.3002 36.0442C21.0782 35.3911 20.5669 34.3514 20.5223 33.3682C20.4655 32.1264 20.3401 30.0452 21.6784 30.3009C22.7581 30.5069 24.0138 31.0043 24.8497 31.461C25.3605 31.7404 25.6559 32.0856 26.4309 32.1452V32.1452Z" stroke="#D33833" stroke-width="2.5"/>
<path fill-rule="evenodd" clip-rule="evenodd" d="M27.2037 33.627C27.0849 32.9505 26.9477 32.7575 27.0008 32.1673C28.8049 30.9645 29.1436 34.2335 27.2037 33.627Z" fill="#D33833"/>
<path d="M27.2037 33.627C27.0849 32.9505 26.9477 32.7575 27.0008 32.1673C28.8049 30.9645 29.1436 34.2335 27.2037 33.627Z" stroke="#D33833" stroke-width="2.5"/>
<path fill-rule="evenodd" clip-rule="evenodd" d="M29.816 34.1753C29.816 34.1753 29.2549 33.3739 29.6556 33.1335C30.0564 32.8931 30.4571 33.1337 30.6975 32.733C30.9378 32.3323 30.6975 32.0919 30.7775 31.6111C30.8576 31.1303 31.2585 31.0501 31.659 30.97C32.0595 30.89 33.1816 30.7296 33.3417 31.1303L32.8609 29.688L31.8994 29.3676L28.8544 31.1303L28.6941 32.0118V33.7746" fill="#EF3D3A"/>
<path fill-rule="evenodd" clip-rule="evenodd" d="M21.4024 36.8195C21.3061 35.569 21.2043 34.3202 21.0909 33.0709C20.9213 31.2055 21.539 31.531 23.156 31.531C23.4029 31.531 24.6766 31.8254 24.7677 32.0117C25.2047 32.9043 24.037 32.706 25.2711 33.3791C26.3129 33.9471 28.1533 33.0341 27.7324 31.7714C27.4968 31.4906 26.505 31.6839 26.1495 31.4995C25.5235 31.175 24.8975 30.8504 24.2715 30.5259C23.4751 30.1127 21.6343 29.5103 20.7852 30.0877C18.6336 31.5509 20.921 35.2069 21.6885 36.7334" fill="#EF3D3A"/>
<path fill-rule="evenodd" clip-rule="evenodd" d="M23.5109 8.42979C21.327 7.92114 20.2418 9.34373 19.5798 10.8192C18.9887 10.6759 19.2239 9.8721 19.3732 9.46248C19.7641 8.38748 21.3395 6.95647 22.6267 7.15046C23.1806 7.23388 23.9302 7.74037 23.5109 8.42979Z" fill="#231F20"/>
<path fill-rule="evenodd" clip-rule="evenodd" d="M34.1521 10.9168C34.1865 10.9183 34.2213 10.9195 34.2557 10.9209C34.7492 11.9461 35.1764 13.0322 35.799 13.9372C35.3819 14.9086 32.6408 15.7683 32.6831 14.024C33.2759 13.7649 34.2992 13.9711 34.8247 13.6401C34.5208 12.8062 34.0824 12.0964 34.1521 10.9168Z" fill="#231F20"/>
<path fill-rule="evenodd" clip-rule="evenodd" d="M24.6292 10.9435C25.0974 11.8019 25.2498 12.7039 25.9155 13.3527C26.2152 13.6447 26.7982 14.0007 26.5092 14.813C26.4417 15.0046 25.9482 15.4317 25.6633 15.5156C24.6227 15.8228 22.1979 15.5791 23.019 14.2817C23.8796 14.3219 25.0364 14.8406 25.6797 14.2159C25.1857 13.4262 24.305 11.864 24.6292 10.9435Z" fill="#231F20"/>
<path fill-rule="evenodd" clip-rule="evenodd" d="M33.7613 19.668C32.1945 20.6745 30.4474 21.769 27.8801 21.5151C27.3315 21.0382 27.1224 19.9769 27.6553 19.2759C27.9327 19.7528 27.7584 20.63 28.5315 20.762C29.9882 21.0113 31.6837 19.8709 32.7315 19.4723C33.3813 18.3769 32.6755 17.974 32.0902 17.2689C30.8918 15.8245 29.2844 14.0341 29.3428 11.8716C29.8272 11.5204 29.869 12.4077 29.9385 12.5692C30.5642 14.0336 32.139 15.9065 33.2882 17.1598C33.5704 17.4685 34.0351 17.7646 34.0868 17.9687C34.2358 18.5622 33.6991 19.2733 33.7613 19.668Z" fill="#231F20"/>
<path fill-rule="evenodd" clip-rule="evenodd" d="M13.1056 18.6084C12.6145 18.3281 12.4976 17.0935 11.921 17.0584C11.097 17.0084 11.2473 18.6601 11.2506 19.626C10.6834 19.1111 10.5837 17.5257 11.0003 16.7116C10.5255 16.4784 10.3134 16.9688 10.05 17.1416C10.3886 14.6825 13.6474 16.001 13.1056 18.6084Z" fill="#231F20"/>
<path fill-rule="evenodd" clip-rule="evenodd" d="M34.759 20.692C34.0297 22.0802 32.998 23.6091 30.8578 23.6536C30.8143 23.2052 30.7809 22.523 30.8602 22.2531C32.4963 22.0959 33.5064 21.2632 34.759 20.692Z" fill="#231F20"/>
<path fill-rule="evenodd" clip-rule="evenodd" d="M24.5056 21.5921C25.8706 22.3099 28.3793 22.3871 30.2346 22.3327C30.3341 22.7392 30.3317 23.2414 30.3355 23.7371C27.9507 23.8561 25.131 23.2659 24.5056 21.5921Z" fill="#231F20"/>
<path fill-rule="evenodd" clip-rule="evenodd" d="M24.2464 22.9305C25.1903 25.3005 28.4345 25.0277 31.1703 24.9623C31.0499 25.27 30.7888 25.6334 30.4643 25.7649C29.5876 26.1217 27.1696 26.3923 25.9525 25.7459C25.1807 25.3356 24.6847 24.4084 24.2618 23.8649C24.0576 23.6024 23.0407 22.932 24.2464 22.9305Z" fill="#231F20"/>
<path fill-rule="evenodd" clip-rule="evenodd" d="M33.6475 36.0034C32.5398 37.9005 31.48 39.8491 30.1658 41.5225C30.7167 39.9025 30.9526 37.1911 31.0357 35.1241C32.1884 34.5847 33.1754 35.2455 33.6475 36.0034Z" fill="#81B0C4"/>
<path fill-rule="evenodd" clip-rule="evenodd" d="M39.608 42.8219C38.3679 43.0702 37.4965 44.2755 36.2866 44.1981C36.9515 43.2608 38.1167 42.8656 39.608 42.8219Z" fill="#231F20"/>
<path fill-rule="evenodd" clip-rule="evenodd" d="M40.1552 44.7628C39.1444 44.8695 37.9571 45.0332 36.9319 44.9489C37.4172 44.2075 39.2872 44.4633 40.1552 44.7628Z" fill="#231F20"/>
<path fill-rule="evenodd" clip-rule="evenodd" d="M40.5053 46.436C39.3693 46.4606 37.9572 46.438 36.8774 46.3474C37.5161 45.6614 39.7685 46.0928 40.5053 46.436Z" fill="#231F20"/>
<path fill-rule="evenodd" clip-rule="evenodd" d="M31.5098 51.0151C31.6728 52.4419 32.2384 53.8875 32.1675 55.45C31.5394 55.6618 31.1786 55.8471 30.337 55.8459C30.2776 54.518 30.1 52.488 30.1531 51.2221C30.567 51.2495 31.1774 50.9264 31.5098 51.0151Z" fill="#DCD9D8"/>
<path fill-rule="evenodd" clip-rule="evenodd" d="M29.6785 29.9882C29.108 30.3605 28.6222 30.8254 28.0744 31.223C26.8595 31.2831 26.1965 31.1389 25.304 30.4413C25.3186 30.3853 25.4083 30.4103 25.4116 30.3415C26.7121 30.9211 28.3653 30.1055 29.6785 29.9882Z" fill="#F0D6B7"/>
<path fill-rule="evenodd" clip-rule="evenodd" d="M22.8513 38.8531C23.2086 37.3048 24.6087 36.5029 25.88 35.6503C27.1923 37.3157 27.9904 39.4575 28.8692 41.5243C26.7928 40.8984 24.6712 39.8827 22.8513 38.8531Z" fill="#81B0C4"/>
<path fill-rule="evenodd" clip-rule="evenodd" d="M30.1531 51.2221C30.1 52.4879 30.2776 54.518 30.337 55.8459C31.1786 55.847 31.5394 55.6618 32.1675 55.4499C32.2384 53.8874 31.6728 52.4418 31.5098 51.0151C31.1774 50.9264 30.567 51.2495 30.1531 51.2221ZM17.0487 44.0228C17.6037 49.1245 18.4075 53.4131 19.8817 57.9308C23.1536 58.9242 27.098 59.0108 29.9901 58.1143C29.4591 55.5646 29.6911 52.4603 29.3807 49.7394C29.1468 47.6942 29.2661 45.6365 28.9454 43.55C25.4411 42.8209 20.4878 43.3795 17.0487 44.0228ZM29.774 43.582C29.7444 45.773 29.8721 47.9343 30.0394 50.1281C30.8807 50.0018 31.4517 49.9175 32.2334 49.7461C31.9795 47.6341 32.0108 45.2576 31.4937 43.3894C30.8961 43.3951 30.3699 43.3824 29.774 43.582ZM34.042 43.2288C33.6428 43.1373 33.1779 43.2252 32.7964 43.2327C32.9757 45.0187 33.4108 46.9896 33.5639 48.8644C34.1642 48.8831 34.4848 48.6 34.9786 48.5048C35.005 46.8591 34.8348 44.5918 34.042 43.2288ZM40.5045 49.1333C41.7557 48.8295 42.5425 47.2971 42.1925 45.7233C41.9577 44.6656 41.5394 42.674 41.0918 41.9973C40.761 41.4968 39.8642 40.8416 39.148 41.3002C37.9831 42.0461 35.931 42.2627 35.0815 43.1656C35.5074 44.5839 35.6396 46.5319 35.8154 48.329C37.2706 48.4197 39.0613 47.9285 40.2716 48.4498C39.4267 48.7235 38.3303 48.7256 37.6002 49.1245C38.1968 49.4127 39.5937 49.3545 40.5045 49.1333ZM28.8692 41.5242C27.9904 39.4574 27.1923 37.3156 25.88 35.6502C24.6087 36.5028 23.2086 37.3047 22.8513 38.8531C24.6711 39.8827 26.7928 40.8983 28.8692 41.5242ZM31.0355 35.124C30.9524 37.191 30.7166 39.9024 30.1656 41.5224C31.4798 39.849 32.5396 37.9004 33.6473 36.0033C33.1752 35.2454 32.1882 34.5846 31.0355 35.124ZM28.5798 34.2514C28.0819 34.1978 27.6593 34.8238 27.012 34.5531C26.8637 34.717 26.7288 34.8947 26.5776 35.0548C28.0074 36.7779 28.6572 39.2226 29.7615 41.2475C30.3541 39.3024 30.2858 37.1713 30.4163 35.0483C29.6021 35.1 29.1505 34.312 28.5798 34.2514ZM27.0007 32.1673C26.9476 32.7574 27.0848 32.9504 27.2036 33.6269C29.1435 34.2334 28.8048 30.9644 27.0007 32.1673ZM24.8495 31.461C24.0136 31.0043 22.7579 30.5069 21.6782 30.3009C20.3399 30.0449 20.4653 32.1264 20.5221 33.3682C20.5667 34.3514 21.078 35.3911 21.3001 36.0442C21.4043 36.3492 21.4278 36.6728 21.6885 36.7333C22.1494 36.8408 23.6696 36.2329 24.1028 35.9966C25.019 35.4971 25.7298 34.7038 26.5079 34.1711C26.518 33.912 26.5279 33.6531 26.5382 33.394C26.0704 33.1608 25.5298 32.9954 24.843 32.9653C25.3089 32.731 25.9942 32.7343 26.4187 32.4555C26.4228 32.3516 26.4271 32.248 26.4307 32.1452C25.6557 32.0855 25.3603 31.7403 24.8495 31.461ZM16.8655 30.0108C16.1717 30.7151 18.8112 31.6752 19.6517 31.7269C19.647 31.2812 19.9056 30.861 19.8535 30.5413C18.8554 30.3661 17.5436 30.4817 16.8655 30.0108ZM25.4115 30.3415C25.4081 30.4103 25.3185 30.3853 25.3038 30.4413C26.1964 31.1389 26.8593 31.2831 28.0743 31.223C28.6221 30.8254 29.1079 30.3605 29.6783 29.9882C28.3651 30.1055 26.712 30.9211 25.4115 30.3415ZM33.2557 32.7202C33.2182 31.9377 33.0127 30.3286 32.5291 30.0468C31.5139 29.4543 29.7093 31.2432 28.9449 31.5161C29.0281 31.7555 29.1654 31.9452 29.1759 32.2512C29.6281 32.1399 30.1786 32.2161 30.5704 32.4086C30.1173 32.4593 29.6149 32.456 29.3151 32.6718C29.2053 32.9894 29.342 33.4221 29.269 33.8629C30.3444 34.1663 31.5728 34.3278 32.9324 34.3678C33.1968 34.024 33.287 33.3692 33.2557 32.7202ZM15.6975 30.692C15.4797 30.5367 14.0059 28.6192 13.804 28.6988C11.1373 29.7504 8.64372 31.569 6.41548 33.2889C8.53997 37.8476 9.39757 43.4327 9.54911 48.8158C11.9828 49.954 14.1205 51.595 17.4229 51.7663C17.0408 49.0625 16.6919 46.6502 16.475 44.1045C15.6452 43.7547 14.4547 44.1204 13.6782 43.9961C13.6716 43.0603 14.8642 43.5863 14.9635 42.957C15.0383 42.481 14.3073 42.4449 14.5454 41.6954C15.1524 41.9161 15.4712 42.4035 16.1186 42.5865C16.7102 41.2923 16.1104 39.0024 16.1956 37.9206C16.2118 37.7175 16.2971 36.7954 16.752 36.9572C17.1547 37.1004 16.729 39.4096 16.7731 40.4334C16.8133 41.3766 16.6592 42.2893 17.0412 42.8815C20.2324 42.4471 23.4753 42.1663 26.9281 42.0716C26.1685 41.7457 25.2661 41.4372 24.2767 40.8795C23.7404 40.5772 22.0497 39.948 21.8949 39.4386C21.648 38.6269 22.5428 38.1945 22.6959 37.4985C21.085 38.3771 20.7708 36.6565 20.3897 35.4375C20.0444 34.3334 19.8479 33.5086 19.7632 32.8718C18.3755 32.2103 16.8919 31.5403 15.6975 30.692ZM31.8464 28.9307C34.0682 27.8533 34.4687 32.9574 33.5978 34.6016C33.7324 35.092 34.1954 35.2798 34.3843 35.7206C33.1444 37.9418 31.7673 40.0151 30.5021 42.2101C31.4432 41.6242 32.7875 42.1053 33.8949 41.6668C34.2997 41.5067 34.5928 40.58 34.8993 39.8386C35.7423 37.799 36.6274 35.2276 37.0211 33.2812C37.1101 32.8377 37.3524 31.8714 37.298 31.4766C37.2012 30.7699 36.2423 30.2459 35.7545 29.8089C34.856 29.0016 34.2901 28.2913 33.3529 27.5365C32.9728 28.0976 32.1572 28.4745 31.8464 28.9307ZM10.6161 9.22688C9.55737 10.3918 9.77899 12.5745 9.90716 14.1274C11.8208 12.9235 14.3608 14.2226 14.3369 16.2702C15.2505 16.2459 14.6782 15.129 14.513 14.4096C13.9729 12.0596 15.4229 9.50645 14.5787 7.35741C12.9397 7.48169 11.5931 8.15116 10.6161 9.22688ZM18.1915 2.46583C15.7947 3.14515 12.7229 4.88674 11.738 7.03987C12.5007 6.92905 13.0301 6.54443 13.7824 6.49684C14.0667 6.47833 14.4392 6.61607 14.766 6.53482C15.4172 6.37328 15.9668 4.91318 16.4581 4.36991C16.937 3.83938 17.5126 3.61271 17.9065 3.12905C18.1596 3.00694 18.5338 3.01535 18.5481 2.6353C18.4385 2.51799 18.323 2.42857 18.1915 2.46583ZM30.6682 3.10477C28.1805 1.70116 23.9697 0.645393 21.3234 1.96462C19.1881 3.02929 16.3017 4.79082 15.3177 7.02304C16.237 9.17712 15.0454 11.1509 14.9693 13.3379C14.9289 14.5016 15.5172 15.5175 15.5623 16.7843C15.2477 17.3033 14.2867 17.3673 13.6214 17.3317C13.3974 16.211 13.0054 14.9514 11.8514 14.825C10.2184 14.6464 9.02449 15.9978 8.95031 17.4101C8.86252 19.0709 10.2259 21.8235 12.1584 21.6324C12.9049 21.5586 13.0883 20.8103 13.9017 20.818C14.3425 21.6976 13.2217 21.9738 13.1063 22.6028C13.0763 22.7653 13.1993 23.4004 13.2708 23.6983C13.6218 25.1485 14.4043 27.0254 15.1745 28.1295C16.152 29.53 18.0724 29.7411 20.1385 29.8783C20.5075 29.0834 21.8669 29.1488 22.7527 29.3567C21.6912 28.9363 20.7043 27.917 19.8864 27.0149C18.9469 25.9798 17.9953 24.8694 17.9472 23.5165C19.7225 25.9795 21.1893 28.1305 24.4176 29.2139C26.8603 30.0331 29.7132 28.8384 31.5901 27.5204C32.369 26.9726 32.8339 26.1033 33.3875 25.3077C35.4589 22.3281 36.4255 18.0752 36.213 13.9531C36.1255 12.2531 36.1293 10.5589 35.5589 9.4151C34.9627 8.21919 32.9464 7.14924 31.7661 8.23097C31.5473 7.06799 32.7476 6.34876 34.1574 6.76727C33.1521 5.46991 32.0971 3.91102 30.6682 3.10477ZM35.3031 41.4623C37.2471 40.4958 40.8793 38.861 42.098 41.4658C42.5478 42.426 43.0755 44.049 43.3084 45.0402C43.6375 46.4384 42.9517 49.3774 41.5144 49.8466C40.2449 50.261 38.7637 50.2358 37.2346 49.9286C37.0545 49.7788 36.8541 49.5178 36.7139 49.2457C35.6221 49.2033 34.5997 49.3043 33.7372 49.7531C33.819 50.5605 33.2728 50.6901 32.7608 50.8564C32.3812 52.3614 33.5202 54.3269 33.2476 55.6992C33.0531 56.6769 31.8502 56.8281 30.9661 57.011C30.9372 57.5543 31.0048 58.0079 31.0651 58.4675C30.863 59.2124 29.9562 59.6365 29.0971 59.7403C26.2704 60.0802 21.9785 60.2329 19.2596 59.2552C18.5009 57.3942 17.9032 55.1308 17.2713 53.0057C14.6195 53.2889 12.4749 51.8615 10.453 50.9264C9.75298 50.6019 8.78459 50.4231 8.52307 49.8659C8.26954 49.3264 8.37329 48.2925 8.31038 47.3158C8.15028 44.8214 8.01319 42.4153 7.35447 39.8613C7.0587 38.7151 6.54317 37.7038 6.18353 36.5995C5.85112 35.5759 5.27036 34.311 5.11889 33.2903C4.8943 31.7776 6.31874 31.6935 7.22959 31.0379C8.63761 30.0242 9.74283 29.4637 11.2678 28.5488C11.7194 28.2778 13.0815 27.592 13.2364 27.2762C13.5444 26.65 12.7077 25.767 12.4841 25.2762C12.1302 24.5 11.9457 23.8406 11.895 23.0747C10.6158 22.8726 9.6461 22.1113 9.06036 21.2528C8.09141 19.8322 7.41944 17.2038 8.25778 15.2045C8.32353 15.0471 8.65141 14.7375 8.69978 14.4956C8.79519 14.0194 8.52024 13.3863 8.50314 12.8798C8.41507 10.2812 8.94281 8.04227 10.6922 7.25861C11.4023 4.42953 13.9441 3.4889 16.3388 2.08289C17.234 1.55742 18.2208 1.2216 19.2399 0.846596C22.8957 -0.498837 28.5048 -0.245472 31.5389 2.04924C32.8255 3.02232 34.8819 5.07688 35.6175 6.56438C37.5603 10.4915 37.4223 17.0548 36.0634 21.8319C35.8807 22.4733 35.6158 23.4161 35.2459 24.1865C34.988 24.7245 34.1863 25.8009 34.2836 26.2759C34.3839 26.767 36.1115 28.0788 36.4819 28.436C37.149 29.0795 38.4163 29.9336 38.519 30.7456C38.6293 31.6098 38.1382 32.792 37.8894 33.6259C37.0577 36.4088 36.2461 38.9812 35.3031 41.4623Z" fill="#231F20"/>
<path fill-rule="evenodd" clip-rule="evenodd" d="M22.3337 22.1983C22.4392 22.0579 23.019 21.8447 23.8303 22.2353C23.8303 22.2353 22.8688 22.3957 22.9488 23.9988L22.5481 23.9185C22.5481 23.9185 22.134 22.4649 22.3337 22.1983Z" fill="#F7E4CD"/>
<path fill-rule="evenodd" clip-rule="evenodd" d="M29.3593 35.9774C29.3593 36.2207 29.1619 36.418 28.9184 36.418C28.6751 36.418 28.4778 36.2207 28.4778 35.9774C28.4778 35.7341 28.6751 35.5365 28.9184 35.5365C29.1619 35.5365 29.3593 35.7341 29.3593 35.9774Z" fill="#1D1919"/>
<path fill-rule="evenodd" clip-rule="evenodd" d="M29.7997 38.0207C29.7997 38.264 29.6023 38.4613 29.3588 38.4613C29.1156 38.4613 28.9182 38.264 28.9182 38.0207C28.9182 37.7774 29.1156 37.5799 29.3588 37.5799C29.6023 37.5799 29.7997 37.7774 29.7997 38.0207Z" fill="#1D1919"/>
</g>
<defs>
<clipPath id="clip0_1885_32766">
<rect width="43.4615" height="60" fill="white" transform="translate(0.581055)"/>
</clipPath>
</defs>
</svg>
