<svg width="56" height="60" viewBox="0 0 56 60" fill="none" xmlns="http://www.w3.org/2000/svg">
<path d="M51.644 29.5411C51.644 26.4569 49.1455 23.9564 46.0636 23.9564C45.8652 23.9564 45.6698 23.967 45.4769 23.9874L53.1416 1.36365H20.5693L28.2234 23.9677C28.1104 23.9605 27.9973 23.9569 27.8841 23.9566C24.8023 23.9566 22.3037 26.4567 22.3037 29.5413C22.3037 32.0344 23.9364 34.1452 26.1896 34.8633C24.9996 36.9263 23.502 38.7845 21.8018 40.39C19.4898 42.5726 16.8438 44.2279 13.982 45.2477C10.5747 43.4959 8.96584 39.6002 10.4175 36.1845C10.5815 35.7987 10.7489 35.4077 10.9089 35.0185C13.3773 34.4419 15.2168 32.2274 15.2168 29.5813C15.2168 26.4968 12.7183 23.9966 9.63625 23.9966C6.55419 23.9966 4.05586 26.4968 4.05586 29.5813C4.05586 31.4727 4.99605 33.1434 6.43353 34.1537C5.05235 37.3008 3.022 40.5947 2.3894 44.4122C1.63125 48.9871 2.38685 53.8435 6.3407 56.5861C15.5489 62.9732 25.5443 52.6266 36.0831 50.0256C39.9025 49.0832 44.0951 49.235 47.4601 47.2847C49.9871 45.8199 51.6531 43.3924 52.1258 40.6672C52.5931 37.975 51.9121 35.2944 50.3461 33.1209C51.1862 32.1177 51.6458 30.8501 51.644 29.5411Z" fill="#99425B"/>
<path d="M50.7828 40.4341C50.3724 42.8002 48.9122 44.8668 46.7769 46.1047C44.7863 47.2584 42.401 47.6028 39.8752 47.9672C38.5223 48.1624 37.1233 48.3645 35.7565 48.7017C32.1428 49.5935 28.6425 51.3336 25.2577 53.0162C18.4835 56.3836 12.6333 59.2914 7.11709 55.4653C3.07635 52.6627 3.26286 47.4772 3.73359 44.6357C4.16991 42.003 5.3495 39.5784 6.49001 37.2338C6.68432 36.8353 6.87706 36.4361 7.06823 36.0361C7.64315 36.2661 8.2464 36.4175 8.86173 36.4863C7.70062 40.3212 9.52661 44.491 13.359 46.4612L13.8836 46.731L14.4389 46.5331C17.4687 45.4531 20.2606 43.7205 22.7369 41.3823C24.3375 39.871 25.7138 38.1989 26.8449 36.4123C27.1888 36.4643 27.5361 36.4903 27.8839 36.4904C31.4014 36.4904 34.3142 33.8587 34.765 30.4598C36.2048 30.4071 37.734 30.4067 39.1821 30.4594C39.6324 33.8587 42.5456 36.4906 46.0632 36.4906C47.534 36.4906 48.8982 36.0293 50.0221 35.2456C50.8023 36.8441 51.0936 38.6426 50.7828 40.4341ZM9.63622 25.3609C11.9618 25.3609 13.8537 27.2544 13.8537 29.5818C13.8537 30.4177 13.6086 31.1973 13.1877 31.8538C12.4867 32.948 11.295 33.698 9.92597 33.7915C9.83017 33.7979 9.73352 33.8026 9.63622 33.8026C9.11791 33.8026 8.62147 33.708 8.16243 33.5362C7.23792 33.1883 6.46373 32.5284 5.97339 31.6703C5.6093 31.0346 5.41799 30.3146 5.41854 29.5818C5.41854 27.2544 7.3106 25.3609 9.63622 25.3609ZM23.6666 29.5417C23.6666 27.427 25.2286 25.6713 27.2581 25.3677C27.4624 25.3368 27.6715 25.3209 27.8841 25.3209C29.2362 25.3209 30.44 25.9619 31.2119 26.9551C31.4053 27.2027 31.5705 27.4712 31.7043 27.7555C31.9665 28.3144 32.1021 28.9243 32.1016 29.5417C32.1016 29.879 32.0608 30.2071 31.9858 30.5217C31.5748 32.2437 30.1075 33.56 28.3096 33.7411C28.1698 33.7552 28.0279 33.7624 27.8841 33.7624C27.0729 33.7631 26.2789 33.5282 25.5984 33.0862C24.4373 32.3334 23.6666 31.0262 23.6666 29.5417ZM41.2692 24.5224C40.3514 25.3991 39.6909 26.5105 39.3593 27.7361C37.7696 27.6775 36.1783 27.6775 34.5886 27.7361C34.2318 26.4113 33.4921 25.2425 32.4969 24.3547L36.8612 15.5233L41.2692 24.5224ZM22.4701 2.72837H51.2402L44.4449 22.7851C44.1526 22.8552 43.8651 22.9443 43.5844 23.0519L36.8718 9.34778L30.1401 22.9701C29.8466 22.8693 29.5467 22.7884 29.2423 22.7279L22.4701 2.72837ZM50.2806 29.5419C50.2806 29.9649 50.2175 30.3735 50.1013 30.7594C49.8257 31.6678 49.2532 32.4572 48.4757 33.0011C47.769 33.4974 46.9265 33.7634 46.0632 33.7626C44.1159 33.7626 42.4732 32.4346 41.9901 30.6361C41.8942 30.2793 41.8456 29.9114 41.8457 29.5419C41.8457 28.9649 41.9621 28.4147 42.1724 27.9134C42.2809 27.6569 42.4145 27.4118 42.5713 27.1817C43.3303 26.0605 44.611 25.3211 46.0632 25.3211C46.1964 25.3211 46.3276 25.3279 46.4578 25.3402C48.5991 25.5399 50.2808 27.3475 50.2808 29.5419H50.2806ZM53.0067 29.5419C53.0067 26.1494 50.5642 23.3187 47.3473 22.7141L55.0425 0H18.6681L26.3753 22.76C23.27 23.4516 20.9408 26.2287 20.9408 29.5417C20.9408 32.0294 22.2544 34.2144 24.2232 35.4423C23.2762 36.8543 22.1533 38.183 20.8665 39.3982C18.8255 41.3249 16.5519 42.7862 14.1007 43.7477C11.6317 42.1956 10.5881 39.2685 11.6719 36.7187L11.7569 36.5188L11.9162 36.1438C14.628 35.1972 16.5795 32.6142 16.5795 29.5818C16.5795 25.7501 13.4647 22.6329 9.63622 22.6329C5.8077 22.6329 2.6925 25.7501 2.6925 29.5818C2.6925 31.5158 3.48697 33.2671 4.76534 34.5282C4.52691 35.0337 4.28488 35.5376 4.03927 36.0397C2.8703 38.4421 1.54562 41.1652 1.04451 44.1893C0.0495185 50.1949 1.6546 54.9959 5.56427 57.7074C7.93662 59.3529 10.3459 60 12.7703 60C17.3353 60 21.9534 57.7047 26.4702 55.4593C29.7231 53.8426 33.0868 52.1705 36.4093 51.3504C37.6456 51.0453 38.9176 50.8616 40.2644 50.6673C42.9352 50.2817 45.6967 49.8831 48.143 48.4653C50.9787 46.8216 52.9196 44.0643 53.4685 40.901C53.9396 38.1851 53.3727 35.465 51.9898 33.158C52.6561 32.0698 53.0081 30.818 53.0067 29.5417V29.5419Z" fill="white"/>
</svg>
