<svg width="60" height="60" viewBox="0 0 60 60" fill="none" xmlns="http://www.w3.org/2000/svg">
<g clip-path="url(#clip0_1828_31112)">
<path fill-rule="evenodd" clip-rule="evenodd" d="M21.9987 0C18.682 0.00244648 15.9977 2.68868 16.0002 5.99878C15.9977 9.30887 18.6844 11.9951 22.0012 11.9976H28.0021V6.00122C28.0046 2.69113 25.3179 0.00489297 21.9987 0C22.0012 0 22.0012 0 21.9987 0M21.9987 16H6.00099C2.68427 16.0024 -0.00244468 18.6887 6.69932e-06 21.9988C-0.00489606 25.3089 2.68182 27.9951 5.99854 28H21.9987C25.3154 27.9976 28.0021 25.3113 27.9997 22.0012C28.0021 18.6887 25.3154 16.0024 21.9987 16Z" fill="#36C5F0"/>
<path fill-rule="evenodd" clip-rule="evenodd" d="M60 21.9988C60.0025 18.6887 57.3158 16.0024 53.9991 16C50.6823 16.0024 47.9956 18.6887 47.9981 21.9988V28H53.9991C57.3158 27.9976 60.0025 25.3113 60 21.9988ZM43.9999 21.9988V5.99878C44.0023 2.69113 41.3181 0.00489297 38.0014 0C34.6846 0.00244648 31.9979 2.68868 32.0004 5.99878V21.9988C31.9955 25.3089 34.6822 27.9951 37.9989 28C41.3156 27.9976 44.0023 25.3113 43.9999 21.9988Z" fill="#2EB67D"/>
<path fill-rule="evenodd" clip-rule="evenodd" d="M37.9989 60C41.3156 59.9976 44.0023 57.3113 43.9999 54.0012C44.0023 50.6911 41.3156 48.0049 37.9989 48.0025H31.9979V54.0012C31.9955 57.3089 34.6822 59.9951 37.9989 60ZM37.9989 43.9976H53.9991C57.3158 43.9951 60.0025 41.3089 60.0001 37.9988C60.005 34.6887 57.3182 32.0025 54.0015 31.9976H38.0014C34.6846 32 31.9979 34.6862 32.0004 37.9963C31.9979 41.3089 34.6822 43.9951 37.9989 43.9976Z" fill="#ECB22E"/>
<path fill-rule="evenodd" clip-rule="evenodd" d="M0.000123746 37.9988C-0.00232763 41.3089 2.68439 43.9951 6.0011 43.9976C9.31782 43.9951 12.0045 41.3089 12.0021 37.9988V32H6.0011C2.68439 32.0024 -0.00232763 34.6887 0.000123746 37.9988ZM16.0003 37.9988V53.9988C15.9954 57.3089 18.6821 59.9951 21.9988 60C25.3155 59.9976 28.0022 57.3113 27.9998 54.0012V38.0037C28.0047 34.6936 25.318 32.0073 22.0013 32.0024C18.6821 32.0024 15.9978 34.6887 16.0003 37.9988C16.0003 37.9988 16.0003 38.0012 16.0003 37.9988Z" fill="#E01E5A"/>
</g>
<defs>
<clipPath id="clip0_1828_31112">
<rect width="60" height="60" fill="white"/>
</clipPath>
</defs>
</svg>
