<svg width="1440" height="467" viewBox="0 0 1440 467" fill="none" xmlns="http://www.w3.org/2000/svg">
<g opacity="0.6">
<path d="M599.544 36.5482C600.192 36.5482 600.717 35.9023 600.717 35.1055C600.717 34.3088 600.192 33.6628 599.544 33.6628C598.896 33.6628 598.37 34.3088 598.37 35.1055C598.37 35.9023 598.896 36.5482 599.544 36.5482Z" fill="url(#paint0_linear_664_31414)"/>
<path d="M418.077 152.925C418.725 152.925 419.25 152.279 419.25 151.482C419.25 150.685 418.725 150.04 418.077 150.04C417.429 150.04 416.904 150.685 416.904 151.482C416.904 152.279 417.429 152.925 418.077 152.925Z" fill="url(#paint1_linear_664_31414)"/>
<path d="M435.285 2.88537C435.933 2.88537 436.458 2.23946 436.458 1.44269C436.458 0.645913 435.933 0 435.285 0C434.637 0 434.112 0.645913 434.112 1.44269C434.112 2.23946 434.637 2.88537 435.285 2.88537Z" fill="url(#paint2_linear_664_31414)"/>
<path d="M632.395 154.848C633.043 154.848 633.569 154.202 633.569 153.406C633.569 152.609 633.043 151.963 632.395 151.963C631.747 151.963 631.222 152.609 631.222 153.406C631.222 154.202 631.747 154.848 632.395 154.848Z" fill="url(#paint3_linear_664_31414)"/>
<path d="M833.417 52.8987C834.065 52.8987 834.59 52.2528 834.59 51.456C834.59 50.6592 834.065 50.0133 833.417 50.0133C832.769 50.0133 832.243 50.6592 832.243 51.456C832.243 52.2528 832.769 52.8987 833.417 52.8987Z" fill="url(#paint4_linear_664_31414)"/>
<path d="M903.031 124.071C903.679 124.071 904.204 123.425 904.204 122.628C904.204 121.832 903.679 121.186 903.031 121.186C902.383 121.186 901.858 121.832 901.858 122.628C901.858 123.425 902.383 124.071 903.031 124.071Z" fill="url(#paint5_linear_664_31414)"/>
<path d="M1000.8 207.747C1001.45 207.747 1001.98 207.101 1001.98 206.304C1001.98 205.507 1001.45 204.861 1000.8 204.861C1000.16 204.861 999.631 205.507 999.631 206.304C999.631 207.101 1000.16 207.747 1000.8 207.747Z" fill="url(#paint6_linear_664_31414)"/>
<path d="M854.536 373.175C855.184 373.175 855.709 372.529 855.709 371.732C855.709 370.936 855.184 370.29 854.536 370.29C853.888 370.29 853.362 370.936 853.362 371.732C853.362 372.529 853.888 373.175 854.536 373.175Z" fill="url(#paint7_linear_664_31414)"/>
<path d="M699.663 292.385C700.311 292.385 700.837 291.739 700.837 290.942C700.837 290.145 700.311 289.499 699.663 289.499C699.015 289.499 698.49 290.145 698.49 290.942C698.49 291.739 699.015 292.385 699.663 292.385Z" fill="url(#paint8_linear_664_31414)"/>
<path d="M540.098 310.659C540.746 310.659 541.271 310.013 541.271 309.216C541.271 308.419 540.746 307.773 540.098 307.773C539.45 307.773 538.925 308.419 538.925 309.216C538.925 310.013 539.45 310.659 540.098 310.659Z" fill="url(#paint9_linear_664_31414)"/>
<path d="M764.585 436.653C765.233 436.653 765.758 436.008 765.758 435.211C765.758 434.414 765.233 433.768 764.585 433.768C763.937 433.768 763.411 434.414 763.411 435.211C763.411 436.008 763.937 436.653 764.585 436.653Z" fill="url(#paint10_linear_664_31414)"/>
<path d="M604.237 413.57C604.885 413.57 605.41 412.924 605.41 412.128C605.41 411.331 604.885 410.685 604.237 410.685C603.589 410.685 603.063 411.331 603.063 412.128C603.063 412.924 603.589 413.57 604.237 413.57Z" fill="url(#paint11_linear_664_31414)"/>
<path d="M394.612 299.117C395.26 299.117 395.785 298.471 395.785 297.674C395.785 296.878 395.26 296.232 394.612 296.232C393.964 296.232 393.438 296.878 393.438 297.674C393.438 298.471 393.964 299.117 394.612 299.117Z" fill="url(#paint12_linear_664_31414)"/>
<path d="M63.748 309.697C64.396 309.697 64.9213 309.051 64.9213 308.254C64.9213 307.457 64.396 306.812 63.748 306.812C63.1 306.812 62.5747 307.457 62.5747 308.254C62.5747 309.051 63.1 309.697 63.748 309.697Z" fill="url(#paint13_linear_664_31414)"/>
<path d="M267.116 101.95C267.764 101.95 268.289 101.304 268.289 100.507C268.289 99.7105 267.764 99.0646 267.116 99.0646C266.468 99.0646 265.942 99.7105 265.942 100.507C265.942 101.304 266.468 101.95 267.116 101.95Z" fill="url(#paint14_linear_664_31414)"/>
<path d="M187.333 318.353C187.981 318.353 188.506 317.707 188.506 316.91C188.506 316.113 187.981 315.468 187.333 315.468C186.685 315.468 186.16 316.113 186.16 316.91C186.16 317.707 186.685 318.353 187.333 318.353Z" fill="url(#paint15_linear_664_31414)"/>
<path d="M795.09 161.581C795.738 161.581 796.263 160.935 796.263 160.138C796.263 159.341 795.738 158.696 795.09 158.696C794.442 158.696 793.917 159.341 793.917 160.138C793.917 160.935 794.442 161.581 795.09 161.581Z" fill="url(#paint16_linear_664_31414)"/>
<path d="M1117.35 94.2556C1118 94.2556 1118.52 93.6097 1118.52 92.8129C1118.52 92.0162 1118 91.3702 1117.35 91.3702C1116.7 91.3702 1116.18 92.0162 1116.18 92.8129C1116.18 93.6097 1116.7 94.2556 1117.35 94.2556Z" fill="url(#paint17_linear_664_31414)"/>
<path d="M1176.01 304.888C1176.66 304.888 1177.19 304.242 1177.19 303.445C1177.19 302.648 1176.66 302.003 1176.01 302.003C1175.37 302.003 1174.84 302.648 1174.84 303.445C1174.84 304.242 1175.37 304.888 1176.01 304.888Z" fill="url(#paint18_linear_664_31414)"/>
<path d="M1007.06 370.29C1007.71 370.29 1008.23 369.644 1008.23 368.847C1008.23 368.05 1007.71 367.404 1007.06 367.404C1006.41 367.404 1005.89 368.05 1005.89 368.847C1005.89 369.644 1006.41 370.29 1007.06 370.29Z" fill="url(#paint19_linear_664_31414)"/>
<path d="M754.416 59.1501C754.848 59.1501 755.198 58.7195 755.198 58.1884C755.198 57.6572 754.848 57.2266 754.416 57.2266C753.984 57.2266 753.634 57.6572 753.634 58.1884C753.634 58.7195 753.984 59.1501 754.416 59.1501Z" fill="url(#paint20_linear_664_31414)"/>
<path d="M662.118 76.4625C662.55 76.4625 662.901 76.0319 662.901 75.5007C662.901 74.9695 662.55 74.5389 662.118 74.5389C661.686 74.5389 661.336 74.9695 661.336 75.5007C661.336 76.0319 661.686 76.4625 662.118 76.4625Z" fill="url(#paint21_linear_664_31414)"/>
<path d="M486.909 88.9657C487.341 88.9657 487.691 88.5351 487.691 88.0039C487.691 87.4727 487.341 87.0421 486.909 87.0421C486.477 87.0421 486.127 87.4727 486.127 88.0039C486.127 88.5351 486.477 88.9657 486.909 88.9657Z" fill="url(#paint22_linear_664_31414)"/>
<path d="M362.542 209.19C362.974 209.19 363.324 208.759 363.324 208.228C363.324 207.697 362.974 207.266 362.542 207.266C362.11 207.266 361.76 207.697 361.76 208.228C361.76 208.759 362.11 209.19 362.542 209.19Z" fill="url(#paint23_linear_664_31414)"/>
<path d="M135.709 100.507C136.141 100.507 136.491 100.076 136.491 99.5453C136.491 99.0141 136.141 98.5835 135.709 98.5835C135.277 98.5835 134.927 99.0141 134.927 99.5453C134.927 100.076 135.277 100.507 135.709 100.507Z" fill="url(#paint24_linear_664_31414)"/>
<path d="M101.293 262.088C101.725 262.088 102.075 261.658 102.075 261.126C102.075 260.595 101.725 260.165 101.293 260.165C100.861 260.165 100.51 260.595 100.51 261.126C100.51 261.658 100.861 262.088 101.293 262.088Z" fill="url(#paint25_linear_664_31414)"/>
<path d="M239.739 217.846C240.171 217.846 240.521 217.415 240.521 216.884C240.521 216.353 240.171 215.922 239.739 215.922C239.307 215.922 238.957 216.353 238.957 216.884C238.957 217.415 239.307 217.846 239.739 217.846Z" fill="url(#paint26_linear_664_31414)"/>
<path d="M307.007 352.497C307.439 352.497 307.789 352.066 307.789 351.535C307.789 351.004 307.439 350.573 307.007 350.573C306.575 350.573 306.225 351.004 306.225 351.535C306.225 352.066 306.575 352.497 307.007 352.497Z" fill="url(#paint27_linear_664_31414)"/>
<path d="M409.473 446.752C409.905 446.752 410.255 446.321 410.255 445.79C410.255 445.259 409.905 444.828 409.473 444.828C409.041 444.828 408.691 445.259 408.691 445.79C408.691 446.321 409.041 446.752 409.473 446.752Z" fill="url(#paint28_linear_664_31414)"/>
<path d="M488.474 382.312C488.906 382.312 489.256 381.882 489.256 381.35C489.256 380.819 488.906 380.389 488.474 380.389C488.042 380.389 487.691 380.819 487.691 381.35C487.691 381.882 488.042 382.312 488.474 382.312Z" fill="url(#paint29_linear_664_31414)"/>
<path d="M641.782 325.566C642.214 325.566 642.564 325.136 642.564 324.605C642.564 324.073 642.214 323.643 641.782 323.643C641.35 323.643 641 324.073 641 324.605C641 325.136 641.35 325.566 641.782 325.566Z" fill="url(#paint30_linear_664_31414)"/>
<path d="M562.781 197.648C563.213 197.648 563.563 197.218 563.563 196.686C563.563 196.155 563.213 195.725 562.781 195.725C562.349 195.725 561.999 196.155 561.999 196.686C561.999 197.218 562.349 197.648 562.781 197.648Z" fill="url(#paint31_linear_664_31414)"/>
<path d="M425.899 213.999C426.331 213.999 426.681 213.568 426.681 213.037C426.681 212.506 426.331 212.075 425.899 212.075C425.467 212.075 425.117 212.506 425.117 213.037C425.117 213.568 425.467 213.999 425.899 213.999Z" fill="url(#paint32_linear_664_31414)"/>
<path d="M658.99 211.113C659.422 211.113 659.772 210.683 659.772 210.151C659.772 209.62 659.422 209.19 658.99 209.19C658.558 209.19 658.208 209.62 658.208 210.151C658.208 210.683 658.558 211.113 658.99 211.113Z" fill="url(#paint33_linear_664_31414)"/>
<path d="M821.684 310.178C822.116 310.178 822.466 309.747 822.466 309.216C822.466 308.685 822.116 308.254 821.684 308.254C821.252 308.254 820.902 308.685 820.902 309.216C820.902 309.747 821.252 310.178 821.684 310.178Z" fill="url(#paint34_linear_664_31414)"/>
<path d="M812.298 75.5006C812.73 75.5006 813.08 75.07 813.08 74.5388C813.08 74.0076 812.73 73.577 812.298 73.577C811.866 73.577 811.516 74.0076 811.516 74.5388C811.516 75.07 811.866 75.5006 812.298 75.5006Z" fill="url(#paint35_linear_664_31414)"/>
<path d="M945.269 256.318C945.701 256.318 946.051 255.887 946.051 255.356C946.051 254.825 945.701 254.394 945.269 254.394C944.837 254.394 944.487 254.825 944.487 255.356C944.487 255.887 944.837 256.318 945.269 256.318Z" fill="url(#paint36_linear_664_31414)"/>
<path d="M1035.22 81.2715C1035.65 81.2715 1036 80.8409 1036 80.3097C1036 79.7785 1035.65 79.3479 1035.22 79.3479C1034.79 79.3479 1034.44 79.7785 1034.44 80.3097C1034.44 80.8409 1034.79 81.2715 1035.22 81.2715Z" fill="url(#paint37_linear_664_31414)"/>
<path d="M947.615 20.6785C948.047 20.6785 948.398 20.2479 948.398 19.7167C948.398 19.1855 948.047 18.7549 947.615 18.7549C947.183 18.7549 946.833 19.1855 946.833 19.7167C946.833 20.2479 947.183 20.6785 947.615 20.6785Z" fill="url(#paint38_linear_664_31414)"/>
<path d="M1151.77 215.922C1152.2 215.922 1152.55 215.492 1152.55 214.96C1152.55 214.429 1152.2 213.999 1151.77 213.999C1151.33 213.999 1150.98 214.429 1150.98 214.96C1150.98 215.492 1151.33 215.922 1151.77 215.922Z" fill="url(#paint39_linear_664_31414)"/>
<path d="M1219.03 137.055C1219.47 137.055 1219.82 136.625 1219.82 136.094C1219.82 135.562 1219.47 135.132 1219.03 135.132C1218.6 135.132 1218.25 135.562 1218.25 136.094C1218.25 136.625 1218.6 137.055 1219.03 137.055Z" fill="url(#paint40_linear_664_31414)"/>
<path d="M1161.93 403.472C1162.37 403.472 1162.72 403.041 1162.72 402.51C1162.72 401.979 1162.37 401.548 1161.93 401.548C1161.5 401.548 1161.15 401.979 1161.15 402.51C1161.15 403.041 1161.5 403.472 1161.93 403.472Z" fill="url(#paint41_linear_664_31414)"/>
<path d="M913.982 423.669C914.414 423.669 914.764 423.239 914.764 422.707C914.764 422.176 914.414 421.746 913.982 421.746C913.55 421.746 913.199 422.176 913.199 422.707C913.199 423.239 913.55 423.669 913.982 423.669Z" fill="url(#paint42_linear_664_31414)"/>
<path d="M730.168 418.86C730.6 418.86 730.951 418.429 730.951 417.898C730.951 417.367 730.6 416.937 730.168 416.937C729.736 416.937 729.386 417.367 729.386 417.898C729.386 418.429 729.736 418.86 730.168 418.86Z" fill="url(#paint43_linear_664_31414)"/>
<path d="M630.831 288.057C631.263 288.057 631.613 287.626 631.613 287.095C631.613 286.564 631.263 286.133 630.831 286.133C630.399 286.133 630.049 286.564 630.049 287.095C630.049 287.626 630.399 288.057 630.831 288.057Z" fill="url(#paint44_linear_664_31414)"/>
<path d="M866.268 201.495C866.7 201.495 867.05 201.065 867.05 200.533C867.05 200.002 866.7 199.572 866.268 199.572C865.836 199.572 865.486 200.002 865.486 200.533C865.486 201.065 865.836 201.495 866.268 201.495Z" fill="url(#paint45_linear_664_31414)"/>
<path d="M985.942 390.968C986.374 390.968 986.725 390.538 986.725 390.006C986.725 389.475 986.374 389.045 985.942 389.045C985.51 389.045 985.16 389.475 985.16 390.006C985.16 390.538 985.51 390.968 985.942 390.968Z" fill="url(#paint46_linear_664_31414)"/>
<path d="M1060.25 149.558C1060.68 149.558 1061.03 149.128 1061.03 148.597C1061.03 148.065 1060.68 147.635 1060.25 147.635C1059.82 147.635 1059.47 148.065 1059.47 148.597C1059.47 149.128 1059.82 149.558 1060.25 149.558Z" fill="url(#paint47_linear_664_31414)"/>
<path d="M705.139 91.3701C705.355 91.3701 705.53 91.1548 705.53 90.8892C705.53 90.6236 705.355 90.4083 705.139 90.4083C704.923 90.4083 704.747 90.6236 704.747 90.8892C704.747 91.1548 704.923 91.3701 705.139 91.3701Z" fill="url(#paint48_linear_664_31414)"/>
<path d="M841.239 144.269C841.454 144.269 841.63 144.053 841.63 143.788C841.63 143.522 841.454 143.307 841.239 143.307C841.023 143.307 840.847 143.522 840.847 143.788C840.847 144.053 841.023 144.269 841.239 144.269Z" fill="url(#paint49_linear_664_31414)"/>
<path d="M965.606 62.5165C965.822 62.5165 965.997 62.3012 965.997 62.0356C965.997 61.77 965.822 61.5547 965.606 61.5547C965.39 61.5547 965.215 61.77 965.215 62.0356C965.215 62.3012 965.39 62.5165 965.606 62.5165Z" fill="url(#paint50_linear_664_31414)"/>
<path d="M1099.36 28.8536C1099.58 28.8536 1099.75 28.6383 1099.75 28.3727C1099.75 28.1072 1099.58 27.8918 1099.36 27.8918C1099.14 27.8918 1098.97 28.1072 1098.97 28.3727C1098.97 28.6383 1099.14 28.8536 1099.36 28.8536Z" fill="url(#paint51_linear_664_31414)"/>
<path d="M1183.05 172.161C1183.27 172.161 1183.44 171.945 1183.44 171.68C1183.44 171.414 1183.27 171.199 1183.05 171.199C1182.84 171.199 1182.66 171.414 1182.66 171.68C1182.66 171.945 1182.84 172.161 1183.05 172.161Z" fill="url(#paint52_linear_664_31414)"/>
<path d="M1118.13 260.646C1118.35 260.646 1118.52 260.43 1118.52 260.165C1118.52 259.899 1118.35 259.684 1118.13 259.684C1117.92 259.684 1117.74 259.899 1117.74 260.165C1117.74 260.43 1117.92 260.646 1118.13 260.646Z" fill="url(#paint53_linear_664_31414)"/>
<path d="M1233.89 305.85C1234.11 305.85 1234.29 305.634 1234.29 305.369C1234.29 305.103 1234.11 304.888 1233.89 304.888C1233.68 304.888 1233.5 305.103 1233.5 305.369C1233.5 305.634 1233.68 305.85 1233.89 305.85Z" fill="url(#paint54_linear_664_31414)"/>
<path d="M1194 466.469C1194.22 466.469 1194.39 466.254 1194.39 465.988C1194.39 465.722 1194.22 465.507 1194 465.507C1193.79 465.507 1193.61 465.722 1193.61 465.988C1193.61 466.254 1193.79 466.469 1194 466.469Z" fill="url(#paint55_linear_664_31414)"/>
<path d="M1258.92 389.526C1259.14 389.526 1259.32 389.31 1259.32 389.045C1259.32 388.779 1259.14 388.564 1258.92 388.564C1258.71 388.564 1258.53 388.779 1258.53 389.045C1258.53 389.31 1258.71 389.526 1258.92 389.526Z" fill="url(#paint56_linear_664_31414)"/>
<path d="M1125.17 346.245C1125.39 346.245 1125.56 346.03 1125.56 345.764C1125.56 345.498 1125.39 345.283 1125.17 345.283C1124.96 345.283 1124.78 345.498 1124.78 345.764C1124.78 346.03 1124.96 346.245 1125.17 346.245Z" fill="url(#paint57_linear_664_31414)"/>
<path d="M1045.39 402.029C1045.6 402.029 1045.78 401.814 1045.78 401.548C1045.78 401.282 1045.6 401.067 1045.39 401.067C1045.17 401.067 1045 401.282 1045 401.548C1045 401.814 1045.17 402.029 1045.39 402.029Z" fill="url(#paint58_linear_664_31414)"/>
<path d="M967.952 422.226C968.168 422.226 968.343 422.011 968.343 421.746C968.343 421.48 968.168 421.265 967.952 421.265C967.736 421.265 967.561 421.48 967.561 421.746C967.561 422.011 967.736 422.226 967.952 422.226Z" fill="url(#paint59_linear_664_31414)"/>
<path d="M16.0348 425.112C16.2508 425.112 16.4259 424.897 16.4259 424.631C16.4259 424.365 16.2508 424.15 16.0348 424.15C15.8188 424.15 15.6437 424.365 15.6437 424.631C15.6437 424.897 15.8188 425.112 16.0348 425.112Z" fill="url(#paint60_linear_664_31414)"/>
<path d="M11.3417 202.938C11.5576 202.938 11.7327 202.723 11.7327 202.457C11.7327 202.192 11.5576 201.976 11.3417 201.976C11.1257 201.976 10.9506 202.192 10.9506 202.457C10.9506 202.723 11.1257 202.938 11.3417 202.938Z" fill="url(#paint61_linear_664_31414)"/>
<path d="M102.075 46.1661C102.291 46.1661 102.466 45.9508 102.466 45.6852C102.466 45.4197 102.291 45.2043 102.075 45.2043C101.859 45.2043 101.684 45.4197 101.684 45.6852C101.684 45.9508 101.859 46.1661 102.075 46.1661Z" fill="url(#paint62_linear_664_31414)"/>
<path d="M180.293 187.549C180.509 187.549 180.684 187.334 180.684 187.068C180.684 186.803 180.509 186.588 180.293 186.588C180.077 186.588 179.902 186.803 179.902 187.068C179.902 187.334 180.077 187.549 180.293 187.549Z" fill="url(#paint63_linear_664_31414)"/>
<path d="M26.2031 86.5612C26.4191 86.5612 26.5942 86.3459 26.5942 86.0803C26.5942 85.8147 26.4191 85.5994 26.2031 85.5994C25.9871 85.5994 25.812 85.8147 25.812 86.0803C25.812 86.3459 25.9871 86.5612 26.2031 86.5612Z" fill="url(#paint64_linear_664_31414)"/>
<path d="M148.224 419.341C148.44 419.341 148.615 419.126 148.615 418.86C148.615 418.595 148.44 418.379 148.224 418.379C148.008 418.379 147.833 418.595 147.833 418.86C147.833 419.126 148.008 419.341 148.224 419.341Z" fill="url(#paint65_linear_664_31414)"/>
<path d="M0.391092 358.748C0.607086 358.748 0.782184 358.533 0.782184 358.267C0.782184 358.002 0.607086 357.786 0.391092 357.786C0.175098 357.786 0 358.002 0 358.267C0 358.533 0.175098 358.748 0.391092 358.748Z" fill="url(#paint66_linear_664_31414)"/>
<path d="M909.288 287.576C909.504 287.576 909.679 287.361 909.679 287.095C909.679 286.829 909.504 286.614 909.288 286.614C909.072 286.614 908.897 286.829 908.897 287.095C908.897 287.361 909.072 287.576 909.288 287.576Z" fill="url(#paint67_linear_664_31414)"/>
<path d="M757.545 210.632C757.761 210.632 757.936 210.417 757.936 210.151C757.936 209.886 757.761 209.67 757.545 209.67C757.329 209.67 757.154 209.886 757.154 210.151C757.154 210.417 757.329 210.632 757.545 210.632Z" fill="url(#paint68_linear_664_31414)"/>
<path d="M655.861 256.798C656.077 256.798 656.252 256.583 656.252 256.318C656.252 256.052 656.077 255.837 655.861 255.837C655.645 255.837 655.47 256.052 655.47 256.318C655.47 256.583 655.645 256.798 655.861 256.798Z" fill="url(#paint69_linear_664_31414)"/>
<path d="M585.464 183.702C585.68 183.702 585.856 183.487 585.856 183.221C585.856 182.956 585.68 182.74 585.464 182.74C585.248 182.74 585.073 182.956 585.073 183.221C585.073 183.487 585.248 183.702 585.464 183.702Z" fill="url(#paint70_linear_664_31414)"/>
<path d="M554.959 277.958C555.175 277.958 555.35 277.743 555.35 277.477C555.35 277.211 555.175 276.996 554.959 276.996C554.743 276.996 554.568 277.211 554.568 277.477C554.568 277.743 554.743 277.958 554.959 277.958Z" fill="url(#paint71_linear_664_31414)"/>
<path d="M465.79 259.684C466.006 259.684 466.181 259.468 466.181 259.203C466.181 258.937 466.006 258.722 465.79 258.722C465.574 258.722 465.399 258.937 465.399 259.203C465.399 259.468 465.574 259.684 465.79 259.684Z" fill="url(#paint72_linear_664_31414)"/>
<path d="M488.474 326.047C488.69 326.047 488.865 325.832 488.865 325.566C488.865 325.301 488.69 325.086 488.474 325.086C488.258 325.086 488.083 325.301 488.083 325.566C488.083 325.832 488.258 326.047 488.474 326.047Z" fill="url(#paint73_linear_664_31414)"/>
<path d="M364.889 352.016C365.105 352.016 365.28 351.8 365.28 351.535C365.28 351.269 365.105 351.054 364.889 351.054C364.673 351.054 364.498 351.269 364.498 351.535C364.498 351.8 364.673 352.016 364.889 352.016Z" fill="url(#paint74_linear_664_31414)"/>
<path d="M363.324 127.918C363.54 127.918 363.715 127.703 363.715 127.437C363.715 127.172 363.54 126.957 363.324 126.957C363.108 126.957 362.933 127.172 362.933 127.437C362.933 127.703 363.108 127.918 363.324 127.918Z" fill="url(#paint75_linear_664_31414)"/>
<path d="M296.056 41.3571C296.272 41.3571 296.448 41.1418 296.448 40.8762C296.448 40.6106 296.272 40.3953 296.056 40.3953C295.841 40.3953 295.665 40.6106 295.665 40.8762C295.665 41.1418 295.841 41.3571 296.056 41.3571Z" fill="url(#paint76_linear_664_31414)"/>
<path d="M292.928 182.74C293.144 182.74 293.319 182.525 293.319 182.259C293.319 181.994 293.144 181.779 292.928 181.779C292.712 181.779 292.537 181.994 292.537 182.259C292.537 182.525 292.712 182.74 292.928 182.74Z" fill="url(#paint77_linear_664_31414)"/>
<path d="M213.927 230.83C214.143 230.83 214.318 230.615 214.318 230.349C214.318 230.084 214.143 229.868 213.927 229.868C213.711 229.868 213.536 230.084 213.536 230.349C213.536 230.615 213.711 230.83 213.927 230.83Z" fill="url(#paint78_linear_664_31414)"/>
<path d="M1110.31 448.195C1110.96 448.195 1111.48 447.549 1111.48 446.752C1111.48 445.955 1110.96 445.31 1110.31 445.31C1109.66 445.31 1109.14 445.955 1109.14 446.752C1109.14 447.549 1109.66 448.195 1110.31 448.195Z" fill="url(#paint79_linear_664_31414)"/>
<path d="M946.051 414.532C946.699 414.532 947.224 413.886 947.224 413.089C947.224 412.293 946.699 411.647 946.051 411.647C945.403 411.647 944.878 412.293 944.878 413.089C944.878 413.886 945.403 414.532 946.051 414.532Z" fill="url(#paint80_linear_664_31414)"/>
<path d="M806.822 453.004C807.038 453.004 807.213 452.789 807.213 452.523C807.213 452.257 807.038 452.042 806.822 452.042C806.606 452.042 806.431 452.257 806.431 452.523C806.431 452.789 806.606 453.004 806.822 453.004Z" fill="url(#paint81_linear_664_31414)"/>
<path d="M268.68 407.8C268.896 407.8 269.071 407.584 269.071 407.319C269.071 407.053 268.896 406.838 268.68 406.838C268.464 406.838 268.289 407.053 268.289 407.319C268.289 407.584 268.464 407.8 268.68 407.8Z" fill="url(#paint82_linear_664_31414)"/>
<path d="M1376.25 309.697C1376.9 309.697 1377.43 309.051 1377.43 308.254C1377.43 307.457 1376.9 306.812 1376.25 306.812C1375.6 306.812 1375.08 307.457 1375.08 308.254C1375.08 309.051 1375.6 309.697 1376.25 309.697Z" fill="url(#paint83_linear_664_31414)"/>
<path d="M1252.67 318.353C1253.32 318.353 1253.84 317.707 1253.84 316.91C1253.84 316.113 1253.32 315.468 1252.67 315.468C1252.02 315.468 1251.49 316.113 1251.49 316.91C1251.49 317.707 1252.02 318.353 1252.67 318.353Z" fill="url(#paint84_linear_664_31414)"/>
<path d="M1304.29 100.507C1304.72 100.507 1305.07 100.076 1305.07 99.5453C1305.07 99.0141 1304.72 98.5835 1304.29 98.5835C1303.86 98.5835 1303.51 99.0141 1303.51 99.5453C1303.51 100.076 1303.86 100.507 1304.29 100.507Z" fill="url(#paint85_linear_664_31414)"/>
<path d="M1338.71 262.088C1339.14 262.088 1339.49 261.658 1339.49 261.126C1339.49 260.595 1339.14 260.165 1338.71 260.165C1338.28 260.165 1337.93 260.595 1337.93 261.126C1337.93 261.658 1338.28 262.088 1338.71 262.088Z" fill="url(#paint86_linear_664_31414)"/>
<path d="M1337.93 347.688C1338.36 347.688 1338.71 347.257 1338.71 346.726C1338.71 346.195 1338.36 345.764 1337.93 345.764C1337.49 345.764 1337.14 346.195 1337.14 346.726C1337.14 347.257 1337.49 347.688 1337.93 347.688Z" fill="url(#paint87_linear_664_31414)"/>
<path d="M1423.97 425.112C1424.18 425.112 1424.36 424.897 1424.36 424.631C1424.36 424.365 1424.18 424.15 1423.97 424.15C1423.75 424.15 1423.57 424.365 1423.57 424.631C1423.57 424.897 1423.75 425.112 1423.97 425.112Z" fill="url(#paint88_linear_664_31414)"/>
<path d="M1428.66 202.938C1428.87 202.938 1429.05 202.723 1429.05 202.457C1429.05 202.192 1428.87 201.976 1428.66 201.976C1428.44 201.976 1428.27 202.192 1428.27 202.457C1428.27 202.723 1428.44 202.938 1428.66 202.938Z" fill="url(#paint89_linear_664_31414)"/>
<path d="M1337.93 46.1661C1338.14 46.1661 1338.32 45.9508 1338.32 45.6852C1338.32 45.4197 1338.14 45.2043 1337.93 45.2043C1337.71 45.2043 1337.53 45.4197 1337.53 45.6852C1337.53 45.9508 1337.71 46.1661 1337.93 46.1661Z" fill="url(#paint90_linear_664_31414)"/>
<path d="M1259.71 187.549C1259.92 187.549 1260.1 187.334 1260.1 187.068C1260.1 186.803 1259.92 186.588 1259.71 186.588C1259.49 186.588 1259.32 186.803 1259.32 187.068C1259.32 187.334 1259.49 187.549 1259.71 187.549Z" fill="url(#paint91_linear_664_31414)"/>
<path d="M1413.8 86.5612C1414.01 86.5612 1414.19 86.3459 1414.19 86.0803C1414.19 85.8147 1414.01 85.5994 1413.8 85.5994C1413.58 85.5994 1413.41 85.8147 1413.41 86.0803C1413.41 86.3459 1413.58 86.5612 1413.8 86.5612Z" fill="url(#paint92_linear_664_31414)"/>
<path d="M1291.78 419.341C1291.99 419.341 1292.17 419.126 1292.17 418.86C1292.17 418.595 1291.99 418.379 1291.78 418.379C1291.56 418.379 1291.39 418.595 1291.39 418.86C1291.39 419.126 1291.56 419.341 1291.78 419.341Z" fill="url(#paint93_linear_664_31414)"/>
<path d="M1439.61 358.748C1439.82 358.748 1440 358.533 1440 358.267C1440 358.002 1439.82 357.786 1439.61 357.786C1439.39 357.786 1439.22 358.002 1439.22 358.267C1439.22 358.533 1439.39 358.748 1439.61 358.748Z" fill="url(#paint94_linear_664_31414)"/>
<path d="M1226.07 230.83C1226.29 230.83 1226.46 230.615 1226.46 230.349C1226.46 230.084 1226.29 229.868 1226.07 229.868C1225.86 229.868 1225.68 230.084 1225.68 230.349C1225.68 230.615 1225.86 230.83 1226.07 230.83Z" fill="url(#paint95_linear_664_31414)"/>
<path d="M773.188 329.894C773.404 329.894 773.58 329.679 773.58 329.414C773.58 329.148 773.404 328.933 773.188 328.933C772.972 328.933 772.797 329.148 772.797 329.414C772.797 329.679 772.972 329.894 773.188 329.894Z" fill="url(#paint96_linear_664_31414)"/>
<path d="M865.486 278.92C865.702 278.92 865.877 278.704 865.877 278.439C865.877 278.173 865.702 277.958 865.486 277.958C865.27 277.958 865.095 278.173 865.095 278.439C865.095 278.704 865.27 278.92 865.486 278.92Z" fill="url(#paint97_linear_664_31414)"/>
<path d="M1043.04 323.162C1043.26 323.162 1043.43 322.947 1043.43 322.681C1043.43 322.415 1043.26 322.2 1043.04 322.2C1042.83 322.2 1042.65 322.415 1042.65 322.681C1042.65 322.947 1042.83 323.162 1043.04 323.162Z" fill="url(#paint98_linear_664_31414)"/>
<path d="M971.863 155.81C972.079 155.81 972.254 155.595 972.254 155.329C972.254 155.064 972.079 154.849 971.863 154.849C971.647 154.849 971.472 155.064 971.472 155.329C971.472 155.595 971.647 155.81 971.863 155.81Z" fill="url(#paint99_linear_664_31414)"/>
</g>
<defs>
<linearGradient id="paint0_linear_664_31414" x1="599.544" y1="-1.08188" x2="599.544" y2="530.022" gradientUnits="userSpaceOnUse">
<stop stop-color="white"/>
<stop offset="1" stop-color="white" stop-opacity="0"/>
</linearGradient>
<linearGradient id="paint1_linear_664_31414" x1="418.078" y1="-1.08194" x2="418.078" y2="530.022" gradientUnits="userSpaceOnUse">
<stop stop-color="white"/>
<stop offset="1" stop-color="white" stop-opacity="0"/>
</linearGradient>
<linearGradient id="paint2_linear_664_31414" x1="435.285" y1="-1.08202" x2="435.285" y2="530.022" gradientUnits="userSpaceOnUse">
<stop stop-color="white"/>
<stop offset="1" stop-color="white" stop-opacity="0"/>
</linearGradient>
<linearGradient id="paint3_linear_664_31414" x1="632.396" y1="-1.08207" x2="632.396" y2="530.022" gradientUnits="userSpaceOnUse">
<stop stop-color="white"/>
<stop offset="1" stop-color="white" stop-opacity="0"/>
</linearGradient>
<linearGradient id="paint4_linear_664_31414" x1="833.416" y1="-1.08187" x2="833.416" y2="530.022" gradientUnits="userSpaceOnUse">
<stop stop-color="white"/>
<stop offset="1" stop-color="white" stop-opacity="0"/>
</linearGradient>
<linearGradient id="paint5_linear_664_31414" x1="903.031" y1="-1.08208" x2="903.031" y2="530.022" gradientUnits="userSpaceOnUse">
<stop stop-color="white"/>
<stop offset="1" stop-color="white" stop-opacity="0"/>
</linearGradient>
<linearGradient id="paint6_linear_664_31414" x1="1000.8" y1="-1.08217" x2="1000.8" y2="530.022" gradientUnits="userSpaceOnUse">
<stop stop-color="white"/>
<stop offset="1" stop-color="white" stop-opacity="0"/>
</linearGradient>
<linearGradient id="paint7_linear_664_31414" x1="854.535" y1="-1.08197" x2="854.535" y2="530.022" gradientUnits="userSpaceOnUse">
<stop stop-color="white"/>
<stop offset="1" stop-color="white" stop-opacity="0"/>
</linearGradient>
<linearGradient id="paint8_linear_664_31414" x1="699.664" y1="-1.08199" x2="699.664" y2="530.022" gradientUnits="userSpaceOnUse">
<stop stop-color="white"/>
<stop offset="1" stop-color="white" stop-opacity="0"/>
</linearGradient>
<linearGradient id="paint9_linear_664_31414" x1="540.098" y1="-1.08212" x2="540.098" y2="530.022" gradientUnits="userSpaceOnUse">
<stop stop-color="white"/>
<stop offset="1" stop-color="white" stop-opacity="0"/>
</linearGradient>
<linearGradient id="paint10_linear_664_31414" x1="764.585" y1="-1.08193" x2="764.585" y2="530.022" gradientUnits="userSpaceOnUse">
<stop stop-color="white"/>
<stop offset="1" stop-color="white" stop-opacity="0"/>
</linearGradient>
<linearGradient id="paint11_linear_664_31414" x1="604.237" y1="-1.08219" x2="604.237" y2="530.022" gradientUnits="userSpaceOnUse">
<stop stop-color="white"/>
<stop offset="1" stop-color="white" stop-opacity="0"/>
</linearGradient>
<linearGradient id="paint12_linear_664_31414" x1="394.612" y1="-1.08213" x2="394.612" y2="530.022" gradientUnits="userSpaceOnUse">
<stop stop-color="white"/>
<stop offset="1" stop-color="white" stop-opacity="0"/>
</linearGradient>
<linearGradient id="paint13_linear_664_31414" x1="63.7484" y1="-1.08198" x2="63.7484" y2="530.022" gradientUnits="userSpaceOnUse">
<stop stop-color="white"/>
<stop offset="1" stop-color="white" stop-opacity="0"/>
</linearGradient>
<linearGradient id="paint14_linear_664_31414" x1="267.116" y1="-1.08197" x2="267.116" y2="530.022" gradientUnits="userSpaceOnUse">
<stop stop-color="white"/>
<stop offset="1" stop-color="white" stop-opacity="0"/>
</linearGradient>
<linearGradient id="paint15_linear_664_31414" x1="187.333" y1="-1.0821" x2="187.333" y2="530.022" gradientUnits="userSpaceOnUse">
<stop stop-color="white"/>
<stop offset="1" stop-color="white" stop-opacity="0"/>
</linearGradient>
<linearGradient id="paint16_linear_664_31414" x1="795.089" y1="-1.08206" x2="795.089" y2="530.022" gradientUnits="userSpaceOnUse">
<stop stop-color="white"/>
<stop offset="1" stop-color="white" stop-opacity="0"/>
</linearGradient>
<linearGradient id="paint17_linear_664_31414" x1="1117.35" y1="-1.08198" x2="1117.35" y2="530.022" gradientUnits="userSpaceOnUse">
<stop stop-color="white"/>
<stop offset="1" stop-color="white" stop-opacity="0"/>
</linearGradient>
<linearGradient id="paint18_linear_664_31414" x1="1176.01" y1="-1.08201" x2="1176.01" y2="530.022" gradientUnits="userSpaceOnUse">
<stop stop-color="white"/>
<stop offset="1" stop-color="white" stop-opacity="0"/>
</linearGradient>
<linearGradient id="paint19_linear_664_31414" x1="1007.06" y1="-1.08197" x2="1007.06" y2="530.022" gradientUnits="userSpaceOnUse">
<stop stop-color="white"/>
<stop offset="1" stop-color="white" stop-opacity="0"/>
</linearGradient>
<linearGradient id="paint20_linear_664_31414" x1="754.416" y1="-1.08205" x2="754.416" y2="530.022" gradientUnits="userSpaceOnUse">
<stop stop-color="white"/>
<stop offset="1" stop-color="white" stop-opacity="0"/>
</linearGradient>
<linearGradient id="paint21_linear_664_31414" x1="662.119" y1="-1.08192" x2="662.119" y2="530.022" gradientUnits="userSpaceOnUse">
<stop stop-color="white"/>
<stop offset="1" stop-color="white" stop-opacity="0"/>
</linearGradient>
<linearGradient id="paint22_linear_664_31414" x1="486.91" y1="-1.08203" x2="486.91" y2="530.022" gradientUnits="userSpaceOnUse">
<stop stop-color="white"/>
<stop offset="1" stop-color="white" stop-opacity="0"/>
</linearGradient>
<linearGradient id="paint23_linear_664_31414" x1="362.543" y1="-1.08198" x2="362.543" y2="530.022" gradientUnits="userSpaceOnUse">
<stop stop-color="white"/>
<stop offset="1" stop-color="white" stop-opacity="0"/>
</linearGradient>
<linearGradient id="paint24_linear_664_31414" x1="135.709" y1="-1.08215" x2="135.709" y2="530.022" gradientUnits="userSpaceOnUse">
<stop stop-color="white"/>
<stop offset="1" stop-color="white" stop-opacity="0"/>
</linearGradient>
<linearGradient id="paint25_linear_664_31414" x1="101.293" y1="-1.08207" x2="101.293" y2="530.022" gradientUnits="userSpaceOnUse">
<stop stop-color="white"/>
<stop offset="1" stop-color="white" stop-opacity="0"/>
</linearGradient>
<linearGradient id="paint26_linear_664_31414" x1="239.74" y1="-1.08209" x2="239.74" y2="530.022" gradientUnits="userSpaceOnUse">
<stop stop-color="white"/>
<stop offset="1" stop-color="white" stop-opacity="0"/>
</linearGradient>
<linearGradient id="paint27_linear_664_31414" x1="307.007" y1="-1.0819" x2="307.007" y2="530.022" gradientUnits="userSpaceOnUse">
<stop stop-color="white"/>
<stop offset="1" stop-color="white" stop-opacity="0"/>
</linearGradient>
<linearGradient id="paint28_linear_664_31414" x1="409.473" y1="-1.08209" x2="409.473" y2="530.022" gradientUnits="userSpaceOnUse">
<stop stop-color="white"/>
<stop offset="1" stop-color="white" stop-opacity="0"/>
</linearGradient>
<linearGradient id="paint29_linear_664_31414" x1="488.474" y1="-1.08199" x2="488.474" y2="530.022" gradientUnits="userSpaceOnUse">
<stop stop-color="white"/>
<stop offset="1" stop-color="white" stop-opacity="0"/>
</linearGradient>
<linearGradient id="paint30_linear_664_31414" x1="641.782" y1="-1.08202" x2="641.782" y2="530.022" gradientUnits="userSpaceOnUse">
<stop stop-color="white"/>
<stop offset="1" stop-color="white" stop-opacity="0"/>
</linearGradient>
<linearGradient id="paint31_linear_664_31414" x1="562.781" y1="-1.08197" x2="562.781" y2="530.022" gradientUnits="userSpaceOnUse">
<stop stop-color="white"/>
<stop offset="1" stop-color="white" stop-opacity="0"/>
</linearGradient>
<linearGradient id="paint32_linear_664_31414" x1="425.899" y1="-1.08197" x2="425.899" y2="530.022" gradientUnits="userSpaceOnUse">
<stop stop-color="white"/>
<stop offset="1" stop-color="white" stop-opacity="0"/>
</linearGradient>
<linearGradient id="paint33_linear_664_31414" x1="658.99" y1="-1.08197" x2="658.99" y2="530.022" gradientUnits="userSpaceOnUse">
<stop stop-color="white"/>
<stop offset="1" stop-color="white" stop-opacity="0"/>
</linearGradient>
<linearGradient id="paint34_linear_664_31414" x1="821.683" y1="-1.08192" x2="821.683" y2="530.022" gradientUnits="userSpaceOnUse">
<stop stop-color="white"/>
<stop offset="1" stop-color="white" stop-opacity="0"/>
</linearGradient>
<linearGradient id="paint35_linear_664_31414" x1="812.297" y1="-1.08204" x2="812.297" y2="530.022" gradientUnits="userSpaceOnUse">
<stop stop-color="white"/>
<stop offset="1" stop-color="white" stop-opacity="0"/>
</linearGradient>
<linearGradient id="paint36_linear_664_31414" x1="945.268" y1="-1.08195" x2="945.268" y2="530.022" gradientUnits="userSpaceOnUse">
<stop stop-color="white"/>
<stop offset="1" stop-color="white" stop-opacity="0"/>
</linearGradient>
<linearGradient id="paint37_linear_664_31414" x1="1035.22" y1="-1.08192" x2="1035.22" y2="530.022" gradientUnits="userSpaceOnUse">
<stop stop-color="white"/>
<stop offset="1" stop-color="white" stop-opacity="0"/>
</linearGradient>
<linearGradient id="paint38_linear_664_31414" x1="947.615" y1="-1.08207" x2="947.615" y2="530.022" gradientUnits="userSpaceOnUse">
<stop stop-color="white"/>
<stop offset="1" stop-color="white" stop-opacity="0"/>
</linearGradient>
<linearGradient id="paint39_linear_664_31414" x1="1151.76" y1="-1.08196" x2="1151.76" y2="530.022" gradientUnits="userSpaceOnUse">
<stop stop-color="white"/>
<stop offset="1" stop-color="white" stop-opacity="0"/>
</linearGradient>
<linearGradient id="paint40_linear_664_31414" x1="1219.03" y1="-1.08189" x2="1219.03" y2="530.022" gradientUnits="userSpaceOnUse">
<stop stop-color="white"/>
<stop offset="1" stop-color="white" stop-opacity="0"/>
</linearGradient>
<linearGradient id="paint41_linear_664_31414" x1="1161.93" y1="-1.082" x2="1161.93" y2="530.022" gradientUnits="userSpaceOnUse">
<stop stop-color="white"/>
<stop offset="1" stop-color="white" stop-opacity="0"/>
</linearGradient>
<linearGradient id="paint42_linear_664_31414" x1="913.981" y1="-1.08198" x2="913.981" y2="530.022" gradientUnits="userSpaceOnUse">
<stop stop-color="white"/>
<stop offset="1" stop-color="white" stop-opacity="0"/>
</linearGradient>
<linearGradient id="paint43_linear_664_31414" x1="730.169" y1="-1.0821" x2="730.169" y2="530.022" gradientUnits="userSpaceOnUse">
<stop stop-color="white"/>
<stop offset="1" stop-color="white" stop-opacity="0"/>
</linearGradient>
<linearGradient id="paint44_linear_664_31414" x1="630.831" y1="-1.08205" x2="630.831" y2="530.022" gradientUnits="userSpaceOnUse">
<stop stop-color="white"/>
<stop offset="1" stop-color="white" stop-opacity="0"/>
</linearGradient>
<linearGradient id="paint45_linear_664_31414" x1="866.268" y1="-1.08209" x2="866.268" y2="530.022" gradientUnits="userSpaceOnUse">
<stop stop-color="white"/>
<stop offset="1" stop-color="white" stop-opacity="0"/>
</linearGradient>
<linearGradient id="paint46_linear_664_31414" x1="985.942" y1="-1.08199" x2="985.942" y2="530.022" gradientUnits="userSpaceOnUse">
<stop stop-color="white"/>
<stop offset="1" stop-color="white" stop-opacity="0"/>
</linearGradient>
<linearGradient id="paint47_linear_664_31414" x1="1060.25" y1="-1.08213" x2="1060.25" y2="530.022" gradientUnits="userSpaceOnUse">
<stop stop-color="white"/>
<stop offset="1" stop-color="white" stop-opacity="0"/>
</linearGradient>
<linearGradient id="paint48_linear_664_31414" x1="705.139" y1="-1.08209" x2="705.139" y2="530.022" gradientUnits="userSpaceOnUse">
<stop stop-color="white"/>
<stop offset="1" stop-color="white" stop-opacity="0"/>
</linearGradient>
<linearGradient id="paint49_linear_664_31414" x1="841.238" y1="-1.08194" x2="841.238" y2="530.022" gradientUnits="userSpaceOnUse">
<stop stop-color="white"/>
<stop offset="1" stop-color="white" stop-opacity="0"/>
</linearGradient>
<linearGradient id="paint50_linear_664_31414" x1="965.605" y1="-1.08198" x2="965.605" y2="530.022" gradientUnits="userSpaceOnUse">
<stop stop-color="white"/>
<stop offset="1" stop-color="white" stop-opacity="0"/>
</linearGradient>
<linearGradient id="paint51_linear_664_31414" x1="1099.36" y1="-1.08212" x2="1099.36" y2="530.022" gradientUnits="userSpaceOnUse">
<stop stop-color="white"/>
<stop offset="1" stop-color="white" stop-opacity="0"/>
</linearGradient>
<linearGradient id="paint52_linear_664_31414" x1="1183.05" y1="-1.08193" x2="1183.05" y2="530.022" gradientUnits="userSpaceOnUse">
<stop stop-color="white"/>
<stop offset="1" stop-color="white" stop-opacity="0"/>
</linearGradient>
<linearGradient id="paint53_linear_664_31414" x1="1118.13" y1="-1.08201" x2="1118.13" y2="530.022" gradientUnits="userSpaceOnUse">
<stop stop-color="white"/>
<stop offset="1" stop-color="white" stop-opacity="0"/>
</linearGradient>
<linearGradient id="paint54_linear_664_31414" x1="1233.89" y1="-1.08199" x2="1233.89" y2="530.022" gradientUnits="userSpaceOnUse">
<stop stop-color="white"/>
<stop offset="1" stop-color="white" stop-opacity="0"/>
</linearGradient>
<linearGradient id="paint55_linear_664_31414" x1="1194" y1="-1.08201" x2="1194" y2="530.022" gradientUnits="userSpaceOnUse">
<stop stop-color="white"/>
<stop offset="1" stop-color="white" stop-opacity="0"/>
</linearGradient>
<linearGradient id="paint56_linear_664_31414" x1="1258.92" y1="-1.08193" x2="1258.92" y2="530.022" gradientUnits="userSpaceOnUse">
<stop stop-color="white"/>
<stop offset="1" stop-color="white" stop-opacity="0"/>
</linearGradient>
<linearGradient id="paint57_linear_664_31414" x1="1125.17" y1="-1.08208" x2="1125.17" y2="530.022" gradientUnits="userSpaceOnUse">
<stop stop-color="white"/>
<stop offset="1" stop-color="white" stop-opacity="0"/>
</linearGradient>
<linearGradient id="paint58_linear_664_31414" x1="1045.39" y1="-1.08194" x2="1045.39" y2="530.022" gradientUnits="userSpaceOnUse">
<stop stop-color="white"/>
<stop offset="1" stop-color="white" stop-opacity="0"/>
</linearGradient>
<linearGradient id="paint59_linear_664_31414" x1="967.952" y1="-1.08205" x2="967.952" y2="530.022" gradientUnits="userSpaceOnUse">
<stop stop-color="white"/>
<stop offset="1" stop-color="white" stop-opacity="0"/>
</linearGradient>
<linearGradient id="paint60_linear_664_31414" x1="16.0352" y1="-1.08193" x2="16.0352" y2="530.022" gradientUnits="userSpaceOnUse">
<stop stop-color="white"/>
<stop offset="1" stop-color="white" stop-opacity="0"/>
</linearGradient>
<linearGradient id="paint61_linear_664_31414" x1="11.342" y1="-1.08192" x2="11.342" y2="530.022" gradientUnits="userSpaceOnUse">
<stop stop-color="white"/>
<stop offset="1" stop-color="white" stop-opacity="0"/>
</linearGradient>
<linearGradient id="paint62_linear_664_31414" x1="102.075" y1="-1.08187" x2="102.075" y2="530.022" gradientUnits="userSpaceOnUse">
<stop stop-color="white"/>
<stop offset="1" stop-color="white" stop-opacity="0"/>
</linearGradient>
<linearGradient id="paint63_linear_664_31414" x1="180.294" y1="-1.08204" x2="180.294" y2="530.022" gradientUnits="userSpaceOnUse">
<stop stop-color="white"/>
<stop offset="1" stop-color="white" stop-opacity="0"/>
</linearGradient>
<linearGradient id="paint64_linear_664_31414" x1="26.2035" y1="-1.08209" x2="26.2035" y2="530.022" gradientUnits="userSpaceOnUse">
<stop stop-color="white"/>
<stop offset="1" stop-color="white" stop-opacity="0"/>
</linearGradient>
<linearGradient id="paint65_linear_664_31414" x1="148.224" y1="-1.08205" x2="148.224" y2="530.022" gradientUnits="userSpaceOnUse">
<stop stop-color="white"/>
<stop offset="1" stop-color="white" stop-opacity="0"/>
</linearGradient>
<linearGradient id="paint66_linear_664_31414" x1="0.391486" y1="-1.08206" x2="0.391486" y2="530.022" gradientUnits="userSpaceOnUse">
<stop stop-color="white"/>
<stop offset="1" stop-color="white" stop-opacity="0"/>
</linearGradient>
<linearGradient id="paint67_linear_664_31414" x1="909.288" y1="-1.08186" x2="909.288" y2="530.022" gradientUnits="userSpaceOnUse">
<stop stop-color="white"/>
<stop offset="1" stop-color="white" stop-opacity="0"/>
</linearGradient>
<linearGradient id="paint68_linear_664_31414" x1="757.545" y1="-1.08215" x2="757.545" y2="530.022" gradientUnits="userSpaceOnUse">
<stop stop-color="white"/>
<stop offset="1" stop-color="white" stop-opacity="0"/>
</linearGradient>
<linearGradient id="paint69_linear_664_31414" x1="655.861" y1="-1.08189" x2="655.861" y2="530.022" gradientUnits="userSpaceOnUse">
<stop stop-color="white"/>
<stop offset="1" stop-color="white" stop-opacity="0"/>
</linearGradient>
<linearGradient id="paint70_linear_664_31414" x1="585.465" y1="-1.08192" x2="585.465" y2="530.022" gradientUnits="userSpaceOnUse">
<stop stop-color="white"/>
<stop offset="1" stop-color="white" stop-opacity="0"/>
</linearGradient>
<linearGradient id="paint71_linear_664_31414" x1="554.96" y1="-1.08188" x2="554.96" y2="530.022" gradientUnits="userSpaceOnUse">
<stop stop-color="white"/>
<stop offset="1" stop-color="white" stop-opacity="0"/>
</linearGradient>
<linearGradient id="paint72_linear_664_31414" x1="465.791" y1="-1.08213" x2="465.791" y2="530.022" gradientUnits="userSpaceOnUse">
<stop stop-color="white"/>
<stop offset="1" stop-color="white" stop-opacity="0"/>
</linearGradient>
<linearGradient id="paint73_linear_664_31414" x1="488.474" y1="-1.08198" x2="488.474" y2="530.022" gradientUnits="userSpaceOnUse">
<stop stop-color="white"/>
<stop offset="1" stop-color="white" stop-opacity="0"/>
</linearGradient>
<linearGradient id="paint74_linear_664_31414" x1="364.889" y1="-1.08196" x2="364.889" y2="530.022" gradientUnits="userSpaceOnUse">
<stop stop-color="white"/>
<stop offset="1" stop-color="white" stop-opacity="0"/>
</linearGradient>
<linearGradient id="paint75_linear_664_31414" x1="363.325" y1="-1.08195" x2="363.325" y2="530.022" gradientUnits="userSpaceOnUse">
<stop stop-color="white"/>
<stop offset="1" stop-color="white" stop-opacity="0"/>
</linearGradient>
<linearGradient id="paint76_linear_664_31414" x1="296.057" y1="-1.08199" x2="296.057" y2="530.022" gradientUnits="userSpaceOnUse">
<stop stop-color="white"/>
<stop offset="1" stop-color="white" stop-opacity="0"/>
</linearGradient>
<linearGradient id="paint77_linear_664_31414" x1="292.928" y1="-1.08205" x2="292.928" y2="530.022" gradientUnits="userSpaceOnUse">
<stop stop-color="white"/>
<stop offset="1" stop-color="white" stop-opacity="0"/>
</linearGradient>
<linearGradient id="paint78_linear_664_31414" x1="213.928" y1="-1.08191" x2="213.928" y2="530.022" gradientUnits="userSpaceOnUse">
<stop stop-color="white"/>
<stop offset="1" stop-color="white" stop-opacity="0"/>
</linearGradient>
<linearGradient id="paint79_linear_664_31414" x1="1110.31" y1="-1.08192" x2="1110.31" y2="530.022" gradientUnits="userSpaceOnUse">
<stop stop-color="white"/>
<stop offset="1" stop-color="white" stop-opacity="0"/>
</linearGradient>
<linearGradient id="paint80_linear_664_31414" x1="946.051" y1="-1.08205" x2="946.051" y2="530.022" gradientUnits="userSpaceOnUse">
<stop stop-color="white"/>
<stop offset="1" stop-color="white" stop-opacity="0"/>
</linearGradient>
<linearGradient id="paint81_linear_664_31414" x1="806.822" y1="-1.08192" x2="806.822" y2="530.022" gradientUnits="userSpaceOnUse">
<stop stop-color="white"/>
<stop offset="1" stop-color="white" stop-opacity="0"/>
</linearGradient>
<linearGradient id="paint82_linear_664_31414" x1="268.68" y1="-1.08206" x2="268.68" y2="530.022" gradientUnits="userSpaceOnUse">
<stop stop-color="white"/>
<stop offset="1" stop-color="white" stop-opacity="0"/>
</linearGradient>
<linearGradient id="paint83_linear_664_31414" x1="1376.25" y1="-1.08198" x2="1376.25" y2="530.022" gradientUnits="userSpaceOnUse">
<stop stop-color="white"/>
<stop offset="1" stop-color="white" stop-opacity="0"/>
</linearGradient>
<linearGradient id="paint84_linear_664_31414" x1="1252.67" y1="-1.0821" x2="1252.67" y2="530.022" gradientUnits="userSpaceOnUse">
<stop stop-color="white"/>
<stop offset="1" stop-color="white" stop-opacity="0"/>
</linearGradient>
<linearGradient id="paint85_linear_664_31414" x1="1304.29" y1="-1.08215" x2="1304.29" y2="530.022" gradientUnits="userSpaceOnUse">
<stop stop-color="white"/>
<stop offset="1" stop-color="white" stop-opacity="0"/>
</linearGradient>
<linearGradient id="paint86_linear_664_31414" x1="1338.71" y1="-1.08207" x2="1338.71" y2="530.022" gradientUnits="userSpaceOnUse">
<stop stop-color="white"/>
<stop offset="1" stop-color="white" stop-opacity="0"/>
</linearGradient>
<linearGradient id="paint87_linear_664_31414" x1="1337.92" y1="-1.0819" x2="1337.92" y2="530.022" gradientUnits="userSpaceOnUse">
<stop stop-color="white"/>
<stop offset="1" stop-color="white" stop-opacity="0"/>
</linearGradient>
<linearGradient id="paint88_linear_664_31414" x1="1423.96" y1="-1.08193" x2="1423.96" y2="530.022" gradientUnits="userSpaceOnUse">
<stop stop-color="white"/>
<stop offset="1" stop-color="white" stop-opacity="0"/>
</linearGradient>
<linearGradient id="paint89_linear_664_31414" x1="1428.66" y1="-1.08192" x2="1428.66" y2="530.022" gradientUnits="userSpaceOnUse">
<stop stop-color="white"/>
<stop offset="1" stop-color="white" stop-opacity="0"/>
</linearGradient>
<linearGradient id="paint90_linear_664_31414" x1="1337.92" y1="-1.08187" x2="1337.92" y2="530.022" gradientUnits="userSpaceOnUse">
<stop stop-color="white"/>
<stop offset="1" stop-color="white" stop-opacity="0"/>
</linearGradient>
<linearGradient id="paint91_linear_664_31414" x1="1259.71" y1="-1.08204" x2="1259.71" y2="530.022" gradientUnits="userSpaceOnUse">
<stop stop-color="white"/>
<stop offset="1" stop-color="white" stop-opacity="0"/>
</linearGradient>
<linearGradient id="paint92_linear_664_31414" x1="1413.8" y1="-1.08209" x2="1413.8" y2="530.022" gradientUnits="userSpaceOnUse">
<stop stop-color="white"/>
<stop offset="1" stop-color="white" stop-opacity="0"/>
</linearGradient>
<linearGradient id="paint93_linear_664_31414" x1="1291.78" y1="-1.08205" x2="1291.78" y2="530.022" gradientUnits="userSpaceOnUse">
<stop stop-color="white"/>
<stop offset="1" stop-color="white" stop-opacity="0"/>
</linearGradient>
<linearGradient id="paint94_linear_664_31414" x1="1439.61" y1="-1.08206" x2="1439.61" y2="530.022" gradientUnits="userSpaceOnUse">
<stop stop-color="white"/>
<stop offset="1" stop-color="white" stop-opacity="0"/>
</linearGradient>
<linearGradient id="paint95_linear_664_31414" x1="1226.07" y1="-1.08191" x2="1226.07" y2="530.022" gradientUnits="userSpaceOnUse">
<stop stop-color="white"/>
<stop offset="1" stop-color="white" stop-opacity="0"/>
</linearGradient>
<linearGradient id="paint96_linear_664_31414" x1="773.188" y1="-1.08209" x2="773.188" y2="530.022" gradientUnits="userSpaceOnUse">
<stop stop-color="white"/>
<stop offset="1" stop-color="white" stop-opacity="0"/>
</linearGradient>
<linearGradient id="paint97_linear_664_31414" x1="865.486" y1="-1.08199" x2="865.486" y2="530.022" gradientUnits="userSpaceOnUse">
<stop stop-color="white"/>
<stop offset="1" stop-color="white" stop-opacity="0"/>
</linearGradient>
<linearGradient id="paint98_linear_664_31414" x1="1043.04" y1="-1.0821" x2="1043.04" y2="530.022" gradientUnits="userSpaceOnUse">
<stop stop-color="white"/>
<stop offset="1" stop-color="white" stop-opacity="0"/>
</linearGradient>
<linearGradient id="paint99_linear_664_31414" x1="971.863" y1="-1.08194" x2="971.863" y2="530.022" gradientUnits="userSpaceOnUse">
<stop stop-color="white"/>
<stop offset="1" stop-color="white" stop-opacity="0"/>
</linearGradient>
</defs>
</svg>
