<?xml version="1.0" ?><!DOCTYPE svg  PUBLIC '-//W3C//DTD SVG 1.1//EN'  'http://www.w3.org/Graphics/SVG/1.1/DTD/svg11.dtd'><svg enable-background="new 0 0 256 256" id="Layer_1" version="1.1" viewBox="0 0 256 256" xml:space="preserve" xmlns="http://www.w3.org/2000/svg" xmlns:xlink="http://www.w3.org/1999/xlink"><g><circle cx="128" cy="128" fill="#2E4555" r="127"/><path d="M190.9,99.2c-1.1,0-2.2,0.1-3.2,0.2c0-0.1,0-0.1,0-0.2c0-17.3-14-31.2-31.2-31.2c-5,0-9.8,1.2-14,3.4   c-7.2-13-21-21.8-36.8-21.8c-23.2,0-42.1,18.8-42.1,42.1c0,1.4,0.1,2.8,0.2,4.2c-15.4,1.6-27.4,14.6-27.4,30.5   c0,16.9,13.7,30.6,30.6,30.6c3.5,0,6.8-0.6,9.9-1.7c5.6,13.2,18.7,22.5,33.9,22.5c13.5,0,25.3-7.3,31.7-18.1   c3.3,1.9,7.1,2.9,11.2,2.9c8.5,0,15.8-4.6,19.8-11.4c4.8,3.6,10.8,5.8,17.3,5.8c15.9,0,28.8-12.9,28.8-28.8   C219.7,112.1,206.8,99.2,190.9,99.2z" fill="#FFFFFF"/><rect fill="#BBC2C6" height="11.7" width="73.6" x="91.2" y="124.2"/><rect fill="#E7E8E9" height="56.8" width="76.3" x="89.9" y="140.7"/><path d="M164.5,116.6h-73c-4.6,0-8.4,3.8-8.4,8.4v73c0,4.6,3.8,8.4,8.4,8.4h73c4.6,0,8.4-3.8,8.4-8.4v-73   C173,120.4,169.2,116.6,164.5,116.6z M154.4,126.8h8.4v6.9h-8.4V126.8z M93.2,126.8h33.6v6.9H93.2V126.8z M163.6,195.4H92.4v-52.6   h71.2V195.4z" fill="#1F84AB"/><polygon fill="#E65336" points="116.3,177 103.1,168.9 116.3,161.2 116.3,153 97.3,165.5 97.3,172.5 116.3,185.1  "/><polygon fill="#E65336" points="158.7,165.5 139.7,153 139.7,161.2 152.9,168.9 139.7,177 139.7,185.1 158.7,172.5  "/><polygon fill="#E65336" points="135.6,149.1 130,149.1 120.4,189 125.9,189  "/></g></svg>