<?xml version="1.0" ?><!DOCTYPE svg  PUBLIC '-//W3C//DTD SVG 1.1//EN'  'http://www.w3.org/Graphics/SVG/1.1/DTD/svg11.dtd'><svg enable-background="new 0 0 512 512" height="512px" version="1.1" viewBox="0 0 512 512" width="512px" xml:space="preserve" xmlns="http://www.w3.org/2000/svg" xmlns:xlink="http://www.w3.org/1999/xlink"><g id="Others"><g id="files"/><g id="pencil_rocket"/><g id="magic_hat__x26__rabbit"/><g id="phone__x26__target"/><g id="toast"/><g id="coffee"/><g id="suit"/><g id="DNA_tube"/><g id="clapper"/><g id="stopwatch"/><g id="map__x26__locator"/><g id="envelope"/><g id="phone__x26__megaphone"/><g id="speech_bubble"/><g id="medal"/></g><g id="Design"><g id="blueprint"/><g id="computer__x26__pencil__x26__ruker"/><g id="pencil__x26__ruler__x26__eraser"/><g id="paint_brush"/><g id="eraser"/><g id="round_brush"/><g id="scissor"/><g id="wacom"/><g id="vector"/><g id="lightbulb"/><g id="lamp"/><g id="pencil__x26__brush"/><g id="laptop__x26__brush"/><g id="paint"/><g id="magic_wand"/></g><g id="SEO_x2F__Web"><g id="W_key"/><g id="link_plus"/><g id="website__x26__lock"/><g id="video"/><g id="maginifier__x26__target"/><g id="website__x26__setting_1_"/><g id="website__x26__code"><radialGradient cx="256" cy="256" gradientUnits="userSpaceOnUse" id="SVGID_1_" r="256"><stop offset="0.0051" style="stop-color:#33495F"/><stop offset="1" style="stop-color:#2B3E51"/></radialGradient><circle cx="256" cy="256" fill="url(#SVGID_1_)" r="256"/><g><path d="M434,361.728c0,11.047-9.647,20.272-20.693,20.272h-315C87.261,382,79,372.774,79,361.728v-222     C79,128.683,87.261,120,98.307,120h315c11.046,0,20.693,8.683,20.693,19.728V361.728z" fill="#BDC3C7"/><path d="M417,350c0,5.523-4.477,10-10,10H105c-5.523,0-10-4.477-10-10V178c0-5.523,4.477-10,10-10h302     c5.523,0,10,4.477,10,10V350z" fill="#FFFFFF"/><circle cx="106.337" cy="144.396" fill="#FFFFFF" r="9.666"/><circle cx="106.337" cy="144.396" fill="#EE483C" r="9.666"/><circle cx="136.337" cy="144.396" fill="#F4C342" r="9.666"/><circle cx="166.337" cy="144.396" fill="#00CA77" r="9.666"/><path d="M216.88,289.033c1.8,0.709,3.271,2.869,3.271,4.803v19.385c0,1.934-1.451,2.887-3.226,2.117     l-87.447-37.898c-1.774-0.77-3.226-2.98-3.226-4.914v-15.557c0-1.934,1.451-4.145,3.226-4.914l87.447-37.898     c1.774-0.77,3.226,0.184,3.226,2.117v19.57c0,1.934-1.477,4.084-3.28,4.777l-58.869,22.676c-1.804,0.693-1.809,1.842-0.01,2.551     L216.88,289.033z" fill="#1C99D8"/><path d="M278.208,212.197l-26.135,107.619c-0.872,3.547-1.634,6.348-2.288,8.4     c-0.653,2.053-1.648,3.656-2.986,4.807s-3.282,1.727-5.833,1.727c-6.348,0-9.521-2.738-9.521-8.213     c0-1.432,0.622-5.008,1.867-10.734l26.041-107.619c1.368-5.725,2.676-9.645,3.921-11.76c1.243-2.115,3.671-3.174,7.28-3.174     c3.11,0,5.491,0.746,7.14,2.24c1.648,1.492,2.474,3.547,2.474,6.16C280.167,203.58,279.515,207.096,278.208,212.197z" fill="#1C99D8"/><path d="M385.267,272.525c0,1.934-1.451,4.146-3.223,4.918l-87.453,38.076c-1.772,0.771-3.223-0.178-3.223-2.111     v-19.385c0-1.934,1.473-4.094,3.272-4.801l59.071-23.191c1.801-0.705,1.798-1.855-0.006-2.553l-59.06-22.852     c-1.804-0.697-3.278-2.85-3.278-4.783v-19.197c0-1.934,1.453-2.889,3.228-2.123l87.442,37.725     c1.775,0.766,3.229,2.973,3.229,4.906V272.525z" fill="#1380B6"/><path d="M377.259,210.268c0-40.544,19.478-60.02,60.021-60.02c-40.543,0-60.021-19.479-60.021-60.021     c0,40.543-19.478,60.021-60.02,60.021C357.781,150.248,377.259,169.724,377.259,210.268z" fill="#F4C342"/><path d="M422.038,243.063c0-23.779,11.425-35.202,35.202-35.202c-23.777,0-35.202-11.423-35.202-35.201     c0,23.778-11.423,35.201-35.201,35.201C410.615,207.861,422.038,219.284,422.038,243.063z" fill="#F4C342"/><path d="M313.376,149.714c0-23.577,11.327-34.903,34.902-34.903c-23.575,0-34.902-11.326-34.902-34.902     c0,23.576-11.327,34.902-34.903,34.902C302.049,114.811,313.376,126.137,313.376,149.714z" fill="#F4C342"/></g></g><g id="SEO_tag"/><g id="website__x26__wrench"/><g id="crown"/><g id="eye"/><g id="website__x26__clock"/><g id="spider"/><g id="website__x26__medal"/><g id="graph"/></g><g id="Finance__x2F__Money"><g id="diamond"/><g id="calculating"/><g id="calculator"/><g id="auction_hammer"/><g id="bag_of_money"/><g id="piggy_bank"/><g id="bank"/><g id="umbrella__x26__coins"/><g id="safe"/><g id="treasure"/><g id="cash__x26__card"/><g id="coins__x26__cash"/><g id="coins__x26__card"/><g id="briefcase"/><g id="cash"/></g><g id="E-Commerce__x2F__Shopping"><g id="New_Symbol"/><g id="mobile__x26__finger"/><g id="price_tag"/><g id="website__x26__magnifier"/><g id="hand_to_ahnd_delivery"/><g id="hand__x26__credit_card"/><g id="hand__x26__iPad"/><g id="empty_basket"/><g id="full_basket"/><g id="trolley"/><g id="wallet"/><g id="truck"/><g id="delivery"/><g id="gift"/><g id="hand__x26__shopping_bag"/><g id="iMac_with_products"/><g id="laptop_store"/><g id="shopping_bag_with_mouse"/><g id="mobile_store"/><g id="store"/><g id="laptop_with_money"/></g><g id="Strategy"><g id="money_palnt"/><g id="contract"/><g id="trophy"/><g id="graph_paper"/><g id="competition"/><g id="checklist"/><g id="megaphone"/><g id="paper_airplane"/><g id="mission_1"/><g id="graph_board"/><g id="mission_2"/><g id="strategy"/><g id="target"/><g id="partnership"/><g id="chess"/></g></svg>