<?xml version="1.0" ?><!DOCTYPE svg  PUBLIC '-//W3C//DTD SVG 1.1//EN'  'http://www.w3.org/Graphics/SVG/1.1/DTD/svg11.dtd'><svg enable-background="new 0 0 128 128" id="Слой_1" version="1.1" viewBox="0 0 128 128" xml:space="preserve" xmlns="http://www.w3.org/2000/svg" xmlns:xlink="http://www.w3.org/1999/xlink"><g><g><g><circle cx="64" cy="64" fill="#F4F2ED" r="62"/></g></g><g><g><path d="M26.6,87.5c-0.2-0.4-0.4-0.9-0.4-1.4V39.7c0-1.4,1.1-2.5,2.5-2.5h70.5c1.4,0,2.5,1.1,2.5,2.5v46.5     c0,0.5-0.2,1-0.4,1.4" fill="#343738"/></g></g><g><g><path d="M110.4,87.5H17.6c-0.1,0-0.1,0-0.1,0.1v0.1v1.6c0,0,1.2,1.5,4.8,1.5c2.6,0,80.5,0,83.2,0     c3.6,0,5-1.5,5-1.5c0-0.1,0-0.2,0-0.4c0-0.9,0-0.9,0-0.9v-0.5C110.5,87.6,110.5,87.5,110.4,87.5z" fill="#D0D3D6"/></g></g><g opacity="0.2"><g><path d="M57,87.5L57,87.5c0,0.8,1.1,1.1,1.8,1.1H64h4.9c0.5,0,1.4-0.4,1.5-1.1" fill="#050708"/></g></g><g><g><rect fill="#F5C93F" height="45" width="71" x="28.5" y="39.8"/></g></g><g><g><path d="M89.5,63.5c0.1,0.4,0.2,0.7,0.2,1.2c0,1.7-0.4,3.1-2.1,3.1c-1.7,0-3.1-1.4-3.1-3.1c0,0,0,0,0,0l-9.9-3.2     c-0.6,0.8-1.5,1.3-2.6,1.3c-0.7,0-1.3-0.2-1.8-0.6l-10.5,7.1c0.1,0.3,0.2,0.7,0.2,1c0,1.7-0.4,3.1-2.1,3.1     c-1.7,0-3.1-1.4-3.1-3.1c0-0.1,0-0.1,0-0.2l-4.8-1.8c-0.6,0.7-1.5,1.2-2.4,1.2c-1,0-1.9-0.5-2.5-1.2l-16.4,6v10.5h71V56.2     L89.5,63.5z" fill="#43B19A"/></g></g><g><g><path d="M47.4,70.5c1,0,1.9-0.5,2.4-1.2l4.8,1.8c0,0.1,0,0.1,0,0.2c0,1.7,1.4,3.1,3.1,3.1c1.7,0,3.1-1.4,3.1-3.1     c0-0.4-0.1-0.7-0.2-1l9.5-7.1c0.5,0.4,1.1,0.6,1.8,0.6c1.1,0,2-0.5,2.6-1.3l9.9,3.2c0,0,0,0,0,0c0,1.7,1.4,3.1,3.1,3.1     c1.7,0,3.1-1.4,3.1-3.1c0-0.4-0.1-0.8-0.2-1.2l9-7.3v-2.4L89.3,63c-0.5-0.3-1.1-0.5-1.7-0.5c-1.1,0-2,0.5-2.6,1.3l-9.9-3.2     c0,0,0,0,0,0c0-1.7-1.4-3.1-3.1-3.1c-1.7,0-3.1,1.4-3.1,3.1c0,0.4,0.1,0.7,0.2,1l-9.5,7.1c-0.5-0.4-1.1-0.6-1.8-0.6     c-1,0-1.9,0.5-2.5,1.2l-4.8-1.8c0-0.1,0-0.1,0-0.2c0-1.7-1.4-3.1-3.1-3.1c-1.7,0-3.1,1.4-3.1,3.1c0,0,0,0.1,0,0.1l-15.7,5.8v2     l16.4-6C45.5,70,46.4,70.5,47.4,70.5z M87.6,64.4c0.7,0,1.3,0.6,1.3,1.3s-0.6,1.3-1.3,1.3s-1.3-0.6-1.3-1.3S86.9,64.4,87.6,64.4z      M72,59.4c0.7,0,1.3,0.6,1.3,1.3c0,0.7-0.6,1.3-1.3,1.3c-0.7,0-1.3-0.6-1.3-1.3C70.8,59.9,71.3,59.4,72,59.4z M57.7,70.1     c0.7,0,1.3,0.6,1.3,1.3s-0.6,1.3-1.3,1.3s-1.3-0.6-1.3-1.3S57,70.1,57.7,70.1z M47.4,66.1c0.7,0,1.3,0.6,1.3,1.3     c0,0.7-0.6,1.3-1.3,1.3s-1.3-0.6-1.3-1.3C46.1,66.7,46.7,66.1,47.4,66.1z" fill="#7B4C4B"/></g></g><g><g><circle cx="47.4" cy="67.4" fill="#FFFFFF" r="1.3"/></g></g><g><g><circle cx="57.7" cy="71.3" fill="#FFFFFF" r="1.3"/></g></g><g><g><circle cx="72" cy="60.6" fill="#FFFFFF" r="1.3"/></g></g><g><g><circle cx="87.6" cy="65.7" fill="#FFFFFF" r="1.3"/></g></g></g></svg>