<?xml version="1.0" ?><!DOCTYPE svg  PUBLIC '-//W3C//DTD SVG 1.1//EN'  'http://www.w3.org/Graphics/SVG/1.1/DTD/svg11.dtd'><svg enable-background="new 0 0 155 155" height="155px" id="Layer_1" version="1.1" viewBox="0 0 155 155" width="155px" xml:space="preserve" xmlns="http://www.w3.org/2000/svg" xmlns:xlink="http://www.w3.org/1999/xlink"><g><circle cx="77.5" cy="77.5" fill="#ADECF7" r="77.5"/><g><g><rect fill="#FFFFFF" height="64.183" width="12.322" x="55.942" y="45.408"/><rect fill="#F2F2F2" height="64.178" width="18.477" x="68.263" y="45.412"/><rect fill="#D9D8D7" height="64.178" width="12.324" x="86.739" y="45.412"/><polygon fill="#FFFFFF" points="68.263,45.412 77.499,23.846 86.739,45.412    "/><polygon fill="#E6E5E5" points="86.739,45.412 77.499,23.846 99.06,45.412    "/><polygon fill="#F2F2F2" points="55.936,45.412 77.499,23.846 68.263,45.412    "/><polygon fill="#FFFFFF" points="68.263,109.59 77.499,131.154 86.739,109.59    "/><polygon fill="#E6E5E5" points="86.739,109.59 77.499,131.154 99.06,109.59    "/><polygon fill="#F2F2F2" points="55.936,109.59 77.499,131.154 68.263,109.59    "/></g><g><path d="M51.573,63.842c-5.176,0-9.37,4.205-9.37,9.371c0-5.166-4.197-9.371-9.37-9.371     c5.173,0,9.37-4.21,9.37-9.373C42.203,59.632,46.397,63.842,51.573,63.842z" fill="#FFFFFF"/><path d="M30.945,10.498c-4.14,0-7.496,3.364-7.496,7.498c0-4.134-3.359-7.498-7.498-7.498     c4.139,0,7.498-3.367,7.498-7.498C23.449,7.131,26.806,10.498,30.945,10.498z" fill="#ADECF7"/><path d="M126.441,38.807c-2.758,0-4.997,2.24-4.997,4.998c0-2.758-2.239-4.998-4.998-4.998     c2.759,0,4.998-2.245,4.998-5C121.444,36.562,123.684,38.807,126.441,38.807z" fill="#FFFFFF"/><path d="M105.419,127.154c-2.758,0-4.997,2.24-4.997,4.999c0-2.759-2.239-4.999-4.998-4.999     c2.759,0,4.998-2.244,4.998-5C100.422,124.91,102.661,127.154,105.419,127.154z" fill="#FFFFFF"/><path d="M75.263,11.404c-2.206,0-4,1.793-4,4.001c0-2.208-1.791-4.001-4-4.001c2.209,0,4-1.797,4-4.002     C71.263,9.607,73.057,11.404,75.263,11.404z" fill="#FFFFFF"/><path d="M56.356,27.057c-1.38,0-2.5,1.121-2.5,2.501c0-1.38-1.12-2.501-2.5-2.501c1.38,0,2.5-1.123,2.5-2.501     C53.856,25.934,54.977,27.057,56.356,27.057z" fill="#FFFFFF"/><path d="M116.731,115.557c-0.827,0-1.5,0.673-1.5,1.501c0-0.828-0.673-1.501-1.5-1.501     c0.827,0,1.5-0.674,1.5-1.501C115.231,114.883,115.904,115.557,116.731,115.557z" fill="#FFFFFF"/><path d="M122.688,151.79c-1.771,0-3.209,1.438-3.209,3.21c0-1.771-1.438-3.21-3.209-3.21     c1.771,0,3.209-1.441,3.209-3.212C119.479,150.349,120.917,151.79,122.688,151.79z" fill="#ADECF7"/></g><g><g><g><g><polygon fill="#474F59" points="42.504,137.184 34.669,132.663 42.502,128.139 43.515,129.895 38.724,132.663 43.517,135.428               "/><polygon fill="#474F59" points="59.517,137.184 58.503,135.428 63.297,132.663 58.506,129.895 59.519,128.139 67.352,132.663               "/></g><rect fill="#474F59" height="16.144" transform="matrix(0.7076 0.7066 -0.7066 0.7076 108.6577 2.7466)" width="2.027" x="49.997" y="124.589"/></g><g><g><rect fill="#474F59" height="2.026" width="15.947" x="117.915" y="83.715"/><rect fill="#474F59" height="2.025" width="7.973" x="117.915" y="88.033"/><rect fill="#474F59" height="2.026" width="15.947" x="117.915" y="79.396"/></g><g><g><path d="M112.957,82.665h-2.026v-6.188c0-0.824,0.32-1.598,0.902-2.178s1.354-0.9,2.175-0.9v2.027         c-0.28,0-0.543,0.109-0.742,0.307c-0.199,0.199-0.309,0.463-0.309,0.744V82.665z" fill="#474F59"/><path d="M109.881,85.741v-2.026c0.279,0,0.543-0.109,0.741-0.309c0.199-0.197,0.309-0.461,0.309-0.741h2.026         c0,0.823-0.32,1.595-0.902,2.177C111.473,85.422,110.7,85.741,109.881,85.741z" fill="#474F59"/><path d="M114.008,96.058c-0.822,0-1.596-0.32-2.176-0.902c-0.581-0.577-0.901-1.351-0.901-2.175v-6.189h2.026         v6.189c0,0.28,0.109,0.543,0.308,0.74c0.2,0.201,0.463,0.311,0.743,0.311V96.058z" fill="#474F59"/><path d="M112.957,86.791h-2.026c0-0.279-0.109-0.545-0.309-0.742c-0.197-0.197-0.462-0.308-0.741-0.308         v-2.026c0.819,0,1.592,0.32,2.174,0.899C112.637,85.195,112.957,85.969,112.957,86.791z" fill="#474F59"/></g><g><path d="M140.843,82.665h-2.026v-6.188c0-0.281-0.109-0.545-0.308-0.742         c-0.199-0.199-0.462-0.309-0.741-0.309v-2.027c0.82,0,1.593,0.32,2.174,0.901c0.581,0.579,0.901,1.353,0.901,2.177V82.665z" fill="#474F59"/><path d="M141.894,85.741c-0.818,0-1.59-0.319-2.174-0.899c-0.584-0.585-0.903-1.357-0.903-2.177h2.026         c0,0.28,0.11,0.542,0.31,0.743c0.198,0.197,0.462,0.307,0.741,0.307V85.741z" fill="#474F59"/><path d="M137.768,96.058v-2.026c0.279,0,0.542-0.109,0.74-0.309c0.199-0.197,0.309-0.461,0.309-0.742v-6.189         h2.026v6.189c0,0.825-0.32,1.599-0.902,2.178C139.362,95.737,138.59,96.058,137.768,96.058z" fill="#474F59"/><path d="M140.843,86.791h-2.026c0-0.818,0.319-1.592,0.901-2.176c0.584-0.582,1.356-0.9,2.176-0.9v2.026         c-0.279,0-0.545,0.11-0.744,0.309C140.953,86.248,140.843,86.512,140.843,86.791z" fill="#474F59"/></g></g></g><g><g><path d="M16.488,90.635l-3.989,10.242h2.194l0.845-2.326h4.094l0.895,2.326h2.25l-4.102-10.242H16.488z         M16.174,96.824l1.384-3.8l1.411,3.8H16.174z" fill="#474F59"/><path d="M27.89,93.29c-0.829,0-1.546,0.345-2.151,1.034v-3.689h-1.963v10.242h1.823v-1.09        c0.298,0.414,0.653,0.728,1.065,0.939s0.83,0.318,1.254,0.318c0.861,0,1.594-0.343,2.197-1.027        c0.603-0.685,0.904-1.66,0.904-2.928c0-1.225-0.296-2.164-0.887-2.818C29.541,93.617,28.794,93.29,27.89,93.29z M28.55,98.938        c-0.305,0.37-0.674,0.556-1.107,0.556c-0.563,0-1.015-0.262-1.354-0.783c-0.242-0.367-0.363-0.936-0.363-1.705        c0-0.744,0.155-1.3,0.468-1.666c0.312-0.365,0.703-0.548,1.174-0.548c0.479,0,0.873,0.188,1.181,0.563        s0.461,0.985,0.461,1.833C29.008,97.984,28.855,98.568,28.55,98.938z" fill="#474F59"/><path d="M37.237,98.033c-0.098,0.518-0.266,0.882-0.503,1.094s-0.543,0.318-0.915,0.318        c-0.498,0-0.896-0.182-1.191-0.545s-0.443-0.986-0.443-1.865c0-0.793,0.146-1.357,0.437-1.695        c0.291-0.337,0.682-0.506,1.17-0.506c0.368,0,0.667,0.098,0.898,0.293c0.23,0.195,0.378,0.486,0.443,0.873l1.935-0.349        c-0.232-0.796-0.615-1.39-1.148-1.778s-1.252-0.583-2.155-0.583c-1.104,0-1.979,0.341-2.627,1.023s-0.972,1.636-0.972,2.86        c0,1.211,0.323,2.159,0.968,2.844c0.646,0.685,1.511,1.027,2.596,1.027c0.955,0,1.716-0.227,2.284-0.678        c0.568-0.452,0.953-1.121,1.153-2.006L37.237,98.033z" fill="#474F59"/></g></g></g></g></g></g></svg>