<?xml version="1.0" ?><svg height="128" width="128" xmlns="http://www.w3.org/2000/svg"><path d="M64 0c35.346 0 64 28.654 64 64s-28.654 64-64 64c-35.346 0-64-28.653-64-64s28.654-64 64-64z" fill="#EFC84A"/><path d="M34 28h58c1.656 0 3 1.343 3 3v68c0 1.656-1.344 3-3 3h-58c-1.657 0-3-1.344-3-3v-68c0-1.657 1.343-3 3-3z" fill="#DF5A48"/><path d="M40 35h46c1.104 0 2 .896 2 2v56c0 1.105-.896 2-2 2h-46c-1.104 0-2-.895-2-2v-56c0-1.104.896-2 2-2z" fill="#fff"/><path d="M78 31h-5s-3.023-1.692-3-3c-.031-1.298-.896-2-2-2h-10c-1.104 0-1.985.593-2 2l-3 3h-5c-1.657 0-3 1.344-3 3v2c0 1.657 1.343 3 3 3h30c1.657 0 3-1.343 3-3v-2c0-1.656-1.343-3-3-3z" fill="#E4E7E8"/><path d="M45 37h36v2h-36v-2z" fill="#CED0D0"/><path d="M44 52h7v-7h-7v7zm10-7v2h28v-2h-28zm0 5h18v-2h-18v2z" fill="#ECECEC"/><path d="M44 64h7v-7h-7v7zm10-7v2h28v-2h-28zm0 5h23v-2h-23v2z" fill="#45B39C"/><path d="M44 76h7v-7h-7v7zm10-7v2h28v-2h-28zm0 5h18v-2h-18v2z" fill="#ECECEC"/><path d="M44 88h7v-7h-7v7zm10-7v2h28v-2h-28zm0 5h23v-2h-23v2z" fill="#ECECEC"/></svg>