<?xml version="1.0" ?><!DOCTYPE svg  PUBLIC '-//W3C//DTD SVG 1.1//EN'  'http://www.w3.org/Graphics/SVG/1.1/DTD/svg11.dtd'><svg enable-background="new 0 0 155 155" height="155px" id="Layer_1" version="1.1" viewBox="0 0 155 155" width="155px" xml:space="preserve" xmlns="http://www.w3.org/2000/svg" xmlns:xlink="http://www.w3.org/1999/xlink"><g><circle cx="77.5" cy="77.5" fill="#21D8DE" r="77.5"/><g><g><g><path d="M63.877,36.911c0-0.787-0.301-1.576-0.901-2.177s-1.389-0.901-2.177-0.901l0,0      c-0.787,0-1.576,0.301-2.177,0.901s-0.901,1.39-0.901,2.177v13.853h6.156V36.911z" fill="#FFFFFF"/><path d="M97.227,36.911c0-0.787-0.301-1.576-0.902-2.177s-1.389-0.901-2.177-0.901l0,0      c-0.788,0-1.575,0.301-2.177,0.901s-0.901,1.39-0.901,2.177v13.853h6.157V36.911z" fill="#FFFFFF"/></g><rect fill="#3E4959" height="7.696" width="33.349" x="60.799" y="84.112"/><path d="M103.126,81.547c0,0.657-0.251,1.313-0.752,1.814s-1.157,0.751-1.813,0.751H54.386     c-0.657,0-1.313-0.25-1.813-0.751c-0.502-0.501-0.752-1.157-0.752-1.814V50.764h51.306V81.547z" fill="#242D3C"/><g><rect fill="#3E4959" height="2.565" width="39.506" x="57.721" y="59.742"/><rect fill="#3E4959" height="2.565" width="39.506" x="57.721" y="66.155"/><rect fill="#3E4959" height="2.564" width="39.506" x="57.721" y="72.569"/></g></g><path d="M78.951,155h-2.904v-24.533c0-1.088-0.423-2.108-1.191-2.874c-0.771-0.772-1.794-1.197-2.881-1.197H54.34    c-1.862,0-3.613-0.725-4.931-2.041c-1.316-1.317-2.041-3.067-2.041-4.929c0-1.869,0.725-3.622,2.042-4.936    c1.314-1.316,3.065-2.042,4.93-2.042h46.358c1.09,0,2.113-0.423,2.883-1.19c0.766-0.769,1.188-1.793,1.188-2.88    c0-1.086-0.424-2.11-1.192-2.883c-0.767-0.766-1.79-1.188-2.879-1.188H82.996c-1.859,0-3.611-0.725-4.933-2.04    c-1.319-1.326-2.043-3.078-2.043-4.937v-5.521h2.904v5.521c0,1.086,0.424,2.11,1.192,2.883c0.769,0.766,1.793,1.189,2.879,1.189    h17.702c1.863,0,3.616,0.725,4.934,2.041c1.318,1.324,2.042,3.076,2.042,4.935c0,1.861-0.724,3.612-2.039,4.933    c-1.32,1.317-3.072,2.042-4.937,2.042H54.34c-1.088,0-2.109,0.423-2.877,1.191c-0.769,0.767-1.19,1.79-1.19,2.882    c0,1.086,0.423,2.106,1.19,2.875c0.768,0.768,1.79,1.19,2.877,1.19h17.635c1.862,0,3.614,0.727,4.934,2.047    c1.316,1.312,2.043,3.063,2.043,4.929V155z" fill="#242D3C"/></g></g></svg>