<?xml version="1.0" ?><!DOCTYPE svg  PUBLIC '-//W3C//DTD SVG 1.1//EN'  'http://www.w3.org/Graphics/SVG/1.1/DTD/svg11.dtd'><svg enable-background="new 0 0 512 512" id="Layer_1" version="1.1" viewBox="0 0 512 512" xml:space="preserve" xmlns="http://www.w3.org/2000/svg" xmlns:xlink="http://www.w3.org/1999/xlink"><g><g><circle cx="256" cy="256" fill="#54C0EB" r="254"/></g><g><path d="M331.2,245.9c-0.4,0-0.8,0-1.2,0.1c0.8-3.3,1.2-6.8,1.2-10.4c0-25.8-20.9-46.8-46.8-46.8    c-13.3,0-25.4,5.6-33.9,14.6c-8.5-9-20.5-14.6-33.9-14.6c-25.8,0-46.8,20.9-46.8,46.8c0,4.1,0.6,8,1.6,11.8    c-12.4,3.9-21.4,15.5-21.4,29.2c0,16.9,13.7,30.7,30.7,30.7h150.5c16.9,0,30.7-13.7,30.7-30.7S348.2,245.9,331.2,245.9z" fill="#FFFFFF"/></g><g><g><path d="M256,82.3c-96,0-174.1,78.1-174.1,174.1c0,96,78.1,174.1,174.1,174.1s174.1-78.1,174.1-174.1     C430.1,160.4,352,82.3,256,82.3z M256,416.6c-88.3,0-160.1-71.8-160.1-160.1c0-88.3,71.8-160.1,160.1-160.1     s160.1,71.8,160.1,160.1C416.1,344.7,344.3,416.6,256,416.6z" fill="#324A5E"/></g><g><path d="M423.1,295.9L423.1,295.9c-19.4,0-35.1-15.7-35.1-35.1l0,0c0-19.4,15.7-35.1,35.1-35.1l0,0     c19.4,0,35.1,15.7,35.1,35.1l0,0C458.2,280.2,442.5,295.9,423.1,295.9z" fill="#FFFFFF"/></g><g><path d="M88.9,295.9L88.9,295.9c-19.4,0-35.1-15.7-35.1-35.1l0,0c0-19.4,15.7-35.1,35.1-35.1l0,0     c19.4,0,35.1,15.7,35.1,35.1l0,0C123.9,280.2,108.2,295.9,88.9,295.9z" fill="#FFFFFF"/></g><g><path d="M220.9,428L220.9,428c0-19.4,15.7-35.1,35.1-35.1l0,0c19.4,0,35.1,15.7,35.1,35.1v0     c0,19.4-15.7,35.1-35.1,35.1l0,0C236.6,463.1,220.9,447.4,220.9,428z" fill="#FFFFFF"/></g><g><path d="M220.9,93.7L220.9,93.7c0-19.4,15.7-35.1,35.1-35.1l0,0c19.4,0,35.1,15.7,35.1,35.1l0,0     c0,19.4-15.7,35.1-35.1,35.1l0,0C236.6,128.8,220.9,113.1,220.9,93.7z" fill="#FFFFFF"/></g><g><g><circle cx="423.1" cy="260.9" fill="#FF7058" r="21.8"/></g><g><circle cx="88.9" cy="260.9" fill="#FF7058" r="21.8"/></g></g><g><g><circle cx="256" cy="428" fill="#FF7058" r="21.8"/></g><g><circle cx="256" cy="93.7" fill="#FF7058" r="21.8"/></g></g></g></g></svg>