<?xml version="1.0" ?><!DOCTYPE svg  PUBLIC '-//W3C//DTD SVG 1.1//EN'  'http://www.w3.org/Graphics/SVG/1.1/DTD/svg11.dtd'><svg enable-background="new 0 0 155 155" height="155px" id="Layer_1" version="1.1" viewBox="0 0 155 155" width="155px" xml:space="preserve" xmlns="http://www.w3.org/2000/svg" xmlns:xlink="http://www.w3.org/1999/xlink"><g><circle cx="77.5" cy="77.5" fill="#F2F2F2" r="77.5"/><g><g><polygon fill="#3E4959" points="36.848,53.665 33.231,53.665 32.177,58.926 37.902,58.926    "/><polygon fill="#3E4959" points="24.688,55.953 21.556,57.762 23.271,62.848 28.231,59.982    "/><polygon fill="#3E4959" points="15.302,64.016 13.494,67.148 17.523,70.693 20.386,65.734    "/><polygon fill="#3E4959" points="11.203,75.691 11.205,79.309 16.467,80.363 16.467,74.637    "/><polygon fill="#3E4959" points="13.494,87.852 15.303,90.983 20.386,89.267 17.523,84.309    "/><polygon fill="#3E4959" points="21.556,97.238 24.688,99.046 28.231,95.018 23.273,92.154    "/><polygon fill="#3E4959" points="33.232,101.335 36.848,101.335 37.902,96.074 32.179,96.074    "/><polygon fill="#3E4959" points="45.393,99.046 48.523,97.238 46.806,92.154 41.848,95.018    "/><polygon fill="#3E4959" points="54.777,90.983 56.585,87.852 52.556,84.309 49.693,89.267    "/><polygon fill="#3E4959" points="58.876,79.309 58.874,75.691 53.613,74.637 53.613,80.363    "/><polygon fill="#3E4959" points="56.585,67.147 54.777,64.017 49.693,65.734 52.556,70.691    "/><polygon fill="#3E4959" points="48.523,57.762 45.391,55.955 41.848,59.982 46.806,62.846    "/></g><path d="M35.039,58.709c-10.379,0-18.793,8.412-18.793,18.791c0,10.381,8.414,18.792,18.793,18.792    c10.381,0,18.792-8.411,18.792-18.792C53.831,67.121,45.42,58.709,35.039,58.709z M35.039,82.704    c-2.869,0-5.203-2.332-5.203-5.204c0-2.871,2.334-5.203,5.203-5.203c2.87,0,5.205,2.332,5.205,5.203    C40.244,80.372,37.909,82.704,35.039,82.704z" fill="#242D3C"/><path d="M35.039,68.48c-4.983,0-9.02,4.037-9.02,9.02c0,4.984,4.036,9.021,9.02,9.021    c4.982,0,9.02-4.036,9.02-9.021C44.059,72.518,40.021,68.48,35.039,68.48z M35.039,82.011c-2.488,0-4.51-2.022-4.51-4.511    c0-2.487,2.021-4.509,4.51-4.509c2.487,0,4.509,2.021,4.509,4.509C39.548,79.988,37.526,82.011,35.039,82.011z" fill="#FF6D3B"/></g><g><defs><circle cx="77.5" cy="77.5" id="SVGID_1_" r="77.5"/></defs><clipPath id="SVGID_2_"><use overflow="visible" xlink:href="#SVGID_1_"/></clipPath><g clip-path="url(#SVGID_2_)"><rect fill="#242D3C" height="123.287" width="91.709" x="63.295" y="31.713"/><g><rect fill="#21D8DE" height="1.936" width="18.738" x="73.213" y="42.17"/><rect fill="#21D8DE" height="1.936" width="5.282" x="73.213" y="57.029"/><rect fill="#FF6D3B" height="1.936" width="7.45" x="95.219" y="42.17"/><rect fill="#3E4959" height="1.936" width="19.068" x="79.863" y="57.029"/><rect fill="#21D8DE" height="1.935" width="8.405" x="78.495" y="47.249"/><rect fill="#21D8DE" height="1.933" width="8.405" x="78.495" y="72.268"/><rect fill="#CCCBCA" height="1.936" width="13.688" x="73.213" y="102.36"/><rect fill="#21D8DE" height="1.935" width="3.466" x="78.495" y="77.349"/><rect fill="#21D8DE" height="1.933" width="21.954" x="88.884" y="72.268"/><rect fill="#21D8DE" height="1.934" width="7.642" x="87.479" y="87.504"/><rect fill="#21D8DE" height="1.934" width="7.64" x="82.962" y="142.609"/><rect fill="#CCCBCA" height="1.934" width="12.406" x="97.125" y="87.504"/><rect fill="#CCCBCA" height="1.936" width="6.332" x="111.344" y="107.438"/><rect fill="#CCCBCA" height="1.936" width="14.834" x="89.111" y="132.452"/><rect fill="#CCCBCA" height="1.934" width="17.431" x="93.919" y="142.609"/><rect fill="#FF6D3B" height="1.932" width="6.333" x="125.255" y="117.594"/><rect fill="#FF6D3B" height="1.934" width="14.936" x="112.617" y="87.504"/><rect fill="#3E4959" height="1.933" width="15.791" x="113.33" y="72.268"/><rect fill="#3E4959" height="1.933" width="9.668" x="132.335" y="72.268"/><rect fill="#3E4959" height="1.935" width="12.538" x="78.495" y="62.111"/><rect fill="#3E4959" height="1.936" width="17.779" x="78.495" y="67.188"/><rect fill="#3E4959" height="1.935" width="20.377" x="83.245" y="77.349"/><rect fill="#3E4959" height="1.935" width="20.377" x="78.495" y="112.518"/><rect fill="#CCCBCA" height="1.932" width="14.906" x="85.963" y="117.594"/><rect fill="#FF6D3B" height="1.932" width="39.611" x="97.557" y="137.535"/><rect fill="#3E4959" height="1.934" width="8.676" x="116.658" y="142.609"/><rect fill="#3E4959" height="1.932" width="19.41" x="103.275" y="117.594"/><rect fill="#3E4959" height="1.936" width="19.408" x="109.588" y="132.452"/><rect fill="#21D8DE" height="1.935" width="6.62" x="83.245" y="82.425"/><rect fill="#21D8DE" height="1.935" width="7.202" x="83.245" y="92.58"/><rect fill="#21D8DE" height="1.936" width="30.271" x="78.495" y="107.438"/><rect fill="#21D8DE" height="1.932" width="4.837" x="78.495" y="117.594"/><rect fill="#21D8DE" height="1.936" width="13.57" x="73.213" y="132.452"/><rect fill="#21D8DE" height="1.934" width="15.459" x="78.495" y="137.533"/><rect fill="#CCCBCA" height="1.935" width="39.779" x="91.951" y="82.425"/><rect fill="#3E4959" height="1.936" width="12.719" x="82.729" y="122.672"/><rect fill="#CCCBCA" height="1.936" width="35.174" x="99.811" y="122.672"/><rect fill="#CCCBCA" height="1.935" width="3.643" x="105.59" y="77.349"/><rect fill="#FF6D3B" height="1.935" width="6.837" x="111.982" y="77.349"/><rect fill="#3E4959" height="1.936" width="17.774" x="98.171" y="67.188"/><rect fill="#FF6D3B" height="1.936" width="14.608" x="117.176" y="67.188"/><rect fill="#CCCBCA" height="1.936" width="7.913" x="137.17" y="67.188"/><rect fill="#CCCBCA" height="1.935" width="19.254" x="95.131" y="62.111"/><rect fill="#CCCBCA" height="1.935" width="19.063" x="90.009" y="47.249"/></g><rect fill="#FF6D3B" height="9.879" width="91.709" x="63.295" y="21.833"/></g></g></g></svg>