<?xml version="1.0" ?><!DOCTYPE svg  PUBLIC '-//W3C//DTD SVG 1.1//EN'  'http://www.w3.org/Graphics/SVG/1.1/DTD/svg11.dtd'><svg enable-background="new 0 0 155 155" height="155px" id="Layer_1" version="1.1" viewBox="0 0 155 155" width="155px" xml:space="preserve" xmlns="http://www.w3.org/2000/svg" xmlns:xlink="http://www.w3.org/1999/xlink"><g><circle cx="77.5" cy="77.5" fill="#FFD55C" r="77.5"/><g><g><g><rect fill="#FF6D3B" height="8.247" width="12.901" x="116.315" y="65.134"/><rect fill="#F15424" height="8.242" width="12.901" x="116.315" y="73.381"/><rect fill="#E64717" height="8.245" width="12.901" x="116.315" y="81.623"/></g><rect fill="#242D3C" height="21.506" width="3.229" x="129.217" y="66.748"/><rect fill="#FFFFFF" height="16.611" width="15.054" x="132.446" y="69.256"/></g><g><g><rect fill="#FF6D3B" height="8.247" width="12.905" x="25.779" y="65.134"/><rect fill="#F15424" height="8.242" width="12.905" x="25.779" y="73.381"/><rect fill="#E64717" height="8.245" width="12.905" x="25.779" y="81.623"/></g><rect fill="#242D3C" height="21.506" width="3.226" x="22.554" y="66.748"/><rect fill="#FFFFFF" height="16.611" width="15.054" x="7.5" y="69.256"/></g><path d="M81.687,25.221c-1.159-1.155-2.673-1.73-4.186-1.73s-3.026,0.575-4.181,1.73    c-1.156,1.155-1.731,2.668-1.731,4.182v7.796h11.824v-7.796C83.413,27.889,82.838,26.376,81.687,25.221z M77.502,32.365    c-1.635,0-2.957-1.328-2.957-2.962c0-1.63,1.322-2.957,2.957-2.957c1.634,0,2.96,1.327,2.96,2.957    C80.462,31.037,79.136,32.365,77.502,32.365z" fill="#FFFFFF"/><path d="M83.413,125.598v-7.796H71.589v7.796c0,1.514,0.575,3.026,1.731,4.182c1.154,1.155,2.668,1.73,4.181,1.73    s3.026-0.575,4.186-1.73C82.838,128.624,83.413,127.111,83.413,125.598z M80.462,125.597c0,1.632-1.326,2.957-2.96,2.957    c-1.635,0-2.957-1.325-2.957-2.957c0-1.634,1.322-2.962,2.957-2.962C79.136,122.635,80.462,123.963,80.462,125.597z" fill="#FFFFFF"/><path d="M118.229,77.501c0,22.494-18.239,40.728-40.729,40.728c-22.493,0-40.729-18.233-40.729-40.728    c0-22.493,18.236-40.729,40.729-40.729C99.99,36.771,118.229,55.008,118.229,77.501z" fill="#242D3C"/><circle cx="77.5" cy="77.501" fill="#FFFFFF" r="33.396"/><path d="M77.501,95.244c-9.784,0-17.743-7.959-17.743-17.743s7.959-17.743,17.743-17.743    s17.744,7.959,17.744,17.743S87.285,95.244,77.501,95.244z M77.501,62.983c-8.005,0-14.518,6.513-14.518,14.518    s6.513,14.518,14.518,14.518s14.518-6.513,14.518-14.518S85.506,62.983,77.501,62.983z" fill="#CCCBCA"/><g><g><rect fill="#CCCBCA" height="3.23" transform="matrix(0.9845 0.1756 -0.1756 0.9845 9.9166 -13.7204)" width="1.613" x="81.688" y="47.565"/><rect fill="#CCCBCA" height="3.226" transform="matrix(0.9397 0.3421 -0.3421 0.9397 22.5375 -26.8312)" width="1.613" x="86.531" y="48.867"/><rect fill="#CCCBCA" height="3.227" transform="matrix(0.7661 0.6427 -0.6427 0.7661 58.1011 -48.7168)" width="1.614" x="95.182" y="53.861"/><rect fill="#CCCBCA" height="3.228" transform="matrix(0.6427 0.7661 -0.7661 0.6427 80.7807 -55.1643)" width="1.614" x="98.723" y="57.406"/><rect fill="#CCCBCA" height="3.226" transform="matrix(0.3415 0.9399 -0.9399 0.3415 132.4258 -53.6848)" width="1.613" x="103.721" y="66.056"/><rect fill="#CCCBCA" height="3.225" transform="matrix(0.1731 0.9849 -0.9849 0.1731 158.9207 -44.2675)" width="1.613" x="105.018" y="70.9"/><rect fill="#CCCBCA" height="1.614" transform="matrix(0.1734 0.9849 -0.9849 0.1734 108.3713 -30.7546)" width="3.228" x="70.893" y="48.373"/><rect fill="#CCCBCA" height="1.613" transform="matrix(0.3416 0.9398 -0.9398 0.3416 91.9899 -30.3586)" width="3.224" x="66.052" y="49.674"/><rect fill="#CCCBCA" height="1.614" transform="matrix(0.6434 0.7655 -0.7655 0.6434 63.5138 -25.3948)" width="3.23" x="57.4" y="54.669"/><rect fill="#CCCBCA" height="1.613" transform="matrix(0.7656 0.6433 -0.6433 0.7656 50.972 -21.852)" width="3.227" x="53.858" y="58.212"/><rect fill="#CCCBCA" height="1.613" transform="matrix(0.9397 0.342 -0.342 0.9397 26.1854 -13.1824)" width="3.227" x="48.864" y="66.863"/><rect fill="#CCCBCA" height="1.613" transform="matrix(0.9849 0.1734 -0.1734 0.9849 13.3162 -7.4282)" width="3.228" x="47.565" y="71.705"/></g><g><rect fill="#CCCBCA" height="5.376" transform="matrix(0.4999 0.8661 -0.8661 0.4999 105.8768 -56.0478)" width="1.614" x="100.665" y="60.97"/><rect fill="#CCCBCA" height="1.613" transform="matrix(0.866 0.5 -0.5 0.866 38.9985 -18.2325)" width="5.375" x="50.836" y="62.855"/><rect fill="#CCCBCA" height="5.374" width="1.613" x="76.693" y="47.132"/><rect fill="#CCCBCA" height="5.378" transform="matrix(0.8659 0.5002 -0.5002 0.8659 39.0181 -38.5092)" width="1.613" x="90.533" y="50.835"/><rect fill="#CCCBCA" height="1.613" width="5.374" x="102.498" y="76.692"/><rect fill="#CCCBCA" height="1.614" transform="matrix(0.4999 0.8661 -0.8661 0.4999 78.1947 -28.3646)" width="5.376" x="60.97" y="52.719"/><rect fill="#CCCBCA" height="1.613" width="5.374" x="47.13" y="76.696"/></g></g><g><polygon fill="#FF6D3B" points="102.174,63.254 98.508,62.267 76.152,75.172 78.85,79.83 101.192,66.924    "/><polygon fill="#3E4959" points="76.152,75.172 53.803,88.077 52.819,91.746 56.49,92.731 78.85,79.83    "/><path d="M74.814,72.846c-2.572,1.484-3.454,4.771-1.97,7.342c1.488,2.57,4.772,3.453,7.346,1.969L74.814,72.846z" fill="#242D3C"/><path d="M74.814,72.846c2.572-1.486,5.855-0.604,7.341,1.967c1.487,2.568,0.604,5.857-1.965,7.344L74.814,72.846z     " fill="#F15424"/><path d="M78.85,79.83c-1.289,0.74-2.936,0.298-3.68-0.985c-0.74-1.284-0.299-2.931,0.982-3.673     c1.289-0.74,2.937-0.299,3.679,0.984C80.564,77.442,80.128,79.086,78.85,79.83z" fill="#FFFFFF"/><path d="M78.311,78.896c-0.78,0.445-1.766,0.181-2.209-0.589c-0.445-0.775-0.182-1.761,0.588-2.204     c0.77-0.447,1.762-0.183,2.209,0.59C79.338,77.467,79.081,78.451,78.311,78.896z" fill="#2B4457"/></g></g></g></svg>